<?xml version="1.0" encoding="utf-8" standalone="no"?>
<!DOCTYPE svg PUBLIC "-//W3C//DTD SVG 1.1//EN"
  "http://www.w3.org/Graphics/SVG/1.1/DTD/svg11.dtd">
<!-- Created with matplotlib (https://matplotlib.org/) -->
<svg height="288pt" version="1.1" viewBox="0 0 432 288" width="432pt" xmlns="http://www.w3.org/2000/svg" xmlns:xlink="http://www.w3.org/1999/xlink">
 <defs>
  <style type="text/css">
*{stroke-linecap:butt;stroke-linejoin:round;}
  </style>
 </defs>
 <g id="figure_1">
  <g id="patch_1">
   <path d="M 0 288 
L 432 288 
L 432 0 
L 0 0 
z
" style="fill:#ffffff;"/>
  </g>
  <g id="axes_1">
   <g id="patch_2">
    <path d="M 60.3 218.852246 
L 421.2 218.852246 
L 421.2 41.8 
L 60.3 41.8 
z
" style="fill:#ffffff;"/>
   </g>
   <g id="patch_3">
    <path clip-path="url(#p307fe8adca)" d="M 76.704545 218.852246 
L 79.836678 218.852246 
L 79.836678 113.458686 
L 76.704545 113.458686 
z
" style="fill:#4169e1;"/>
   </g>
   <g id="patch_4">
    <path clip-path="url(#p307fe8adca)" d="M 80.619711 218.852246 
L 83.751844 218.852246 
L 83.751844 119.719257 
L 80.619711 119.719257 
z
" style="fill:#4169e1;"/>
   </g>
   <g id="patch_5">
    <path clip-path="url(#p307fe8adca)" d="M 84.534877 218.852246 
L 87.66701 218.852246 
L 87.66701 143.130581 
L 84.534877 143.130581 
z
" style="fill:#4169e1;"/>
   </g>
   <g id="patch_6">
    <path clip-path="url(#p307fe8adca)" d="M 88.450043 218.852246 
L 91.582176 218.852246 
L 91.582176 195.824038 
L 88.450043 195.824038 
z
" style="fill:#4169e1;"/>
   </g>
   <g id="patch_7">
    <path clip-path="url(#p307fe8adca)" d="M 92.365209 218.852246 
L 95.497342 218.852246 
L 95.497342 218.852246 
L 92.365209 218.852246 
z
" style="fill:#4169e1;"/>
   </g>
   <g id="patch_8">
    <path clip-path="url(#p307fe8adca)" d="M 96.280375 218.852246 
L 99.412508 218.852246 
L 99.412508 218.852246 
L 96.280375 218.852246 
z
" style="fill:#4169e1;"/>
   </g>
   <g id="patch_9">
    <path clip-path="url(#p307fe8adca)" d="M 115.856205 218.852246 
L 118.988338 218.852246 
L 118.988338 177.004131 
L 115.856205 177.004131 
z
" style="fill:#4169e1;"/>
   </g>
   <g id="patch_10">
    <path clip-path="url(#p307fe8adca)" d="M 119.771371 218.852246 
L 122.903504 218.852246 
L 122.903504 218.852246 
L 119.771371 218.852246 
z
" style="fill:#4169e1;"/>
   </g>
   <g id="patch_11">
    <path clip-path="url(#p307fe8adca)" d="M 123.686537 218.852246 
L 126.81867 218.852246 
L 126.81867 218.852246 
L 123.686537 218.852246 
z
" style="fill:#4169e1;"/>
   </g>
   <g id="patch_12">
    <path clip-path="url(#p307fe8adca)" d="M 127.601703 218.852246 
L 130.733836 218.852246 
L 130.733836 183.381253 
L 127.601703 183.381253 
z
" style="fill:#4169e1;"/>
   </g>
   <g id="patch_13">
    <path clip-path="url(#p307fe8adca)" d="M 131.516869 218.852246 
L 134.649002 218.852246 
L 134.649002 190.968338 
L 131.516869 190.968338 
z
" style="fill:#4169e1;"/>
   </g>
   <g id="patch_14">
    <path clip-path="url(#p307fe8adca)" d="M 135.432035 218.852246 
L 138.564168 218.852246 
L 138.564168 198.052386 
L 135.432035 198.052386 
z
"/>
   </g>
   <g id="patch_15">
    <path clip-path="url(#p307fe8adca)" d="M 139.347201 218.852246 
L 142.479334 218.852246 
L 142.479334 203.154008 
L 139.347201 203.154008 
z
" style="fill:#4169e1;"/>
   </g>
   <g id="patch_16">
    <path clip-path="url(#p307fe8adca)" d="M 143.262367 218.852246 
L 146.3945 218.852246 
L 146.3945 147.86542 
L 143.262367 147.86542 
z
"/>
   </g>
   <g id="patch_17">
    <path clip-path="url(#p307fe8adca)" d="M 147.177533 218.852246 
L 150.309666 218.852246 
L 150.309666 189.925574 
L 147.177533 189.925574 
z
" style="fill:#4169e1;"/>
   </g>
   <g id="patch_18">
    <path clip-path="url(#p307fe8adca)" d="M 151.092699 218.852246 
L 154.224832 218.852246 
L 154.224832 155.360046 
L 151.092699 155.360046 
z
" style="fill:#4169e1;"/>
   </g>
   <g id="patch_19">
    <path clip-path="url(#p307fe8adca)" d="M 155.007865 218.852246 
L 158.139998 218.852246 
L 158.139998 206.557033 
L 155.007865 206.557033 
z
" style="fill:#4169e1;"/>
   </g>
   <g id="patch_20">
    <path clip-path="url(#p307fe8adca)" d="M 158.923031 218.852246 
L 162.055164 218.852246 
L 162.055164 202.674302 
L 158.923031 202.674302 
z
" style="fill:#4169e1;"/>
   </g>
   <g id="patch_21">
    <path clip-path="url(#p307fe8adca)" d="M 162.838197 218.852246 
L 165.97033 218.852246 
L 165.97033 203.879593 
L 162.838197 203.879593 
z
" style="fill:#4169e1;"/>
   </g>
   <g id="patch_22">
    <path clip-path="url(#p307fe8adca)" d="M 166.753363 218.852246 
L 169.885496 218.852246 
L 169.885496 200.896987 
L 166.753363 200.896987 
z
" style="fill:#4169e1;"/>
   </g>
   <g id="patch_23">
    <path clip-path="url(#p307fe8adca)" d="M 170.668529 218.852246 
L 173.800662 218.852246 
L 173.800662 146.408679 
L 170.668529 146.408679 
z
" style="fill:#4169e1;"/>
   </g>
   <g id="patch_24">
    <path clip-path="url(#p307fe8adca)" d="M 174.583695 218.852246 
L 177.715828 218.852246 
L 177.715828 205.040899 
L 174.583695 205.040899 
z
" style="fill:#4169e1;"/>
   </g>
   <g id="patch_25">
    <path clip-path="url(#p307fe8adca)" d="M 178.498861 218.852246 
L 181.630994 218.852246 
L 181.630994 199.735404 
L 178.498861 199.735404 
z
" style="fill:#4169e1;"/>
   </g>
   <g id="patch_26">
    <path clip-path="url(#p307fe8adca)" d="M 182.414027 218.852246 
L 185.54616 218.852246 
L 185.54616 192.902557 
L 182.414027 192.902557 
z
" style="fill:#4169e1;"/>
   </g>
   <g id="patch_27">
    <path clip-path="url(#p307fe8adca)" d="M 186.329193 218.852246 
L 189.461326 218.852246 
L 189.461326 199.277525 
L 186.329193 199.277525 
z
" style="fill:#4169e1;"/>
   </g>
   <g id="patch_28">
    <path clip-path="url(#p307fe8adca)" d="M 190.244359 218.852246 
L 193.376492 218.852246 
L 193.376492 204.41184 
L 190.244359 204.41184 
z
" style="fill:#4169e1;"/>
   </g>
   <g id="patch_29">
    <path clip-path="url(#p307fe8adca)" d="M 194.159525 218.852246 
L 197.291658 218.852246 
L 197.291658 193.98389 
L 194.159525 193.98389 
z
" style="fill:#4169e1;"/>
   </g>
   <g id="patch_30">
    <path clip-path="url(#p307fe8adca)" d="M 198.074691 218.852246 
L 201.206824 218.852246 
L 201.206824 175.641757 
L 198.074691 175.641757 
z
" style="fill:#4169e1;"/>
   </g>
   <g id="patch_31">
    <path clip-path="url(#p307fe8adca)" d="M 201.989857 218.852246 
L 205.12199 218.852246 
L 205.12199 200.18864 
L 201.989857 200.18864 
z
" style="fill:#4169e1;"/>
   </g>
   <g id="patch_32">
    <path clip-path="url(#p307fe8adca)" d="M 205.905023 218.852246 
L 209.037156 218.852246 
L 209.037156 176.838242 
L 205.905023 176.838242 
z
" style="fill:#4169e1;"/>
   </g>
   <g id="patch_33">
    <path clip-path="url(#p307fe8adca)" d="M 209.820189 218.852246 
L 212.952322 218.852246 
L 212.952322 199.936915 
L 209.820189 199.936915 
z
"/>
   </g>
   <g id="patch_34">
    <path clip-path="url(#p307fe8adca)" d="M 213.735355 218.852246 
L 216.867488 218.852246 
L 216.867488 194.526488 
L 213.735355 194.526488 
z
" style="fill:#4169e1;"/>
   </g>
   <g id="patch_35">
    <path clip-path="url(#p307fe8adca)" d="M 217.650521 218.852246 
L 220.782654 218.852246 
L 220.782654 90.846028 
L 217.650521 90.846028 
z
" style="fill:#4169e1;"/>
   </g>
   <g id="patch_36">
    <path clip-path="url(#p307fe8adca)" d="M 221.565687 218.852246 
L 224.697819 218.852246 
L 224.697819 169.229392 
L 221.565687 169.229392 
z
" style="fill:#4169e1;"/>
   </g>
   <g id="patch_37">
    <path clip-path="url(#p307fe8adca)" d="M 225.480853 218.852246 
L 228.612985 218.852246 
L 228.612985 112.800483 
L 225.480853 112.800483 
z
" style="fill:#4169e1;"/>
   </g>
   <g id="patch_38">
    <path clip-path="url(#p307fe8adca)" d="M 229.396019 218.852246 
L 232.528151 218.852246 
L 232.528151 188.948293 
L 229.396019 188.948293 
z
" style="fill:#4169e1;"/>
   </g>
   <g id="patch_39">
    <path clip-path="url(#p307fe8adca)" d="M 233.311185 218.852246 
L 236.443317 218.852246 
L 236.443317 161.798649 
L 233.311185 161.798649 
z
" style="fill:#4169e1;"/>
   </g>
   <g id="patch_40">
    <path clip-path="url(#p307fe8adca)" d="M 237.226351 218.852246 
L 240.358483 218.852246 
L 240.358483 201.561571 
L 237.226351 201.561571 
z
"/>
   </g>
   <g id="patch_41">
    <path clip-path="url(#p307fe8adca)" d="M 241.141517 218.852246 
L 244.273649 218.852246 
L 244.273649 206.615698 
L 241.141517 206.615698 
z
" style="fill:#4169e1;"/>
   </g>
   <g id="patch_42">
    <path clip-path="url(#p307fe8adca)" d="M 245.056683 218.852246 
L 248.188815 218.852246 
L 248.188815 197.313523 
L 245.056683 197.313523 
z
" style="fill:#4169e1;"/>
   </g>
   <g id="patch_43">
    <path clip-path="url(#p307fe8adca)" d="M 248.971849 218.852246 
L 252.103981 218.852246 
L 252.103981 203.267912 
L 248.971849 203.267912 
z
" style="fill:#4169e1;"/>
   </g>
   <g id="patch_44">
    <path clip-path="url(#p307fe8adca)" d="M 252.887015 218.852246 
L 256.019147 218.852246 
L 256.019147 205.908019 
L 252.887015 205.908019 
z
" style="fill:#4169e1;"/>
   </g>
   <g id="patch_45">
    <path clip-path="url(#p307fe8adca)" d="M 256.802181 218.852246 
L 259.934313 218.852246 
L 259.934313 196.397304 
L 256.802181 196.397304 
z
" style="fill:#4169e1;"/>
   </g>
   <g id="patch_46">
    <path clip-path="url(#p307fe8adca)" d="M 260.717346 218.852246 
L 263.849479 218.852246 
L 263.849479 168.174838 
L 260.717346 168.174838 
z
" style="fill:#4169e1;"/>
   </g>
   <g id="patch_47">
    <path clip-path="url(#p307fe8adca)" d="M 264.632512 218.852246 
L 267.764645 218.852246 
L 267.764645 199.649788 
L 264.632512 199.649788 
z
" style="fill:#4169e1;"/>
   </g>
   <g id="patch_48">
    <path clip-path="url(#p307fe8adca)" d="M 268.547678 218.852246 
L 271.679811 218.852246 
L 271.679811 200.967271 
L 268.547678 200.967271 
z
" style="fill:#4169e1;"/>
   </g>
   <g id="patch_49">
    <path clip-path="url(#p307fe8adca)" d="M 272.462844 218.852246 
L 275.594977 218.852246 
L 275.594977 210.223979 
L 272.462844 210.223979 
z
" style="fill:#4169e1;"/>
   </g>
   <g id="patch_50">
    <path clip-path="url(#p307fe8adca)" d="M 276.37801 218.852246 
L 279.510143 218.852246 
L 279.510143 176.436661 
L 276.37801 176.436661 
z
" style="fill:#4169e1;"/>
   </g>
   <g id="patch_51">
    <path clip-path="url(#p307fe8adca)" d="M 280.293176 218.852246 
L 283.425309 218.852246 
L 283.425309 192.420293 
L 280.293176 192.420293 
z
" style="fill:#4169e1;"/>
   </g>
   <g id="patch_52">
    <path clip-path="url(#p307fe8adca)" d="M 284.208342 218.852246 
L 287.340475 218.852246 
L 287.340475 195.58333 
L 284.208342 195.58333 
z
" style="fill:#4169e1;"/>
   </g>
   <g id="patch_53">
    <path clip-path="url(#p307fe8adca)" d="M 288.123508 218.852246 
L 291.255641 218.852246 
L 291.255641 194.088852 
L 288.123508 194.088852 
z
" style="fill:#4169e1;"/>
   </g>
   <g id="patch_54">
    <path clip-path="url(#p307fe8adca)" d="M 292.038674 218.852246 
L 295.170807 218.852246 
L 295.170807 200.426077 
L 292.038674 200.426077 
z
" style="fill:#4169e1;"/>
   </g>
   <g id="patch_55">
    <path clip-path="url(#p307fe8adca)" d="M 295.95384 218.852246 
L 299.085973 218.852246 
L 299.085973 136.873886 
L 295.95384 136.873886 
z
" style="fill:#4169e1;"/>
   </g>
   <g id="patch_56">
    <path clip-path="url(#p307fe8adca)" d="M 299.869006 218.852246 
L 303.001139 218.852246 
L 303.001139 50.231059 
L 299.869006 50.231059 
z
" style="fill:#4169e1;"/>
   </g>
   <g id="patch_57">
    <path clip-path="url(#p307fe8adca)" d="M 303.784172 218.852246 
L 306.916305 218.852246 
L 306.916305 169.781285 
L 303.784172 169.781285 
z
" style="fill:#4169e1;"/>
   </g>
   <g id="patch_58">
    <path clip-path="url(#p307fe8adca)" d="M 307.699338 218.852246 
L 310.831471 218.852246 
L 310.831471 175.682654 
L 307.699338 175.682654 
z
" style="fill:#4169e1;"/>
   </g>
   <g id="patch_59">
    <path clip-path="url(#p307fe8adca)" d="M 311.614504 218.852246 
L 314.746637 218.852246 
L 314.746637 208.206673 
L 311.614504 208.206673 
z
" style="fill:#4169e1;"/>
   </g>
   <g id="patch_60">
    <path clip-path="url(#p307fe8adca)" d="M 315.52967 218.852246 
L 318.661803 218.852246 
L 318.661803 203.823415 
L 315.52967 203.823415 
z
" style="fill:#4169e1;"/>
   </g>
   <g id="patch_61">
    <path clip-path="url(#p307fe8adca)" d="M 319.444836 218.852246 
L 322.576969 218.852246 
L 322.576969 125.093352 
L 319.444836 125.093352 
z
" style="fill:#4169e1;"/>
   </g>
   <g id="patch_62">
    <path clip-path="url(#p307fe8adca)" d="M 323.360002 218.852246 
L 326.492135 218.852246 
L 326.492135 149.025739 
L 323.360002 149.025739 
z
" style="fill:#4169e1;"/>
   </g>
   <g id="patch_63">
    <path clip-path="url(#p307fe8adca)" d="M 327.275168 218.852246 
L 330.407301 218.852246 
L 330.407301 198.058941 
L 327.275168 198.058941 
z
" style="fill:#4169e1;"/>
   </g>
   <g id="patch_64">
    <path clip-path="url(#p307fe8adca)" d="M 331.190334 218.852246 
L 334.322467 218.852246 
L 334.322467 167.884549 
L 331.190334 167.884549 
z
" style="fill:#4169e1;"/>
   </g>
   <g id="patch_65">
    <path clip-path="url(#p307fe8adca)" d="M 335.1055 218.852246 
L 338.237633 218.852246 
L 338.237633 200.057628 
L 335.1055 200.057628 
z
" style="fill:#4169e1;"/>
   </g>
   <g id="patch_66">
    <path clip-path="url(#p307fe8adca)" d="M 339.020666 218.852246 
L 342.152799 218.852246 
L 342.152799 179.551846 
L 339.020666 179.551846 
z
" style="fill:#4169e1;"/>
   </g>
   <g id="patch_67">
    <path clip-path="url(#p307fe8adca)" d="M 342.935832 218.852246 
L 346.067965 218.852246 
L 346.067965 206.578565 
L 342.935832 206.578565 
z
" style="fill:#4169e1;"/>
   </g>
   <g id="patch_68">
    <path clip-path="url(#p307fe8adca)" d="M 346.850998 218.852246 
L 349.983131 218.852246 
L 349.983131 194.77931 
L 346.850998 194.77931 
z
" style="fill:#4169e1;"/>
   </g>
   <g id="patch_69">
    <path clip-path="url(#p307fe8adca)" d="M 350.766164 218.852246 
L 353.898297 218.852246 
L 353.898297 177.750646 
L 350.766164 177.750646 
z
" style="fill:#4169e1;"/>
   </g>
   <g id="patch_70">
    <path clip-path="url(#p307fe8adca)" d="M 354.68133 218.852246 
L 357.813463 218.852246 
L 357.813463 196.204132 
L 354.68133 196.204132 
z
" style="fill:#4169e1;"/>
   </g>
   <g id="patch_71">
    <path clip-path="url(#p307fe8adca)" d="M 358.596496 218.852246 
L 361.728629 218.852246 
L 361.728629 205.729434 
L 358.596496 205.729434 
z
" style="fill:#4169e1;"/>
   </g>
   <g id="patch_72">
    <path clip-path="url(#p307fe8adca)" d="M 362.511662 218.852246 
L 365.643795 218.852246 
L 365.643795 202.318299 
L 362.511662 202.318299 
z
" style="fill:#4169e1;"/>
   </g>
   <g id="patch_73">
    <path clip-path="url(#p307fe8adca)" d="M 366.426828 218.852246 
L 369.558961 218.852246 
L 369.558961 210.66309 
L 366.426828 210.66309 
z
" style="fill:#4169e1;"/>
   </g>
   <g id="patch_74">
    <path clip-path="url(#p307fe8adca)" d="M 370.341994 218.852246 
L 373.474127 218.852246 
L 373.474127 201.211213 
L 370.341994 201.211213 
z
" style="fill:#4169e1;"/>
   </g>
   <g id="patch_75">
    <path clip-path="url(#p307fe8adca)" d="M 374.25716 218.852246 
L 377.389293 218.852246 
L 377.389293 203.173647 
L 374.25716 203.173647 
z
" style="fill:#4169e1;"/>
   </g>
   <g id="patch_76">
    <path clip-path="url(#p307fe8adca)" d="M 378.172326 218.852246 
L 381.304459 218.852246 
L 381.304459 198.410314 
L 378.172326 198.410314 
z
" style="fill:#4169e1;"/>
   </g>
   <g id="patch_77">
    <path clip-path="url(#p307fe8adca)" d="M 382.087492 218.852246 
L 385.219625 218.852246 
L 385.219625 127.053356 
L 382.087492 127.053356 
z
" style="fill:#4169e1;"/>
   </g>
   <g id="patch_78">
    <path clip-path="url(#p307fe8adca)" d="M 386.002658 218.852246 
L 389.134791 218.852246 
L 389.134791 206.314617 
L 386.002658 206.314617 
z
" style="fill:#4169e1;"/>
   </g>
   <g id="patch_79">
    <path clip-path="url(#p307fe8adca)" d="M 389.917824 218.852246 
L 393.049957 218.852246 
L 393.049957 188.551927 
L 389.917824 188.551927 
z
" style="fill:#4169e1;"/>
   </g>
   <g id="patch_80">
    <path clip-path="url(#p307fe8adca)" d="M 393.83299 218.852246 
L 396.965123 218.852246 
L 396.965123 201.092975 
L 393.83299 201.092975 
z
" style="fill:#4169e1;"/>
   </g>
   <g id="patch_81">
    <path clip-path="url(#p307fe8adca)" d="M 397.748156 218.852246 
L 400.880289 218.852246 
L 400.880289 186.075364 
L 397.748156 186.075364 
z
" style="fill:#4169e1;"/>
   </g>
   <g id="patch_82">
    <path clip-path="url(#p307fe8adca)" d="M 401.663322 218.852246 
L 404.795455 218.852246 
L 404.795455 218.852246 
L 401.663322 218.852246 
z
" style="fill:#4169e1;"/>
   </g>
   <g id="matplotlib.axis_1">
    <g id="xtick_1">
     <g id="line2d_1">
      <defs>
       <path d="M 0 0 
L 0 3.5 
" id="m1398e5f16f" style="stroke:#000000;stroke-width:0.8;"/>
      </defs>
      <g>
       <use style="stroke:#000000;stroke-width:0.8;" x="74.355446" xlink:href="#m1398e5f16f" y="218.852246"/>
      </g>
     </g>
     <g id="text_1">
      <!-- 24/02/2020 -->
      <defs>
       <path d="M 19.1875 8.296875 
L 53.609375 8.296875 
L 53.609375 0 
L 7.328125 0 
L 7.328125 8.296875 
Q 12.9375 14.109375 22.625 23.890625 
Q 32.328125 33.6875 34.8125 36.53125 
Q 39.546875 41.84375 41.421875 45.53125 
Q 43.3125 49.21875 43.3125 52.78125 
Q 43.3125 58.59375 39.234375 62.25 
Q 35.15625 65.921875 28.609375 65.921875 
Q 23.96875 65.921875 18.8125 64.3125 
Q 13.671875 62.703125 7.8125 59.421875 
L 7.8125 69.390625 
Q 13.765625 71.78125 18.9375 73 
Q 24.125 74.21875 28.421875 74.21875 
Q 39.75 74.21875 46.484375 68.546875 
Q 53.21875 62.890625 53.21875 53.421875 
Q 53.21875 48.921875 51.53125 44.890625 
Q 49.859375 40.875 45.40625 35.40625 
Q 44.1875 33.984375 37.640625 27.21875 
Q 31.109375 20.453125 19.1875 8.296875 
z
" id="DejaVuSans-50"/>
       <path d="M 37.796875 64.3125 
L 12.890625 25.390625 
L 37.796875 25.390625 
z
M 35.203125 72.90625 
L 47.609375 72.90625 
L 47.609375 25.390625 
L 58.015625 25.390625 
L 58.015625 17.1875 
L 47.609375 17.1875 
L 47.609375 0 
L 37.796875 0 
L 37.796875 17.1875 
L 4.890625 17.1875 
L 4.890625 26.703125 
z
" id="DejaVuSans-52"/>
       <path d="M 25.390625 72.90625 
L 33.6875 72.90625 
L 8.296875 -9.28125 
L 0 -9.28125 
z
" id="DejaVuSans-47"/>
       <path d="M 31.78125 66.40625 
Q 24.171875 66.40625 20.328125 58.90625 
Q 16.5 51.421875 16.5 36.375 
Q 16.5 21.390625 20.328125 13.890625 
Q 24.171875 6.390625 31.78125 6.390625 
Q 39.453125 6.390625 43.28125 13.890625 
Q 47.125 21.390625 47.125 36.375 
Q 47.125 51.421875 43.28125 58.90625 
Q 39.453125 66.40625 31.78125 66.40625 
z
M 31.78125 74.21875 
Q 44.046875 74.21875 50.515625 64.515625 
Q 56.984375 54.828125 56.984375 36.375 
Q 56.984375 17.96875 50.515625 8.265625 
Q 44.046875 -1.421875 31.78125 -1.421875 
Q 19.53125 -1.421875 13.0625 8.265625 
Q 6.59375 17.96875 6.59375 36.375 
Q 6.59375 54.828125 13.0625 64.515625 
Q 19.53125 74.21875 31.78125 74.21875 
z
" id="DejaVuSans-48"/>
      </defs>
      <g transform="translate(23.400063 261.251436)rotate(-30)scale(0.1 -0.1)">
       <use xlink:href="#DejaVuSans-50"/>
       <use x="63.623047" xlink:href="#DejaVuSans-52"/>
       <use x="127.246094" xlink:href="#DejaVuSans-47"/>
       <use x="160.9375" xlink:href="#DejaVuSans-48"/>
       <use x="224.560547" xlink:href="#DejaVuSans-50"/>
       <use x="288.183594" xlink:href="#DejaVuSans-47"/>
       <use x="321.875" xlink:href="#DejaVuSans-50"/>
       <use x="385.498047" xlink:href="#DejaVuSans-48"/>
       <use x="449.121094" xlink:href="#DejaVuSans-50"/>
       <use x="512.744141" xlink:href="#DejaVuSans-48"/>
      </g>
     </g>
    </g>
    <g id="xtick_2">
     <g id="line2d_2">
      <g>
       <use style="stroke:#000000;stroke-width:0.8;" x="101.761608" xlink:href="#m1398e5f16f" y="218.852246"/>
      </g>
     </g>
     <g id="text_2">
      <!-- 02/03/2020 -->
      <defs>
       <path d="M 40.578125 39.3125 
Q 47.65625 37.796875 51.625 33 
Q 55.609375 28.21875 55.609375 21.1875 
Q 55.609375 10.40625 48.1875 4.484375 
Q 40.765625 -1.421875 27.09375 -1.421875 
Q 22.515625 -1.421875 17.65625 -0.515625 
Q 12.796875 0.390625 7.625 2.203125 
L 7.625 11.71875 
Q 11.71875 9.328125 16.59375 8.109375 
Q 21.484375 6.890625 26.8125 6.890625 
Q 36.078125 6.890625 40.9375 10.546875 
Q 45.796875 14.203125 45.796875 21.1875 
Q 45.796875 27.640625 41.28125 31.265625 
Q 36.765625 34.90625 28.71875 34.90625 
L 20.21875 34.90625 
L 20.21875 43.015625 
L 29.109375 43.015625 
Q 36.375 43.015625 40.234375 45.921875 
Q 44.09375 48.828125 44.09375 54.296875 
Q 44.09375 59.90625 40.109375 62.90625 
Q 36.140625 65.921875 28.71875 65.921875 
Q 24.65625 65.921875 20.015625 65.03125 
Q 15.375 64.15625 9.8125 62.3125 
L 9.8125 71.09375 
Q 15.4375 72.65625 20.34375 73.4375 
Q 25.25 74.21875 29.59375 74.21875 
Q 40.828125 74.21875 47.359375 69.109375 
Q 53.90625 64.015625 53.90625 55.328125 
Q 53.90625 49.265625 50.4375 45.09375 
Q 46.96875 40.921875 40.578125 39.3125 
z
" id="DejaVuSans-51"/>
      </defs>
      <g transform="translate(50.806225 261.251436)rotate(-30)scale(0.1 -0.1)">
       <use xlink:href="#DejaVuSans-48"/>
       <use x="63.623047" xlink:href="#DejaVuSans-50"/>
       <use x="127.246094" xlink:href="#DejaVuSans-47"/>
       <use x="160.9375" xlink:href="#DejaVuSans-48"/>
       <use x="224.560547" xlink:href="#DejaVuSans-51"/>
       <use x="288.183594" xlink:href="#DejaVuSans-47"/>
       <use x="321.875" xlink:href="#DejaVuSans-50"/>
       <use x="385.498047" xlink:href="#DejaVuSans-48"/>
       <use x="449.121094" xlink:href="#DejaVuSans-50"/>
       <use x="512.744141" xlink:href="#DejaVuSans-48"/>
      </g>
     </g>
    </g>
    <g id="xtick_3">
     <g id="line2d_3">
      <g>
       <use style="stroke:#000000;stroke-width:0.8;" x="129.16777" xlink:href="#m1398e5f16f" y="218.852246"/>
      </g>
     </g>
     <g id="text_3">
      <!-- 09/03/2020 -->
      <defs>
       <path d="M 10.984375 1.515625 
L 10.984375 10.5 
Q 14.703125 8.734375 18.5 7.8125 
Q 22.3125 6.890625 25.984375 6.890625 
Q 35.75 6.890625 40.890625 13.453125 
Q 46.046875 20.015625 46.78125 33.40625 
Q 43.953125 29.203125 39.59375 26.953125 
Q 35.25 24.703125 29.984375 24.703125 
Q 19.046875 24.703125 12.671875 31.3125 
Q 6.296875 37.9375 6.296875 49.421875 
Q 6.296875 60.640625 12.9375 67.421875 
Q 19.578125 74.21875 30.609375 74.21875 
Q 43.265625 74.21875 49.921875 64.515625 
Q 56.59375 54.828125 56.59375 36.375 
Q 56.59375 19.140625 48.40625 8.859375 
Q 40.234375 -1.421875 26.421875 -1.421875 
Q 22.703125 -1.421875 18.890625 -0.6875 
Q 15.09375 0.046875 10.984375 1.515625 
z
M 30.609375 32.421875 
Q 37.25 32.421875 41.125 36.953125 
Q 45.015625 41.5 45.015625 49.421875 
Q 45.015625 57.28125 41.125 61.84375 
Q 37.25 66.40625 30.609375 66.40625 
Q 23.96875 66.40625 20.09375 61.84375 
Q 16.21875 57.28125 16.21875 49.421875 
Q 16.21875 41.5 20.09375 36.953125 
Q 23.96875 32.421875 30.609375 32.421875 
z
" id="DejaVuSans-57"/>
      </defs>
      <g transform="translate(78.212387 261.251436)rotate(-30)scale(0.1 -0.1)">
       <use xlink:href="#DejaVuSans-48"/>
       <use x="63.623047" xlink:href="#DejaVuSans-57"/>
       <use x="127.246094" xlink:href="#DejaVuSans-47"/>
       <use x="160.9375" xlink:href="#DejaVuSans-48"/>
       <use x="224.560547" xlink:href="#DejaVuSans-51"/>
       <use x="288.183594" xlink:href="#DejaVuSans-47"/>
       <use x="321.875" xlink:href="#DejaVuSans-50"/>
       <use x="385.498047" xlink:href="#DejaVuSans-48"/>
       <use x="449.121094" xlink:href="#DejaVuSans-50"/>
       <use x="512.744141" xlink:href="#DejaVuSans-48"/>
      </g>
     </g>
    </g>
    <g id="xtick_4">
     <g id="line2d_4">
      <g>
       <use style="stroke:#000000;stroke-width:0.8;" x="156.573931" xlink:href="#m1398e5f16f" y="218.852246"/>
      </g>
     </g>
     <g id="text_4">
      <!-- 16/03/2020 -->
      <defs>
       <path d="M 12.40625 8.296875 
L 28.515625 8.296875 
L 28.515625 63.921875 
L 10.984375 60.40625 
L 10.984375 69.390625 
L 28.421875 72.90625 
L 38.28125 72.90625 
L 38.28125 8.296875 
L 54.390625 8.296875 
L 54.390625 0 
L 12.40625 0 
z
" id="DejaVuSans-49"/>
       <path d="M 33.015625 40.375 
Q 26.375 40.375 22.484375 35.828125 
Q 18.609375 31.296875 18.609375 23.390625 
Q 18.609375 15.53125 22.484375 10.953125 
Q 26.375 6.390625 33.015625 6.390625 
Q 39.65625 6.390625 43.53125 10.953125 
Q 47.40625 15.53125 47.40625 23.390625 
Q 47.40625 31.296875 43.53125 35.828125 
Q 39.65625 40.375 33.015625 40.375 
z
M 52.59375 71.296875 
L 52.59375 62.3125 
Q 48.875 64.0625 45.09375 64.984375 
Q 41.3125 65.921875 37.59375 65.921875 
Q 27.828125 65.921875 22.671875 59.328125 
Q 17.53125 52.734375 16.796875 39.40625 
Q 19.671875 43.65625 24.015625 45.921875 
Q 28.375 48.1875 33.59375 48.1875 
Q 44.578125 48.1875 50.953125 41.515625 
Q 57.328125 34.859375 57.328125 23.390625 
Q 57.328125 12.15625 50.6875 5.359375 
Q 44.046875 -1.421875 33.015625 -1.421875 
Q 20.359375 -1.421875 13.671875 8.265625 
Q 6.984375 17.96875 6.984375 36.375 
Q 6.984375 53.65625 15.1875 63.9375 
Q 23.390625 74.21875 37.203125 74.21875 
Q 40.921875 74.21875 44.703125 73.484375 
Q 48.484375 72.75 52.59375 71.296875 
z
" id="DejaVuSans-54"/>
      </defs>
      <g transform="translate(105.618548 261.251436)rotate(-30)scale(0.1 -0.1)">
       <use xlink:href="#DejaVuSans-49"/>
       <use x="63.623047" xlink:href="#DejaVuSans-54"/>
       <use x="127.246094" xlink:href="#DejaVuSans-47"/>
       <use x="160.9375" xlink:href="#DejaVuSans-48"/>
       <use x="224.560547" xlink:href="#DejaVuSans-51"/>
       <use x="288.183594" xlink:href="#DejaVuSans-47"/>
       <use x="321.875" xlink:href="#DejaVuSans-50"/>
       <use x="385.498047" xlink:href="#DejaVuSans-48"/>
       <use x="449.121094" xlink:href="#DejaVuSans-50"/>
       <use x="512.744141" xlink:href="#DejaVuSans-48"/>
      </g>
     </g>
    </g>
    <g id="xtick_5">
     <g id="line2d_5">
      <g>
       <use style="stroke:#000000;stroke-width:0.8;" x="183.980093" xlink:href="#m1398e5f16f" y="218.852246"/>
      </g>
     </g>
     <g id="text_5">
      <!-- 23/03/2020 -->
      <g transform="translate(133.02471 261.251436)rotate(-30)scale(0.1 -0.1)">
       <use xlink:href="#DejaVuSans-50"/>
       <use x="63.623047" xlink:href="#DejaVuSans-51"/>
       <use x="127.246094" xlink:href="#DejaVuSans-47"/>
       <use x="160.9375" xlink:href="#DejaVuSans-48"/>
       <use x="224.560547" xlink:href="#DejaVuSans-51"/>
       <use x="288.183594" xlink:href="#DejaVuSans-47"/>
       <use x="321.875" xlink:href="#DejaVuSans-50"/>
       <use x="385.498047" xlink:href="#DejaVuSans-48"/>
       <use x="449.121094" xlink:href="#DejaVuSans-50"/>
       <use x="512.744141" xlink:href="#DejaVuSans-48"/>
      </g>
     </g>
    </g>
    <g id="xtick_6">
     <g id="line2d_6">
      <g>
       <use style="stroke:#000000;stroke-width:0.8;" x="211.386255" xlink:href="#m1398e5f16f" y="218.852246"/>
      </g>
     </g>
     <g id="text_6">
      <!-- 30/03/2020 -->
      <g transform="translate(160.430872 261.251436)rotate(-30)scale(0.1 -0.1)">
       <use xlink:href="#DejaVuSans-51"/>
       <use x="63.623047" xlink:href="#DejaVuSans-48"/>
       <use x="127.246094" xlink:href="#DejaVuSans-47"/>
       <use x="160.9375" xlink:href="#DejaVuSans-48"/>
       <use x="224.560547" xlink:href="#DejaVuSans-51"/>
       <use x="288.183594" xlink:href="#DejaVuSans-47"/>
       <use x="321.875" xlink:href="#DejaVuSans-50"/>
       <use x="385.498047" xlink:href="#DejaVuSans-48"/>
       <use x="449.121094" xlink:href="#DejaVuSans-50"/>
       <use x="512.744141" xlink:href="#DejaVuSans-48"/>
      </g>
     </g>
    </g>
    <g id="xtick_7">
     <g id="line2d_7">
      <g>
       <use style="stroke:#000000;stroke-width:0.8;" x="238.792417" xlink:href="#m1398e5f16f" y="218.852246"/>
      </g>
     </g>
     <g id="text_7">
      <!-- 06/04/2020 -->
      <g transform="translate(187.837034 261.251436)rotate(-30)scale(0.1 -0.1)">
       <use xlink:href="#DejaVuSans-48"/>
       <use x="63.623047" xlink:href="#DejaVuSans-54"/>
       <use x="127.246094" xlink:href="#DejaVuSans-47"/>
       <use x="160.9375" xlink:href="#DejaVuSans-48"/>
       <use x="224.560547" xlink:href="#DejaVuSans-52"/>
       <use x="288.183594" xlink:href="#DejaVuSans-47"/>
       <use x="321.875" xlink:href="#DejaVuSans-50"/>
       <use x="385.498047" xlink:href="#DejaVuSans-48"/>
       <use x="449.121094" xlink:href="#DejaVuSans-50"/>
       <use x="512.744141" xlink:href="#DejaVuSans-48"/>
      </g>
     </g>
    </g>
    <g id="xtick_8">
     <g id="line2d_8">
      <g>
       <use style="stroke:#000000;stroke-width:0.8;" x="266.198579" xlink:href="#m1398e5f16f" y="218.852246"/>
      </g>
     </g>
     <g id="text_8">
      <!-- 13/04/2020 -->
      <g transform="translate(215.243196 261.251436)rotate(-30)scale(0.1 -0.1)">
       <use xlink:href="#DejaVuSans-49"/>
       <use x="63.623047" xlink:href="#DejaVuSans-51"/>
       <use x="127.246094" xlink:href="#DejaVuSans-47"/>
       <use x="160.9375" xlink:href="#DejaVuSans-48"/>
       <use x="224.560547" xlink:href="#DejaVuSans-52"/>
       <use x="288.183594" xlink:href="#DejaVuSans-47"/>
       <use x="321.875" xlink:href="#DejaVuSans-50"/>
       <use x="385.498047" xlink:href="#DejaVuSans-48"/>
       <use x="449.121094" xlink:href="#DejaVuSans-50"/>
       <use x="512.744141" xlink:href="#DejaVuSans-48"/>
      </g>
     </g>
    </g>
    <g id="xtick_9">
     <g id="line2d_9">
      <g>
       <use style="stroke:#000000;stroke-width:0.8;" x="293.604741" xlink:href="#m1398e5f16f" y="218.852246"/>
      </g>
     </g>
     <g id="text_9">
      <!-- 20/04/2020 -->
      <g transform="translate(242.649358 261.251436)rotate(-30)scale(0.1 -0.1)">
       <use xlink:href="#DejaVuSans-50"/>
       <use x="63.623047" xlink:href="#DejaVuSans-48"/>
       <use x="127.246094" xlink:href="#DejaVuSans-47"/>
       <use x="160.9375" xlink:href="#DejaVuSans-48"/>
       <use x="224.560547" xlink:href="#DejaVuSans-52"/>
       <use x="288.183594" xlink:href="#DejaVuSans-47"/>
       <use x="321.875" xlink:href="#DejaVuSans-50"/>
       <use x="385.498047" xlink:href="#DejaVuSans-48"/>
       <use x="449.121094" xlink:href="#DejaVuSans-50"/>
       <use x="512.744141" xlink:href="#DejaVuSans-48"/>
      </g>
     </g>
    </g>
    <g id="xtick_10">
     <g id="line2d_10">
      <g>
       <use style="stroke:#000000;stroke-width:0.8;" x="321.010903" xlink:href="#m1398e5f16f" y="218.852246"/>
      </g>
     </g>
     <g id="text_10">
      <!-- 27/04/2020 -->
      <defs>
       <path d="M 8.203125 72.90625 
L 55.078125 72.90625 
L 55.078125 68.703125 
L 28.609375 0 
L 18.3125 0 
L 43.21875 64.59375 
L 8.203125 64.59375 
z
" id="DejaVuSans-55"/>
      </defs>
      <g transform="translate(270.05552 261.251436)rotate(-30)scale(0.1 -0.1)">
       <use xlink:href="#DejaVuSans-50"/>
       <use x="63.623047" xlink:href="#DejaVuSans-55"/>
       <use x="127.246094" xlink:href="#DejaVuSans-47"/>
       <use x="160.9375" xlink:href="#DejaVuSans-48"/>
       <use x="224.560547" xlink:href="#DejaVuSans-52"/>
       <use x="288.183594" xlink:href="#DejaVuSans-47"/>
       <use x="321.875" xlink:href="#DejaVuSans-50"/>
       <use x="385.498047" xlink:href="#DejaVuSans-48"/>
       <use x="449.121094" xlink:href="#DejaVuSans-50"/>
       <use x="512.744141" xlink:href="#DejaVuSans-48"/>
      </g>
     </g>
    </g>
    <g id="xtick_11">
     <g id="line2d_11">
      <g>
       <use style="stroke:#000000;stroke-width:0.8;" x="348.417064" xlink:href="#m1398e5f16f" y="218.852246"/>
      </g>
     </g>
     <g id="text_11">
      <!-- 04/05/2020 -->
      <defs>
       <path d="M 10.796875 72.90625 
L 49.515625 72.90625 
L 49.515625 64.59375 
L 19.828125 64.59375 
L 19.828125 46.734375 
Q 21.96875 47.46875 24.109375 47.828125 
Q 26.265625 48.1875 28.421875 48.1875 
Q 40.625 48.1875 47.75 41.5 
Q 54.890625 34.8125 54.890625 23.390625 
Q 54.890625 11.625 47.5625 5.09375 
Q 40.234375 -1.421875 26.90625 -1.421875 
Q 22.3125 -1.421875 17.546875 -0.640625 
Q 12.796875 0.140625 7.71875 1.703125 
L 7.71875 11.625 
Q 12.109375 9.234375 16.796875 8.0625 
Q 21.484375 6.890625 26.703125 6.890625 
Q 35.15625 6.890625 40.078125 11.328125 
Q 45.015625 15.765625 45.015625 23.390625 
Q 45.015625 31 40.078125 35.4375 
Q 35.15625 39.890625 26.703125 39.890625 
Q 22.75 39.890625 18.8125 39.015625 
Q 14.890625 38.140625 10.796875 36.28125 
z
" id="DejaVuSans-53"/>
      </defs>
      <g transform="translate(297.461681 261.251436)rotate(-30)scale(0.1 -0.1)">
       <use xlink:href="#DejaVuSans-48"/>
       <use x="63.623047" xlink:href="#DejaVuSans-52"/>
       <use x="127.246094" xlink:href="#DejaVuSans-47"/>
       <use x="160.9375" xlink:href="#DejaVuSans-48"/>
       <use x="224.560547" xlink:href="#DejaVuSans-53"/>
       <use x="288.183594" xlink:href="#DejaVuSans-47"/>
       <use x="321.875" xlink:href="#DejaVuSans-50"/>
       <use x="385.498047" xlink:href="#DejaVuSans-48"/>
       <use x="449.121094" xlink:href="#DejaVuSans-50"/>
       <use x="512.744141" xlink:href="#DejaVuSans-48"/>
      </g>
     </g>
    </g>
    <g id="xtick_12">
     <g id="line2d_12">
      <g>
       <use style="stroke:#000000;stroke-width:0.8;" x="375.823226" xlink:href="#m1398e5f16f" y="218.852246"/>
      </g>
     </g>
     <g id="text_12">
      <!-- 11/05/2020 -->
      <g transform="translate(324.867843 261.251436)rotate(-30)scale(0.1 -0.1)">
       <use xlink:href="#DejaVuSans-49"/>
       <use x="63.623047" xlink:href="#DejaVuSans-49"/>
       <use x="127.246094" xlink:href="#DejaVuSans-47"/>
       <use x="160.9375" xlink:href="#DejaVuSans-48"/>
       <use x="224.560547" xlink:href="#DejaVuSans-53"/>
       <use x="288.183594" xlink:href="#DejaVuSans-47"/>
       <use x="321.875" xlink:href="#DejaVuSans-50"/>
       <use x="385.498047" xlink:href="#DejaVuSans-48"/>
       <use x="449.121094" xlink:href="#DejaVuSans-50"/>
       <use x="512.744141" xlink:href="#DejaVuSans-48"/>
      </g>
     </g>
    </g>
    <g id="xtick_13">
     <g id="line2d_13">
      <g>
       <use style="stroke:#000000;stroke-width:0.8;" x="403.229388" xlink:href="#m1398e5f16f" y="218.852246"/>
      </g>
     </g>
     <g id="text_13">
      <!-- 18/05/2020 -->
      <defs>
       <path d="M 31.78125 34.625 
Q 24.75 34.625 20.71875 30.859375 
Q 16.703125 27.09375 16.703125 20.515625 
Q 16.703125 13.921875 20.71875 10.15625 
Q 24.75 6.390625 31.78125 6.390625 
Q 38.8125 6.390625 42.859375 10.171875 
Q 46.921875 13.96875 46.921875 20.515625 
Q 46.921875 27.09375 42.890625 30.859375 
Q 38.875 34.625 31.78125 34.625 
z
M 21.921875 38.8125 
Q 15.578125 40.375 12.03125 44.71875 
Q 8.5 49.078125 8.5 55.328125 
Q 8.5 64.0625 14.71875 69.140625 
Q 20.953125 74.21875 31.78125 74.21875 
Q 42.671875 74.21875 48.875 69.140625 
Q 55.078125 64.0625 55.078125 55.328125 
Q 55.078125 49.078125 51.53125 44.71875 
Q 48 40.375 41.703125 38.8125 
Q 48.828125 37.15625 52.796875 32.3125 
Q 56.78125 27.484375 56.78125 20.515625 
Q 56.78125 9.90625 50.3125 4.234375 
Q 43.84375 -1.421875 31.78125 -1.421875 
Q 19.734375 -1.421875 13.25 4.234375 
Q 6.78125 9.90625 6.78125 20.515625 
Q 6.78125 27.484375 10.78125 32.3125 
Q 14.796875 37.15625 21.921875 38.8125 
z
M 18.3125 54.390625 
Q 18.3125 48.734375 21.84375 45.5625 
Q 25.390625 42.390625 31.78125 42.390625 
Q 38.140625 42.390625 41.71875 45.5625 
Q 45.3125 48.734375 45.3125 54.390625 
Q 45.3125 60.0625 41.71875 63.234375 
Q 38.140625 66.40625 31.78125 66.40625 
Q 25.390625 66.40625 21.84375 63.234375 
Q 18.3125 60.0625 18.3125 54.390625 
z
" id="DejaVuSans-56"/>
      </defs>
      <g transform="translate(352.274005 261.251436)rotate(-30)scale(0.1 -0.1)">
       <use xlink:href="#DejaVuSans-49"/>
       <use x="63.623047" xlink:href="#DejaVuSans-56"/>
       <use x="127.246094" xlink:href="#DejaVuSans-47"/>
       <use x="160.9375" xlink:href="#DejaVuSans-48"/>
       <use x="224.560547" xlink:href="#DejaVuSans-53"/>
       <use x="288.183594" xlink:href="#DejaVuSans-47"/>
       <use x="321.875" xlink:href="#DejaVuSans-50"/>
       <use x="385.498047" xlink:href="#DejaVuSans-48"/>
       <use x="449.121094" xlink:href="#DejaVuSans-50"/>
       <use x="512.744141" xlink:href="#DejaVuSans-48"/>
      </g>
     </g>
    </g>
    <g id="text_14">
     <!-- Day -->
     <defs>
      <path d="M 19.671875 64.796875 
L 19.671875 8.109375 
L 31.59375 8.109375 
Q 46.6875 8.109375 53.6875 14.9375 
Q 60.6875 21.78125 60.6875 36.53125 
Q 60.6875 51.171875 53.6875 57.984375 
Q 46.6875 64.796875 31.59375 64.796875 
z
M 9.8125 72.90625 
L 30.078125 72.90625 
Q 51.265625 72.90625 61.171875 64.09375 
Q 71.09375 55.28125 71.09375 36.53125 
Q 71.09375 17.671875 61.125 8.828125 
Q 51.171875 0 30.078125 0 
L 9.8125 0 
z
" id="DejaVuSans-68"/>
      <path d="M 34.28125 27.484375 
Q 23.390625 27.484375 19.1875 25 
Q 14.984375 22.515625 14.984375 16.5 
Q 14.984375 11.71875 18.140625 8.90625 
Q 21.296875 6.109375 26.703125 6.109375 
Q 34.1875 6.109375 38.703125 11.40625 
Q 43.21875 16.703125 43.21875 25.484375 
L 43.21875 27.484375 
z
M 52.203125 31.203125 
L 52.203125 0 
L 43.21875 0 
L 43.21875 8.296875 
Q 40.140625 3.328125 35.546875 0.953125 
Q 30.953125 -1.421875 24.3125 -1.421875 
Q 15.921875 -1.421875 10.953125 3.296875 
Q 6 8.015625 6 15.921875 
Q 6 25.140625 12.171875 29.828125 
Q 18.359375 34.515625 30.609375 34.515625 
L 43.21875 34.515625 
L 43.21875 35.40625 
Q 43.21875 41.609375 39.140625 45 
Q 35.0625 48.390625 27.6875 48.390625 
Q 23 48.390625 18.546875 47.265625 
Q 14.109375 46.140625 10.015625 43.890625 
L 10.015625 52.203125 
Q 14.9375 54.109375 19.578125 55.046875 
Q 24.21875 56 28.609375 56 
Q 40.484375 56 46.34375 49.84375 
Q 52.203125 43.703125 52.203125 31.203125 
z
" id="DejaVuSans-97"/>
      <path d="M 32.171875 -5.078125 
Q 28.375 -14.84375 24.75 -17.8125 
Q 21.140625 -20.796875 15.09375 -20.796875 
L 7.90625 -20.796875 
L 7.90625 -13.28125 
L 13.1875 -13.28125 
Q 16.890625 -13.28125 18.9375 -11.515625 
Q 21 -9.765625 23.484375 -3.21875 
L 25.09375 0.875 
L 2.984375 54.6875 
L 12.5 54.6875 
L 29.59375 11.921875 
L 46.6875 54.6875 
L 56.203125 54.6875 
z
" id="DejaVuSans-121"/>
     </defs>
     <g transform="translate(230.876563 274.650936)scale(0.1 -0.1)">
      <use xlink:href="#DejaVuSans-68"/>
      <use x="77.001953" xlink:href="#DejaVuSans-97"/>
      <use x="138.28125" xlink:href="#DejaVuSans-121"/>
     </g>
    </g>
   </g>
   <g id="matplotlib.axis_2">
    <g id="ytick_1">
     <g id="line2d_14">
      <defs>
       <path d="M 0 0 
L -3.5 0 
" id="mb3f3113276" style="stroke:#000000;stroke-width:0.8;"/>
      </defs>
      <g>
       <use style="stroke:#000000;stroke-width:0.8;" x="60.3" xlink:href="#mb3f3113276" y="218.852246"/>
      </g>
     </g>
     <g id="text_15">
      <!-- 0.000 -->
      <defs>
       <path d="M 10.6875 12.40625 
L 21 12.40625 
L 21 0 
L 10.6875 0 
z
" id="DejaVuSans-46"/>
      </defs>
      <g transform="translate(24.671875 222.651465)scale(0.1 -0.1)">
       <use xlink:href="#DejaVuSans-48"/>
       <use x="63.623047" xlink:href="#DejaVuSans-46"/>
       <use x="95.410156" xlink:href="#DejaVuSans-48"/>
       <use x="159.033203" xlink:href="#DejaVuSans-48"/>
       <use x="222.65625" xlink:href="#DejaVuSans-48"/>
      </g>
     </g>
    </g>
    <g id="ytick_2">
     <g id="line2d_15">
      <g>
       <use style="stroke:#000000;stroke-width:0.8;" x="60.3" xlink:href="#mb3f3113276" y="192.355414"/>
      </g>
     </g>
     <g id="text_16">
      <!-- 0.002 -->
      <g transform="translate(24.671875 196.154633)scale(0.1 -0.1)">
       <use xlink:href="#DejaVuSans-48"/>
       <use x="63.623047" xlink:href="#DejaVuSans-46"/>
       <use x="95.410156" xlink:href="#DejaVuSans-48"/>
       <use x="159.033203" xlink:href="#DejaVuSans-48"/>
       <use x="222.65625" xlink:href="#DejaVuSans-50"/>
      </g>
     </g>
    </g>
    <g id="ytick_3">
     <g id="line2d_16">
      <g>
       <use style="stroke:#000000;stroke-width:0.8;" x="60.3" xlink:href="#mb3f3113276" y="165.858583"/>
      </g>
     </g>
     <g id="text_17">
      <!-- 0.004 -->
      <g transform="translate(24.671875 169.657801)scale(0.1 -0.1)">
       <use xlink:href="#DejaVuSans-48"/>
       <use x="63.623047" xlink:href="#DejaVuSans-46"/>
       <use x="95.410156" xlink:href="#DejaVuSans-48"/>
       <use x="159.033203" xlink:href="#DejaVuSans-48"/>
       <use x="222.65625" xlink:href="#DejaVuSans-52"/>
      </g>
     </g>
    </g>
    <g id="ytick_4">
     <g id="line2d_17">
      <g>
       <use style="stroke:#000000;stroke-width:0.8;" x="60.3" xlink:href="#mb3f3113276" y="139.361751"/>
      </g>
     </g>
     <g id="text_18">
      <!-- 0.006 -->
      <g transform="translate(24.671875 143.16097)scale(0.1 -0.1)">
       <use xlink:href="#DejaVuSans-48"/>
       <use x="63.623047" xlink:href="#DejaVuSans-46"/>
       <use x="95.410156" xlink:href="#DejaVuSans-48"/>
       <use x="159.033203" xlink:href="#DejaVuSans-48"/>
       <use x="222.65625" xlink:href="#DejaVuSans-54"/>
      </g>
     </g>
    </g>
    <g id="ytick_5">
     <g id="line2d_18">
      <g>
       <use style="stroke:#000000;stroke-width:0.8;" x="60.3" xlink:href="#mb3f3113276" y="112.864919"/>
      </g>
     </g>
     <g id="text_19">
      <!-- 0.008 -->
      <g transform="translate(24.671875 116.664138)scale(0.1 -0.1)">
       <use xlink:href="#DejaVuSans-48"/>
       <use x="63.623047" xlink:href="#DejaVuSans-46"/>
       <use x="95.410156" xlink:href="#DejaVuSans-48"/>
       <use x="159.033203" xlink:href="#DejaVuSans-48"/>
       <use x="222.65625" xlink:href="#DejaVuSans-56"/>
      </g>
     </g>
    </g>
    <g id="ytick_6">
     <g id="line2d_19">
      <g>
       <use style="stroke:#000000;stroke-width:0.8;" x="60.3" xlink:href="#mb3f3113276" y="86.368088"/>
      </g>
     </g>
     <g id="text_20">
      <!-- 0.010 -->
      <g transform="translate(24.671875 90.167306)scale(0.1 -0.1)">
       <use xlink:href="#DejaVuSans-48"/>
       <use x="63.623047" xlink:href="#DejaVuSans-46"/>
       <use x="95.410156" xlink:href="#DejaVuSans-48"/>
       <use x="159.033203" xlink:href="#DejaVuSans-49"/>
       <use x="222.65625" xlink:href="#DejaVuSans-48"/>
      </g>
     </g>
    </g>
    <g id="ytick_7">
     <g id="line2d_20">
      <g>
       <use style="stroke:#000000;stroke-width:0.8;" x="60.3" xlink:href="#mb3f3113276" y="59.871256"/>
      </g>
     </g>
     <g id="text_21">
      <!-- 0.012 -->
      <g transform="translate(24.671875 63.670475)scale(0.1 -0.1)">
       <use xlink:href="#DejaVuSans-48"/>
       <use x="63.623047" xlink:href="#DejaVuSans-46"/>
       <use x="95.410156" xlink:href="#DejaVuSans-48"/>
       <use x="159.033203" xlink:href="#DejaVuSans-49"/>
       <use x="222.65625" xlink:href="#DejaVuSans-50"/>
      </g>
     </g>
    </g>
    <g id="text_22">
     <!-- Relative frequency -->
     <defs>
      <path d="M 44.390625 34.1875 
Q 47.5625 33.109375 50.5625 29.59375 
Q 53.5625 26.078125 56.59375 19.921875 
L 66.609375 0 
L 56 0 
L 46.6875 18.703125 
Q 43.0625 26.03125 39.671875 28.421875 
Q 36.28125 30.8125 30.421875 30.8125 
L 19.671875 30.8125 
L 19.671875 0 
L 9.8125 0 
L 9.8125 72.90625 
L 32.078125 72.90625 
Q 44.578125 72.90625 50.734375 67.671875 
Q 56.890625 62.453125 56.890625 51.90625 
Q 56.890625 45.015625 53.6875 40.46875 
Q 50.484375 35.9375 44.390625 34.1875 
z
M 19.671875 64.796875 
L 19.671875 38.921875 
L 32.078125 38.921875 
Q 39.203125 38.921875 42.84375 42.21875 
Q 46.484375 45.515625 46.484375 51.90625 
Q 46.484375 58.296875 42.84375 61.546875 
Q 39.203125 64.796875 32.078125 64.796875 
z
" id="DejaVuSans-82"/>
      <path d="M 56.203125 29.59375 
L 56.203125 25.203125 
L 14.890625 25.203125 
Q 15.484375 15.921875 20.484375 11.0625 
Q 25.484375 6.203125 34.421875 6.203125 
Q 39.59375 6.203125 44.453125 7.46875 
Q 49.3125 8.734375 54.109375 11.28125 
L 54.109375 2.78125 
Q 49.265625 0.734375 44.1875 -0.34375 
Q 39.109375 -1.421875 33.890625 -1.421875 
Q 20.796875 -1.421875 13.15625 6.1875 
Q 5.515625 13.8125 5.515625 26.8125 
Q 5.515625 40.234375 12.765625 48.109375 
Q 20.015625 56 32.328125 56 
Q 43.359375 56 49.78125 48.890625 
Q 56.203125 41.796875 56.203125 29.59375 
z
M 47.21875 32.234375 
Q 47.125 39.59375 43.09375 43.984375 
Q 39.0625 48.390625 32.421875 48.390625 
Q 24.90625 48.390625 20.390625 44.140625 
Q 15.875 39.890625 15.1875 32.171875 
z
" id="DejaVuSans-101"/>
      <path d="M 9.421875 75.984375 
L 18.40625 75.984375 
L 18.40625 0 
L 9.421875 0 
z
" id="DejaVuSans-108"/>
      <path d="M 18.3125 70.21875 
L 18.3125 54.6875 
L 36.8125 54.6875 
L 36.8125 47.703125 
L 18.3125 47.703125 
L 18.3125 18.015625 
Q 18.3125 11.328125 20.140625 9.421875 
Q 21.96875 7.515625 27.59375 7.515625 
L 36.8125 7.515625 
L 36.8125 0 
L 27.59375 0 
Q 17.1875 0 13.234375 3.875 
Q 9.28125 7.765625 9.28125 18.015625 
L 9.28125 47.703125 
L 2.6875 47.703125 
L 2.6875 54.6875 
L 9.28125 54.6875 
L 9.28125 70.21875 
z
" id="DejaVuSans-116"/>
      <path d="M 9.421875 54.6875 
L 18.40625 54.6875 
L 18.40625 0 
L 9.421875 0 
z
M 9.421875 75.984375 
L 18.40625 75.984375 
L 18.40625 64.59375 
L 9.421875 64.59375 
z
" id="DejaVuSans-105"/>
      <path d="M 2.984375 54.6875 
L 12.5 54.6875 
L 29.59375 8.796875 
L 46.6875 54.6875 
L 56.203125 54.6875 
L 35.6875 0 
L 23.484375 0 
z
" id="DejaVuSans-118"/>
      <path id="DejaVuSans-32"/>
      <path d="M 37.109375 75.984375 
L 37.109375 68.5 
L 28.515625 68.5 
Q 23.6875 68.5 21.796875 66.546875 
Q 19.921875 64.59375 19.921875 59.515625 
L 19.921875 54.6875 
L 34.71875 54.6875 
L 34.71875 47.703125 
L 19.921875 47.703125 
L 19.921875 0 
L 10.890625 0 
L 10.890625 47.703125 
L 2.296875 47.703125 
L 2.296875 54.6875 
L 10.890625 54.6875 
L 10.890625 58.5 
Q 10.890625 67.625 15.140625 71.796875 
Q 19.390625 75.984375 28.609375 75.984375 
z
" id="DejaVuSans-102"/>
      <path d="M 41.109375 46.296875 
Q 39.59375 47.171875 37.8125 47.578125 
Q 36.03125 48 33.890625 48 
Q 26.265625 48 22.1875 43.046875 
Q 18.109375 38.09375 18.109375 28.8125 
L 18.109375 0 
L 9.078125 0 
L 9.078125 54.6875 
L 18.109375 54.6875 
L 18.109375 46.1875 
Q 20.953125 51.171875 25.484375 53.578125 
Q 30.03125 56 36.53125 56 
Q 37.453125 56 38.578125 55.875 
Q 39.703125 55.765625 41.0625 55.515625 
z
" id="DejaVuSans-114"/>
      <path d="M 14.796875 27.296875 
Q 14.796875 17.390625 18.875 11.75 
Q 22.953125 6.109375 30.078125 6.109375 
Q 37.203125 6.109375 41.296875 11.75 
Q 45.40625 17.390625 45.40625 27.296875 
Q 45.40625 37.203125 41.296875 42.84375 
Q 37.203125 48.484375 30.078125 48.484375 
Q 22.953125 48.484375 18.875 42.84375 
Q 14.796875 37.203125 14.796875 27.296875 
z
M 45.40625 8.203125 
Q 42.578125 3.328125 38.25 0.953125 
Q 33.9375 -1.421875 27.875 -1.421875 
Q 17.96875 -1.421875 11.734375 6.484375 
Q 5.515625 14.40625 5.515625 27.296875 
Q 5.515625 40.1875 11.734375 48.09375 
Q 17.96875 56 27.875 56 
Q 33.9375 56 38.25 53.625 
Q 42.578125 51.265625 45.40625 46.390625 
L 45.40625 54.6875 
L 54.390625 54.6875 
L 54.390625 -20.796875 
L 45.40625 -20.796875 
z
" id="DejaVuSans-113"/>
      <path d="M 8.5 21.578125 
L 8.5 54.6875 
L 17.484375 54.6875 
L 17.484375 21.921875 
Q 17.484375 14.15625 20.5 10.265625 
Q 23.53125 6.390625 29.59375 6.390625 
Q 36.859375 6.390625 41.078125 11.03125 
Q 45.3125 15.671875 45.3125 23.6875 
L 45.3125 54.6875 
L 54.296875 54.6875 
L 54.296875 0 
L 45.3125 0 
L 45.3125 8.40625 
Q 42.046875 3.421875 37.71875 1 
Q 33.40625 -1.421875 27.6875 -1.421875 
Q 18.265625 -1.421875 13.375 4.4375 
Q 8.5 10.296875 8.5 21.578125 
z
M 31.109375 56 
z
" id="DejaVuSans-117"/>
      <path d="M 54.890625 33.015625 
L 54.890625 0 
L 45.90625 0 
L 45.90625 32.71875 
Q 45.90625 40.484375 42.875 44.328125 
Q 39.84375 48.1875 33.796875 48.1875 
Q 26.515625 48.1875 22.3125 43.546875 
Q 18.109375 38.921875 18.109375 30.90625 
L 18.109375 0 
L 9.078125 0 
L 9.078125 54.6875 
L 18.109375 54.6875 
L 18.109375 46.1875 
Q 21.34375 51.125 25.703125 53.5625 
Q 30.078125 56 35.796875 56 
Q 45.21875 56 50.046875 50.171875 
Q 54.890625 44.34375 54.890625 33.015625 
z
" id="DejaVuSans-110"/>
      <path d="M 48.78125 52.59375 
L 48.78125 44.1875 
Q 44.96875 46.296875 41.140625 47.34375 
Q 37.3125 48.390625 33.40625 48.390625 
Q 24.65625 48.390625 19.8125 42.84375 
Q 14.984375 37.3125 14.984375 27.296875 
Q 14.984375 17.28125 19.8125 11.734375 
Q 24.65625 6.203125 33.40625 6.203125 
Q 37.3125 6.203125 41.140625 7.25 
Q 44.96875 8.296875 48.78125 10.40625 
L 48.78125 2.09375 
Q 45.015625 0.34375 40.984375 -0.53125 
Q 36.96875 -1.421875 32.421875 -1.421875 
Q 20.0625 -1.421875 12.78125 6.34375 
Q 5.515625 14.109375 5.515625 27.296875 
Q 5.515625 40.671875 12.859375 48.328125 
Q 20.21875 56 33.015625 56 
Q 37.15625 56 41.109375 55.140625 
Q 45.0625 54.296875 48.78125 52.59375 
z
" id="DejaVuSans-99"/>
     </defs>
     <g transform="translate(18.592188 177.15581)rotate(-90)scale(0.1 -0.1)">
      <use xlink:href="#DejaVuSans-82"/>
      <use x="64.982422" xlink:href="#DejaVuSans-101"/>
      <use x="126.505859" xlink:href="#DejaVuSans-108"/>
      <use x="154.289062" xlink:href="#DejaVuSans-97"/>
      <use x="215.568359" xlink:href="#DejaVuSans-116"/>
      <use x="254.777344" xlink:href="#DejaVuSans-105"/>
      <use x="282.560547" xlink:href="#DejaVuSans-118"/>
      <use x="341.740234" xlink:href="#DejaVuSans-101"/>
      <use x="403.263672" xlink:href="#DejaVuSans-32"/>
      <use x="435.050781" xlink:href="#DejaVuSans-102"/>
      <use x="470.255859" xlink:href="#DejaVuSans-114"/>
      <use x="509.119141" xlink:href="#DejaVuSans-101"/>
      <use x="570.642578" xlink:href="#DejaVuSans-113"/>
      <use x="634.119141" xlink:href="#DejaVuSans-117"/>
      <use x="697.498047" xlink:href="#DejaVuSans-101"/>
      <use x="759.021484" xlink:href="#DejaVuSans-110"/>
      <use x="822.400391" xlink:href="#DejaVuSans-99"/>
      <use x="877.380859" xlink:href="#DejaVuSans-121"/>
     </g>
    </g>
   </g>
   <g id="patch_83">
    <path d="M 60.3 218.852246 
L 60.3 41.8 
" style="fill:none;stroke:#000000;stroke-linecap:square;stroke-linejoin:miter;stroke-width:0.8;"/>
   </g>
   <g id="patch_84">
    <path d="M 421.2 218.852246 
L 421.2 41.8 
" style="fill:none;stroke:#000000;stroke-linecap:square;stroke-linejoin:miter;stroke-width:0.8;"/>
   </g>
   <g id="patch_85">
    <path d="M 60.3 218.852246 
L 421.2 218.852246 
" style="fill:none;stroke:#000000;stroke-linecap:square;stroke-linejoin:miter;stroke-width:0.8;"/>
   </g>
   <g id="patch_86">
    <path d="M 60.3 41.8 
L 421.2 41.8 
" style="fill:none;stroke:#000000;stroke-linecap:square;stroke-linejoin:miter;stroke-width:0.8;"/>
   </g>
   <g id="text_23">
    <!-- Narrative: "Refugees"  -->
    <defs>
     <path d="M 9.8125 72.90625 
L 23.09375 72.90625 
L 55.421875 11.921875 
L 55.421875 72.90625 
L 64.984375 72.90625 
L 64.984375 0 
L 51.703125 0 
L 19.390625 60.984375 
L 19.390625 0 
L 9.8125 0 
z
" id="DejaVuSans-78"/>
     <path d="M 11.71875 12.40625 
L 22.015625 12.40625 
L 22.015625 0 
L 11.71875 0 
z
M 11.71875 51.703125 
L 22.015625 51.703125 
L 22.015625 39.3125 
L 11.71875 39.3125 
z
" id="DejaVuSans-58"/>
     <path d="M 17.921875 72.90625 
L 17.921875 45.796875 
L 9.625 45.796875 
L 9.625 72.90625 
z
M 36.375 72.90625 
L 36.375 45.796875 
L 28.078125 45.796875 
L 28.078125 72.90625 
z
" id="DejaVuSans-34"/>
     <path d="M 45.40625 27.984375 
Q 45.40625 37.75 41.375 43.109375 
Q 37.359375 48.484375 30.078125 48.484375 
Q 22.859375 48.484375 18.828125 43.109375 
Q 14.796875 37.75 14.796875 27.984375 
Q 14.796875 18.265625 18.828125 12.890625 
Q 22.859375 7.515625 30.078125 7.515625 
Q 37.359375 7.515625 41.375 12.890625 
Q 45.40625 18.265625 45.40625 27.984375 
z
M 54.390625 6.78125 
Q 54.390625 -7.171875 48.1875 -13.984375 
Q 42 -20.796875 29.203125 -20.796875 
Q 24.46875 -20.796875 20.265625 -20.09375 
Q 16.0625 -19.390625 12.109375 -17.921875 
L 12.109375 -9.1875 
Q 16.0625 -11.328125 19.921875 -12.34375 
Q 23.78125 -13.375 27.78125 -13.375 
Q 36.625 -13.375 41.015625 -8.765625 
Q 45.40625 -4.15625 45.40625 5.171875 
L 45.40625 9.625 
Q 42.625 4.78125 38.28125 2.390625 
Q 33.9375 0 27.875 0 
Q 17.828125 0 11.671875 7.65625 
Q 5.515625 15.328125 5.515625 27.984375 
Q 5.515625 40.671875 11.671875 48.328125 
Q 17.828125 56 27.875 56 
Q 33.9375 56 38.28125 53.609375 
Q 42.625 51.21875 45.40625 46.390625 
L 45.40625 54.6875 
L 54.390625 54.6875 
z
" id="DejaVuSans-103"/>
     <path d="M 44.28125 53.078125 
L 44.28125 44.578125 
Q 40.484375 46.53125 36.375 47.5 
Q 32.28125 48.484375 27.875 48.484375 
Q 21.1875 48.484375 17.84375 46.4375 
Q 14.5 44.390625 14.5 40.28125 
Q 14.5 37.15625 16.890625 35.375 
Q 19.28125 33.59375 26.515625 31.984375 
L 29.59375 31.296875 
Q 39.15625 29.25 43.1875 25.515625 
Q 47.21875 21.78125 47.21875 15.09375 
Q 47.21875 7.46875 41.1875 3.015625 
Q 35.15625 -1.421875 24.609375 -1.421875 
Q 20.21875 -1.421875 15.453125 -0.5625 
Q 10.6875 0.296875 5.421875 2 
L 5.421875 11.28125 
Q 10.40625 8.6875 15.234375 7.390625 
Q 20.0625 6.109375 24.8125 6.109375 
Q 31.15625 6.109375 34.5625 8.28125 
Q 37.984375 10.453125 37.984375 14.40625 
Q 37.984375 18.0625 35.515625 20.015625 
Q 33.0625 21.96875 24.703125 23.78125 
L 21.578125 24.515625 
Q 13.234375 26.265625 9.515625 29.90625 
Q 5.8125 33.546875 5.8125 39.890625 
Q 5.8125 47.609375 11.28125 51.796875 
Q 16.75 56 26.8125 56 
Q 31.78125 56 36.171875 55.265625 
Q 40.578125 54.546875 44.28125 53.078125 
z
" id="DejaVuSans-115"/>
    </defs>
    <g transform="translate(168.045469 21.242844)scale(0.13 -0.13)">
     <use xlink:href="#DejaVuSans-78"/>
     <use x="74.804688" xlink:href="#DejaVuSans-97"/>
     <use x="136.083984" xlink:href="#DejaVuSans-114"/>
     <use x="175.447266" xlink:href="#DejaVuSans-114"/>
     <use x="216.560547" xlink:href="#DejaVuSans-97"/>
     <use x="277.839844" xlink:href="#DejaVuSans-116"/>
     <use x="317.048828" xlink:href="#DejaVuSans-105"/>
     <use x="344.832031" xlink:href="#DejaVuSans-118"/>
     <use x="404.011719" xlink:href="#DejaVuSans-101"/>
     <use x="465.535156" xlink:href="#DejaVuSans-58"/>
     <use x="499.226562" xlink:href="#DejaVuSans-32"/>
     <use x="531.013672" xlink:href="#DejaVuSans-34"/>
     <use x="577.009766" xlink:href="#DejaVuSans-82"/>
     <use x="641.992188" xlink:href="#DejaVuSans-101"/>
     <use x="703.515625" xlink:href="#DejaVuSans-102"/>
     <use x="738.720703" xlink:href="#DejaVuSans-117"/>
     <use x="802.099609" xlink:href="#DejaVuSans-103"/>
     <use x="865.576172" xlink:href="#DejaVuSans-101"/>
     <use x="927.099609" xlink:href="#DejaVuSans-101"/>
     <use x="988.623047" xlink:href="#DejaVuSans-115"/>
     <use x="1040.722656" xlink:href="#DejaVuSans-34"/>
     <use x="1086.71875" xlink:href="#DejaVuSans-32"/>
    </g>
    <!--  (proportion of comments associated) -->
    <defs>
     <path d="M 31 75.875 
Q 24.46875 64.65625 21.28125 53.65625 
Q 18.109375 42.671875 18.109375 31.390625 
Q 18.109375 20.125 21.3125 9.0625 
Q 24.515625 -2 31 -13.1875 
L 23.1875 -13.1875 
Q 15.875 -1.703125 12.234375 9.375 
Q 8.59375 20.453125 8.59375 31.390625 
Q 8.59375 42.28125 12.203125 53.3125 
Q 15.828125 64.359375 23.1875 75.875 
z
" id="DejaVuSans-40"/>
     <path d="M 18.109375 8.203125 
L 18.109375 -20.796875 
L 9.078125 -20.796875 
L 9.078125 54.6875 
L 18.109375 54.6875 
L 18.109375 46.390625 
Q 20.953125 51.265625 25.265625 53.625 
Q 29.59375 56 35.59375 56 
Q 45.5625 56 51.78125 48.09375 
Q 58.015625 40.1875 58.015625 27.296875 
Q 58.015625 14.40625 51.78125 6.484375 
Q 45.5625 -1.421875 35.59375 -1.421875 
Q 29.59375 -1.421875 25.265625 0.953125 
Q 20.953125 3.328125 18.109375 8.203125 
z
M 48.6875 27.296875 
Q 48.6875 37.203125 44.609375 42.84375 
Q 40.53125 48.484375 33.40625 48.484375 
Q 26.265625 48.484375 22.1875 42.84375 
Q 18.109375 37.203125 18.109375 27.296875 
Q 18.109375 17.390625 22.1875 11.75 
Q 26.265625 6.109375 33.40625 6.109375 
Q 40.53125 6.109375 44.609375 11.75 
Q 48.6875 17.390625 48.6875 27.296875 
z
" id="DejaVuSans-112"/>
     <path d="M 30.609375 48.390625 
Q 23.390625 48.390625 19.1875 42.75 
Q 14.984375 37.109375 14.984375 27.296875 
Q 14.984375 17.484375 19.15625 11.84375 
Q 23.34375 6.203125 30.609375 6.203125 
Q 37.796875 6.203125 41.984375 11.859375 
Q 46.1875 17.53125 46.1875 27.296875 
Q 46.1875 37.015625 41.984375 42.703125 
Q 37.796875 48.390625 30.609375 48.390625 
z
M 30.609375 56 
Q 42.328125 56 49.015625 48.375 
Q 55.71875 40.765625 55.71875 27.296875 
Q 55.71875 13.875 49.015625 6.21875 
Q 42.328125 -1.421875 30.609375 -1.421875 
Q 18.84375 -1.421875 12.171875 6.21875 
Q 5.515625 13.875 5.515625 27.296875 
Q 5.515625 40.765625 12.171875 48.375 
Q 18.84375 56 30.609375 56 
z
" id="DejaVuSans-111"/>
     <path d="M 52 44.1875 
Q 55.375 50.25 60.0625 53.125 
Q 64.75 56 71.09375 56 
Q 79.640625 56 84.28125 50.015625 
Q 88.921875 44.046875 88.921875 33.015625 
L 88.921875 0 
L 79.890625 0 
L 79.890625 32.71875 
Q 79.890625 40.578125 77.09375 44.375 
Q 74.3125 48.1875 68.609375 48.1875 
Q 61.625 48.1875 57.5625 43.546875 
Q 53.515625 38.921875 53.515625 30.90625 
L 53.515625 0 
L 44.484375 0 
L 44.484375 32.71875 
Q 44.484375 40.625 41.703125 44.40625 
Q 38.921875 48.1875 33.109375 48.1875 
Q 26.21875 48.1875 22.15625 43.53125 
Q 18.109375 38.875 18.109375 30.90625 
L 18.109375 0 
L 9.078125 0 
L 9.078125 54.6875 
L 18.109375 54.6875 
L 18.109375 46.1875 
Q 21.1875 51.21875 25.484375 53.609375 
Q 29.78125 56 35.6875 56 
Q 41.65625 56 45.828125 52.96875 
Q 50 49.953125 52 44.1875 
z
" id="DejaVuSans-109"/>
     <path d="M 45.40625 46.390625 
L 45.40625 75.984375 
L 54.390625 75.984375 
L 54.390625 0 
L 45.40625 0 
L 45.40625 8.203125 
Q 42.578125 3.328125 38.25 0.953125 
Q 33.9375 -1.421875 27.875 -1.421875 
Q 17.96875 -1.421875 11.734375 6.484375 
Q 5.515625 14.40625 5.515625 27.296875 
Q 5.515625 40.1875 11.734375 48.09375 
Q 17.96875 56 27.875 56 
Q 33.9375 56 38.25 53.625 
Q 42.578125 51.265625 45.40625 46.390625 
z
M 14.796875 27.296875 
Q 14.796875 17.390625 18.875 11.75 
Q 22.953125 6.109375 30.078125 6.109375 
Q 37.203125 6.109375 41.296875 11.75 
Q 45.40625 17.390625 45.40625 27.296875 
Q 45.40625 37.203125 41.296875 42.84375 
Q 37.203125 48.484375 30.078125 48.484375 
Q 22.953125 48.484375 18.875 42.84375 
Q 14.796875 37.203125 14.796875 27.296875 
z
" id="DejaVuSans-100"/>
     <path d="M 8.015625 75.875 
L 15.828125 75.875 
Q 23.140625 64.359375 26.78125 53.3125 
Q 30.421875 42.28125 30.421875 31.390625 
Q 30.421875 20.453125 26.78125 9.375 
Q 23.140625 -1.703125 15.828125 -13.1875 
L 8.015625 -13.1875 
Q 14.5 -2 17.703125 9.0625 
Q 20.90625 20.125 20.90625 31.390625 
Q 20.90625 42.671875 17.703125 53.65625 
Q 14.5 64.65625 8.015625 75.875 
z
" id="DejaVuSans-41"/>
    </defs>
    <g transform="translate(118.256484 35.8)scale(0.13 -0.13)">
     <use xlink:href="#DejaVuSans-32"/>
     <use x="31.787109" xlink:href="#DejaVuSans-40"/>
     <use x="70.800781" xlink:href="#DejaVuSans-112"/>
     <use x="134.277344" xlink:href="#DejaVuSans-114"/>
     <use x="173.140625" xlink:href="#DejaVuSans-111"/>
     <use x="234.322266" xlink:href="#DejaVuSans-112"/>
     <use x="297.798828" xlink:href="#DejaVuSans-111"/>
     <use x="358.980469" xlink:href="#DejaVuSans-114"/>
     <use x="400.09375" xlink:href="#DejaVuSans-116"/>
     <use x="439.302734" xlink:href="#DejaVuSans-105"/>
     <use x="467.085938" xlink:href="#DejaVuSans-111"/>
     <use x="528.267578" xlink:href="#DejaVuSans-110"/>
     <use x="591.646484" xlink:href="#DejaVuSans-32"/>
     <use x="623.433594" xlink:href="#DejaVuSans-111"/>
     <use x="684.615234" xlink:href="#DejaVuSans-102"/>
     <use x="719.820312" xlink:href="#DejaVuSans-32"/>
     <use x="751.607422" xlink:href="#DejaVuSans-99"/>
     <use x="806.587891" xlink:href="#DejaVuSans-111"/>
     <use x="867.769531" xlink:href="#DejaVuSans-109"/>
     <use x="965.181641" xlink:href="#DejaVuSans-109"/>
     <use x="1062.59375" xlink:href="#DejaVuSans-101"/>
     <use x="1124.117188" xlink:href="#DejaVuSans-110"/>
     <use x="1187.496094" xlink:href="#DejaVuSans-116"/>
     <use x="1226.705078" xlink:href="#DejaVuSans-115"/>
     <use x="1278.804688" xlink:href="#DejaVuSans-32"/>
     <use x="1310.591797" xlink:href="#DejaVuSans-97"/>
     <use x="1371.871094" xlink:href="#DejaVuSans-115"/>
     <use x="1423.970703" xlink:href="#DejaVuSans-115"/>
     <use x="1476.070312" xlink:href="#DejaVuSans-111"/>
     <use x="1537.251953" xlink:href="#DejaVuSans-99"/>
     <use x="1592.232422" xlink:href="#DejaVuSans-105"/>
     <use x="1620.015625" xlink:href="#DejaVuSans-97"/>
     <use x="1681.294922" xlink:href="#DejaVuSans-116"/>
     <use x="1720.503906" xlink:href="#DejaVuSans-101"/>
     <use x="1782.027344" xlink:href="#DejaVuSans-100"/>
     <use x="1845.503906" xlink:href="#DejaVuSans-41"/>
    </g>
   </g>
  </g>
 </g>
 <defs>
  <clipPath id="p307fe8adca">
   <rect height="177.052246" width="360.9" x="60.3" y="41.8"/>
  </clipPath>
 </defs>
</svg>
