<?xml version="1.0" encoding="utf-8" standalone="no"?>
<!DOCTYPE svg PUBLIC "-//W3C//DTD SVG 1.1//EN"
  "http://www.w3.org/Graphics/SVG/1.1/DTD/svg11.dtd">
<!-- Created with matplotlib (https://matplotlib.org/) -->
<svg height="288pt" version="1.1" viewBox="0 0 432 288" width="432pt" xmlns="http://www.w3.org/2000/svg" xmlns:xlink="http://www.w3.org/1999/xlink">
 <defs>
  <style type="text/css">
*{stroke-linecap:butt;stroke-linejoin:round;}
  </style>
 </defs>
 <g id="figure_1">
  <g id="patch_1">
   <path d="M 0 288 
L 432 288 
L 432 0 
L 0 0 
z
" style="fill:#ffffff;"/>
  </g>
  <g id="axes_1">
   <g id="patch_2">
    <path d="M 52.340987 218.852246 
L 421.2 218.852246 
L 421.2 27.8 
L 52.340987 27.8 
z
" style="fill:#ffffff;"/>
   </g>
   <g id="patch_3">
    <path clip-path="url(#pf44aead23d)" d="M 69.107306 218.852246 
L 72.308512 218.852246 
L 72.308512 217.323216 
L 69.107306 217.323216 
z
" style="fill:#ff0000;"/>
   </g>
   <g id="patch_4">
    <path clip-path="url(#pf44aead23d)" d="M 77.110322 218.852246 
L 80.311528 218.852246 
L 80.311528 211.207098 
L 77.110322 211.207098 
z
" style="fill:#ff0000;"/>
   </g>
   <g id="patch_5">
    <path clip-path="url(#pf44aead23d)" d="M 109.122386 218.852246 
L 112.323593 218.852246 
L 112.323593 215.794187 
L 109.122386 215.794187 
z
" style="fill:#ff0000;"/>
   </g>
   <g id="patch_6">
    <path clip-path="url(#pf44aead23d)" d="M 125.128419 218.852246 
L 128.329625 218.852246 
L 128.329625 217.323216 
L 125.128419 217.323216 
z
" style="fill:#ff0000;"/>
   </g>
   <g id="patch_7">
    <path clip-path="url(#pf44aead23d)" d="M 129.129927 218.852246 
L 132.331133 218.852246 
L 132.331133 183.684566 
L 129.129927 183.684566 
z
"/>
   </g>
   <g id="patch_8">
    <path clip-path="url(#pf44aead23d)" d="M 133.131435 218.852246 
L 136.332641 218.852246 
L 136.332641 182.155536 
L 133.131435 182.155536 
z
" style="fill:#ff0000;"/>
   </g>
   <g id="patch_9">
    <path clip-path="url(#pf44aead23d)" d="M 137.132943 218.852246 
L 140.334149 218.852246 
L 140.334149 176.039418 
L 137.132943 176.039418 
z
"/>
   </g>
   <g id="patch_10">
    <path clip-path="url(#pf44aead23d)" d="M 141.134451 218.852246 
L 144.335657 218.852246 
L 144.335657 177.568447 
L 141.134451 177.568447 
z
" style="fill:#ff0000;"/>
   </g>
   <g id="patch_11">
    <path clip-path="url(#pf44aead23d)" d="M 145.135959 218.852246 
L 148.337165 218.852246 
L 148.337165 64.420258 
L 145.135959 64.420258 
z
" style="fill:#ff0000;"/>
   </g>
   <g id="patch_12">
    <path clip-path="url(#pf44aead23d)" d="M 149.137467 218.852246 
L 152.338674 218.852246 
L 152.338674 114.878235 
L 149.137467 114.878235 
z
" style="fill:#ff0000;"/>
   </g>
   <g id="patch_13">
    <path clip-path="url(#pf44aead23d)" d="M 153.138975 218.852246 
L 156.340182 218.852246 
L 156.340182 146.987856 
L 153.138975 146.987856 
z
" style="fill:#ff0000;"/>
   </g>
   <g id="patch_14">
    <path clip-path="url(#pf44aead23d)" d="M 157.140483 218.852246 
L 160.34169 218.852246 
L 160.34169 162.278152 
L 157.140483 162.278152 
z
" style="fill:#ff0000;"/>
   </g>
   <g id="patch_15">
    <path clip-path="url(#pf44aead23d)" d="M 161.141991 218.852246 
L 164.343198 218.852246 
L 164.343198 186.742625 
L 161.141991 186.742625 
z
" style="fill:#ff0000;"/>
   </g>
   <g id="patch_16">
    <path clip-path="url(#pf44aead23d)" d="M 165.143499 218.852246 
L 168.344706 218.852246 
L 168.344706 142.400767 
L 165.143499 142.400767 
z
" style="fill:#ff0000;"/>
   </g>
   <g id="patch_17">
    <path clip-path="url(#pf44aead23d)" d="M 169.145007 218.852246 
L 172.346214 218.852246 
L 172.346214 191.329714 
L 169.145007 191.329714 
z
" style="fill:#ff0000;"/>
   </g>
   <g id="patch_18">
    <path clip-path="url(#pf44aead23d)" d="M 173.146515 218.852246 
L 176.347722 218.852246 
L 176.347722 179.097477 
L 173.146515 179.097477 
z
" style="fill:#ff0000;"/>
   </g>
   <g id="patch_19">
    <path clip-path="url(#pf44aead23d)" d="M 177.148023 218.852246 
L 180.34923 218.852246 
L 180.34923 208.149039 
L 177.148023 208.149039 
z
" style="fill:#ff0000;"/>
   </g>
   <g id="patch_20">
    <path clip-path="url(#pf44aead23d)" d="M 181.149532 218.852246 
L 184.350738 218.852246 
L 184.350738 194.387773 
L 181.149532 194.387773 
z
" style="fill:#ff0000;"/>
   </g>
   <g id="patch_21">
    <path clip-path="url(#pf44aead23d)" d="M 193.154056 218.852246 
L 196.355262 218.852246 
L 196.355262 203.56195 
L 193.154056 203.56195 
z
" style="fill:#ff0000;"/>
   </g>
   <g id="patch_22">
    <path clip-path="url(#pf44aead23d)" d="M 201.157072 218.852246 
L 204.358278 218.852246 
L 204.358278 205.09098 
L 201.157072 205.09098 
z
" style="fill:#ff0000;"/>
   </g>
   <g id="patch_23">
    <path clip-path="url(#pf44aead23d)" d="M 205.15858 218.852246 
L 208.359786 218.852246 
L 208.359786 198.974861 
L 205.15858 198.974861 
z
"/>
   </g>
   <g id="patch_24">
    <path clip-path="url(#pf44aead23d)" d="M 209.160088 218.852246 
L 212.361294 218.852246 
L 212.361294 146.987856 
L 209.160088 146.987856 
z
" style="fill:#ff0000;"/>
   </g>
   <g id="patch_25">
    <path clip-path="url(#pf44aead23d)" d="M 213.161596 218.852246 
L 216.362802 218.852246 
L 216.362802 208.149039 
L 213.161596 208.149039 
z
" style="fill:#ff0000;"/>
   </g>
   <g id="patch_26">
    <path clip-path="url(#pf44aead23d)" d="M 217.163104 218.852246 
L 220.364311 218.852246 
L 220.364311 197.445832 
L 217.163104 197.445832 
z
" style="fill:#ff0000;"/>
   </g>
   <g id="patch_27">
    <path clip-path="url(#pf44aead23d)" d="M 221.164612 218.852246 
L 224.365819 218.852246 
L 224.365819 202.032921 
L 221.164612 202.032921 
z
" style="fill:#ff0000;"/>
   </g>
   <g id="patch_28">
    <path clip-path="url(#pf44aead23d)" d="M 225.16612 218.852246 
L 228.367327 218.852246 
L 228.367327 153.103974 
L 225.16612 153.103974 
z
" style="fill:#ff0000;"/>
   </g>
   <g id="patch_29">
    <path clip-path="url(#pf44aead23d)" d="M 229.167628 218.852246 
L 232.368835 218.852246 
L 232.368835 212.736128 
L 229.167628 212.736128 
z
" style="fill:#ff0000;"/>
   </g>
   <g id="patch_30">
    <path clip-path="url(#pf44aead23d)" d="M 233.169136 218.852246 
L 236.370343 218.852246 
L 236.370343 197.445832 
L 233.169136 197.445832 
z
"/>
   </g>
   <g id="patch_31">
    <path clip-path="url(#pf44aead23d)" d="M 237.170644 218.852246 
L 240.371851 218.852246 
L 240.371851 203.56195 
L 237.170644 203.56195 
z
" style="fill:#ff0000;"/>
   </g>
   <g id="patch_32">
    <path clip-path="url(#pf44aead23d)" d="M 241.172152 218.852246 
L 244.373359 218.852246 
L 244.373359 214.265157 
L 241.172152 214.265157 
z
" style="fill:#ff0000;"/>
   </g>
   <g id="patch_33">
    <path clip-path="url(#pf44aead23d)" d="M 245.17366 218.852246 
L 248.374867 218.852246 
L 248.374867 153.103974 
L 245.17366 153.103974 
z
" style="fill:#ff0000;"/>
   </g>
   <g id="patch_34">
    <path clip-path="url(#pf44aead23d)" d="M 249.175169 218.852246 
L 252.376375 218.852246 
L 252.376375 160.749122 
L 249.175169 160.749122 
z
" style="fill:#ff0000;"/>
   </g>
   <g id="patch_35">
    <path clip-path="url(#pf44aead23d)" d="M 253.176677 218.852246 
L 256.377883 218.852246 
L 256.377883 205.09098 
L 253.176677 205.09098 
z
" style="fill:#ff0000;"/>
   </g>
   <g id="patch_36">
    <path clip-path="url(#pf44aead23d)" d="M 261.179693 218.852246 
L 264.380899 218.852246 
L 264.380899 214.265157 
L 261.179693 214.265157 
z
" style="fill:#ff0000;"/>
   </g>
   <g id="patch_37">
    <path clip-path="url(#pf44aead23d)" d="M 265.181201 218.852246 
L 268.382407 218.852246 
L 268.382407 157.691063 
L 265.181201 157.691063 
z
" style="fill:#ff0000;"/>
   </g>
   <g id="patch_38">
    <path clip-path="url(#pf44aead23d)" d="M 269.182709 218.852246 
L 272.383915 218.852246 
L 272.383915 208.149039 
L 269.182709 208.149039 
z
" style="fill:#ff0000;"/>
   </g>
   <g id="patch_39">
    <path clip-path="url(#pf44aead23d)" d="M 273.184217 218.852246 
L 276.385423 218.852246 
L 276.385423 198.974861 
L 273.184217 198.974861 
z
" style="fill:#ff0000;"/>
   </g>
   <g id="patch_40">
    <path clip-path="url(#pf44aead23d)" d="M 277.185725 218.852246 
L 280.386931 218.852246 
L 280.386931 212.736128 
L 277.185725 212.736128 
z
" style="fill:#ff0000;"/>
   </g>
   <g id="patch_41">
    <path clip-path="url(#pf44aead23d)" d="M 281.187233 218.852246 
L 284.388439 218.852246 
L 284.388439 191.329714 
L 281.187233 191.329714 
z
" style="fill:#ff0000;"/>
   </g>
   <g id="patch_42">
    <path clip-path="url(#pf44aead23d)" d="M 285.188741 218.852246 
L 288.389948 218.852246 
L 288.389948 205.09098 
L 285.188741 205.09098 
z
" style="fill:#ff0000;"/>
   </g>
   <g id="patch_43">
    <path clip-path="url(#pf44aead23d)" d="M 293.191757 218.852246 
L 296.392964 218.852246 
L 296.392964 209.678068 
L 293.191757 209.678068 
z
" style="fill:#ff0000;"/>
   </g>
   <g id="patch_44">
    <path clip-path="url(#pf44aead23d)" d="M 297.193265 218.852246 
L 300.394472 218.852246 
L 300.394472 177.568447 
L 297.193265 177.568447 
z
" style="fill:#ff0000;"/>
   </g>
   <g id="patch_45">
    <path clip-path="url(#pf44aead23d)" d="M 305.196281 218.852246 
L 308.397488 218.852246 
L 308.397488 36.897726 
L 305.196281 36.897726 
z
" style="fill:#ff0000;"/>
   </g>
   <g id="patch_46">
    <path clip-path="url(#pf44aead23d)" d="M 309.197789 218.852246 
L 312.398996 218.852246 
L 312.398996 202.032921 
L 309.197789 202.032921 
z
" style="fill:#ff0000;"/>
   </g>
   <g id="patch_47">
    <path clip-path="url(#pf44aead23d)" d="M 313.199297 218.852246 
L 316.400504 218.852246 
L 316.400504 212.736128 
L 313.199297 212.736128 
z
" style="fill:#ff0000;"/>
   </g>
   <g id="patch_48">
    <path clip-path="url(#pf44aead23d)" d="M 317.200806 218.852246 
L 320.402012 218.852246 
L 320.402012 166.86524 
L 317.200806 166.86524 
z
" style="fill:#ff0000;"/>
   </g>
   <g id="patch_49">
    <path clip-path="url(#pf44aead23d)" d="M 321.202314 218.852246 
L 324.40352 218.852246 
L 324.40352 177.568447 
L 321.202314 177.568447 
z
" style="fill:#ff0000;"/>
   </g>
   <g id="patch_50">
    <path clip-path="url(#pf44aead23d)" d="M 325.203822 218.852246 
L 328.405028 218.852246 
L 328.405028 209.678068 
L 325.203822 209.678068 
z
" style="fill:#ff0000;"/>
   </g>
   <g id="patch_51">
    <path clip-path="url(#pf44aead23d)" d="M 329.20533 218.852246 
L 332.406536 218.852246 
L 332.406536 176.039418 
L 329.20533 176.039418 
z
" style="fill:#ff0000;"/>
   </g>
   <g id="patch_52">
    <path clip-path="url(#pf44aead23d)" d="M 333.206838 218.852246 
L 336.408044 218.852246 
L 336.408044 185.213595 
L 333.206838 185.213595 
z
" style="fill:#ff0000;"/>
   </g>
   <g id="patch_53">
    <path clip-path="url(#pf44aead23d)" d="M 337.208346 218.852246 
L 340.409552 218.852246 
L 340.409552 217.323216 
L 337.208346 217.323216 
z
" style="fill:#ff0000;"/>
   </g>
   <g id="patch_54">
    <path clip-path="url(#pf44aead23d)" d="M 341.209854 218.852246 
L 344.41106 218.852246 
L 344.41106 206.620009 
L 341.209854 206.620009 
z
" style="fill:#ff0000;"/>
   </g>
   <g id="patch_55">
    <path clip-path="url(#pf44aead23d)" d="M 345.211362 218.852246 
L 348.412568 218.852246 
L 348.412568 211.207098 
L 345.211362 211.207098 
z
" style="fill:#ff0000;"/>
   </g>
   <g id="patch_56">
    <path clip-path="url(#pf44aead23d)" d="M 349.21287 218.852246 
L 352.414076 218.852246 
L 352.414076 113.349205 
L 349.21287 113.349205 
z
" style="fill:#ff0000;"/>
   </g>
   <g id="patch_57">
    <path clip-path="url(#pf44aead23d)" d="M 353.214378 218.852246 
L 356.415585 218.852246 
L 356.415585 195.916802 
L 353.214378 195.916802 
z
" style="fill:#ff0000;"/>
   </g>
   <g id="patch_58">
    <path clip-path="url(#pf44aead23d)" d="M 357.215886 218.852246 
L 360.417093 218.852246 
L 360.417093 203.56195 
L 357.215886 203.56195 
z
" style="fill:#ff0000;"/>
   </g>
   <g id="patch_59">
    <path clip-path="url(#pf44aead23d)" d="M 361.217394 218.852246 
L 364.418601 218.852246 
L 364.418601 168.39427 
L 361.217394 168.39427 
z
" style="fill:#ff0000;"/>
   </g>
   <g id="patch_60">
    <path clip-path="url(#pf44aead23d)" d="M 365.218902 218.852246 
L 368.420109 218.852246 
L 368.420109 174.510388 
L 365.218902 174.510388 
z
" style="fill:#ff0000;"/>
   </g>
   <g id="patch_61">
    <path clip-path="url(#pf44aead23d)" d="M 369.22041 218.852246 
L 372.421617 218.852246 
L 372.421617 177.568447 
L 369.22041 177.568447 
z
" style="fill:#ff0000;"/>
   </g>
   <g id="patch_62">
    <path clip-path="url(#pf44aead23d)" d="M 377.223426 218.852246 
L 380.424633 218.852246 
L 380.424633 208.149039 
L 377.223426 208.149039 
z
" style="fill:#ff0000;"/>
   </g>
   <g id="patch_63">
    <path clip-path="url(#pf44aead23d)" d="M 381.224934 218.852246 
L 384.426141 218.852246 
L 384.426141 212.736128 
L 381.224934 212.736128 
z
" style="fill:#ff0000;"/>
   </g>
   <g id="patch_64">
    <path clip-path="url(#pf44aead23d)" d="M 385.226443 218.852246 
L 388.427649 218.852246 
L 388.427649 203.56195 
L 385.226443 203.56195 
z
" style="fill:#ff0000;"/>
   </g>
   <g id="patch_65">
    <path clip-path="url(#pf44aead23d)" d="M 389.227951 218.852246 
L 392.429157 218.852246 
L 392.429157 182.155536 
L 389.227951 182.155536 
z
" style="fill:#ff0000;"/>
   </g>
   <g id="patch_66">
    <path clip-path="url(#pf44aead23d)" d="M 393.229459 218.852246 
L 396.430665 218.852246 
L 396.430665 65.949288 
L 393.229459 65.949288 
z
" style="fill:#ff0000;"/>
   </g>
   <g id="patch_67">
    <path clip-path="url(#pf44aead23d)" d="M 401.232475 218.852246 
L 404.433681 218.852246 
L 404.433681 195.916802 
L 401.232475 195.916802 
z
" style="fill:#ff0000;"/>
   </g>
   <g id="matplotlib.axis_1">
    <g id="xtick_1">
     <g id="line2d_1">
      <defs>
       <path d="M 0 0 
L 0 3.5 
" id="mf9ba84c818" style="stroke:#000000;stroke-width:0.8;"/>
      </defs>
      <g>
       <use style="stroke:#000000;stroke-width:0.8;" x="66.706401" xlink:href="#mf9ba84c818" y="218.852246"/>
      </g>
     </g>
     <g id="text_1">
      <!-- 24/02/2020 -->
      <defs>
       <path d="M 19.1875 8.296875 
L 53.609375 8.296875 
L 53.609375 0 
L 7.328125 0 
L 7.328125 8.296875 
Q 12.9375 14.109375 22.625 23.890625 
Q 32.328125 33.6875 34.8125 36.53125 
Q 39.546875 41.84375 41.421875 45.53125 
Q 43.3125 49.21875 43.3125 52.78125 
Q 43.3125 58.59375 39.234375 62.25 
Q 35.15625 65.921875 28.609375 65.921875 
Q 23.96875 65.921875 18.8125 64.3125 
Q 13.671875 62.703125 7.8125 59.421875 
L 7.8125 69.390625 
Q 13.765625 71.78125 18.9375 73 
Q 24.125 74.21875 28.421875 74.21875 
Q 39.75 74.21875 46.484375 68.546875 
Q 53.21875 62.890625 53.21875 53.421875 
Q 53.21875 48.921875 51.53125 44.890625 
Q 49.859375 40.875 45.40625 35.40625 
Q 44.1875 33.984375 37.640625 27.21875 
Q 31.109375 20.453125 19.1875 8.296875 
z
" id="DejaVuSans-50"/>
       <path d="M 37.796875 64.3125 
L 12.890625 25.390625 
L 37.796875 25.390625 
z
M 35.203125 72.90625 
L 47.609375 72.90625 
L 47.609375 25.390625 
L 58.015625 25.390625 
L 58.015625 17.1875 
L 47.609375 17.1875 
L 47.609375 0 
L 37.796875 0 
L 37.796875 17.1875 
L 4.890625 17.1875 
L 4.890625 26.703125 
z
" id="DejaVuSans-52"/>
       <path d="M 25.390625 72.90625 
L 33.6875 72.90625 
L 8.296875 -9.28125 
L 0 -9.28125 
z
" id="DejaVuSans-47"/>
       <path d="M 31.78125 66.40625 
Q 24.171875 66.40625 20.328125 58.90625 
Q 16.5 51.421875 16.5 36.375 
Q 16.5 21.390625 20.328125 13.890625 
Q 24.171875 6.390625 31.78125 6.390625 
Q 39.453125 6.390625 43.28125 13.890625 
Q 47.125 21.390625 47.125 36.375 
Q 47.125 51.421875 43.28125 58.90625 
Q 39.453125 66.40625 31.78125 66.40625 
z
M 31.78125 74.21875 
Q 44.046875 74.21875 50.515625 64.515625 
Q 56.984375 54.828125 56.984375 36.375 
Q 56.984375 17.96875 50.515625 8.265625 
Q 44.046875 -1.421875 31.78125 -1.421875 
Q 19.53125 -1.421875 13.0625 8.265625 
Q 6.59375 17.96875 6.59375 36.375 
Q 6.59375 54.828125 13.0625 64.515625 
Q 19.53125 74.21875 31.78125 74.21875 
z
" id="DejaVuSans-48"/>
      </defs>
      <g transform="translate(15.751018 261.251436)rotate(-30)scale(0.1 -0.1)">
       <use xlink:href="#DejaVuSans-50"/>
       <use x="63.623047" xlink:href="#DejaVuSans-52"/>
       <use x="127.246094" xlink:href="#DejaVuSans-47"/>
       <use x="160.9375" xlink:href="#DejaVuSans-48"/>
       <use x="224.560547" xlink:href="#DejaVuSans-50"/>
       <use x="288.183594" xlink:href="#DejaVuSans-47"/>
       <use x="321.875" xlink:href="#DejaVuSans-50"/>
       <use x="385.498047" xlink:href="#DejaVuSans-48"/>
       <use x="449.121094" xlink:href="#DejaVuSans-50"/>
       <use x="512.744141" xlink:href="#DejaVuSans-48"/>
      </g>
     </g>
    </g>
    <g id="xtick_2">
     <g id="line2d_2">
      <g>
       <use style="stroke:#000000;stroke-width:0.8;" x="94.716957" xlink:href="#mf9ba84c818" y="218.852246"/>
      </g>
     </g>
     <g id="text_2">
      <!-- 02/03/2020 -->
      <defs>
       <path d="M 40.578125 39.3125 
Q 47.65625 37.796875 51.625 33 
Q 55.609375 28.21875 55.609375 21.1875 
Q 55.609375 10.40625 48.1875 4.484375 
Q 40.765625 -1.421875 27.09375 -1.421875 
Q 22.515625 -1.421875 17.65625 -0.515625 
Q 12.796875 0.390625 7.625 2.203125 
L 7.625 11.71875 
Q 11.71875 9.328125 16.59375 8.109375 
Q 21.484375 6.890625 26.8125 6.890625 
Q 36.078125 6.890625 40.9375 10.546875 
Q 45.796875 14.203125 45.796875 21.1875 
Q 45.796875 27.640625 41.28125 31.265625 
Q 36.765625 34.90625 28.71875 34.90625 
L 20.21875 34.90625 
L 20.21875 43.015625 
L 29.109375 43.015625 
Q 36.375 43.015625 40.234375 45.921875 
Q 44.09375 48.828125 44.09375 54.296875 
Q 44.09375 59.90625 40.109375 62.90625 
Q 36.140625 65.921875 28.71875 65.921875 
Q 24.65625 65.921875 20.015625 65.03125 
Q 15.375 64.15625 9.8125 62.3125 
L 9.8125 71.09375 
Q 15.4375 72.65625 20.34375 73.4375 
Q 25.25 74.21875 29.59375 74.21875 
Q 40.828125 74.21875 47.359375 69.109375 
Q 53.90625 64.015625 53.90625 55.328125 
Q 53.90625 49.265625 50.4375 45.09375 
Q 46.96875 40.921875 40.578125 39.3125 
z
" id="DejaVuSans-51"/>
      </defs>
      <g transform="translate(43.761575 261.251436)rotate(-30)scale(0.1 -0.1)">
       <use xlink:href="#DejaVuSans-48"/>
       <use x="63.623047" xlink:href="#DejaVuSans-50"/>
       <use x="127.246094" xlink:href="#DejaVuSans-47"/>
       <use x="160.9375" xlink:href="#DejaVuSans-48"/>
       <use x="224.560547" xlink:href="#DejaVuSans-51"/>
       <use x="288.183594" xlink:href="#DejaVuSans-47"/>
       <use x="321.875" xlink:href="#DejaVuSans-50"/>
       <use x="385.498047" xlink:href="#DejaVuSans-48"/>
       <use x="449.121094" xlink:href="#DejaVuSans-50"/>
       <use x="512.744141" xlink:href="#DejaVuSans-48"/>
      </g>
     </g>
    </g>
    <g id="xtick_3">
     <g id="line2d_3">
      <g>
       <use style="stroke:#000000;stroke-width:0.8;" x="122.727514" xlink:href="#mf9ba84c818" y="218.852246"/>
      </g>
     </g>
     <g id="text_3">
      <!-- 09/03/2020 -->
      <defs>
       <path d="M 10.984375 1.515625 
L 10.984375 10.5 
Q 14.703125 8.734375 18.5 7.8125 
Q 22.3125 6.890625 25.984375 6.890625 
Q 35.75 6.890625 40.890625 13.453125 
Q 46.046875 20.015625 46.78125 33.40625 
Q 43.953125 29.203125 39.59375 26.953125 
Q 35.25 24.703125 29.984375 24.703125 
Q 19.046875 24.703125 12.671875 31.3125 
Q 6.296875 37.9375 6.296875 49.421875 
Q 6.296875 60.640625 12.9375 67.421875 
Q 19.578125 74.21875 30.609375 74.21875 
Q 43.265625 74.21875 49.921875 64.515625 
Q 56.59375 54.828125 56.59375 36.375 
Q 56.59375 19.140625 48.40625 8.859375 
Q 40.234375 -1.421875 26.421875 -1.421875 
Q 22.703125 -1.421875 18.890625 -0.6875 
Q 15.09375 0.046875 10.984375 1.515625 
z
M 30.609375 32.421875 
Q 37.25 32.421875 41.125 36.953125 
Q 45.015625 41.5 45.015625 49.421875 
Q 45.015625 57.28125 41.125 61.84375 
Q 37.25 66.40625 30.609375 66.40625 
Q 23.96875 66.40625 20.09375 61.84375 
Q 16.21875 57.28125 16.21875 49.421875 
Q 16.21875 41.5 20.09375 36.953125 
Q 23.96875 32.421875 30.609375 32.421875 
z
" id="DejaVuSans-57"/>
      </defs>
      <g transform="translate(71.772131 261.251436)rotate(-30)scale(0.1 -0.1)">
       <use xlink:href="#DejaVuSans-48"/>
       <use x="63.623047" xlink:href="#DejaVuSans-57"/>
       <use x="127.246094" xlink:href="#DejaVuSans-47"/>
       <use x="160.9375" xlink:href="#DejaVuSans-48"/>
       <use x="224.560547" xlink:href="#DejaVuSans-51"/>
       <use x="288.183594" xlink:href="#DejaVuSans-47"/>
       <use x="321.875" xlink:href="#DejaVuSans-50"/>
       <use x="385.498047" xlink:href="#DejaVuSans-48"/>
       <use x="449.121094" xlink:href="#DejaVuSans-50"/>
       <use x="512.744141" xlink:href="#DejaVuSans-48"/>
      </g>
     </g>
    </g>
    <g id="xtick_4">
     <g id="line2d_4">
      <g>
       <use style="stroke:#000000;stroke-width:0.8;" x="150.73807" xlink:href="#mf9ba84c818" y="218.852246"/>
      </g>
     </g>
     <g id="text_4">
      <!-- 16/03/2020 -->
      <defs>
       <path d="M 12.40625 8.296875 
L 28.515625 8.296875 
L 28.515625 63.921875 
L 10.984375 60.40625 
L 10.984375 69.390625 
L 28.421875 72.90625 
L 38.28125 72.90625 
L 38.28125 8.296875 
L 54.390625 8.296875 
L 54.390625 0 
L 12.40625 0 
z
" id="DejaVuSans-49"/>
       <path d="M 33.015625 40.375 
Q 26.375 40.375 22.484375 35.828125 
Q 18.609375 31.296875 18.609375 23.390625 
Q 18.609375 15.53125 22.484375 10.953125 
Q 26.375 6.390625 33.015625 6.390625 
Q 39.65625 6.390625 43.53125 10.953125 
Q 47.40625 15.53125 47.40625 23.390625 
Q 47.40625 31.296875 43.53125 35.828125 
Q 39.65625 40.375 33.015625 40.375 
z
M 52.59375 71.296875 
L 52.59375 62.3125 
Q 48.875 64.0625 45.09375 64.984375 
Q 41.3125 65.921875 37.59375 65.921875 
Q 27.828125 65.921875 22.671875 59.328125 
Q 17.53125 52.734375 16.796875 39.40625 
Q 19.671875 43.65625 24.015625 45.921875 
Q 28.375 48.1875 33.59375 48.1875 
Q 44.578125 48.1875 50.953125 41.515625 
Q 57.328125 34.859375 57.328125 23.390625 
Q 57.328125 12.15625 50.6875 5.359375 
Q 44.046875 -1.421875 33.015625 -1.421875 
Q 20.359375 -1.421875 13.671875 8.265625 
Q 6.984375 17.96875 6.984375 36.375 
Q 6.984375 53.65625 15.1875 63.9375 
Q 23.390625 74.21875 37.203125 74.21875 
Q 40.921875 74.21875 44.703125 73.484375 
Q 48.484375 72.75 52.59375 71.296875 
z
" id="DejaVuSans-54"/>
      </defs>
      <g transform="translate(99.782687 261.251436)rotate(-30)scale(0.1 -0.1)">
       <use xlink:href="#DejaVuSans-49"/>
       <use x="63.623047" xlink:href="#DejaVuSans-54"/>
       <use x="127.246094" xlink:href="#DejaVuSans-47"/>
       <use x="160.9375" xlink:href="#DejaVuSans-48"/>
       <use x="224.560547" xlink:href="#DejaVuSans-51"/>
       <use x="288.183594" xlink:href="#DejaVuSans-47"/>
       <use x="321.875" xlink:href="#DejaVuSans-50"/>
       <use x="385.498047" xlink:href="#DejaVuSans-48"/>
       <use x="449.121094" xlink:href="#DejaVuSans-50"/>
       <use x="512.744141" xlink:href="#DejaVuSans-48"/>
      </g>
     </g>
    </g>
    <g id="xtick_5">
     <g id="line2d_5">
      <g>
       <use style="stroke:#000000;stroke-width:0.8;" x="178.748627" xlink:href="#mf9ba84c818" y="218.852246"/>
      </g>
     </g>
     <g id="text_5">
      <!-- 23/03/2020 -->
      <g transform="translate(127.793244 261.251436)rotate(-30)scale(0.1 -0.1)">
       <use xlink:href="#DejaVuSans-50"/>
       <use x="63.623047" xlink:href="#DejaVuSans-51"/>
       <use x="127.246094" xlink:href="#DejaVuSans-47"/>
       <use x="160.9375" xlink:href="#DejaVuSans-48"/>
       <use x="224.560547" xlink:href="#DejaVuSans-51"/>
       <use x="288.183594" xlink:href="#DejaVuSans-47"/>
       <use x="321.875" xlink:href="#DejaVuSans-50"/>
       <use x="385.498047" xlink:href="#DejaVuSans-48"/>
       <use x="449.121094" xlink:href="#DejaVuSans-50"/>
       <use x="512.744141" xlink:href="#DejaVuSans-48"/>
      </g>
     </g>
    </g>
    <g id="xtick_6">
     <g id="line2d_6">
      <g>
       <use style="stroke:#000000;stroke-width:0.8;" x="206.759183" xlink:href="#mf9ba84c818" y="218.852246"/>
      </g>
     </g>
     <g id="text_6">
      <!-- 30/03/2020 -->
      <g transform="translate(155.8038 261.251436)rotate(-30)scale(0.1 -0.1)">
       <use xlink:href="#DejaVuSans-51"/>
       <use x="63.623047" xlink:href="#DejaVuSans-48"/>
       <use x="127.246094" xlink:href="#DejaVuSans-47"/>
       <use x="160.9375" xlink:href="#DejaVuSans-48"/>
       <use x="224.560547" xlink:href="#DejaVuSans-51"/>
       <use x="288.183594" xlink:href="#DejaVuSans-47"/>
       <use x="321.875" xlink:href="#DejaVuSans-50"/>
       <use x="385.498047" xlink:href="#DejaVuSans-48"/>
       <use x="449.121094" xlink:href="#DejaVuSans-50"/>
       <use x="512.744141" xlink:href="#DejaVuSans-48"/>
      </g>
     </g>
    </g>
    <g id="xtick_7">
     <g id="line2d_7">
      <g>
       <use style="stroke:#000000;stroke-width:0.8;" x="234.76974" xlink:href="#mf9ba84c818" y="218.852246"/>
      </g>
     </g>
     <g id="text_7">
      <!-- 06/04/2020 -->
      <g transform="translate(183.814357 261.251436)rotate(-30)scale(0.1 -0.1)">
       <use xlink:href="#DejaVuSans-48"/>
       <use x="63.623047" xlink:href="#DejaVuSans-54"/>
       <use x="127.246094" xlink:href="#DejaVuSans-47"/>
       <use x="160.9375" xlink:href="#DejaVuSans-48"/>
       <use x="224.560547" xlink:href="#DejaVuSans-52"/>
       <use x="288.183594" xlink:href="#DejaVuSans-47"/>
       <use x="321.875" xlink:href="#DejaVuSans-50"/>
       <use x="385.498047" xlink:href="#DejaVuSans-48"/>
       <use x="449.121094" xlink:href="#DejaVuSans-50"/>
       <use x="512.744141" xlink:href="#DejaVuSans-48"/>
      </g>
     </g>
    </g>
    <g id="xtick_8">
     <g id="line2d_8">
      <g>
       <use style="stroke:#000000;stroke-width:0.8;" x="262.780296" xlink:href="#mf9ba84c818" y="218.852246"/>
      </g>
     </g>
     <g id="text_8">
      <!-- 13/04/2020 -->
      <g transform="translate(211.824913 261.251436)rotate(-30)scale(0.1 -0.1)">
       <use xlink:href="#DejaVuSans-49"/>
       <use x="63.623047" xlink:href="#DejaVuSans-51"/>
       <use x="127.246094" xlink:href="#DejaVuSans-47"/>
       <use x="160.9375" xlink:href="#DejaVuSans-48"/>
       <use x="224.560547" xlink:href="#DejaVuSans-52"/>
       <use x="288.183594" xlink:href="#DejaVuSans-47"/>
       <use x="321.875" xlink:href="#DejaVuSans-50"/>
       <use x="385.498047" xlink:href="#DejaVuSans-48"/>
       <use x="449.121094" xlink:href="#DejaVuSans-50"/>
       <use x="512.744141" xlink:href="#DejaVuSans-48"/>
      </g>
     </g>
    </g>
    <g id="xtick_9">
     <g id="line2d_9">
      <g>
       <use style="stroke:#000000;stroke-width:0.8;" x="290.790852" xlink:href="#mf9ba84c818" y="218.852246"/>
      </g>
     </g>
     <g id="text_9">
      <!-- 20/04/2020 -->
      <g transform="translate(239.835469 261.251436)rotate(-30)scale(0.1 -0.1)">
       <use xlink:href="#DejaVuSans-50"/>
       <use x="63.623047" xlink:href="#DejaVuSans-48"/>
       <use x="127.246094" xlink:href="#DejaVuSans-47"/>
       <use x="160.9375" xlink:href="#DejaVuSans-48"/>
       <use x="224.560547" xlink:href="#DejaVuSans-52"/>
       <use x="288.183594" xlink:href="#DejaVuSans-47"/>
       <use x="321.875" xlink:href="#DejaVuSans-50"/>
       <use x="385.498047" xlink:href="#DejaVuSans-48"/>
       <use x="449.121094" xlink:href="#DejaVuSans-50"/>
       <use x="512.744141" xlink:href="#DejaVuSans-48"/>
      </g>
     </g>
    </g>
    <g id="xtick_10">
     <g id="line2d_10">
      <g>
       <use style="stroke:#000000;stroke-width:0.8;" x="318.801409" xlink:href="#mf9ba84c818" y="218.852246"/>
      </g>
     </g>
     <g id="text_10">
      <!-- 27/04/2020 -->
      <defs>
       <path d="M 8.203125 72.90625 
L 55.078125 72.90625 
L 55.078125 68.703125 
L 28.609375 0 
L 18.3125 0 
L 43.21875 64.59375 
L 8.203125 64.59375 
z
" id="DejaVuSans-55"/>
      </defs>
      <g transform="translate(267.846026 261.251436)rotate(-30)scale(0.1 -0.1)">
       <use xlink:href="#DejaVuSans-50"/>
       <use x="63.623047" xlink:href="#DejaVuSans-55"/>
       <use x="127.246094" xlink:href="#DejaVuSans-47"/>
       <use x="160.9375" xlink:href="#DejaVuSans-48"/>
       <use x="224.560547" xlink:href="#DejaVuSans-52"/>
       <use x="288.183594" xlink:href="#DejaVuSans-47"/>
       <use x="321.875" xlink:href="#DejaVuSans-50"/>
       <use x="385.498047" xlink:href="#DejaVuSans-48"/>
       <use x="449.121094" xlink:href="#DejaVuSans-50"/>
       <use x="512.744141" xlink:href="#DejaVuSans-48"/>
      </g>
     </g>
    </g>
    <g id="xtick_11">
     <g id="line2d_11">
      <g>
       <use style="stroke:#000000;stroke-width:0.8;" x="346.811965" xlink:href="#mf9ba84c818" y="218.852246"/>
      </g>
     </g>
     <g id="text_11">
      <!-- 04/05/2020 -->
      <defs>
       <path d="M 10.796875 72.90625 
L 49.515625 72.90625 
L 49.515625 64.59375 
L 19.828125 64.59375 
L 19.828125 46.734375 
Q 21.96875 47.46875 24.109375 47.828125 
Q 26.265625 48.1875 28.421875 48.1875 
Q 40.625 48.1875 47.75 41.5 
Q 54.890625 34.8125 54.890625 23.390625 
Q 54.890625 11.625 47.5625 5.09375 
Q 40.234375 -1.421875 26.90625 -1.421875 
Q 22.3125 -1.421875 17.546875 -0.640625 
Q 12.796875 0.140625 7.71875 1.703125 
L 7.71875 11.625 
Q 12.109375 9.234375 16.796875 8.0625 
Q 21.484375 6.890625 26.703125 6.890625 
Q 35.15625 6.890625 40.078125 11.328125 
Q 45.015625 15.765625 45.015625 23.390625 
Q 45.015625 31 40.078125 35.4375 
Q 35.15625 39.890625 26.703125 39.890625 
Q 22.75 39.890625 18.8125 39.015625 
Q 14.890625 38.140625 10.796875 36.28125 
z
" id="DejaVuSans-53"/>
      </defs>
      <g transform="translate(295.856582 261.251436)rotate(-30)scale(0.1 -0.1)">
       <use xlink:href="#DejaVuSans-48"/>
       <use x="63.623047" xlink:href="#DejaVuSans-52"/>
       <use x="127.246094" xlink:href="#DejaVuSans-47"/>
       <use x="160.9375" xlink:href="#DejaVuSans-48"/>
       <use x="224.560547" xlink:href="#DejaVuSans-53"/>
       <use x="288.183594" xlink:href="#DejaVuSans-47"/>
       <use x="321.875" xlink:href="#DejaVuSans-50"/>
       <use x="385.498047" xlink:href="#DejaVuSans-48"/>
       <use x="449.121094" xlink:href="#DejaVuSans-50"/>
       <use x="512.744141" xlink:href="#DejaVuSans-48"/>
      </g>
     </g>
    </g>
    <g id="xtick_12">
     <g id="line2d_12">
      <g>
       <use style="stroke:#000000;stroke-width:0.8;" x="374.822522" xlink:href="#mf9ba84c818" y="218.852246"/>
      </g>
     </g>
     <g id="text_12">
      <!-- 11/05/2020 -->
      <g transform="translate(323.867139 261.251436)rotate(-30)scale(0.1 -0.1)">
       <use xlink:href="#DejaVuSans-49"/>
       <use x="63.623047" xlink:href="#DejaVuSans-49"/>
       <use x="127.246094" xlink:href="#DejaVuSans-47"/>
       <use x="160.9375" xlink:href="#DejaVuSans-48"/>
       <use x="224.560547" xlink:href="#DejaVuSans-53"/>
       <use x="288.183594" xlink:href="#DejaVuSans-47"/>
       <use x="321.875" xlink:href="#DejaVuSans-50"/>
       <use x="385.498047" xlink:href="#DejaVuSans-48"/>
       <use x="449.121094" xlink:href="#DejaVuSans-50"/>
       <use x="512.744141" xlink:href="#DejaVuSans-48"/>
      </g>
     </g>
    </g>
    <g id="xtick_13">
     <g id="line2d_13">
      <g>
       <use style="stroke:#000000;stroke-width:0.8;" x="402.833078" xlink:href="#mf9ba84c818" y="218.852246"/>
      </g>
     </g>
     <g id="text_13">
      <!-- 18/05/2020 -->
      <defs>
       <path d="M 31.78125 34.625 
Q 24.75 34.625 20.71875 30.859375 
Q 16.703125 27.09375 16.703125 20.515625 
Q 16.703125 13.921875 20.71875 10.15625 
Q 24.75 6.390625 31.78125 6.390625 
Q 38.8125 6.390625 42.859375 10.171875 
Q 46.921875 13.96875 46.921875 20.515625 
Q 46.921875 27.09375 42.890625 30.859375 
Q 38.875 34.625 31.78125 34.625 
z
M 21.921875 38.8125 
Q 15.578125 40.375 12.03125 44.71875 
Q 8.5 49.078125 8.5 55.328125 
Q 8.5 64.0625 14.71875 69.140625 
Q 20.953125 74.21875 31.78125 74.21875 
Q 42.671875 74.21875 48.875 69.140625 
Q 55.078125 64.0625 55.078125 55.328125 
Q 55.078125 49.078125 51.53125 44.71875 
Q 48 40.375 41.703125 38.8125 
Q 48.828125 37.15625 52.796875 32.3125 
Q 56.78125 27.484375 56.78125 20.515625 
Q 56.78125 9.90625 50.3125 4.234375 
Q 43.84375 -1.421875 31.78125 -1.421875 
Q 19.734375 -1.421875 13.25 4.234375 
Q 6.78125 9.90625 6.78125 20.515625 
Q 6.78125 27.484375 10.78125 32.3125 
Q 14.796875 37.15625 21.921875 38.8125 
z
M 18.3125 54.390625 
Q 18.3125 48.734375 21.84375 45.5625 
Q 25.390625 42.390625 31.78125 42.390625 
Q 38.140625 42.390625 41.71875 45.5625 
Q 45.3125 48.734375 45.3125 54.390625 
Q 45.3125 60.0625 41.71875 63.234375 
Q 38.140625 66.40625 31.78125 66.40625 
Q 25.390625 66.40625 21.84375 63.234375 
Q 18.3125 60.0625 18.3125 54.390625 
z
" id="DejaVuSans-56"/>
      </defs>
      <g transform="translate(351.877695 261.251436)rotate(-30)scale(0.1 -0.1)">
       <use xlink:href="#DejaVuSans-49"/>
       <use x="63.623047" xlink:href="#DejaVuSans-56"/>
       <use x="127.246094" xlink:href="#DejaVuSans-47"/>
       <use x="160.9375" xlink:href="#DejaVuSans-48"/>
       <use x="224.560547" xlink:href="#DejaVuSans-53"/>
       <use x="288.183594" xlink:href="#DejaVuSans-47"/>
       <use x="321.875" xlink:href="#DejaVuSans-50"/>
       <use x="385.498047" xlink:href="#DejaVuSans-48"/>
       <use x="449.121094" xlink:href="#DejaVuSans-50"/>
       <use x="512.744141" xlink:href="#DejaVuSans-48"/>
      </g>
     </g>
    </g>
    <g id="text_14">
     <!-- Day -->
     <defs>
      <path d="M 19.671875 64.796875 
L 19.671875 8.109375 
L 31.59375 8.109375 
Q 46.6875 8.109375 53.6875 14.9375 
Q 60.6875 21.78125 60.6875 36.53125 
Q 60.6875 51.171875 53.6875 57.984375 
Q 46.6875 64.796875 31.59375 64.796875 
z
M 9.8125 72.90625 
L 30.078125 72.90625 
Q 51.265625 72.90625 61.171875 64.09375 
Q 71.09375 55.28125 71.09375 36.53125 
Q 71.09375 17.671875 61.125 8.828125 
Q 51.171875 0 30.078125 0 
L 9.8125 0 
z
" id="DejaVuSans-68"/>
      <path d="M 34.28125 27.484375 
Q 23.390625 27.484375 19.1875 25 
Q 14.984375 22.515625 14.984375 16.5 
Q 14.984375 11.71875 18.140625 8.90625 
Q 21.296875 6.109375 26.703125 6.109375 
Q 34.1875 6.109375 38.703125 11.40625 
Q 43.21875 16.703125 43.21875 25.484375 
L 43.21875 27.484375 
z
M 52.203125 31.203125 
L 52.203125 0 
L 43.21875 0 
L 43.21875 8.296875 
Q 40.140625 3.328125 35.546875 0.953125 
Q 30.953125 -1.421875 24.3125 -1.421875 
Q 15.921875 -1.421875 10.953125 3.296875 
Q 6 8.015625 6 15.921875 
Q 6 25.140625 12.171875 29.828125 
Q 18.359375 34.515625 30.609375 34.515625 
L 43.21875 34.515625 
L 43.21875 35.40625 
Q 43.21875 41.609375 39.140625 45 
Q 35.0625 48.390625 27.6875 48.390625 
Q 23 48.390625 18.546875 47.265625 
Q 14.109375 46.140625 10.015625 43.890625 
L 10.015625 52.203125 
Q 14.9375 54.109375 19.578125 55.046875 
Q 24.21875 56 28.609375 56 
Q 40.484375 56 46.34375 49.84375 
Q 52.203125 43.703125 52.203125 31.203125 
z
" id="DejaVuSans-97"/>
      <path d="M 32.171875 -5.078125 
Q 28.375 -14.84375 24.75 -17.8125 
Q 21.140625 -20.796875 15.09375 -20.796875 
L 7.90625 -20.796875 
L 7.90625 -13.28125 
L 13.1875 -13.28125 
Q 16.890625 -13.28125 18.9375 -11.515625 
Q 21 -9.765625 23.484375 -3.21875 
L 25.09375 0.875 
L 2.984375 54.6875 
L 12.5 54.6875 
L 29.59375 11.921875 
L 46.6875 54.6875 
L 56.203125 54.6875 
z
" id="DejaVuSans-121"/>
     </defs>
     <g transform="translate(226.897056 274.650936)scale(0.1 -0.1)">
      <use xlink:href="#DejaVuSans-68"/>
      <use x="77.001953" xlink:href="#DejaVuSans-97"/>
      <use x="138.28125" xlink:href="#DejaVuSans-121"/>
     </g>
    </g>
   </g>
   <g id="matplotlib.axis_2">
    <g id="ytick_1">
     <g id="line2d_14">
      <defs>
       <path d="M 0 0 
L -3.5 0 
" id="ma901b7fb65" style="stroke:#000000;stroke-width:0.8;"/>
      </defs>
      <g>
       <use style="stroke:#000000;stroke-width:0.8;" x="52.340987" xlink:href="#ma901b7fb65" y="218.852246"/>
      </g>
     </g>
     <g id="text_15">
      <!-- 0 -->
      <g transform="translate(38.978487 222.651465)scale(0.1 -0.1)">
       <use xlink:href="#DejaVuSans-48"/>
      </g>
     </g>
    </g>
    <g id="ytick_2">
     <g id="line2d_15">
      <g>
       <use style="stroke:#000000;stroke-width:0.8;" x="52.340987" xlink:href="#ma901b7fb65" y="188.271654"/>
      </g>
     </g>
     <g id="text_16">
      <!-- 20 -->
      <g transform="translate(32.615987 192.070873)scale(0.1 -0.1)">
       <use xlink:href="#DejaVuSans-50"/>
       <use x="63.623047" xlink:href="#DejaVuSans-48"/>
      </g>
     </g>
    </g>
    <g id="ytick_3">
     <g id="line2d_16">
      <g>
       <use style="stroke:#000000;stroke-width:0.8;" x="52.340987" xlink:href="#ma901b7fb65" y="157.691063"/>
      </g>
     </g>
     <g id="text_17">
      <!-- 40 -->
      <g transform="translate(32.615987 161.490282)scale(0.1 -0.1)">
       <use xlink:href="#DejaVuSans-52"/>
       <use x="63.623047" xlink:href="#DejaVuSans-48"/>
      </g>
     </g>
    </g>
    <g id="ytick_4">
     <g id="line2d_17">
      <g>
       <use style="stroke:#000000;stroke-width:0.8;" x="52.340987" xlink:href="#ma901b7fb65" y="127.110471"/>
      </g>
     </g>
     <g id="text_18">
      <!-- 60 -->
      <g transform="translate(32.615987 130.90969)scale(0.1 -0.1)">
       <use xlink:href="#DejaVuSans-54"/>
       <use x="63.623047" xlink:href="#DejaVuSans-48"/>
      </g>
     </g>
    </g>
    <g id="ytick_5">
     <g id="line2d_18">
      <g>
       <use style="stroke:#000000;stroke-width:0.8;" x="52.340987" xlink:href="#ma901b7fb65" y="96.52988"/>
      </g>
     </g>
     <g id="text_19">
      <!-- 80 -->
      <g transform="translate(32.615987 100.329098)scale(0.1 -0.1)">
       <use xlink:href="#DejaVuSans-56"/>
       <use x="63.623047" xlink:href="#DejaVuSans-48"/>
      </g>
     </g>
    </g>
    <g id="ytick_6">
     <g id="line2d_19">
      <g>
       <use style="stroke:#000000;stroke-width:0.8;" x="52.340987" xlink:href="#ma901b7fb65" y="65.949288"/>
      </g>
     </g>
     <g id="text_20">
      <!-- 100 -->
      <g transform="translate(26.253487 69.748507)scale(0.1 -0.1)">
       <use xlink:href="#DejaVuSans-49"/>
       <use x="63.623047" xlink:href="#DejaVuSans-48"/>
       <use x="127.246094" xlink:href="#DejaVuSans-48"/>
      </g>
     </g>
    </g>
    <g id="ytick_7">
     <g id="line2d_20">
      <g>
       <use style="stroke:#000000;stroke-width:0.8;" x="52.340987" xlink:href="#ma901b7fb65" y="35.368696"/>
      </g>
     </g>
     <g id="text_21">
      <!-- 120 -->
      <g transform="translate(26.253487 39.167915)scale(0.1 -0.1)">
       <use xlink:href="#DejaVuSans-49"/>
       <use x="63.623047" xlink:href="#DejaVuSans-50"/>
       <use x="127.246094" xlink:href="#DejaVuSans-48"/>
      </g>
     </g>
    </g>
    <g id="text_22">
     <!-- Numbers of comments -->
     <defs>
      <path d="M 9.8125 72.90625 
L 23.09375 72.90625 
L 55.421875 11.921875 
L 55.421875 72.90625 
L 64.984375 72.90625 
L 64.984375 0 
L 51.703125 0 
L 19.390625 60.984375 
L 19.390625 0 
L 9.8125 0 
z
" id="DejaVuSans-78"/>
      <path d="M 8.5 21.578125 
L 8.5 54.6875 
L 17.484375 54.6875 
L 17.484375 21.921875 
Q 17.484375 14.15625 20.5 10.265625 
Q 23.53125 6.390625 29.59375 6.390625 
Q 36.859375 6.390625 41.078125 11.03125 
Q 45.3125 15.671875 45.3125 23.6875 
L 45.3125 54.6875 
L 54.296875 54.6875 
L 54.296875 0 
L 45.3125 0 
L 45.3125 8.40625 
Q 42.046875 3.421875 37.71875 1 
Q 33.40625 -1.421875 27.6875 -1.421875 
Q 18.265625 -1.421875 13.375 4.4375 
Q 8.5 10.296875 8.5 21.578125 
z
M 31.109375 56 
z
" id="DejaVuSans-117"/>
      <path d="M 52 44.1875 
Q 55.375 50.25 60.0625 53.125 
Q 64.75 56 71.09375 56 
Q 79.640625 56 84.28125 50.015625 
Q 88.921875 44.046875 88.921875 33.015625 
L 88.921875 0 
L 79.890625 0 
L 79.890625 32.71875 
Q 79.890625 40.578125 77.09375 44.375 
Q 74.3125 48.1875 68.609375 48.1875 
Q 61.625 48.1875 57.5625 43.546875 
Q 53.515625 38.921875 53.515625 30.90625 
L 53.515625 0 
L 44.484375 0 
L 44.484375 32.71875 
Q 44.484375 40.625 41.703125 44.40625 
Q 38.921875 48.1875 33.109375 48.1875 
Q 26.21875 48.1875 22.15625 43.53125 
Q 18.109375 38.875 18.109375 30.90625 
L 18.109375 0 
L 9.078125 0 
L 9.078125 54.6875 
L 18.109375 54.6875 
L 18.109375 46.1875 
Q 21.1875 51.21875 25.484375 53.609375 
Q 29.78125 56 35.6875 56 
Q 41.65625 56 45.828125 52.96875 
Q 50 49.953125 52 44.1875 
z
" id="DejaVuSans-109"/>
      <path d="M 48.6875 27.296875 
Q 48.6875 37.203125 44.609375 42.84375 
Q 40.53125 48.484375 33.40625 48.484375 
Q 26.265625 48.484375 22.1875 42.84375 
Q 18.109375 37.203125 18.109375 27.296875 
Q 18.109375 17.390625 22.1875 11.75 
Q 26.265625 6.109375 33.40625 6.109375 
Q 40.53125 6.109375 44.609375 11.75 
Q 48.6875 17.390625 48.6875 27.296875 
z
M 18.109375 46.390625 
Q 20.953125 51.265625 25.265625 53.625 
Q 29.59375 56 35.59375 56 
Q 45.5625 56 51.78125 48.09375 
Q 58.015625 40.1875 58.015625 27.296875 
Q 58.015625 14.40625 51.78125 6.484375 
Q 45.5625 -1.421875 35.59375 -1.421875 
Q 29.59375 -1.421875 25.265625 0.953125 
Q 20.953125 3.328125 18.109375 8.203125 
L 18.109375 0 
L 9.078125 0 
L 9.078125 75.984375 
L 18.109375 75.984375 
z
" id="DejaVuSans-98"/>
      <path d="M 56.203125 29.59375 
L 56.203125 25.203125 
L 14.890625 25.203125 
Q 15.484375 15.921875 20.484375 11.0625 
Q 25.484375 6.203125 34.421875 6.203125 
Q 39.59375 6.203125 44.453125 7.46875 
Q 49.3125 8.734375 54.109375 11.28125 
L 54.109375 2.78125 
Q 49.265625 0.734375 44.1875 -0.34375 
Q 39.109375 -1.421875 33.890625 -1.421875 
Q 20.796875 -1.421875 13.15625 6.1875 
Q 5.515625 13.8125 5.515625 26.8125 
Q 5.515625 40.234375 12.765625 48.109375 
Q 20.015625 56 32.328125 56 
Q 43.359375 56 49.78125 48.890625 
Q 56.203125 41.796875 56.203125 29.59375 
z
M 47.21875 32.234375 
Q 47.125 39.59375 43.09375 43.984375 
Q 39.0625 48.390625 32.421875 48.390625 
Q 24.90625 48.390625 20.390625 44.140625 
Q 15.875 39.890625 15.1875 32.171875 
z
" id="DejaVuSans-101"/>
      <path d="M 41.109375 46.296875 
Q 39.59375 47.171875 37.8125 47.578125 
Q 36.03125 48 33.890625 48 
Q 26.265625 48 22.1875 43.046875 
Q 18.109375 38.09375 18.109375 28.8125 
L 18.109375 0 
L 9.078125 0 
L 9.078125 54.6875 
L 18.109375 54.6875 
L 18.109375 46.1875 
Q 20.953125 51.171875 25.484375 53.578125 
Q 30.03125 56 36.53125 56 
Q 37.453125 56 38.578125 55.875 
Q 39.703125 55.765625 41.0625 55.515625 
z
" id="DejaVuSans-114"/>
      <path d="M 44.28125 53.078125 
L 44.28125 44.578125 
Q 40.484375 46.53125 36.375 47.5 
Q 32.28125 48.484375 27.875 48.484375 
Q 21.1875 48.484375 17.84375 46.4375 
Q 14.5 44.390625 14.5 40.28125 
Q 14.5 37.15625 16.890625 35.375 
Q 19.28125 33.59375 26.515625 31.984375 
L 29.59375 31.296875 
Q 39.15625 29.25 43.1875 25.515625 
Q 47.21875 21.78125 47.21875 15.09375 
Q 47.21875 7.46875 41.1875 3.015625 
Q 35.15625 -1.421875 24.609375 -1.421875 
Q 20.21875 -1.421875 15.453125 -0.5625 
Q 10.6875 0.296875 5.421875 2 
L 5.421875 11.28125 
Q 10.40625 8.6875 15.234375 7.390625 
Q 20.0625 6.109375 24.8125 6.109375 
Q 31.15625 6.109375 34.5625 8.28125 
Q 37.984375 10.453125 37.984375 14.40625 
Q 37.984375 18.0625 35.515625 20.015625 
Q 33.0625 21.96875 24.703125 23.78125 
L 21.578125 24.515625 
Q 13.234375 26.265625 9.515625 29.90625 
Q 5.8125 33.546875 5.8125 39.890625 
Q 5.8125 47.609375 11.28125 51.796875 
Q 16.75 56 26.8125 56 
Q 31.78125 56 36.171875 55.265625 
Q 40.578125 54.546875 44.28125 53.078125 
z
" id="DejaVuSans-115"/>
      <path id="DejaVuSans-32"/>
      <path d="M 30.609375 48.390625 
Q 23.390625 48.390625 19.1875 42.75 
Q 14.984375 37.109375 14.984375 27.296875 
Q 14.984375 17.484375 19.15625 11.84375 
Q 23.34375 6.203125 30.609375 6.203125 
Q 37.796875 6.203125 41.984375 11.859375 
Q 46.1875 17.53125 46.1875 27.296875 
Q 46.1875 37.015625 41.984375 42.703125 
Q 37.796875 48.390625 30.609375 48.390625 
z
M 30.609375 56 
Q 42.328125 56 49.015625 48.375 
Q 55.71875 40.765625 55.71875 27.296875 
Q 55.71875 13.875 49.015625 6.21875 
Q 42.328125 -1.421875 30.609375 -1.421875 
Q 18.84375 -1.421875 12.171875 6.21875 
Q 5.515625 13.875 5.515625 27.296875 
Q 5.515625 40.765625 12.171875 48.375 
Q 18.84375 56 30.609375 56 
z
" id="DejaVuSans-111"/>
      <path d="M 37.109375 75.984375 
L 37.109375 68.5 
L 28.515625 68.5 
Q 23.6875 68.5 21.796875 66.546875 
Q 19.921875 64.59375 19.921875 59.515625 
L 19.921875 54.6875 
L 34.71875 54.6875 
L 34.71875 47.703125 
L 19.921875 47.703125 
L 19.921875 0 
L 10.890625 0 
L 10.890625 47.703125 
L 2.296875 47.703125 
L 2.296875 54.6875 
L 10.890625 54.6875 
L 10.890625 58.5 
Q 10.890625 67.625 15.140625 71.796875 
Q 19.390625 75.984375 28.609375 75.984375 
z
" id="DejaVuSans-102"/>
      <path d="M 48.78125 52.59375 
L 48.78125 44.1875 
Q 44.96875 46.296875 41.140625 47.34375 
Q 37.3125 48.390625 33.40625 48.390625 
Q 24.65625 48.390625 19.8125 42.84375 
Q 14.984375 37.3125 14.984375 27.296875 
Q 14.984375 17.28125 19.8125 11.734375 
Q 24.65625 6.203125 33.40625 6.203125 
Q 37.3125 6.203125 41.140625 7.25 
Q 44.96875 8.296875 48.78125 10.40625 
L 48.78125 2.09375 
Q 45.015625 0.34375 40.984375 -0.53125 
Q 36.96875 -1.421875 32.421875 -1.421875 
Q 20.0625 -1.421875 12.78125 6.34375 
Q 5.515625 14.109375 5.515625 27.296875 
Q 5.515625 40.671875 12.859375 48.328125 
Q 20.21875 56 33.015625 56 
Q 37.15625 56 41.109375 55.140625 
Q 45.0625 54.296875 48.78125 52.59375 
z
" id="DejaVuSans-99"/>
      <path d="M 54.890625 33.015625 
L 54.890625 0 
L 45.90625 0 
L 45.90625 32.71875 
Q 45.90625 40.484375 42.875 44.328125 
Q 39.84375 48.1875 33.796875 48.1875 
Q 26.515625 48.1875 22.3125 43.546875 
Q 18.109375 38.921875 18.109375 30.90625 
L 18.109375 0 
L 9.078125 0 
L 9.078125 54.6875 
L 18.109375 54.6875 
L 18.109375 46.1875 
Q 21.34375 51.125 25.703125 53.5625 
Q 30.078125 56 35.796875 56 
Q 45.21875 56 50.046875 50.171875 
Q 54.890625 44.34375 54.890625 33.015625 
z
" id="DejaVuSans-110"/>
      <path d="M 18.3125 70.21875 
L 18.3125 54.6875 
L 36.8125 54.6875 
L 36.8125 47.703125 
L 18.3125 47.703125 
L 18.3125 18.015625 
Q 18.3125 11.328125 20.140625 9.421875 
Q 21.96875 7.515625 27.59375 7.515625 
L 36.8125 7.515625 
L 36.8125 0 
L 27.59375 0 
Q 17.1875 0 13.234375 3.875 
Q 9.28125 7.765625 9.28125 18.015625 
L 9.28125 47.703125 
L 2.6875 47.703125 
L 2.6875 54.6875 
L 9.28125 54.6875 
L 9.28125 70.21875 
z
" id="DejaVuSans-116"/>
     </defs>
     <g transform="translate(20.1738 180.373779)rotate(-90)scale(0.1 -0.1)">
      <use xlink:href="#DejaVuSans-78"/>
      <use x="74.804688" xlink:href="#DejaVuSans-117"/>
      <use x="138.183594" xlink:href="#DejaVuSans-109"/>
      <use x="235.595703" xlink:href="#DejaVuSans-98"/>
      <use x="299.072266" xlink:href="#DejaVuSans-101"/>
      <use x="360.595703" xlink:href="#DejaVuSans-114"/>
      <use x="401.708984" xlink:href="#DejaVuSans-115"/>
      <use x="453.808594" xlink:href="#DejaVuSans-32"/>
      <use x="485.595703" xlink:href="#DejaVuSans-111"/>
      <use x="546.777344" xlink:href="#DejaVuSans-102"/>
      <use x="581.982422" xlink:href="#DejaVuSans-32"/>
      <use x="613.769531" xlink:href="#DejaVuSans-99"/>
      <use x="668.75" xlink:href="#DejaVuSans-111"/>
      <use x="729.931641" xlink:href="#DejaVuSans-109"/>
      <use x="827.34375" xlink:href="#DejaVuSans-109"/>
      <use x="924.755859" xlink:href="#DejaVuSans-101"/>
      <use x="986.279297" xlink:href="#DejaVuSans-110"/>
      <use x="1049.658203" xlink:href="#DejaVuSans-116"/>
      <use x="1088.867188" xlink:href="#DejaVuSans-115"/>
     </g>
    </g>
   </g>
   <g id="patch_68">
    <path d="M 52.340987 218.852246 
L 52.340987 27.8 
" style="fill:none;stroke:#000000;stroke-linecap:square;stroke-linejoin:miter;stroke-width:0.8;"/>
   </g>
   <g id="patch_69">
    <path d="M 421.2 218.852246 
L 421.2 27.8 
" style="fill:none;stroke:#000000;stroke-linecap:square;stroke-linejoin:miter;stroke-width:0.8;"/>
   </g>
   <g id="patch_70">
    <path d="M 52.340987 218.852246 
L 421.2 218.852246 
" style="fill:none;stroke:#000000;stroke-linecap:square;stroke-linejoin:miter;stroke-width:0.8;"/>
   </g>
   <g id="patch_71">
    <path d="M 52.340987 27.8 
L 421.2 27.8 
" style="fill:none;stroke:#000000;stroke-linecap:square;stroke-linejoin:miter;stroke-width:0.8;"/>
   </g>
   <g id="text_23">
    <!-- Activity of user: Wo woar mei Leistung -->
    <defs>
     <path d="M 34.1875 63.1875 
L 20.796875 26.90625 
L 47.609375 26.90625 
z
M 28.609375 72.90625 
L 39.796875 72.90625 
L 67.578125 0 
L 57.328125 0 
L 50.6875 18.703125 
L 17.828125 18.703125 
L 11.1875 0 
L 0.78125 0 
z
" id="DejaVuSans-65"/>
     <path d="M 9.421875 54.6875 
L 18.40625 54.6875 
L 18.40625 0 
L 9.421875 0 
z
M 9.421875 75.984375 
L 18.40625 75.984375 
L 18.40625 64.59375 
L 9.421875 64.59375 
z
" id="DejaVuSans-105"/>
     <path d="M 2.984375 54.6875 
L 12.5 54.6875 
L 29.59375 8.796875 
L 46.6875 54.6875 
L 56.203125 54.6875 
L 35.6875 0 
L 23.484375 0 
z
" id="DejaVuSans-118"/>
     <path d="M 11.71875 12.40625 
L 22.015625 12.40625 
L 22.015625 0 
L 11.71875 0 
z
M 11.71875 51.703125 
L 22.015625 51.703125 
L 22.015625 39.3125 
L 11.71875 39.3125 
z
" id="DejaVuSans-58"/>
     <path d="M 3.328125 72.90625 
L 13.28125 72.90625 
L 28.609375 11.28125 
L 43.890625 72.90625 
L 54.984375 72.90625 
L 70.3125 11.28125 
L 85.59375 72.90625 
L 95.609375 72.90625 
L 77.296875 0 
L 64.890625 0 
L 49.515625 63.28125 
L 33.984375 0 
L 21.578125 0 
z
" id="DejaVuSans-87"/>
     <path d="M 4.203125 54.6875 
L 13.1875 54.6875 
L 24.421875 12.015625 
L 35.59375 54.6875 
L 46.1875 54.6875 
L 57.421875 12.015625 
L 68.609375 54.6875 
L 77.59375 54.6875 
L 63.28125 0 
L 52.6875 0 
L 40.921875 44.828125 
L 29.109375 0 
L 18.5 0 
z
" id="DejaVuSans-119"/>
     <path d="M 9.8125 72.90625 
L 19.671875 72.90625 
L 19.671875 8.296875 
L 55.171875 8.296875 
L 55.171875 0 
L 9.8125 0 
z
" id="DejaVuSans-76"/>
     <path d="M 45.40625 27.984375 
Q 45.40625 37.75 41.375 43.109375 
Q 37.359375 48.484375 30.078125 48.484375 
Q 22.859375 48.484375 18.828125 43.109375 
Q 14.796875 37.75 14.796875 27.984375 
Q 14.796875 18.265625 18.828125 12.890625 
Q 22.859375 7.515625 30.078125 7.515625 
Q 37.359375 7.515625 41.375 12.890625 
Q 45.40625 18.265625 45.40625 27.984375 
z
M 54.390625 6.78125 
Q 54.390625 -7.171875 48.1875 -13.984375 
Q 42 -20.796875 29.203125 -20.796875 
Q 24.46875 -20.796875 20.265625 -20.09375 
Q 16.0625 -19.390625 12.109375 -17.921875 
L 12.109375 -9.1875 
Q 16.0625 -11.328125 19.921875 -12.34375 
Q 23.78125 -13.375 27.78125 -13.375 
Q 36.625 -13.375 41.015625 -8.765625 
Q 45.40625 -4.15625 45.40625 5.171875 
L 45.40625 9.625 
Q 42.625 4.78125 38.28125 2.390625 
Q 33.9375 0 27.875 0 
Q 17.828125 0 11.671875 7.65625 
Q 5.515625 15.328125 5.515625 27.984375 
Q 5.515625 40.671875 11.671875 48.328125 
Q 17.828125 56 27.875 56 
Q 33.9375 56 38.28125 53.609375 
Q 42.625 51.21875 45.40625 46.390625 
L 45.40625 54.6875 
L 54.390625 54.6875 
z
" id="DejaVuSans-103"/>
    </defs>
    <g transform="translate(102.217369 21.8)scale(0.14 -0.14)">
     <use xlink:href="#DejaVuSans-65"/>
     <use x="66.658203" xlink:href="#DejaVuSans-99"/>
     <use x="121.638672" xlink:href="#DejaVuSans-116"/>
     <use x="160.847656" xlink:href="#DejaVuSans-105"/>
     <use x="188.630859" xlink:href="#DejaVuSans-118"/>
     <use x="247.810547" xlink:href="#DejaVuSans-105"/>
     <use x="275.59375" xlink:href="#DejaVuSans-116"/>
     <use x="314.802734" xlink:href="#DejaVuSans-121"/>
     <use x="373.982422" xlink:href="#DejaVuSans-32"/>
     <use x="405.769531" xlink:href="#DejaVuSans-111"/>
     <use x="466.951172" xlink:href="#DejaVuSans-102"/>
     <use x="502.15625" xlink:href="#DejaVuSans-32"/>
     <use x="533.943359" xlink:href="#DejaVuSans-117"/>
     <use x="597.322266" xlink:href="#DejaVuSans-115"/>
     <use x="649.421875" xlink:href="#DejaVuSans-101"/>
     <use x="710.945312" xlink:href="#DejaVuSans-114"/>
     <use x="750.308594" xlink:href="#DejaVuSans-58"/>
     <use x="784" xlink:href="#DejaVuSans-32"/>
     <use x="815.787109" xlink:href="#DejaVuSans-87"/>
     <use x="908.789062" xlink:href="#DejaVuSans-111"/>
     <use x="969.970703" xlink:href="#DejaVuSans-32"/>
     <use x="1001.757812" xlink:href="#DejaVuSans-119"/>
     <use x="1083.544922" xlink:href="#DejaVuSans-111"/>
     <use x="1144.726562" xlink:href="#DejaVuSans-97"/>
     <use x="1206.005859" xlink:href="#DejaVuSans-114"/>
     <use x="1247.119141" xlink:href="#DejaVuSans-32"/>
     <use x="1278.90625" xlink:href="#DejaVuSans-109"/>
     <use x="1376.318359" xlink:href="#DejaVuSans-101"/>
     <use x="1437.841797" xlink:href="#DejaVuSans-105"/>
     <use x="1465.625" xlink:href="#DejaVuSans-32"/>
     <use x="1497.412109" xlink:href="#DejaVuSans-76"/>
     <use x="1551.375" xlink:href="#DejaVuSans-101"/>
     <use x="1612.898438" xlink:href="#DejaVuSans-105"/>
     <use x="1640.681641" xlink:href="#DejaVuSans-115"/>
     <use x="1692.78125" xlink:href="#DejaVuSans-116"/>
     <use x="1731.990234" xlink:href="#DejaVuSans-117"/>
     <use x="1795.369141" xlink:href="#DejaVuSans-110"/>
     <use x="1858.748047" xlink:href="#DejaVuSans-103"/>
    </g>
   </g>
  </g>
 </g>
 <defs>
  <clipPath id="pf44aead23d">
   <rect height="191.052246" width="368.859013" x="52.340987" y="27.8"/>
  </clipPath>
 </defs>
</svg>
