<?xml version="1.0" encoding="utf-8" standalone="no"?>
<!DOCTYPE svg PUBLIC "-//W3C//DTD SVG 1.1//EN"
  "http://www.w3.org/Graphics/SVG/1.1/DTD/svg11.dtd">
<!-- Created with matplotlib (https://matplotlib.org/) -->
<svg height="288pt" version="1.1" viewBox="0 0 432 288" width="432pt" xmlns="http://www.w3.org/2000/svg" xmlns:xlink="http://www.w3.org/1999/xlink">
 <defs>
  <style type="text/css">
*{stroke-linecap:butt;stroke-linejoin:round;}
  </style>
 </defs>
 <g id="figure_1">
  <g id="patch_1">
   <path d="M 0 288 
L 432 288 
L 432 0 
L 0 0 
z
" style="fill:#ffffff;"/>
  </g>
  <g id="axes_1">
   <g id="patch_2">
    <path d="M 63.892463 218.852246 
L 421.2 218.852246 
L 421.2 27.8 
L 63.892463 27.8 
z
" style="fill:#ffffff;"/>
   </g>
   <g id="patch_3">
    <path clip-path="url(#pa18497297a)" d="M 80.133715 218.852246 
L 83.390106 218.852246 
L 83.390106 208.484467 
L 80.133715 208.484467 
z
" style="fill:#4169e1;"/>
   </g>
   <g id="patch_4">
    <path clip-path="url(#pa18497297a)" d="M 120.838606 218.852246 
L 124.094997 218.852246 
L 124.094997 218.333857 
L 120.838606 218.333857 
z
" style="fill:#4169e1;"/>
   </g>
   <g id="patch_5">
    <path clip-path="url(#pa18497297a)" d="M 137.120563 218.852246 
L 140.376954 218.852246 
L 140.376954 114.656068 
L 137.120563 114.656068 
z
"/>
   </g>
   <g id="patch_6">
    <path clip-path="url(#pa18497297a)" d="M 165.613987 218.852246 
L 168.870378 218.852246 
L 168.870378 144.722627 
L 165.613987 144.722627 
z
" style="fill:#4169e1;"/>
   </g>
   <g id="patch_7">
    <path clip-path="url(#pa18497297a)" d="M 128.979584 218.852246 
L 132.235976 218.852246 
L 132.235976 218.333857 
L 128.979584 218.333857 
z
"/>
   </g>
   <g id="patch_8">
    <path clip-path="url(#pa18497297a)" d="M 141.191052 218.852246 
L 144.447443 218.852246 
L 144.447443 177.899519 
L 141.191052 177.899519 
z
" style="fill:#4169e1;"/>
   </g>
   <g id="patch_9">
    <path clip-path="url(#pa18497297a)" d="M 145.261541 218.852246 
L 148.517932 218.852246 
L 148.517932 116.211235 
L 145.261541 116.211235 
z
" style="fill:#4169e1;"/>
   </g>
   <g id="patch_10">
    <path clip-path="url(#pa18497297a)" d="M 149.33203 218.852246 
L 152.588421 218.852246 
L 152.588421 138.501959 
L 149.33203 138.501959 
z
" style="fill:#4169e1;"/>
   </g>
   <g id="patch_11">
    <path clip-path="url(#pa18497297a)" d="M 153.402519 218.852246 
L 156.658911 218.852246 
L 156.658911 148.869738 
L 153.402519 148.869738 
z
" style="fill:#4169e1;"/>
   </g>
   <g id="patch_12">
    <path clip-path="url(#pa18497297a)" d="M 157.473008 218.852246 
L 160.7294 218.852246 
L 160.7294 138.501959 
L 157.473008 138.501959 
z
" style="fill:#4169e1;"/>
   </g>
   <g id="patch_13">
    <path clip-path="url(#pa18497297a)" d="M 161.543497 218.852246 
L 164.799889 218.852246 
L 164.799889 107.398623 
L 161.543497 107.398623 
z
" style="fill:#4169e1;"/>
   </g>
   <g id="patch_14">
    <path clip-path="url(#pa18497297a)" d="M 169.684476 218.852246 
L 172.940867 218.852246 
L 172.940867 175.825963 
L 169.684476 175.825963 
z
" style="fill:#4169e1;"/>
   </g>
   <g id="patch_15">
    <path clip-path="url(#pa18497297a)" d="M 173.754965 218.852246 
L 177.011356 218.852246 
L 177.011356 129.170958 
L 173.754965 129.170958 
z
" style="fill:#4169e1;"/>
   </g>
   <g id="patch_16">
    <path clip-path="url(#pa18497297a)" d="M 177.825454 218.852246 
L 181.081845 218.852246 
L 181.081845 90.291787 
L 177.825454 90.291787 
z
" style="fill:#4169e1;"/>
   </g>
   <g id="patch_17">
    <path clip-path="url(#pa18497297a)" d="M 181.895943 218.852246 
L 185.152335 218.852246 
L 185.152335 102.733122 
L 181.895943 102.733122 
z
" style="fill:#4169e1;"/>
   </g>
   <g id="patch_18">
    <path clip-path="url(#pa18497297a)" d="M 185.966432 218.852246 
L 189.222824 218.852246 
L 189.222824 183.083409 
L 185.966432 183.083409 
z
" style="fill:#4169e1;"/>
   </g>
   <g id="patch_19">
    <path clip-path="url(#pa18497297a)" d="M 190.036921 218.852246 
L 193.293313 218.852246 
L 193.293313 156.127184 
L 190.036921 156.127184 
z
" style="fill:#4169e1;"/>
   </g>
   <g id="patch_20">
    <path clip-path="url(#pa18497297a)" d="M 194.107411 218.852246 
L 197.363802 218.852246 
L 197.363802 139.538737 
L 194.107411 139.538737 
z
" style="fill:#4169e1;"/>
   </g>
   <g id="patch_21">
    <path clip-path="url(#pa18497297a)" d="M 198.1779 218.852246 
L 201.434291 218.852246 
L 201.434291 109.990567 
L 198.1779 109.990567 
z
" style="fill:#4169e1;"/>
   </g>
   <g id="patch_22">
    <path clip-path="url(#pa18497297a)" d="M 202.248389 218.852246 
L 205.50478 218.852246 
L 205.50478 163.903018 
L 202.248389 163.903018 
z
" style="fill:#4169e1;"/>
   </g>
   <g id="patch_23">
    <path clip-path="url(#pa18497297a)" d="M 206.318878 218.852246 
L 209.575269 218.852246 
L 209.575269 103.7699 
L 206.318878 103.7699 
z
"/>
   </g>
   <g id="patch_24">
    <path clip-path="url(#pa18497297a)" d="M 210.389367 218.852246 
L 213.645759 218.852246 
L 213.645759 147.83296 
L 210.389367 147.83296 
z
" style="fill:#4169e1;"/>
   </g>
   <g id="patch_25">
    <path clip-path="url(#pa18497297a)" d="M 214.459856 218.852246 
L 217.716248 218.852246 
L 217.716248 66.964285 
L 214.459856 66.964285 
z
" style="fill:#4169e1;"/>
   </g>
   <g id="patch_26">
    <path clip-path="url(#pa18497297a)" d="M 218.530346 218.852246 
L 221.786737 218.852246 
L 221.786737 36.897726 
L 218.530346 36.897726 
z
" style="fill:#4169e1;"/>
   </g>
   <g id="patch_27">
    <path clip-path="url(#pa18497297a)" d="M 222.600835 218.852246 
L 225.857226 218.852246 
L 225.857226 88.218232 
L 222.600835 88.218232 
z
" style="fill:#4169e1;"/>
   </g>
   <g id="patch_28">
    <path clip-path="url(#pa18497297a)" d="M 226.671324 218.852246 
L 229.927715 218.852246 
L 229.927715 94.438899 
L 226.671324 94.438899 
z
" style="fill:#4169e1;"/>
   </g>
   <g id="patch_29">
    <path clip-path="url(#pa18497297a)" d="M 230.741813 218.852246 
L 233.998204 218.852246 
L 233.998204 103.251511 
L 230.741813 103.251511 
z
" style="fill:#4169e1;"/>
   </g>
   <g id="patch_30">
    <path clip-path="url(#pa18497297a)" d="M 234.812302 218.852246 
L 238.068693 218.852246 
L 238.068693 76.813675 
L 234.812302 76.813675 
z
"/>
   </g>
   <g id="patch_31">
    <path clip-path="url(#pa18497297a)" d="M 238.882791 218.852246 
L 242.139183 218.852246 
L 242.139183 130.726125 
L 238.882791 130.726125 
z
" style="fill:#4169e1;"/>
   </g>
   <g id="patch_32">
    <path clip-path="url(#pa18497297a)" d="M 242.95328 218.852246 
L 246.209672 218.852246 
L 246.209672 95.994066 
L 242.95328 95.994066 
z
" style="fill:#4169e1;"/>
   </g>
   <g id="patch_33">
    <path clip-path="url(#pa18497297a)" d="M 247.02377 218.852246 
L 250.280161 218.852246 
L 250.280161 153.01685 
L 247.02377 153.01685 
z
" style="fill:#4169e1;"/>
   </g>
   <g id="patch_34">
    <path clip-path="url(#pa18497297a)" d="M 251.094259 218.852246 
L 254.35065 218.852246 
L 254.35065 150.424905 
L 251.094259 150.424905 
z
" style="fill:#4169e1;"/>
   </g>
   <g id="patch_35">
    <path clip-path="url(#pa18497297a)" d="M 255.164748 218.852246 
L 258.421139 218.852246 
L 258.421139 149.906516 
L 255.164748 149.906516 
z
" style="fill:#4169e1;"/>
   </g>
   <g id="patch_36">
    <path clip-path="url(#pa18497297a)" d="M 259.235237 218.852246 
L 262.491628 218.852246 
L 262.491628 175.825963 
L 259.235237 175.825963 
z
" style="fill:#4169e1;"/>
   </g>
   <g id="patch_37">
    <path clip-path="url(#pa18497297a)" d="M 263.305726 218.852246 
L 266.562117 218.852246 
L 266.562117 115.174457 
L 263.305726 115.174457 
z
" style="fill:#4169e1;"/>
   </g>
   <g id="patch_38">
    <path clip-path="url(#pa18497297a)" d="M 267.376215 218.852246 
L 270.632607 218.852246 
L 270.632607 171.678852 
L 267.376215 171.678852 
z
" style="fill:#4169e1;"/>
   </g>
   <g id="patch_39">
    <path clip-path="url(#pa18497297a)" d="M 271.446704 218.852246 
L 274.703096 218.852246 
L 274.703096 155.090406 
L 271.446704 155.090406 
z
" style="fill:#4169e1;"/>
   </g>
   <g id="patch_40">
    <path clip-path="url(#pa18497297a)" d="M 275.517194 218.852246 
L 278.773585 218.852246 
L 278.773585 190.340854 
L 275.517194 190.340854 
z
" style="fill:#4169e1;"/>
   </g>
   <g id="patch_41">
    <path clip-path="url(#pa18497297a)" d="M 279.587683 218.852246 
L 282.844074 218.852246 
L 282.844074 192.41441 
L 279.587683 192.41441 
z
" style="fill:#4169e1;"/>
   </g>
   <g id="patch_42">
    <path clip-path="url(#pa18497297a)" d="M 283.658172 218.852246 
L 286.914563 218.852246 
L 286.914563 163.384629 
L 283.658172 163.384629 
z
" style="fill:#4169e1;"/>
   </g>
   <g id="patch_43">
    <path clip-path="url(#pa18497297a)" d="M 287.728661 218.852246 
L 290.985052 218.852246 
L 290.985052 195.524743 
L 287.728661 195.524743 
z
" style="fill:#4169e1;"/>
   </g>
   <g id="patch_44">
    <path clip-path="url(#pa18497297a)" d="M 291.79915 218.852246 
L 295.055541 218.852246 
L 295.055541 161.311073 
L 291.79915 161.311073 
z
" style="fill:#4169e1;"/>
   </g>
   <g id="patch_45">
    <path clip-path="url(#pa18497297a)" d="M 295.869639 218.852246 
L 299.126031 218.852246 
L 299.126031 184.638576 
L 295.869639 184.638576 
z
" style="fill:#4169e1;"/>
   </g>
   <g id="patch_46">
    <path clip-path="url(#pa18497297a)" d="M 299.940128 218.852246 
L 303.19652 218.852246 
L 303.19652 205.892522 
L 299.940128 205.892522 
z
" style="fill:#4169e1;"/>
   </g>
   <g id="patch_47">
    <path clip-path="url(#pa18497297a)" d="M 304.010618 218.852246 
L 307.267009 218.852246 
L 307.267009 193.969577 
L 304.010618 193.969577 
z
" style="fill:#4169e1;"/>
   </g>
   <g id="patch_48">
    <path clip-path="url(#pa18497297a)" d="M 308.081107 218.852246 
L 311.337498 218.852246 
L 311.337498 165.976573 
L 308.081107 165.976573 
z
" style="fill:#4169e1;"/>
   </g>
   <g id="patch_49">
    <path clip-path="url(#pa18497297a)" d="M 312.151596 218.852246 
L 315.407987 218.852246 
L 315.407987 202.2638 
L 312.151596 202.2638 
z
" style="fill:#4169e1;"/>
   </g>
   <g id="patch_50">
    <path clip-path="url(#pa18497297a)" d="M 316.222085 218.852246 
L 319.478476 218.852246 
L 319.478476 151.461683 
L 316.222085 151.461683 
z
" style="fill:#4169e1;"/>
   </g>
   <g id="patch_51">
    <path clip-path="url(#pa18497297a)" d="M 320.292574 218.852246 
L 323.548965 218.852246 
L 323.548965 103.251511 
L 320.292574 103.251511 
z
" style="fill:#4169e1;"/>
   </g>
   <g id="patch_52">
    <path clip-path="url(#pa18497297a)" d="M 324.363063 218.852246 
L 327.619455 218.852246 
L 327.619455 101.177955 
L 324.363063 101.177955 
z
" style="fill:#4169e1;"/>
   </g>
   <g id="patch_53">
    <path clip-path="url(#pa18497297a)" d="M 328.433552 218.852246 
L 331.689944 218.852246 
L 331.689944 189.822465 
L 328.433552 189.822465 
z
" style="fill:#4169e1;"/>
   </g>
   <g id="patch_54">
    <path clip-path="url(#pa18497297a)" d="M 332.504042 218.852246 
L 335.760433 218.852246 
L 335.760433 174.270797 
L 332.504042 174.270797 
z
" style="fill:#4169e1;"/>
   </g>
   <g id="patch_55">
    <path clip-path="url(#pa18497297a)" d="M 336.574531 218.852246 
L 339.830922 218.852246 
L 339.830922 216.260301 
L 336.574531 216.260301 
z
" style="fill:#4169e1;"/>
   </g>
   <g id="patch_56">
    <path clip-path="url(#pa18497297a)" d="M 340.64502 218.852246 
L 343.901411 218.852246 
L 343.901411 146.796183 
L 340.64502 146.796183 
z
" style="fill:#4169e1;"/>
   </g>
   <g id="patch_57">
    <path clip-path="url(#pa18497297a)" d="M 344.715509 218.852246 
L 347.9719 218.852246 
L 347.9719 120.876735 
L 344.715509 120.876735 
z
" style="fill:#4169e1;"/>
   </g>
   <g id="patch_58">
    <path clip-path="url(#pa18497297a)" d="M 348.785998 218.852246 
L 352.042389 218.852246 
L 352.042389 93.92051 
L 348.785998 93.92051 
z
" style="fill:#4169e1;"/>
   </g>
   <g id="patch_59">
    <path clip-path="url(#pa18497297a)" d="M 352.856487 218.852246 
L 356.112879 218.852246 
L 356.112879 137.98357 
L 352.856487 137.98357 
z
" style="fill:#4169e1;"/>
   </g>
   <g id="patch_60">
    <path clip-path="url(#pa18497297a)" d="M 356.926976 218.852246 
L 360.183368 218.852246 
L 360.183368 166.494962 
L 356.926976 166.494962 
z
" style="fill:#4169e1;"/>
   </g>
   <g id="patch_61">
    <path clip-path="url(#pa18497297a)" d="M 360.997466 218.852246 
L 364.253857 218.852246 
L 364.253857 181.528242 
L 360.997466 181.528242 
z
" style="fill:#4169e1;"/>
   </g>
   <g id="patch_62">
    <path clip-path="url(#pa18497297a)" d="M 365.067955 218.852246 
L 368.324346 218.852246 
L 368.324346 157.68235 
L 365.067955 157.68235 
z
" style="fill:#4169e1;"/>
   </g>
   <g id="patch_63">
    <path clip-path="url(#pa18497297a)" d="M 369.138444 218.852246 
L 372.394835 218.852246 
L 372.394835 185.675353 
L 369.138444 185.675353 
z
" style="fill:#4169e1;"/>
   </g>
   <g id="patch_64">
    <path clip-path="url(#pa18497297a)" d="M 373.208933 218.852246 
L 376.465324 218.852246 
L 376.465324 187.748909 
L 373.208933 187.748909 
z
" style="fill:#4169e1;"/>
   </g>
   <g id="patch_65">
    <path clip-path="url(#pa18497297a)" d="M 377.279422 218.852246 
L 380.535813 218.852246 
L 380.535813 185.675353 
L 377.279422 185.675353 
z
" style="fill:#4169e1;"/>
   </g>
   <g id="patch_66">
    <path clip-path="url(#pa18497297a)" d="M 381.349911 218.852246 
L 384.606303 218.852246 
L 384.606303 156.645572 
L 381.349911 156.645572 
z
" style="fill:#4169e1;"/>
   </g>
   <g id="patch_67">
    <path clip-path="url(#pa18497297a)" d="M 385.4204 218.852246 
L 388.676792 218.852246 
L 388.676792 153.01685 
L 385.4204 153.01685 
z
" style="fill:#4169e1;"/>
   </g>
   <g id="patch_68">
    <path clip-path="url(#pa18497297a)" d="M 389.49089 218.852246 
L 392.747281 218.852246 
L 392.747281 135.910015 
L 389.49089 135.910015 
z
" style="fill:#4169e1;"/>
   </g>
   <g id="patch_69">
    <path clip-path="url(#pa18497297a)" d="M 393.561379 218.852246 
L 396.81777 218.852246 
L 396.81777 174.270797 
L 393.561379 174.270797 
z
" style="fill:#4169e1;"/>
   </g>
   <g id="patch_70">
    <path clip-path="url(#pa18497297a)" d="M 397.631868 218.852246 
L 400.888259 218.852246 
L 400.888259 176.862741 
L 397.631868 176.862741 
z
" style="fill:#4169e1;"/>
   </g>
   <g id="patch_71">
    <path clip-path="url(#pa18497297a)" d="M 401.702357 218.852246 
L 404.958748 218.852246 
L 404.958748 174.270797 
L 401.702357 174.270797 
z
" style="fill:#4169e1;"/>
   </g>
   <g id="matplotlib.axis_1">
    <g id="xtick_1">
     <g id="line2d_1">
      <defs>
       <path d="M 0 0 
L 0 3.5 
" id="m93e1f78cc3" style="stroke:#000000;stroke-width:0.8;"/>
      </defs>
      <g>
       <use style="stroke:#000000;stroke-width:0.8;" x="65.479954" xlink:href="#m93e1f78cc3" y="218.852246"/>
      </g>
     </g>
     <g id="text_1">
      <!-- 24/02/2020 -->
      <defs>
       <path d="M 19.1875 8.296875 
L 53.609375 8.296875 
L 53.609375 0 
L 7.328125 0 
L 7.328125 8.296875 
Q 12.9375 14.109375 22.625 23.890625 
Q 32.328125 33.6875 34.8125 36.53125 
Q 39.546875 41.84375 41.421875 45.53125 
Q 43.3125 49.21875 43.3125 52.78125 
Q 43.3125 58.59375 39.234375 62.25 
Q 35.15625 65.921875 28.609375 65.921875 
Q 23.96875 65.921875 18.8125 64.3125 
Q 13.671875 62.703125 7.8125 59.421875 
L 7.8125 69.390625 
Q 13.765625 71.78125 18.9375 73 
Q 24.125 74.21875 28.421875 74.21875 
Q 39.75 74.21875 46.484375 68.546875 
Q 53.21875 62.890625 53.21875 53.421875 
Q 53.21875 48.921875 51.53125 44.890625 
Q 49.859375 40.875 45.40625 35.40625 
Q 44.1875 33.984375 37.640625 27.21875 
Q 31.109375 20.453125 19.1875 8.296875 
z
" id="DejaVuSans-50"/>
       <path d="M 37.796875 64.3125 
L 12.890625 25.390625 
L 37.796875 25.390625 
z
M 35.203125 72.90625 
L 47.609375 72.90625 
L 47.609375 25.390625 
L 58.015625 25.390625 
L 58.015625 17.1875 
L 47.609375 17.1875 
L 47.609375 0 
L 37.796875 0 
L 37.796875 17.1875 
L 4.890625 17.1875 
L 4.890625 26.703125 
z
" id="DejaVuSans-52"/>
       <path d="M 25.390625 72.90625 
L 33.6875 72.90625 
L 8.296875 -9.28125 
L 0 -9.28125 
z
" id="DejaVuSans-47"/>
       <path d="M 31.78125 66.40625 
Q 24.171875 66.40625 20.328125 58.90625 
Q 16.5 51.421875 16.5 36.375 
Q 16.5 21.390625 20.328125 13.890625 
Q 24.171875 6.390625 31.78125 6.390625 
Q 39.453125 6.390625 43.28125 13.890625 
Q 47.125 21.390625 47.125 36.375 
Q 47.125 51.421875 43.28125 58.90625 
Q 39.453125 66.40625 31.78125 66.40625 
z
M 31.78125 74.21875 
Q 44.046875 74.21875 50.515625 64.515625 
Q 56.984375 54.828125 56.984375 36.375 
Q 56.984375 17.96875 50.515625 8.265625 
Q 44.046875 -1.421875 31.78125 -1.421875 
Q 19.53125 -1.421875 13.0625 8.265625 
Q 6.59375 17.96875 6.59375 36.375 
Q 6.59375 54.828125 13.0625 64.515625 
Q 19.53125 74.21875 31.78125 74.21875 
z
" id="DejaVuSans-48"/>
      </defs>
      <g transform="translate(14.524571 261.251436)rotate(-30)scale(0.1 -0.1)">
       <use xlink:href="#DejaVuSans-50"/>
       <use x="63.623047" xlink:href="#DejaVuSans-52"/>
       <use x="127.246094" xlink:href="#DejaVuSans-47"/>
       <use x="160.9375" xlink:href="#DejaVuSans-48"/>
       <use x="224.560547" xlink:href="#DejaVuSans-50"/>
       <use x="288.183594" xlink:href="#DejaVuSans-47"/>
       <use x="321.875" xlink:href="#DejaVuSans-50"/>
       <use x="385.498047" xlink:href="#DejaVuSans-48"/>
       <use x="449.121094" xlink:href="#DejaVuSans-50"/>
       <use x="512.744141" xlink:href="#DejaVuSans-48"/>
      </g>
     </g>
    </g>
    <g id="xtick_2">
     <g id="line2d_2">
      <g>
       <use style="stroke:#000000;stroke-width:0.8;" x="93.973378" xlink:href="#m93e1f78cc3" y="218.852246"/>
      </g>
     </g>
     <g id="text_2">
      <!-- 02/03/2020 -->
      <defs>
       <path d="M 40.578125 39.3125 
Q 47.65625 37.796875 51.625 33 
Q 55.609375 28.21875 55.609375 21.1875 
Q 55.609375 10.40625 48.1875 4.484375 
Q 40.765625 -1.421875 27.09375 -1.421875 
Q 22.515625 -1.421875 17.65625 -0.515625 
Q 12.796875 0.390625 7.625 2.203125 
L 7.625 11.71875 
Q 11.71875 9.328125 16.59375 8.109375 
Q 21.484375 6.890625 26.8125 6.890625 
Q 36.078125 6.890625 40.9375 10.546875 
Q 45.796875 14.203125 45.796875 21.1875 
Q 45.796875 27.640625 41.28125 31.265625 
Q 36.765625 34.90625 28.71875 34.90625 
L 20.21875 34.90625 
L 20.21875 43.015625 
L 29.109375 43.015625 
Q 36.375 43.015625 40.234375 45.921875 
Q 44.09375 48.828125 44.09375 54.296875 
Q 44.09375 59.90625 40.109375 62.90625 
Q 36.140625 65.921875 28.71875 65.921875 
Q 24.65625 65.921875 20.015625 65.03125 
Q 15.375 64.15625 9.8125 62.3125 
L 9.8125 71.09375 
Q 15.4375 72.65625 20.34375 73.4375 
Q 25.25 74.21875 29.59375 74.21875 
Q 40.828125 74.21875 47.359375 69.109375 
Q 53.90625 64.015625 53.90625 55.328125 
Q 53.90625 49.265625 50.4375 45.09375 
Q 46.96875 40.921875 40.578125 39.3125 
z
" id="DejaVuSans-51"/>
      </defs>
      <g transform="translate(43.017995 261.251436)rotate(-30)scale(0.1 -0.1)">
       <use xlink:href="#DejaVuSans-48"/>
       <use x="63.623047" xlink:href="#DejaVuSans-50"/>
       <use x="127.246094" xlink:href="#DejaVuSans-47"/>
       <use x="160.9375" xlink:href="#DejaVuSans-48"/>
       <use x="224.560547" xlink:href="#DejaVuSans-51"/>
       <use x="288.183594" xlink:href="#DejaVuSans-47"/>
       <use x="321.875" xlink:href="#DejaVuSans-50"/>
       <use x="385.498047" xlink:href="#DejaVuSans-48"/>
       <use x="449.121094" xlink:href="#DejaVuSans-50"/>
       <use x="512.744141" xlink:href="#DejaVuSans-48"/>
      </g>
     </g>
    </g>
    <g id="xtick_3">
     <g id="line2d_3">
      <g>
       <use style="stroke:#000000;stroke-width:0.8;" x="122.466802" xlink:href="#m93e1f78cc3" y="218.852246"/>
      </g>
     </g>
     <g id="text_3">
      <!-- 09/03/2020 -->
      <defs>
       <path d="M 10.984375 1.515625 
L 10.984375 10.5 
Q 14.703125 8.734375 18.5 7.8125 
Q 22.3125 6.890625 25.984375 6.890625 
Q 35.75 6.890625 40.890625 13.453125 
Q 46.046875 20.015625 46.78125 33.40625 
Q 43.953125 29.203125 39.59375 26.953125 
Q 35.25 24.703125 29.984375 24.703125 
Q 19.046875 24.703125 12.671875 31.3125 
Q 6.296875 37.9375 6.296875 49.421875 
Q 6.296875 60.640625 12.9375 67.421875 
Q 19.578125 74.21875 30.609375 74.21875 
Q 43.265625 74.21875 49.921875 64.515625 
Q 56.59375 54.828125 56.59375 36.375 
Q 56.59375 19.140625 48.40625 8.859375 
Q 40.234375 -1.421875 26.421875 -1.421875 
Q 22.703125 -1.421875 18.890625 -0.6875 
Q 15.09375 0.046875 10.984375 1.515625 
z
M 30.609375 32.421875 
Q 37.25 32.421875 41.125 36.953125 
Q 45.015625 41.5 45.015625 49.421875 
Q 45.015625 57.28125 41.125 61.84375 
Q 37.25 66.40625 30.609375 66.40625 
Q 23.96875 66.40625 20.09375 61.84375 
Q 16.21875 57.28125 16.21875 49.421875 
Q 16.21875 41.5 20.09375 36.953125 
Q 23.96875 32.421875 30.609375 32.421875 
z
" id="DejaVuSans-57"/>
      </defs>
      <g transform="translate(71.511419 261.251436)rotate(-30)scale(0.1 -0.1)">
       <use xlink:href="#DejaVuSans-48"/>
       <use x="63.623047" xlink:href="#DejaVuSans-57"/>
       <use x="127.246094" xlink:href="#DejaVuSans-47"/>
       <use x="160.9375" xlink:href="#DejaVuSans-48"/>
       <use x="224.560547" xlink:href="#DejaVuSans-51"/>
       <use x="288.183594" xlink:href="#DejaVuSans-47"/>
       <use x="321.875" xlink:href="#DejaVuSans-50"/>
       <use x="385.498047" xlink:href="#DejaVuSans-48"/>
       <use x="449.121094" xlink:href="#DejaVuSans-50"/>
       <use x="512.744141" xlink:href="#DejaVuSans-48"/>
      </g>
     </g>
    </g>
    <g id="xtick_4">
     <g id="line2d_4">
      <g>
       <use style="stroke:#000000;stroke-width:0.8;" x="150.960226" xlink:href="#m93e1f78cc3" y="218.852246"/>
      </g>
     </g>
     <g id="text_4">
      <!-- 16/03/2020 -->
      <defs>
       <path d="M 12.40625 8.296875 
L 28.515625 8.296875 
L 28.515625 63.921875 
L 10.984375 60.40625 
L 10.984375 69.390625 
L 28.421875 72.90625 
L 38.28125 72.90625 
L 38.28125 8.296875 
L 54.390625 8.296875 
L 54.390625 0 
L 12.40625 0 
z
" id="DejaVuSans-49"/>
       <path d="M 33.015625 40.375 
Q 26.375 40.375 22.484375 35.828125 
Q 18.609375 31.296875 18.609375 23.390625 
Q 18.609375 15.53125 22.484375 10.953125 
Q 26.375 6.390625 33.015625 6.390625 
Q 39.65625 6.390625 43.53125 10.953125 
Q 47.40625 15.53125 47.40625 23.390625 
Q 47.40625 31.296875 43.53125 35.828125 
Q 39.65625 40.375 33.015625 40.375 
z
M 52.59375 71.296875 
L 52.59375 62.3125 
Q 48.875 64.0625 45.09375 64.984375 
Q 41.3125 65.921875 37.59375 65.921875 
Q 27.828125 65.921875 22.671875 59.328125 
Q 17.53125 52.734375 16.796875 39.40625 
Q 19.671875 43.65625 24.015625 45.921875 
Q 28.375 48.1875 33.59375 48.1875 
Q 44.578125 48.1875 50.953125 41.515625 
Q 57.328125 34.859375 57.328125 23.390625 
Q 57.328125 12.15625 50.6875 5.359375 
Q 44.046875 -1.421875 33.015625 -1.421875 
Q 20.359375 -1.421875 13.671875 8.265625 
Q 6.984375 17.96875 6.984375 36.375 
Q 6.984375 53.65625 15.1875 63.9375 
Q 23.390625 74.21875 37.203125 74.21875 
Q 40.921875 74.21875 44.703125 73.484375 
Q 48.484375 72.75 52.59375 71.296875 
z
" id="DejaVuSans-54"/>
      </defs>
      <g transform="translate(100.004843 261.251436)rotate(-30)scale(0.1 -0.1)">
       <use xlink:href="#DejaVuSans-49"/>
       <use x="63.623047" xlink:href="#DejaVuSans-54"/>
       <use x="127.246094" xlink:href="#DejaVuSans-47"/>
       <use x="160.9375" xlink:href="#DejaVuSans-48"/>
       <use x="224.560547" xlink:href="#DejaVuSans-51"/>
       <use x="288.183594" xlink:href="#DejaVuSans-47"/>
       <use x="321.875" xlink:href="#DejaVuSans-50"/>
       <use x="385.498047" xlink:href="#DejaVuSans-48"/>
       <use x="449.121094" xlink:href="#DejaVuSans-50"/>
       <use x="512.744141" xlink:href="#DejaVuSans-48"/>
      </g>
     </g>
    </g>
    <g id="xtick_5">
     <g id="line2d_5">
      <g>
       <use style="stroke:#000000;stroke-width:0.8;" x="179.45365" xlink:href="#m93e1f78cc3" y="218.852246"/>
      </g>
     </g>
     <g id="text_5">
      <!-- 23/03/2020 -->
      <g transform="translate(128.498267 261.251436)rotate(-30)scale(0.1 -0.1)">
       <use xlink:href="#DejaVuSans-50"/>
       <use x="63.623047" xlink:href="#DejaVuSans-51"/>
       <use x="127.246094" xlink:href="#DejaVuSans-47"/>
       <use x="160.9375" xlink:href="#DejaVuSans-48"/>
       <use x="224.560547" xlink:href="#DejaVuSans-51"/>
       <use x="288.183594" xlink:href="#DejaVuSans-47"/>
       <use x="321.875" xlink:href="#DejaVuSans-50"/>
       <use x="385.498047" xlink:href="#DejaVuSans-48"/>
       <use x="449.121094" xlink:href="#DejaVuSans-50"/>
       <use x="512.744141" xlink:href="#DejaVuSans-48"/>
      </g>
     </g>
    </g>
    <g id="xtick_6">
     <g id="line2d_6">
      <g>
       <use style="stroke:#000000;stroke-width:0.8;" x="207.947074" xlink:href="#m93e1f78cc3" y="218.852246"/>
      </g>
     </g>
     <g id="text_6">
      <!-- 30/03/2020 -->
      <g transform="translate(156.991691 261.251436)rotate(-30)scale(0.1 -0.1)">
       <use xlink:href="#DejaVuSans-51"/>
       <use x="63.623047" xlink:href="#DejaVuSans-48"/>
       <use x="127.246094" xlink:href="#DejaVuSans-47"/>
       <use x="160.9375" xlink:href="#DejaVuSans-48"/>
       <use x="224.560547" xlink:href="#DejaVuSans-51"/>
       <use x="288.183594" xlink:href="#DejaVuSans-47"/>
       <use x="321.875" xlink:href="#DejaVuSans-50"/>
       <use x="385.498047" xlink:href="#DejaVuSans-48"/>
       <use x="449.121094" xlink:href="#DejaVuSans-50"/>
       <use x="512.744141" xlink:href="#DejaVuSans-48"/>
      </g>
     </g>
    </g>
    <g id="xtick_7">
     <g id="line2d_7">
      <g>
       <use style="stroke:#000000;stroke-width:0.8;" x="236.440498" xlink:href="#m93e1f78cc3" y="218.852246"/>
      </g>
     </g>
     <g id="text_7">
      <!-- 06/04/2020 -->
      <g transform="translate(185.485115 261.251436)rotate(-30)scale(0.1 -0.1)">
       <use xlink:href="#DejaVuSans-48"/>
       <use x="63.623047" xlink:href="#DejaVuSans-54"/>
       <use x="127.246094" xlink:href="#DejaVuSans-47"/>
       <use x="160.9375" xlink:href="#DejaVuSans-48"/>
       <use x="224.560547" xlink:href="#DejaVuSans-52"/>
       <use x="288.183594" xlink:href="#DejaVuSans-47"/>
       <use x="321.875" xlink:href="#DejaVuSans-50"/>
       <use x="385.498047" xlink:href="#DejaVuSans-48"/>
       <use x="449.121094" xlink:href="#DejaVuSans-50"/>
       <use x="512.744141" xlink:href="#DejaVuSans-48"/>
      </g>
     </g>
    </g>
    <g id="xtick_8">
     <g id="line2d_8">
      <g>
       <use style="stroke:#000000;stroke-width:0.8;" x="264.933922" xlink:href="#m93e1f78cc3" y="218.852246"/>
      </g>
     </g>
     <g id="text_8">
      <!-- 13/04/2020 -->
      <g transform="translate(213.978539 261.251436)rotate(-30)scale(0.1 -0.1)">
       <use xlink:href="#DejaVuSans-49"/>
       <use x="63.623047" xlink:href="#DejaVuSans-51"/>
       <use x="127.246094" xlink:href="#DejaVuSans-47"/>
       <use x="160.9375" xlink:href="#DejaVuSans-48"/>
       <use x="224.560547" xlink:href="#DejaVuSans-52"/>
       <use x="288.183594" xlink:href="#DejaVuSans-47"/>
       <use x="321.875" xlink:href="#DejaVuSans-50"/>
       <use x="385.498047" xlink:href="#DejaVuSans-48"/>
       <use x="449.121094" xlink:href="#DejaVuSans-50"/>
       <use x="512.744141" xlink:href="#DejaVuSans-48"/>
      </g>
     </g>
    </g>
    <g id="xtick_9">
     <g id="line2d_9">
      <g>
       <use style="stroke:#000000;stroke-width:0.8;" x="293.427346" xlink:href="#m93e1f78cc3" y="218.852246"/>
      </g>
     </g>
     <g id="text_9">
      <!-- 20/04/2020 -->
      <g transform="translate(242.471963 261.251436)rotate(-30)scale(0.1 -0.1)">
       <use xlink:href="#DejaVuSans-50"/>
       <use x="63.623047" xlink:href="#DejaVuSans-48"/>
       <use x="127.246094" xlink:href="#DejaVuSans-47"/>
       <use x="160.9375" xlink:href="#DejaVuSans-48"/>
       <use x="224.560547" xlink:href="#DejaVuSans-52"/>
       <use x="288.183594" xlink:href="#DejaVuSans-47"/>
       <use x="321.875" xlink:href="#DejaVuSans-50"/>
       <use x="385.498047" xlink:href="#DejaVuSans-48"/>
       <use x="449.121094" xlink:href="#DejaVuSans-50"/>
       <use x="512.744141" xlink:href="#DejaVuSans-48"/>
      </g>
     </g>
    </g>
    <g id="xtick_10">
     <g id="line2d_10">
      <g>
       <use style="stroke:#000000;stroke-width:0.8;" x="321.92077" xlink:href="#m93e1f78cc3" y="218.852246"/>
      </g>
     </g>
     <g id="text_10">
      <!-- 27/04/2020 -->
      <defs>
       <path d="M 8.203125 72.90625 
L 55.078125 72.90625 
L 55.078125 68.703125 
L 28.609375 0 
L 18.3125 0 
L 43.21875 64.59375 
L 8.203125 64.59375 
z
" id="DejaVuSans-55"/>
      </defs>
      <g transform="translate(270.965387 261.251436)rotate(-30)scale(0.1 -0.1)">
       <use xlink:href="#DejaVuSans-50"/>
       <use x="63.623047" xlink:href="#DejaVuSans-55"/>
       <use x="127.246094" xlink:href="#DejaVuSans-47"/>
       <use x="160.9375" xlink:href="#DejaVuSans-48"/>
       <use x="224.560547" xlink:href="#DejaVuSans-52"/>
       <use x="288.183594" xlink:href="#DejaVuSans-47"/>
       <use x="321.875" xlink:href="#DejaVuSans-50"/>
       <use x="385.498047" xlink:href="#DejaVuSans-48"/>
       <use x="449.121094" xlink:href="#DejaVuSans-50"/>
       <use x="512.744141" xlink:href="#DejaVuSans-48"/>
      </g>
     </g>
    </g>
    <g id="xtick_11">
     <g id="line2d_11">
      <g>
       <use style="stroke:#000000;stroke-width:0.8;" x="350.414194" xlink:href="#m93e1f78cc3" y="218.852246"/>
      </g>
     </g>
     <g id="text_11">
      <!-- 04/05/2020 -->
      <defs>
       <path d="M 10.796875 72.90625 
L 49.515625 72.90625 
L 49.515625 64.59375 
L 19.828125 64.59375 
L 19.828125 46.734375 
Q 21.96875 47.46875 24.109375 47.828125 
Q 26.265625 48.1875 28.421875 48.1875 
Q 40.625 48.1875 47.75 41.5 
Q 54.890625 34.8125 54.890625 23.390625 
Q 54.890625 11.625 47.5625 5.09375 
Q 40.234375 -1.421875 26.90625 -1.421875 
Q 22.3125 -1.421875 17.546875 -0.640625 
Q 12.796875 0.140625 7.71875 1.703125 
L 7.71875 11.625 
Q 12.109375 9.234375 16.796875 8.0625 
Q 21.484375 6.890625 26.703125 6.890625 
Q 35.15625 6.890625 40.078125 11.328125 
Q 45.015625 15.765625 45.015625 23.390625 
Q 45.015625 31 40.078125 35.4375 
Q 35.15625 39.890625 26.703125 39.890625 
Q 22.75 39.890625 18.8125 39.015625 
Q 14.890625 38.140625 10.796875 36.28125 
z
" id="DejaVuSans-53"/>
      </defs>
      <g transform="translate(299.458811 261.251436)rotate(-30)scale(0.1 -0.1)">
       <use xlink:href="#DejaVuSans-48"/>
       <use x="63.623047" xlink:href="#DejaVuSans-52"/>
       <use x="127.246094" xlink:href="#DejaVuSans-47"/>
       <use x="160.9375" xlink:href="#DejaVuSans-48"/>
       <use x="224.560547" xlink:href="#DejaVuSans-53"/>
       <use x="288.183594" xlink:href="#DejaVuSans-47"/>
       <use x="321.875" xlink:href="#DejaVuSans-50"/>
       <use x="385.498047" xlink:href="#DejaVuSans-48"/>
       <use x="449.121094" xlink:href="#DejaVuSans-50"/>
       <use x="512.744141" xlink:href="#DejaVuSans-48"/>
      </g>
     </g>
    </g>
    <g id="xtick_12">
     <g id="line2d_12">
      <g>
       <use style="stroke:#000000;stroke-width:0.8;" x="378.907618" xlink:href="#m93e1f78cc3" y="218.852246"/>
      </g>
     </g>
     <g id="text_12">
      <!-- 11/05/2020 -->
      <g transform="translate(327.952235 261.251436)rotate(-30)scale(0.1 -0.1)">
       <use xlink:href="#DejaVuSans-49"/>
       <use x="63.623047" xlink:href="#DejaVuSans-49"/>
       <use x="127.246094" xlink:href="#DejaVuSans-47"/>
       <use x="160.9375" xlink:href="#DejaVuSans-48"/>
       <use x="224.560547" xlink:href="#DejaVuSans-53"/>
       <use x="288.183594" xlink:href="#DejaVuSans-47"/>
       <use x="321.875" xlink:href="#DejaVuSans-50"/>
       <use x="385.498047" xlink:href="#DejaVuSans-48"/>
       <use x="449.121094" xlink:href="#DejaVuSans-50"/>
       <use x="512.744141" xlink:href="#DejaVuSans-48"/>
      </g>
     </g>
    </g>
    <g id="xtick_13">
     <g id="line2d_13">
      <g>
       <use style="stroke:#000000;stroke-width:0.8;" x="407.401042" xlink:href="#m93e1f78cc3" y="218.852246"/>
      </g>
     </g>
     <g id="text_13">
      <!-- 18/05/2020 -->
      <defs>
       <path d="M 31.78125 34.625 
Q 24.75 34.625 20.71875 30.859375 
Q 16.703125 27.09375 16.703125 20.515625 
Q 16.703125 13.921875 20.71875 10.15625 
Q 24.75 6.390625 31.78125 6.390625 
Q 38.8125 6.390625 42.859375 10.171875 
Q 46.921875 13.96875 46.921875 20.515625 
Q 46.921875 27.09375 42.890625 30.859375 
Q 38.875 34.625 31.78125 34.625 
z
M 21.921875 38.8125 
Q 15.578125 40.375 12.03125 44.71875 
Q 8.5 49.078125 8.5 55.328125 
Q 8.5 64.0625 14.71875 69.140625 
Q 20.953125 74.21875 31.78125 74.21875 
Q 42.671875 74.21875 48.875 69.140625 
Q 55.078125 64.0625 55.078125 55.328125 
Q 55.078125 49.078125 51.53125 44.71875 
Q 48 40.375 41.703125 38.8125 
Q 48.828125 37.15625 52.796875 32.3125 
Q 56.78125 27.484375 56.78125 20.515625 
Q 56.78125 9.90625 50.3125 4.234375 
Q 43.84375 -1.421875 31.78125 -1.421875 
Q 19.734375 -1.421875 13.25 4.234375 
Q 6.78125 9.90625 6.78125 20.515625 
Q 6.78125 27.484375 10.78125 32.3125 
Q 14.796875 37.15625 21.921875 38.8125 
z
M 18.3125 54.390625 
Q 18.3125 48.734375 21.84375 45.5625 
Q 25.390625 42.390625 31.78125 42.390625 
Q 38.140625 42.390625 41.71875 45.5625 
Q 45.3125 48.734375 45.3125 54.390625 
Q 45.3125 60.0625 41.71875 63.234375 
Q 38.140625 66.40625 31.78125 66.40625 
Q 25.390625 66.40625 21.84375 63.234375 
Q 18.3125 60.0625 18.3125 54.390625 
z
" id="DejaVuSans-56"/>
      </defs>
      <g transform="translate(356.445659 261.251436)rotate(-30)scale(0.1 -0.1)">
       <use xlink:href="#DejaVuSans-49"/>
       <use x="63.623047" xlink:href="#DejaVuSans-56"/>
       <use x="127.246094" xlink:href="#DejaVuSans-47"/>
       <use x="160.9375" xlink:href="#DejaVuSans-48"/>
       <use x="224.560547" xlink:href="#DejaVuSans-53"/>
       <use x="288.183594" xlink:href="#DejaVuSans-47"/>
       <use x="321.875" xlink:href="#DejaVuSans-50"/>
       <use x="385.498047" xlink:href="#DejaVuSans-48"/>
       <use x="449.121094" xlink:href="#DejaVuSans-50"/>
       <use x="512.744141" xlink:href="#DejaVuSans-48"/>
      </g>
     </g>
    </g>
    <g id="text_14">
     <!-- Day -->
     <defs>
      <path d="M 19.671875 64.796875 
L 19.671875 8.109375 
L 31.59375 8.109375 
Q 46.6875 8.109375 53.6875 14.9375 
Q 60.6875 21.78125 60.6875 36.53125 
Q 60.6875 51.171875 53.6875 57.984375 
Q 46.6875 64.796875 31.59375 64.796875 
z
M 9.8125 72.90625 
L 30.078125 72.90625 
Q 51.265625 72.90625 61.171875 64.09375 
Q 71.09375 55.28125 71.09375 36.53125 
Q 71.09375 17.671875 61.125 8.828125 
Q 51.171875 0 30.078125 0 
L 9.8125 0 
z
" id="DejaVuSans-68"/>
      <path d="M 34.28125 27.484375 
Q 23.390625 27.484375 19.1875 25 
Q 14.984375 22.515625 14.984375 16.5 
Q 14.984375 11.71875 18.140625 8.90625 
Q 21.296875 6.109375 26.703125 6.109375 
Q 34.1875 6.109375 38.703125 11.40625 
Q 43.21875 16.703125 43.21875 25.484375 
L 43.21875 27.484375 
z
M 52.203125 31.203125 
L 52.203125 0 
L 43.21875 0 
L 43.21875 8.296875 
Q 40.140625 3.328125 35.546875 0.953125 
Q 30.953125 -1.421875 24.3125 -1.421875 
Q 15.921875 -1.421875 10.953125 3.296875 
Q 6 8.015625 6 15.921875 
Q 6 25.140625 12.171875 29.828125 
Q 18.359375 34.515625 30.609375 34.515625 
L 43.21875 34.515625 
L 43.21875 35.40625 
Q 43.21875 41.609375 39.140625 45 
Q 35.0625 48.390625 27.6875 48.390625 
Q 23 48.390625 18.546875 47.265625 
Q 14.109375 46.140625 10.015625 43.890625 
L 10.015625 52.203125 
Q 14.9375 54.109375 19.578125 55.046875 
Q 24.21875 56 28.609375 56 
Q 40.484375 56 46.34375 49.84375 
Q 52.203125 43.703125 52.203125 31.203125 
z
" id="DejaVuSans-97"/>
      <path d="M 32.171875 -5.078125 
Q 28.375 -14.84375 24.75 -17.8125 
Q 21.140625 -20.796875 15.09375 -20.796875 
L 7.90625 -20.796875 
L 7.90625 -13.28125 
L 13.1875 -13.28125 
Q 16.890625 -13.28125 18.9375 -11.515625 
Q 21 -9.765625 23.484375 -3.21875 
L 25.09375 0.875 
L 2.984375 54.6875 
L 12.5 54.6875 
L 29.59375 11.921875 
L 46.6875 54.6875 
L 56.203125 54.6875 
z
" id="DejaVuSans-121"/>
     </defs>
     <g transform="translate(232.672794 274.650936)scale(0.1 -0.1)">
      <use xlink:href="#DejaVuSans-68"/>
      <use x="77.001953" xlink:href="#DejaVuSans-97"/>
      <use x="138.28125" xlink:href="#DejaVuSans-121"/>
     </g>
    </g>
   </g>
   <g id="matplotlib.axis_2">
    <g id="ytick_1">
     <g id="line2d_14">
      <defs>
       <path d="M 0 0 
L -3.5 0 
" id="mbb4ecfe493" style="stroke:#000000;stroke-width:0.8;"/>
      </defs>
      <g>
       <use style="stroke:#000000;stroke-width:0.8;" x="63.892463" xlink:href="#mbb4ecfe493" y="218.852246"/>
      </g>
     </g>
     <g id="text_15">
      <!-- 0 -->
      <g transform="translate(50.529963 222.651465)scale(0.1 -0.1)">
       <use xlink:href="#DejaVuSans-48"/>
      </g>
     </g>
    </g>
    <g id="ytick_2">
     <g id="line2d_15">
      <g>
       <use style="stroke:#000000;stroke-width:0.8;" x="63.892463" xlink:href="#mbb4ecfe493" y="192.932799"/>
      </g>
     </g>
     <g id="text_16">
      <!-- 50 -->
      <g transform="translate(44.167463 196.732017)scale(0.1 -0.1)">
       <use xlink:href="#DejaVuSans-53"/>
       <use x="63.623047" xlink:href="#DejaVuSans-48"/>
      </g>
     </g>
    </g>
    <g id="ytick_3">
     <g id="line2d_16">
      <g>
       <use style="stroke:#000000;stroke-width:0.8;" x="63.892463" xlink:href="#mbb4ecfe493" y="167.013351"/>
      </g>
     </g>
     <g id="text_17">
      <!-- 100 -->
      <g transform="translate(37.804963 170.81257)scale(0.1 -0.1)">
       <use xlink:href="#DejaVuSans-49"/>
       <use x="63.623047" xlink:href="#DejaVuSans-48"/>
       <use x="127.246094" xlink:href="#DejaVuSans-48"/>
      </g>
     </g>
    </g>
    <g id="ytick_4">
     <g id="line2d_17">
      <g>
       <use style="stroke:#000000;stroke-width:0.8;" x="63.892463" xlink:href="#mbb4ecfe493" y="141.093904"/>
      </g>
     </g>
     <g id="text_18">
      <!-- 150 -->
      <g transform="translate(37.804963 144.893123)scale(0.1 -0.1)">
       <use xlink:href="#DejaVuSans-49"/>
       <use x="63.623047" xlink:href="#DejaVuSans-53"/>
       <use x="127.246094" xlink:href="#DejaVuSans-48"/>
      </g>
     </g>
    </g>
    <g id="ytick_5">
     <g id="line2d_18">
      <g>
       <use style="stroke:#000000;stroke-width:0.8;" x="63.892463" xlink:href="#mbb4ecfe493" y="115.174457"/>
      </g>
     </g>
     <g id="text_19">
      <!-- 200 -->
      <g transform="translate(37.804963 118.973676)scale(0.1 -0.1)">
       <use xlink:href="#DejaVuSans-50"/>
       <use x="63.623047" xlink:href="#DejaVuSans-48"/>
       <use x="127.246094" xlink:href="#DejaVuSans-48"/>
      </g>
     </g>
    </g>
    <g id="ytick_6">
     <g id="line2d_19">
      <g>
       <use style="stroke:#000000;stroke-width:0.8;" x="63.892463" xlink:href="#mbb4ecfe493" y="89.25501"/>
      </g>
     </g>
     <g id="text_20">
      <!-- 250 -->
      <g transform="translate(37.804963 93.054228)scale(0.1 -0.1)">
       <use xlink:href="#DejaVuSans-50"/>
       <use x="63.623047" xlink:href="#DejaVuSans-53"/>
       <use x="127.246094" xlink:href="#DejaVuSans-48"/>
      </g>
     </g>
    </g>
    <g id="ytick_7">
     <g id="line2d_20">
      <g>
       <use style="stroke:#000000;stroke-width:0.8;" x="63.892463" xlink:href="#mbb4ecfe493" y="63.335562"/>
      </g>
     </g>
     <g id="text_21">
      <!-- 300 -->
      <g transform="translate(37.804963 67.134781)scale(0.1 -0.1)">
       <use xlink:href="#DejaVuSans-51"/>
       <use x="63.623047" xlink:href="#DejaVuSans-48"/>
       <use x="127.246094" xlink:href="#DejaVuSans-48"/>
      </g>
     </g>
    </g>
    <g id="ytick_8">
     <g id="line2d_21">
      <g>
       <use style="stroke:#000000;stroke-width:0.8;" x="63.892463" xlink:href="#mbb4ecfe493" y="37.416115"/>
      </g>
     </g>
     <g id="text_22">
      <!-- 350 -->
      <g transform="translate(37.804963 41.215334)scale(0.1 -0.1)">
       <use xlink:href="#DejaVuSans-51"/>
       <use x="63.623047" xlink:href="#DejaVuSans-53"/>
       <use x="127.246094" xlink:href="#DejaVuSans-48"/>
      </g>
     </g>
    </g>
    <g id="text_23">
     <!-- Number of comments -->
     <defs>
      <path d="M 9.8125 72.90625 
L 23.09375 72.90625 
L 55.421875 11.921875 
L 55.421875 72.90625 
L 64.984375 72.90625 
L 64.984375 0 
L 51.703125 0 
L 19.390625 60.984375 
L 19.390625 0 
L 9.8125 0 
z
" id="DejaVuSans-78"/>
      <path d="M 8.5 21.578125 
L 8.5 54.6875 
L 17.484375 54.6875 
L 17.484375 21.921875 
Q 17.484375 14.15625 20.5 10.265625 
Q 23.53125 6.390625 29.59375 6.390625 
Q 36.859375 6.390625 41.078125 11.03125 
Q 45.3125 15.671875 45.3125 23.6875 
L 45.3125 54.6875 
L 54.296875 54.6875 
L 54.296875 0 
L 45.3125 0 
L 45.3125 8.40625 
Q 42.046875 3.421875 37.71875 1 
Q 33.40625 -1.421875 27.6875 -1.421875 
Q 18.265625 -1.421875 13.375 4.4375 
Q 8.5 10.296875 8.5 21.578125 
z
M 31.109375 56 
z
" id="DejaVuSans-117"/>
      <path d="M 52 44.1875 
Q 55.375 50.25 60.0625 53.125 
Q 64.75 56 71.09375 56 
Q 79.640625 56 84.28125 50.015625 
Q 88.921875 44.046875 88.921875 33.015625 
L 88.921875 0 
L 79.890625 0 
L 79.890625 32.71875 
Q 79.890625 40.578125 77.09375 44.375 
Q 74.3125 48.1875 68.609375 48.1875 
Q 61.625 48.1875 57.5625 43.546875 
Q 53.515625 38.921875 53.515625 30.90625 
L 53.515625 0 
L 44.484375 0 
L 44.484375 32.71875 
Q 44.484375 40.625 41.703125 44.40625 
Q 38.921875 48.1875 33.109375 48.1875 
Q 26.21875 48.1875 22.15625 43.53125 
Q 18.109375 38.875 18.109375 30.90625 
L 18.109375 0 
L 9.078125 0 
L 9.078125 54.6875 
L 18.109375 54.6875 
L 18.109375 46.1875 
Q 21.1875 51.21875 25.484375 53.609375 
Q 29.78125 56 35.6875 56 
Q 41.65625 56 45.828125 52.96875 
Q 50 49.953125 52 44.1875 
z
" id="DejaVuSans-109"/>
      <path d="M 48.6875 27.296875 
Q 48.6875 37.203125 44.609375 42.84375 
Q 40.53125 48.484375 33.40625 48.484375 
Q 26.265625 48.484375 22.1875 42.84375 
Q 18.109375 37.203125 18.109375 27.296875 
Q 18.109375 17.390625 22.1875 11.75 
Q 26.265625 6.109375 33.40625 6.109375 
Q 40.53125 6.109375 44.609375 11.75 
Q 48.6875 17.390625 48.6875 27.296875 
z
M 18.109375 46.390625 
Q 20.953125 51.265625 25.265625 53.625 
Q 29.59375 56 35.59375 56 
Q 45.5625 56 51.78125 48.09375 
Q 58.015625 40.1875 58.015625 27.296875 
Q 58.015625 14.40625 51.78125 6.484375 
Q 45.5625 -1.421875 35.59375 -1.421875 
Q 29.59375 -1.421875 25.265625 0.953125 
Q 20.953125 3.328125 18.109375 8.203125 
L 18.109375 0 
L 9.078125 0 
L 9.078125 75.984375 
L 18.109375 75.984375 
z
" id="DejaVuSans-98"/>
      <path d="M 56.203125 29.59375 
L 56.203125 25.203125 
L 14.890625 25.203125 
Q 15.484375 15.921875 20.484375 11.0625 
Q 25.484375 6.203125 34.421875 6.203125 
Q 39.59375 6.203125 44.453125 7.46875 
Q 49.3125 8.734375 54.109375 11.28125 
L 54.109375 2.78125 
Q 49.265625 0.734375 44.1875 -0.34375 
Q 39.109375 -1.421875 33.890625 -1.421875 
Q 20.796875 -1.421875 13.15625 6.1875 
Q 5.515625 13.8125 5.515625 26.8125 
Q 5.515625 40.234375 12.765625 48.109375 
Q 20.015625 56 32.328125 56 
Q 43.359375 56 49.78125 48.890625 
Q 56.203125 41.796875 56.203125 29.59375 
z
M 47.21875 32.234375 
Q 47.125 39.59375 43.09375 43.984375 
Q 39.0625 48.390625 32.421875 48.390625 
Q 24.90625 48.390625 20.390625 44.140625 
Q 15.875 39.890625 15.1875 32.171875 
z
" id="DejaVuSans-101"/>
      <path d="M 41.109375 46.296875 
Q 39.59375 47.171875 37.8125 47.578125 
Q 36.03125 48 33.890625 48 
Q 26.265625 48 22.1875 43.046875 
Q 18.109375 38.09375 18.109375 28.8125 
L 18.109375 0 
L 9.078125 0 
L 9.078125 54.6875 
L 18.109375 54.6875 
L 18.109375 46.1875 
Q 20.953125 51.171875 25.484375 53.578125 
Q 30.03125 56 36.53125 56 
Q 37.453125 56 38.578125 55.875 
Q 39.703125 55.765625 41.0625 55.515625 
z
" id="DejaVuSans-114"/>
      <path id="DejaVuSans-32"/>
      <path d="M 30.609375 48.390625 
Q 23.390625 48.390625 19.1875 42.75 
Q 14.984375 37.109375 14.984375 27.296875 
Q 14.984375 17.484375 19.15625 11.84375 
Q 23.34375 6.203125 30.609375 6.203125 
Q 37.796875 6.203125 41.984375 11.859375 
Q 46.1875 17.53125 46.1875 27.296875 
Q 46.1875 37.015625 41.984375 42.703125 
Q 37.796875 48.390625 30.609375 48.390625 
z
M 30.609375 56 
Q 42.328125 56 49.015625 48.375 
Q 55.71875 40.765625 55.71875 27.296875 
Q 55.71875 13.875 49.015625 6.21875 
Q 42.328125 -1.421875 30.609375 -1.421875 
Q 18.84375 -1.421875 12.171875 6.21875 
Q 5.515625 13.875 5.515625 27.296875 
Q 5.515625 40.765625 12.171875 48.375 
Q 18.84375 56 30.609375 56 
z
" id="DejaVuSans-111"/>
      <path d="M 37.109375 75.984375 
L 37.109375 68.5 
L 28.515625 68.5 
Q 23.6875 68.5 21.796875 66.546875 
Q 19.921875 64.59375 19.921875 59.515625 
L 19.921875 54.6875 
L 34.71875 54.6875 
L 34.71875 47.703125 
L 19.921875 47.703125 
L 19.921875 0 
L 10.890625 0 
L 10.890625 47.703125 
L 2.296875 47.703125 
L 2.296875 54.6875 
L 10.890625 54.6875 
L 10.890625 58.5 
Q 10.890625 67.625 15.140625 71.796875 
Q 19.390625 75.984375 28.609375 75.984375 
z
" id="DejaVuSans-102"/>
      <path d="M 48.78125 52.59375 
L 48.78125 44.1875 
Q 44.96875 46.296875 41.140625 47.34375 
Q 37.3125 48.390625 33.40625 48.390625 
Q 24.65625 48.390625 19.8125 42.84375 
Q 14.984375 37.3125 14.984375 27.296875 
Q 14.984375 17.28125 19.8125 11.734375 
Q 24.65625 6.203125 33.40625 6.203125 
Q 37.3125 6.203125 41.140625 7.25 
Q 44.96875 8.296875 48.78125 10.40625 
L 48.78125 2.09375 
Q 45.015625 0.34375 40.984375 -0.53125 
Q 36.96875 -1.421875 32.421875 -1.421875 
Q 20.0625 -1.421875 12.78125 6.34375 
Q 5.515625 14.109375 5.515625 27.296875 
Q 5.515625 40.671875 12.859375 48.328125 
Q 20.21875 56 33.015625 56 
Q 37.15625 56 41.109375 55.140625 
Q 45.0625 54.296875 48.78125 52.59375 
z
" id="DejaVuSans-99"/>
      <path d="M 54.890625 33.015625 
L 54.890625 0 
L 45.90625 0 
L 45.90625 32.71875 
Q 45.90625 40.484375 42.875 44.328125 
Q 39.84375 48.1875 33.796875 48.1875 
Q 26.515625 48.1875 22.3125 43.546875 
Q 18.109375 38.921875 18.109375 30.90625 
L 18.109375 0 
L 9.078125 0 
L 9.078125 54.6875 
L 18.109375 54.6875 
L 18.109375 46.1875 
Q 21.34375 51.125 25.703125 53.5625 
Q 30.078125 56 35.796875 56 
Q 45.21875 56 50.046875 50.171875 
Q 54.890625 44.34375 54.890625 33.015625 
z
" id="DejaVuSans-110"/>
      <path d="M 18.3125 70.21875 
L 18.3125 54.6875 
L 36.8125 54.6875 
L 36.8125 47.703125 
L 18.3125 47.703125 
L 18.3125 18.015625 
Q 18.3125 11.328125 20.140625 9.421875 
Q 21.96875 7.515625 27.59375 7.515625 
L 36.8125 7.515625 
L 36.8125 0 
L 27.59375 0 
Q 17.1875 0 13.234375 3.875 
Q 9.28125 7.765625 9.28125 18.015625 
L 9.28125 47.703125 
L 2.6875 47.703125 
L 2.6875 54.6875 
L 9.28125 54.6875 
L 9.28125 70.21875 
z
" id="DejaVuSans-116"/>
      <path d="M 44.28125 53.078125 
L 44.28125 44.578125 
Q 40.484375 46.53125 36.375 47.5 
Q 32.28125 48.484375 27.875 48.484375 
Q 21.1875 48.484375 17.84375 46.4375 
Q 14.5 44.390625 14.5 40.28125 
Q 14.5 37.15625 16.890625 35.375 
Q 19.28125 33.59375 26.515625 31.984375 
L 29.59375 31.296875 
Q 39.15625 29.25 43.1875 25.515625 
Q 47.21875 21.78125 47.21875 15.09375 
Q 47.21875 7.46875 41.1875 3.015625 
Q 35.15625 -1.421875 24.609375 -1.421875 
Q 20.21875 -1.421875 15.453125 -0.5625 
Q 10.6875 0.296875 5.421875 2 
L 5.421875 11.28125 
Q 10.40625 8.6875 15.234375 7.390625 
Q 20.0625 6.109375 24.8125 6.109375 
Q 31.15625 6.109375 34.5625 8.28125 
Q 37.984375 10.453125 37.984375 14.40625 
Q 37.984375 18.0625 35.515625 20.015625 
Q 33.0625 21.96875 24.703125 23.78125 
L 21.578125 24.515625 
Q 13.234375 26.265625 9.515625 29.90625 
Q 5.8125 33.546875 5.8125 39.890625 
Q 5.8125 47.609375 11.28125 51.796875 
Q 16.75 56 26.8125 56 
Q 31.78125 56 36.171875 55.265625 
Q 40.578125 54.546875 44.28125 53.078125 
z
" id="DejaVuSans-115"/>
     </defs>
     <g transform="translate(31.725275 177.769092)rotate(-90)scale(0.1 -0.1)">
      <use xlink:href="#DejaVuSans-78"/>
      <use x="74.804688" xlink:href="#DejaVuSans-117"/>
      <use x="138.183594" xlink:href="#DejaVuSans-109"/>
      <use x="235.595703" xlink:href="#DejaVuSans-98"/>
      <use x="299.072266" xlink:href="#DejaVuSans-101"/>
      <use x="360.595703" xlink:href="#DejaVuSans-114"/>
      <use x="401.708984" xlink:href="#DejaVuSans-32"/>
      <use x="433.496094" xlink:href="#DejaVuSans-111"/>
      <use x="494.677734" xlink:href="#DejaVuSans-102"/>
      <use x="529.882812" xlink:href="#DejaVuSans-32"/>
      <use x="561.669922" xlink:href="#DejaVuSans-99"/>
      <use x="616.650391" xlink:href="#DejaVuSans-111"/>
      <use x="677.832031" xlink:href="#DejaVuSans-109"/>
      <use x="775.244141" xlink:href="#DejaVuSans-109"/>
      <use x="872.65625" xlink:href="#DejaVuSans-101"/>
      <use x="934.179688" xlink:href="#DejaVuSans-110"/>
      <use x="997.558594" xlink:href="#DejaVuSans-116"/>
      <use x="1036.767578" xlink:href="#DejaVuSans-115"/>
     </g>
    </g>
   </g>
   <g id="patch_72">
    <path d="M 63.892463 218.852246 
L 63.892463 27.8 
" style="fill:none;stroke:#000000;stroke-linecap:square;stroke-linejoin:miter;stroke-width:0.8;"/>
   </g>
   <g id="patch_73">
    <path d="M 421.2 218.852246 
L 421.2 27.8 
" style="fill:none;stroke:#000000;stroke-linecap:square;stroke-linejoin:miter;stroke-width:0.8;"/>
   </g>
   <g id="patch_74">
    <path d="M 63.892463 218.852246 
L 421.2 218.852246 
" style="fill:none;stroke:#000000;stroke-linecap:square;stroke-linejoin:miter;stroke-width:0.8;"/>
   </g>
   <g id="patch_75">
    <path d="M 63.892463 27.8 
L 421.2 27.8 
" style="fill:none;stroke:#000000;stroke-linecap:square;stroke-linejoin:miter;stroke-width:0.8;"/>
   </g>
   <g id="text_24">
    <!-- Activity of user: H Tuttle -->
    <defs>
     <path d="M 34.1875 63.1875 
L 20.796875 26.90625 
L 47.609375 26.90625 
z
M 28.609375 72.90625 
L 39.796875 72.90625 
L 67.578125 0 
L 57.328125 0 
L 50.6875 18.703125 
L 17.828125 18.703125 
L 11.1875 0 
L 0.78125 0 
z
" id="DejaVuSans-65"/>
     <path d="M 9.421875 54.6875 
L 18.40625 54.6875 
L 18.40625 0 
L 9.421875 0 
z
M 9.421875 75.984375 
L 18.40625 75.984375 
L 18.40625 64.59375 
L 9.421875 64.59375 
z
" id="DejaVuSans-105"/>
     <path d="M 2.984375 54.6875 
L 12.5 54.6875 
L 29.59375 8.796875 
L 46.6875 54.6875 
L 56.203125 54.6875 
L 35.6875 0 
L 23.484375 0 
z
" id="DejaVuSans-118"/>
     <path d="M 11.71875 12.40625 
L 22.015625 12.40625 
L 22.015625 0 
L 11.71875 0 
z
M 11.71875 51.703125 
L 22.015625 51.703125 
L 22.015625 39.3125 
L 11.71875 39.3125 
z
" id="DejaVuSans-58"/>
     <path d="M 9.8125 72.90625 
L 19.671875 72.90625 
L 19.671875 43.015625 
L 55.515625 43.015625 
L 55.515625 72.90625 
L 65.375 72.90625 
L 65.375 0 
L 55.515625 0 
L 55.515625 34.71875 
L 19.671875 34.71875 
L 19.671875 0 
L 9.8125 0 
z
" id="DejaVuSans-72"/>
     <path d="M -0.296875 72.90625 
L 61.375 72.90625 
L 61.375 64.59375 
L 35.5 64.59375 
L 35.5 0 
L 25.59375 0 
L 25.59375 64.59375 
L -0.296875 64.59375 
z
" id="DejaVuSans-84"/>
     <path d="M 9.421875 75.984375 
L 18.40625 75.984375 
L 18.40625 0 
L 9.421875 0 
z
" id="DejaVuSans-108"/>
    </defs>
    <g transform="translate(158.56045 21.8)scale(0.14 -0.14)">
     <use xlink:href="#DejaVuSans-65"/>
     <use x="66.658203" xlink:href="#DejaVuSans-99"/>
     <use x="121.638672" xlink:href="#DejaVuSans-116"/>
     <use x="160.847656" xlink:href="#DejaVuSans-105"/>
     <use x="188.630859" xlink:href="#DejaVuSans-118"/>
     <use x="247.810547" xlink:href="#DejaVuSans-105"/>
     <use x="275.59375" xlink:href="#DejaVuSans-116"/>
     <use x="314.802734" xlink:href="#DejaVuSans-121"/>
     <use x="373.982422" xlink:href="#DejaVuSans-32"/>
     <use x="405.769531" xlink:href="#DejaVuSans-111"/>
     <use x="466.951172" xlink:href="#DejaVuSans-102"/>
     <use x="502.15625" xlink:href="#DejaVuSans-32"/>
     <use x="533.943359" xlink:href="#DejaVuSans-117"/>
     <use x="597.322266" xlink:href="#DejaVuSans-115"/>
     <use x="649.421875" xlink:href="#DejaVuSans-101"/>
     <use x="710.945312" xlink:href="#DejaVuSans-114"/>
     <use x="750.308594" xlink:href="#DejaVuSans-58"/>
     <use x="784" xlink:href="#DejaVuSans-32"/>
     <use x="815.787109" xlink:href="#DejaVuSans-72"/>
     <use x="890.982422" xlink:href="#DejaVuSans-32"/>
     <use x="922.769531" xlink:href="#DejaVuSans-84"/>
     <use x="968.728516" xlink:href="#DejaVuSans-117"/>
     <use x="1032.107422" xlink:href="#DejaVuSans-116"/>
     <use x="1071.316406" xlink:href="#DejaVuSans-116"/>
     <use x="1110.525391" xlink:href="#DejaVuSans-108"/>
     <use x="1138.308594" xlink:href="#DejaVuSans-101"/>
    </g>
   </g>
  </g>
 </g>
 <defs>
  <clipPath id="pa18497297a">
   <rect height="191.052246" width="357.307537" x="63.892463" y="27.8"/>
  </clipPath>
 </defs>
</svg>
