<?xml version="1.0" standalone="no"?>
<!DOCTYPE svg PUBLIC "-//W3C//DTD SVG 20010904//EN"
 "http://www.w3.org/TR/2001/REC-SVG-20010904/DTD/svg10.dtd">
<svg version="1.0" xmlns="http://www.w3.org/2000/svg"
 width="218.000000pt" height="218.000000pt" viewBox="0 0 218.000000 218.000000"
 preserveAspectRatio="xMidYMid meet">

<g transform="translate(0.000000,218.000000) scale(0.100000,-0.100000)"
fill="#000000" stroke="none">
<path d="M0 1090 l0 -1090 1090 0 1090 0 0 1090 0 1090 -1090 0 -1090 0 0
-1090z m1364 889 c-10 -16 -23 -9 -21 10 1 15 4 17 14 9 7 -5 10 -14 7 -19z
m-99 1 c3 -5 1 -10 -4 -10 -6 0 -11 5 -11 10 0 6 2 10 4 10 3 0 8 -4 11 -10z
m439 -6 c3 -8 2 -12 -4 -9 -6 3 -10 10 -10 16 0 14 7 11 14 -7z m-90 -13 c-10
-10 -21 -14 -23 -8 -4 10 17 27 33 27 5 0 1 -8 -10 -19z m-425 -75 c8 -10 9
-16 1 -21 -5 -3 -10 0 -10 7 0 9 -3 9 -10 -2 -8 -12 -10 -11 -10 8 0 25 12 29
29 8z m178 -58 c-3 -8 -6 -5 -6 6 -1 11 2 17 5 13 3 -3 4 -12 1 -19z m-204
-23 c-3 -9 -8 -14 -10 -11 -3 3 -2 9 2 15 9 16 15 13 8 -4z m319 -77 c-3 -13
-13 -28 -21 -35 -13 -10 -13 -12 -2 -13 8 0 12 -3 8 -6 -3 -3 -11 -3 -17 1 -8
5 -6 13 6 26 9 10 14 19 9 19 -4 0 -2 7 5 15 17 20 19 19 12 -7z m-308 -24 c3
-8 2 -12 -4 -9 -6 3 -10 10 -10 16 0 14 7 11 14 -7z m6 -28 c0 -3 -4 -8 -10
-11 -5 -3 -10 -1 -10 4 0 6 5 11 10 11 6 0 10 -2 10 -4z m196 -7 c4 -8 9 -7
15 2 6 10 9 10 9 2 0 -7 7 -10 15 -7 8 4 15 1 15 -6 0 -6 3 -9 8 -7 4 3 8 -6
8 -19 1 -13 -1 -23 -5 -22 -20 2 -22 -4 -5 -23 19 -22 19 -22 -3 -8 -24 15
-31 55 -11 61 9 3 9 6 0 12 -8 4 -15 -2 -21 -16 -5 -13 -17 -30 -27 -38 -18
-14 -18 -14 -1 6 23 27 22 40 -5 58 -12 9 -17 16 -11 16 7 0 15 -5 19 -11z
m130 -20 c3 -6 1 -16 -5 -22 -9 -9 -11 -8 -6 5 4 11 0 18 -12 21 -15 4 -16 5
-1 6 9 0 20 -4 24 -10z m-791 -49 c3 -5 1 -10 -4 -10 -6 0 -11 5 -11 10 0 6 2
10 4 10 3 0 8 -4 11 -10z m526 -22 c-4 -12 -14 -24 -20 -26 -8 -3 -7 5 4 22
21 32 27 33 16 4z m353 -1 c-2 -7 -14 -19 -27 -26 -21 -13 -21 -12 2 13 27 29
33 32 25 13z m-1434 -17 c0 -5 -5 -10 -11 -10 -5 0 -7 5 -4 10 3 6 8 10 11 10
2 0 4 -4 4 -10z m1450 -20 c0 -5 -4 -10 -10 -10 -5 0 -10 5 -10 10 0 6 5 10
10 10 6 0 10 -4 10 -10z m-227 -37 c-7 -2 -19 -2 -25 0 -7 3 -2 5 12 5 14 0
19 -2 13 -5z m-486 -60 c-3 -10 -5 -2 -5 17 0 19 2 27 5 18 2 -10 2 -26 0 -35z
m758 17 c-3 -5 -12 -10 -18 -10 -7 0 -6 4 3 10 19 12 23 12 15 0z m-920 -90
c-27 -12 -43 -12 -25 0 8 5 22 9 30 9 10 0 8 -3 -5 -9z m50 0 c3 -5 1 -10 -4
-10 -6 0 -11 5 -11 10 0 6 2 10 4 10 3 0 8 -4 11 -10z m-257 -27 c-10 -2 -28
-2 -40 0 -13 2 -5 4 17 4 22 1 32 -1 23 -4z m89 1 c-3 -3 -12 -4 -19 -1 -8 3
-5 6 6 6 11 1 17 -2 13 -5z m73 -6 c0 -4 -4 -8 -9 -8 -6 0 -12 4 -15 8 -3 5 1
9 9 9 8 0 15 -4 15 -9z m290 -58 l-8 -35 -1 45 c-1 27 3 40 8 35 6 -6 6 -25 1
-45z m-83 -27 c-3 -10 -5 -2 -5 17 0 19 2 27 5 18 2 -10 2 -26 0 -35z m853
-17 c0 -3 -4 -8 -10 -11 -5 -3 -10 -1 -10 4 0 6 5 11 10 11 6 0 10 -2 10 -4z
m-352 -44 c-11 -14 -10 -15 7 -8 15 5 17 4 9 -4 -8 -8 -18 -8 -38 1 -25 12
-31 37 -7 32 6 -2 11 2 11 8 0 8 5 8 15 -1 12 -10 13 -16 3 -28z m422 24 c0
-2 -6 -9 -14 -15 -11 -9 -16 -9 -22 0 -4 7 -3 9 4 5 6 -3 13 -2 17 4 6 10 15
14 15 6z m-237 -69 c-3 -5 -11 0 -19 10 -20 27 -17 39 5 17 10 -10 16 -23 14
-27z m-977 18 c18 -14 18 -14 -8 -15 -15 0 -30 5 -33 10 -4 6 -11 7 -17 4 -7
-4 -8 -2 -4 4 10 16 38 15 62 -3z m597 -31 c-5 -14 -43 -6 -43 9 0 5 8 16 18
23 14 10 18 10 23 -4 3 -9 4 -22 2 -28z m-206 14 c-3 -8 -6 -5 -6 6 -1 11 2
17 5 13 3 -3 4 -12 1 -19z m381 -2 c-7 -8 -15 -12 -17 -11 -5 6 10 25 20 25 5
0 4 -6 -3 -14z m-648 0 c0 -2 -7 -7 -16 -10 -8 -3 -12 -2 -9 4 6 10 25 14 25
6z m38 -51 c-3 -3 -9 2 -12 12 -6 14 -5 15 5 6 7 -7 10 -15 7 -18z m928 -11
c-4 -16 -3 -23 3 -19 7 4 8 0 4 -10 -4 -12 -8 -13 -13 -5 -4 6 -11 11 -16 10
-5 -1 -10 4 -12 12 -3 10 -2 10 6 0 7 -11 11 -8 16 12 3 14 9 26 12 26 4 0 3
-12 0 -26z m-1207 -41 c-12 -15 -12 -16 3 -10 10 3 22 -1 30 -10 11 -15 11
-16 -4 -10 -42 15 -68 -30 -30 -52 9 -6 12 -11 7 -11 -18 0 -35 23 -35 47 0
13 5 23 12 23 6 0 8 3 5 7 -7 6 10 33 20 33 3 0 -1 -8 -8 -17z m411 -50 c0
-25 -3 -44 -6 -40 -9 9 -11 87 -2 87 4 0 8 -21 8 -47z m-162 -8 c-3 -3 -9 2
-12 12 -6 14 -5 15 5 6 7 -7 10 -15 7 -18z m964 -44 c8 11 9 11 6 1 -4 -16
-22 -18 -24 -3 -2 8 -1 7 3 0 4 -8 8 -7 15 2z m-805 -48 c-3 -10 -5 -2 -5 17
0 19 2 27 5 18 2 -10 2 -26 0 -35z m473 27 c0 -5 -8 -10 -18 -10 -16 0 -61
-40 -44 -40 4 0 1 -4 -7 -9 -10 -7 -11 -13 -1 -32 11 -23 11 -23 -5 -4 -9 11
-22 19 -28 17 -7 -1 -5 3 3 10 8 7 21 25 27 40 8 17 21 28 40 31 15 2 29 5 31
6 1 0 2 -3 2 -9z m85 0 c3 -5 1 -10 -4 -10 -6 0 -11 5 -11 10 0 6 2 10 4 10 3
0 8 -4 11 -10z m-7 -96 c-4 -11 -28 -14 -28 -4 0 8 22 20 28 14 2 -1 2 -6 0
-10z m-778 2 c0 -2 -8 -10 -17 -17 -16 -13 -17 -12 -4 4 13 16 21 21 21 13z
m778 -43 c2 -7 -3 -13 -12 -13 -9 0 -16 5 -16 11 0 8 -6 7 -17 -2 -16 -13 -17
-12 -4 4 15 20 42 19 49 0z m-548 -34 c0 -6 -4 -7 -10 -4 -5 3 -10 11 -10 16
0 6 5 7 10 4 6 -3 10 -11 10 -16z m66 -11 c1 -15 -3 -28 -7 -28 -5 0 -9 6 -9
14 0 8 -2 21 -5 29 -3 7 0 14 7 14 7 0 13 -13 14 -29z m434 13 c0 -10 -30 -24
-37 -17 -3 3 -2 9 2 15 8 13 35 15 35 2z m-473 -63 c-3 -8 -6 -5 -6 6 -1 11 2
17 5 13 3 -3 4 -12 1 -19z m568 -18 c3 -5 1 -10 -4 -10 -6 0 -11 5 -11 10 0 6
2 10 4 10 3 0 8 -4 11 -10z m-538 -47 c-3 -10 -5 -4 -5 12 0 17 2 24 5 18 2
-7 2 -21 0 -30z m497 21 c3 -8 2 -12 -4 -9 -6 3 -10 10 -10 16 0 14 7 11 14
-7z m-557 -18 c2 -19 1 -19 -8 -3 -6 9 -15 14 -21 11 -6 -4 -8 -3 -5 3 11 17
33 10 34 -11z m-490 8 c-3 -3 -12 -4 -19 -1 -8 3 -5 6 6 6 11 1 17 -2 13 -5z
m650 -16 c-3 -8 -6 -5 -6 6 -1 11 2 17 5 13 3 -3 4 -12 1 -19z m560 -32 c0 -8
-6 -12 -14 -9 -7 3 -10 9 -7 14 8 14 21 11 21 -5z m-670 -53 c-3 -10 -5 -4 -5
12 0 17 2 24 5 18 2 -7 2 -21 0 -30z m590 11 c-3 -3 -12 -4 -19 -1 -8 3 -5 6
6 6 11 1 17 -2 13 -5z m42 -25 c-19 -11 -24 -3 -8 14 8 9 16 11 18 5 2 -6 -3
-14 -10 -19z m-159 6 c0 -8 -4 -15 -10 -15 -5 0 -7 7 -4 15 4 8 8 15 10 15 2
0 4 -7 4 -15z m-266 -138 c-3 -9 -11 -14 -16 -11 -6 4 -5 10 3 16 11 7 11 11
2 15 -7 2 -13 10 -13 16 0 7 6 5 15 -4 9 -9 13 -23 9 -32z m662 -19 c4 -6 3
-8 -4 -4 -6 3 -15 -2 -21 -11 -6 -10 -11 -13 -11 -7 0 9 19 34 26 34 2 0 6 -5
10 -12z m-666 -23 c11 -13 10 -14 -4 -9 -9 3 -16 10 -16 15 0 13 6 11 20 -6z
m50 -45 c0 -5 -4 -10 -10 -10 -5 0 -10 5 -10 10 0 6 5 10 10 10 6 0 10 -4 10
-10z m61 -22 c8 -7 12 -12 10 -11 -2 2 -11 -3 -20 -9 -9 -7 -13 -8 -9 -4 4 5
3 15 -3 23 -14 17 2 17 22 1z m-244 -85 c-3 -10 -5 -2 -5 17 0 19 2 27 5 18 2
-10 2 -26 0 -35z m-119 -8 c-3 -3 -9 2 -12 12 -6 14 -5 15 5 6 7 -7 10 -15 7
-18z m377 -45 c4 -6 -6 -10 -22 -9 -25 0 -26 1 -8 9 11 5 21 9 22 9 1 1 5 -3
8 -9z m-41 -45 c2 -7 -3 -19 -12 -27 -15 -12 -16 -11 -3 5 12 15 11 17 -8 17
-20 0 -27 10 -15 23 9 8 32 -2 38 -18z"/>
<path d="M1380 1200 c-9 -6 -10 -10 -3 -10 6 0 15 5 18 10 8 12 4 12 -15 0z"/>
</g>
</svg>
