<?xml version="1.0" encoding="UTF-8" standalone="no"?>
<svg
   xmlns:dc="http://purl.org/dc/elements/1.1/"
   xmlns:cc="http://creativecommons.org/ns#"
   xmlns:rdf="http://www.w3.org/1999/02/22-rdf-syntax-ns#"
   xmlns:svg="http://www.w3.org/2000/svg"
   xmlns="http://www.w3.org/2000/svg"
   viewBox="0 0 538.12 384.38666"
   height="384.38666"
   width="538.12"
   xml:space="preserve"
   id="svg2"
   version="1.1"><metadata
     id="metadata8"><rdf:RDF><cc:Work
         rdf:about=""><dc:format>image/svg+xml</dc:format><dc:type
           rdf:resource="http://purl.org/dc/dcmitype/StillImage" /></cc:Work></rdf:RDF></metadata><defs
     id="defs6" /><g
     transform="matrix(1.3333333,0,0,-1.3333333,0,384.38667)"
     id="g10"><g
       transform="scale(0.1)"
       id="g12"><path
         id="path14"
         style="fill:#100f0d;fill-opacity:1;fill-rule:nonzero;stroke:none"
         d="m 2231.54,1934.05 c 0.3,-0.89 1.19,-0.89 1.5,0 l 20.65,73.95 c 0.45,1.8 1.5,2.55 3.15,2.55 h 15.26 c 1.65,0 3,-1.35 3,-3 v -98.79 c 0,-1.65 -1.35,-2.99 -3,-2.99 h -7.93 c -1.65,0 -2.99,1.34 -2.99,2.99 v 74.84 c 0,0.9 -1.05,0.9 -1.2,0.3 l -21.41,-75.59 c -0.59,-1.8 -1.49,-2.54 -3.14,-2.54 h -6.29 c -1.64,0 -2.54,0.74 -3.14,2.54 l -21.41,75.59 c -0.15,0.6 -1.19,0.6 -1.19,-0.3 v -74.84 c 0,-1.65 -1.35,-2.99 -3,-2.99 h -7.93 c -1.65,0 -3,1.34 -3,2.99 v 98.79 c 0,1.65 1.35,3 3,3 h 15.26 c 1.65,0 2.7,-0.75 3.15,-2.55 l 20.66,-73.95" /><path
         id="path16"
         style="fill:#100f0d;fill-opacity:1;fill-rule:nonzero;stroke:none"
         d="m 2309.05,1908.76 c 0,-1.65 -1.34,-2.99 -2.99,-2.99 h -7.78 c -1.65,0 -3,1.34 -3,2.99 v 68.85 c 0,1.65 1.35,3 3,3 h 7.78 c 1.65,0 2.99,-1.35 2.99,-3 z m 0.45,90.11 c 0,-1.35 -1.04,-2.39 -2.39,-2.39 h -10.18 c -1.34,0 -2.4,1.04 -2.4,2.39 v 10.33 c 0,1.2 1.06,2.39 2.4,2.39 h 10.18 c 1.35,0 2.39,-1.19 2.39,-2.39 v -10.33" /><path
         id="path18"
         style="fill:#100f0d;fill-opacity:1;fill-rule:nonzero;stroke:none"
         d="m 2338.68,1932.71 c 0.6,-7.94 6.89,-14.97 17.21,-14.97 10.33,0 16.62,7.03 17.22,14.97 0.44,6.14 0.44,14.82 0,20.95 -0.6,7.94 -6.89,14.98 -17.22,14.98 -10.32,0 -16.61,-7.04 -17.21,-14.98 -0.45,-6.13 -0.45,-14.81 0,-20.95 z m -12.72,0 c -0.45,5.99 -0.45,14.97 0,20.95 1.19,15.72 12.72,28.45 28.43,28.45 6.89,0 10.93,-3.75 13.93,-3.75 2.25,0 3.29,0.9 3.29,3.75 v 26.49 c 0,1.65 1.35,2.99 2.99,2.99 h 7.49 c 1.64,0 2.99,-1.34 2.99,-2.99 v -99.84 c 0,-1.65 -1.35,-2.99 -2.99,-2.99 H 2377 c -0.9,0 -1.5,0.44 -2.1,1.04 -0.9,1.05 -2.24,2.4 -3.74,2.4 -4.34,0 -5.69,-4.94 -16.77,-4.94 -15.71,0 -27.24,12.72 -28.43,28.44" /><path
         id="path20"
         style="fill:#100f0d;fill-opacity:1;fill-rule:nonzero;stroke:none"
         d="m 2414.26,1932.71 c 0.59,-7.94 6.88,-14.97 17.2,-14.97 10.34,0 16.63,7.03 17.22,14.97 0.45,6.14 0.45,14.82 0,20.95 -0.59,7.94 -6.88,14.98 -17.22,14.98 -10.32,0 -16.61,-7.04 -17.2,-14.98 -0.45,-6.13 -0.45,-14.81 0,-20.95 z m -12.73,0 c -0.45,5.99 -0.45,14.97 0,20.95 1.19,15.72 12.73,28.45 28.44,28.45 6.89,0 10.93,-3.75 13.93,-3.75 2.24,0 3.29,0.9 3.29,3.75 v 26.49 c 0,1.65 1.35,2.99 2.99,2.99 h 7.49 c 1.64,0 2.98,-1.34 2.98,-2.99 v -99.84 c 0,-1.65 -1.34,-2.99 -2.98,-2.99 h -5.09 c -0.9,0 -1.51,0.44 -2.1,1.04 -0.9,1.05 -2.25,2.4 -3.74,2.4 -4.35,0 -5.7,-4.94 -16.77,-4.94 -15.71,0 -27.25,12.72 -28.44,28.44" /><path
         id="path22"
         style="fill:#100f0d;fill-opacity:1;fill-rule:nonzero;stroke:none"
         d="m 2493.57,1908.76 c 0,-1.65 -1.34,-2.99 -2.99,-2.99 h -7.48 c -1.65,0 -3,1.34 -3,2.99 v 99.84 c 0,1.65 1.35,2.99 3,2.99 h 7.48 c 1.65,0 2.99,-1.34 2.99,-2.99 v -99.84" /><path
         id="path24"
         style="fill:#100f0d;fill-opacity:1;fill-rule:nonzero;stroke:none"
         d="m 2523.65,1952.32 c 0,-0.9 0.6,-1.5 1.5,-1.5 h 31.13 c 0.9,0 1.49,0.6 1.49,1.5 0,10.32 -7.62,16.32 -16.91,16.32 -10.32,0 -17.21,-7.19 -17.21,-16.32 z m 1.19,-13.47 c -0.89,0 -1.49,-0.6 -1.49,-1.5 0,-13.62 7.03,-19.61 17.36,-19.61 7.79,0 13.63,3.89 15.42,9.43 0.6,1.94 2.09,2.54 3.44,2.54 h 7.64 c 1.49,0 2.84,-0.89 2.55,-2.99 -1.8,-13.02 -13.48,-22.45 -29.05,-22.45 -17.96,0 -29.49,12.72 -30.68,28.44 -0.45,5.99 -0.45,14.97 0,20.95 1.19,15.72 12.72,28.45 30.68,28.45 18.12,0 29.94,-11.23 29.94,-29.94 v -10.33 c 0,-1.65 -1.34,-2.99 -2.99,-2.99 h -42.82" /><path
         id="path26"
         style="fill:#100f0d;fill-opacity:1;fill-rule:nonzero;stroke:none"
         d="m 2635.28,1921.48 c 0,-0.89 0.61,-1.5 1.51,-1.5 h 35.92 c 1.65,0 2.99,-1.34 2.99,-2.99 v -8.23 c 0,-1.65 -1.34,-2.99 -2.99,-2.99 h -48.65 c -1.65,0 -3,1.34 -3,2.99 v 98.79 c 0,1.65 1.35,3 3,3 h 48.35 c 1.64,0 2.99,-1.35 2.99,-3 v -8.23 c 0,-1.64 -1.35,-2.99 -2.99,-2.99 h -35.62 c -0.9,0 -1.51,-0.6 -1.51,-1.5 v -26.95 c 0,-0.9 0.61,-1.49 1.51,-1.49 h 33.97 c 1.65,0 3,-1.35 3,-2.99 v -8.24 c 0,-1.64 -1.35,-2.99 -3,-2.99 h -33.97 c -0.9,0 -1.51,-0.6 -1.51,-1.5 v -29.19" /><path
         id="path28"
         style="fill:#100f0d;fill-opacity:1;fill-rule:nonzero;stroke:none"
         d="m 2689.91,1977.61 c 0,1.65 1.35,3 3,3 h 7.48 c 1.65,0 3,-1.35 3,-3 v -44.9 c 0,-8.68 6.13,-14.97 16.46,-14.97 9.28,0 16.47,5.54 16.47,14.22 v 45.65 c 0,1.65 1.35,3 2.99,3 h 7.49 c 1.64,0 2.99,-1.35 2.99,-3 v -68.85 c 0,-1.65 -1.35,-2.99 -2.99,-2.99 h -6.59 c -0.9,0 -1.5,0.44 -2.09,1.04 -0.9,1.05 -2.25,2.4 -3.75,2.4 -4.34,0 -4.94,-4.94 -16.02,-4.94 -16.91,0 -28.44,11.97 -28.44,28.44 v 44.9" /><path
         id="path30"
         style="fill:#100f0d;fill-opacity:1;fill-rule:nonzero;stroke:none"
         d="m 2803.65,1967.29 c -11.81,0 -22.45,-6.14 -22.45,-22.6 v -35.93 c 0,-1.65 -1.35,-2.99 -2.99,-2.99 h -7.49 c -1.64,0 -2.99,1.34 -2.99,2.99 v 68.85 c 0,1.65 1.35,3 2.99,3 h 5.09 c 1.65,0 2.55,-0.9 3,-3 0.45,-1.94 0.45,-5.23 2.69,-5.23 3.6,0 6.14,8.23 22.15,8.23 h 3 c 1.65,0 3,-1.35 3,-3 v -7.33 c 0,-1.64 -1.35,-2.99 -3,-2.99 h -3" /><path
         id="path32"
         style="fill:#100f0d;fill-opacity:1;fill-rule:nonzero;stroke:none"
         d="m 2826.54,1932.71 c 0.61,-7.94 6.89,-14.97 17.22,-14.97 10.33,0 16.61,7.03 17.22,14.97 0.45,6.14 0.45,14.82 0,20.95 -0.61,7.94 -6.89,14.98 -17.22,14.98 -10.33,0 -16.61,-7.04 -17.22,-14.98 -0.45,-6.13 -0.45,-14.81 0,-20.95 z m -13.46,20.95 c 1.19,15.72 12.72,28.45 30.68,28.45 17.96,0 29.49,-12.73 30.68,-28.45 0.45,-5.98 0.45,-14.96 0,-20.95 -1.19,-15.72 -12.72,-28.44 -30.68,-28.44 -17.96,0 -29.49,12.72 -30.68,28.44 -0.45,5.99 -0.45,14.97 0,20.95" /><path
         id="path34"
         style="fill:#100f0d;fill-opacity:1;fill-rule:nonzero;stroke:none"
         d="m 2936.85,1953.66 c -0.6,7.94 -6.89,14.98 -17.22,14.98 -10.32,0 -16.61,-7.04 -17.21,-14.98 -0.45,-6.13 -0.45,-14.81 0,-20.95 0.6,-7.94 6.89,-14.97 17.21,-14.97 10.33,0 16.62,7.03 17.22,14.97 0.44,6.14 0.44,14.82 0,20.95 z m 12.72,0 c 0.45,-5.98 0.45,-14.96 0,-20.95 -1.2,-15.72 -12.72,-28.44 -28.44,-28.44 -6.88,0 -10.92,3.74 -13.92,3.74 -2.25,0 -3.29,-0.9 -3.29,-3.74 v -25.45 c 0,-1.64 -1.35,-2.99 -3,-2.99 h -7.48 c -1.65,0 -3,1.35 -3,2.99 v 98.79 c 0,1.65 1.35,3 3,3 h 5.09 c 0.89,0 1.49,-0.45 2.1,-1.05 0.89,-1.04 2.24,-2.39 3.74,-2.39 4.33,0 5.68,4.94 16.76,4.94 15.72,0 27.24,-12.73 28.44,-28.45" /><path
         id="path36"
         style="fill:#100f0d;fill-opacity:1;fill-rule:nonzero;stroke:none"
         d="m 2976.65,1952.32 c 0,-0.9 0.6,-1.5 1.49,-1.5 h 31.14 c 0.9,0 1.49,0.6 1.49,1.5 0,10.32 -7.63,16.32 -16.91,16.32 -10.32,0 -17.21,-7.19 -17.21,-16.32 z m 1.19,-13.47 c -0.9,0 -1.49,-0.6 -1.49,-1.5 0,-13.62 7.03,-19.61 17.36,-19.61 7.78,0 13.62,3.89 15.42,9.43 0.6,1.94 2.09,2.54 3.44,2.54 h 7.64 c 1.49,0 2.84,-0.89 2.54,-2.99 -1.79,-13.02 -13.47,-22.45 -29.04,-22.45 -17.96,0 -29.49,12.72 -30.68,28.44 -0.45,5.99 -0.45,14.97 0,20.95 1.19,15.72 12.72,28.45 30.68,28.45 18.12,0 29.94,-11.23 29.94,-29.94 v -10.33 c 0,-1.65 -1.35,-2.99 -3,-2.99 h -42.81" /><path
         id="path38"
         style="fill:#100f0d;fill-opacity:1;fill-rule:nonzero;stroke:none"
         d="m 3061.05,1938.7 c -7.62,0 -11.22,-4.04 -11.22,-10.33 0,-7.33 4.64,-11.68 13.32,-11.68 13.77,0 18.86,5.54 18.86,15.72 v 4.79 c 0,0.9 -0.59,1.5 -1.49,1.5 z m -8.07,22 c 0,-2.54 -2.1,-2.54 -3.45,-2.54 h -6.74 c -2.24,0 -2.99,1.2 -2.99,2.99 0,13.92 14.37,20.96 27.09,20.96 16.92,0 27.4,-7.34 27.4,-23.95 v -49.4 c 0,-1.65 -1.35,-2.99 -2.99,-2.99 h -5.1 c -0.9,0 -1.49,0.29 -2.09,1.04 -0.9,1.2 -1.5,3.14 -3,3.14 -2.69,0 -6.43,-5.68 -17.51,-5.68 -18.41,0 -27.24,11.23 -27.24,23.94 0,12.43 8.98,22.76 24.69,22.76 h 18.27 c 0.89,0 1.5,0.6 1.5,1.5 v 5.69 c 0,8.08 -5.55,11.97 -13.93,11.97 -5.23,0 -13.91,-2.25 -13.91,-9.43" /><path
         id="path40"
         style="fill:#100f0d;fill-opacity:1;fill-rule:nonzero;stroke:none"
         d="m 3171.66,1908.76 c 0,-1.65 -1.35,-2.99 -3,-2.99 h -7.48 c -1.65,0 -3,1.34 -3,2.99 v 44.9 c 0,9.59 -7.17,14.98 -16.46,14.98 -9.28,0 -16.47,-5.55 -16.47,-14.23 v -45.65 c 0,-1.65 -1.34,-2.99 -2.98,-2.99 h -7.49 c -1.65,0 -2.99,1.34 -2.99,2.99 v 68.85 c 0,1.65 1.34,3 2.99,3 h 6.59 c 0.9,0 1.49,-0.45 2.09,-1.05 0.9,-1.04 2.24,-2.39 3.74,-2.39 4.34,0 5.54,4.94 16.02,4.94 16.76,0 28.44,-10.78 28.44,-28.45 v -44.9" /><path
         id="path42"
         style="fill:#100f0d;fill-opacity:1;fill-rule:nonzero;stroke:none"
         d="m 2203.99,1698.76 c 0,-1.65 -1.34,-3 -2.98,-3 h -7.79 c -1.65,0 -3,1.35 -3,3 v 68.86 c 0,1.64 1.35,2.99 3,2.99 h 7.79 c 1.64,0 2.98,-1.35 2.98,-2.99 z m 0.45,90.11 c 0,-1.35 -1.04,-2.39 -2.39,-2.39 h -10.17 c -1.35,0 -2.41,1.04 -2.41,2.39 v 10.33 c 0,1.2 1.06,2.39 2.41,2.39 h 10.17 c 1.35,0 2.39,-1.19 2.39,-2.39 v -10.33" /><path
         id="path44"
         style="fill:#100f0d;fill-opacity:1;fill-rule:nonzero;stroke:none"
         d="m 2283.03,1698.76 c 0,-1.65 -1.35,-3 -3,-3 h -7.48 c -1.65,0 -3,1.35 -3,3 v 44.91 c 0,9.58 -7.18,14.97 -16.46,14.97 -9.28,0 -16.47,-5.55 -16.47,-14.23 v -45.65 c 0,-1.65 -1.35,-3 -2.99,-3 h -7.49 c -1.64,0 -2.99,1.35 -2.99,3 v 68.86 c 0,1.64 1.35,2.99 2.99,2.99 h 6.59 c 0.9,0 1.5,-0.45 2.09,-1.05 0.9,-1.05 2.25,-2.39 3.74,-2.39 4.35,0 5.55,4.94 16.03,4.94 16.76,0 28.44,-10.78 28.44,-28.44 v -44.91" /><path
         id="path46"
         style="fill:#100f0d;fill-opacity:1;fill-rule:nonzero;stroke:none"
         d="m 2339.14,1769.86 c 1.65,0 3,-1.35 3,-2.99 v -7.49 c 0,-1.64 -1.35,-2.99 -3,-2.99 h -17.22 c -0.89,0 -1.49,-0.6 -1.49,-1.5 v -35.18 c 0,-6.58 2.84,-10.92 11.97,-10.92 h 8.23 c 1.66,0 3,-1.35 3,-3 v -7.03 c 0,-1.65 -1.34,-3 -3,-3 h -8.23 c -15.56,0 -25.45,6.74 -25.45,23.95 v 35.18 c 0,0.9 -0.59,1.5 -1.49,1.5 h -10.48 c -1.64,0 -2.99,1.35 -2.99,2.99 v 7.49 c 0,1.64 1.35,2.99 2.99,2.99 h 10.48 c 0.9,0 1.49,0.6 1.49,1.5 v 23.2 c 0,1.64 1.35,2.99 3,2.99 h 7.48 c 1.65,0 3,-1.35 3,-2.99 v -23.2 c 0,-0.9 0.6,-1.5 1.49,-1.5 h 17.22" /><path
         id="path48"
         style="fill:#100f0d;fill-opacity:1;fill-rule:nonzero;stroke:none"
         d="m 2365.47,1742.32 c 0,-0.9 0.59,-1.5 1.49,-1.5 h 31.14 c 0.89,0 1.49,0.6 1.49,1.5 0,10.32 -7.63,16.32 -16.91,16.32 -10.33,0 -17.21,-7.19 -17.21,-16.32 z m 1.19,-13.47 c -0.9,0 -1.49,-0.6 -1.49,-1.5 0,-13.62 7.03,-19.61 17.36,-19.61 7.78,0 13.62,3.89 15.42,9.43 0.59,1.94 2.09,2.54 3.44,2.54 h 7.63 c 1.5,0 2.85,-0.89 2.55,-2.99 -1.79,-13.02 -13.47,-22.45 -29.04,-22.45 -17.96,0 -29.49,12.72 -30.68,28.44 -0.45,5.98 -0.45,14.97 0,20.96 1.19,15.71 12.72,28.44 30.68,28.44 18.11,0 29.94,-11.23 29.94,-29.94 v -10.33 c 0,-1.65 -1.35,-2.99 -3,-2.99 h -42.81" /><path
         id="path50"
         style="fill:#100f0d;fill-opacity:1;fill-rule:nonzero;stroke:none"
         d="m 2463.64,1757.29 c -11.81,0 -22.45,-6.14 -22.45,-22.6 v -35.93 c 0,-1.65 -1.35,-3 -2.99,-3 h -7.49 c -1.64,0 -2.99,1.35 -2.99,3 v 68.86 c 0,1.64 1.35,2.99 2.99,2.99 h 5.09 c 1.65,0 2.55,-0.9 3,-2.99 0.45,-1.95 0.45,-5.24 2.69,-5.24 3.6,0 6.14,8.23 22.15,8.23 h 3 c 1.65,0 3,-1.35 3,-2.99 v -7.34 c 0,-1.64 -1.35,-2.99 -3,-2.99 h -3" /><path
         id="path52"
         style="fill:#100f0d;fill-opacity:1;fill-rule:nonzero;stroke:none"
         d="m 2485.79,1722.71 c 0.6,-7.94 6.89,-14.97 17.21,-14.97 10.33,0 16.62,7.03 17.21,14.97 0.45,6.14 0.45,14.82 0,20.96 -0.59,7.93 -6.88,14.97 -17.21,14.97 -10.32,0 -16.61,-7.04 -17.21,-14.97 -0.45,-6.14 -0.45,-14.82 0,-20.96 z m -12.72,0 c -0.45,5.98 -0.45,14.97 0,20.96 1.19,15.71 12.72,28.44 28.43,28.44 6.89,0 10.93,-3.75 13.93,-3.75 2.25,0 3.29,0.9 3.29,3.75 v 26.49 c 0,1.65 1.35,2.99 2.99,2.99 h 7.49 c 1.64,0 2.99,-1.34 2.99,-2.99 v -99.84 c 0,-1.65 -1.35,-3 -2.99,-3 h -5.09 c -0.9,0 -1.5,0.45 -2.1,1.05 -0.9,1.05 -2.24,2.4 -3.74,2.4 -4.34,0 -5.69,-4.94 -16.77,-4.94 -15.71,0 -27.24,12.72 -28.43,28.44" /><path
         id="path54"
         style="fill:#100f0d;fill-opacity:1;fill-rule:nonzero;stroke:none"
         d="m 2566.15,1698.76 c 0,-1.65 -1.35,-3 -2.99,-3 h -7.78 c -1.65,0 -3,1.35 -3,3 v 68.86 c 0,1.64 1.35,2.99 3,2.99 h 7.78 c 1.64,0 2.99,-1.35 2.99,-2.99 z m 0.45,90.11 c 0,-1.35 -1.04,-2.39 -2.39,-2.39 h -10.18 c -1.34,0 -2.4,1.04 -2.4,2.39 v 10.33 c 0,1.2 1.06,2.39 2.4,2.39 h 10.18 c 1.35,0 2.39,-1.19 2.39,-2.39 v -10.33" /><path
         id="path56"
         style="fill:#100f0d;fill-opacity:1;fill-rule:nonzero;stroke:none"
         d="m 2635.15,1746.66 h -7.48 c -1.65,0 -3,1.35 -3,2.99 0,5.24 -4.04,9.73 -13.93,9.73 -9.28,0 -13.16,-4.64 -13.16,-8.98 0,-5.84 5.83,-7.78 13.16,-9.13 12.58,-2.24 29.49,-4.79 29.49,-23.05 0,-16.02 -13.91,-23.95 -29.49,-23.95 -14.96,0 -29.64,7.48 -29.64,23.95 v 1.94 c 0,1.65 1.35,3 3,3 h 7.48 c 1.65,0 3,-1.35 3,-3 v -1.94 c 0,-8.98 9.28,-11.08 16.16,-11.08 8.09,0 16.03,2.1 16.03,11.08 0,6.13 -7.35,7.78 -16.03,9.58 -12.26,2.54 -27.09,5.68 -27.09,22.6 0,13.48 13.48,21.71 27.09,21.71 13.93,0 27.4,-8.23 27.4,-22.46 0,-1.64 -1.34,-2.99 -2.99,-2.99" /><path
         id="path58"
         style="fill:#100f0d;fill-opacity:1;fill-rule:nonzero;stroke:none"
         d="m 2699.79,1722.71 h 7.79 c 1.65,0 3,-1.35 3,-3 0,-14.52 -12.13,-25.44 -28.9,-25.44 -17.96,0 -28.74,12.72 -29.93,28.44 -0.45,5.98 -0.45,14.97 0,20.96 1.19,15.71 11.97,28.44 29.93,28.44 16.77,0 28.9,-10.93 28.9,-25.45 0,-1.65 -0.9,-2.99 -2.55,-2.99 h -8.09 c -1.35,0 -2.84,0.74 -2.84,2.39 0,7.03 -6.13,12.58 -15.42,12.58 -10.32,0 -15.86,-7.04 -16.47,-14.97 -0.44,-6.14 -0.44,-14.82 0,-20.96 0.61,-7.94 6.15,-14.97 16.47,-14.97 9.13,0 15.27,5.39 15.27,12.42 0,1.95 1.5,2.55 2.84,2.55" /><path
         id="path60"
         style="fill:#100f0d;fill-opacity:1;fill-rule:nonzero;stroke:none"
         d="m 2740.8,1698.76 c 0,-1.65 -1.35,-3 -2.99,-3 h -7.78 c -1.65,0 -3,1.35 -3,3 v 68.86 c 0,1.64 1.35,2.99 3,2.99 h 7.78 c 1.64,0 2.99,-1.35 2.99,-2.99 z m 0.45,90.11 c 0,-1.35 -1.04,-2.39 -2.39,-2.39 h -10.18 c -1.35,0 -2.4,1.04 -2.4,2.39 v 10.33 c 0,1.2 1.05,2.39 2.4,2.39 h 10.18 c 1.35,0 2.39,-1.19 2.39,-2.39 v -10.33" /><path
         id="path62"
         style="fill:#100f0d;fill-opacity:1;fill-rule:nonzero;stroke:none"
         d="m 2806.65,1743.67 c -0.6,7.93 -6.88,14.97 -17.22,14.97 -10.32,0 -16.61,-7.04 -17.2,-14.97 -0.45,-6.14 -0.45,-14.82 0,-20.96 0.59,-7.94 6.88,-14.97 17.2,-14.97 10.34,0 16.62,7.03 17.22,14.97 0.45,6.14 0.45,14.82 0,20.96 z m 12.73,0 c 0.44,-5.99 0.44,-14.98 0,-20.96 -1.21,-15.72 -12.73,-28.44 -28.44,-28.44 -6.89,0 -10.93,3.74 -13.93,3.74 -2.24,0 -3.29,-0.9 -3.29,-3.74 v -25.45 c 0,-1.64 -1.35,-2.99 -3,-2.99 h -7.48 c -1.65,0 -3,1.35 -3,2.99 v 98.8 c 0,1.64 1.35,2.99 3,2.99 h 5.09 c 0.9,0 1.49,-0.45 2.1,-1.05 0.9,-1.05 2.25,-2.39 3.74,-2.39 4.34,0 5.68,4.94 16.77,4.94 15.71,0 27.23,-12.73 28.44,-28.44" /><path
         id="path64"
         style="fill:#100f0d;fill-opacity:1;fill-rule:nonzero;stroke:none"
         d="m 2846.31,1698.76 c 0,-1.65 -1.35,-3 -3,-3 h -7.48 c -1.65,0 -3,1.35 -3,3 v 99.84 c 0,1.65 1.35,2.99 3,2.99 h 7.48 c 1.65,0 3,-1.34 3,-2.99 v -99.84" /><path
         id="path66"
         style="fill:#100f0d;fill-opacity:1;fill-rule:nonzero;stroke:none"
         d="m 2880.27,1698.76 c 0,-1.65 -1.34,-3 -2.98,-3 h -7.79 c -1.65,0 -3,1.35 -3,3 v 68.86 c 0,1.64 1.35,2.99 3,2.99 h 7.79 c 1.64,0 2.98,-1.35 2.98,-2.99 z m 0.45,90.11 c 0,-1.35 -1.04,-2.39 -2.39,-2.39 h -10.18 c -1.34,0 -2.4,1.04 -2.4,2.39 v 10.33 c 0,1.2 1.06,2.39 2.4,2.39 h 10.18 c 1.35,0 2.39,-1.19 2.39,-2.39 v -10.33" /><path
         id="path68"
         style="fill:#100f0d;fill-opacity:1;fill-rule:nonzero;stroke:none"
         d="m 2959.31,1698.76 c 0,-1.65 -1.35,-3 -3,-3 h -7.48 c -1.65,0 -3,1.35 -3,3 v 44.91 c 0,9.58 -7.18,14.97 -16.46,14.97 -9.28,0 -16.47,-5.55 -16.47,-14.23 v -45.65 c 0,-1.65 -1.35,-3 -2.99,-3 h -7.49 c -1.64,0 -2.99,1.35 -2.99,3 v 68.86 c 0,1.64 1.35,2.99 2.99,2.99 h 6.59 c 0.9,0 1.5,-0.45 2.09,-1.05 0.9,-1.05 2.25,-2.39 3.74,-2.39 4.35,0 5.55,4.94 16.03,4.94 16.76,0 28.44,-10.78 28.44,-28.44 v -44.91" /><path
         id="path70"
         style="fill:#100f0d;fill-opacity:1;fill-rule:nonzero;stroke:none"
         d="m 2998.65,1728.69 c -7.62,0 -11.22,-4.03 -11.22,-10.32 0,-7.34 4.64,-11.68 13.32,-11.68 13.77,0 18.86,5.54 18.86,15.72 v 4.79 c 0,0.9 -0.6,1.49 -1.49,1.49 z m -8.07,22.01 c 0,-2.54 -2.1,-2.54 -3.45,-2.54 h -6.74 c -2.25,0 -2.99,1.19 -2.99,2.99 0,13.92 14.37,20.96 27.09,20.96 16.92,0 27.39,-7.34 27.39,-23.95 v -49.4 c 0,-1.65 -1.34,-3 -2.98,-3 h -5.1 c -0.9,0 -1.5,0.3 -2.09,1.05 -0.9,1.2 -1.5,3.14 -3,3.14 -2.69,0 -6.43,-5.68 -17.51,-5.68 -18.42,0 -27.24,11.23 -27.24,23.95 0,12.42 8.98,22.75 24.69,22.75 h 18.26 c 0.9,0 1.51,0.6 1.51,1.5 v 5.69 c 0,8.08 -5.55,11.97 -13.93,11.97 -5.23,0 -13.91,-2.25 -13.91,-9.43" /><path
         id="path72"
         style="fill:#100f0d;fill-opacity:1;fill-rule:nonzero;stroke:none"
         d="m 3085.3,1757.29 c -11.81,0 -22.45,-6.14 -22.45,-22.6 v -35.93 c 0,-1.65 -1.35,-3 -2.99,-3 h -7.49 c -1.64,0 -2.99,1.35 -2.99,3 v 68.86 c 0,1.64 1.35,2.99 2.99,2.99 h 5.09 c 1.65,0 2.55,-0.9 3,-2.99 0.45,-1.95 0.45,-5.24 2.69,-5.24 3.6,0 6.14,8.23 22.15,8.23 h 3 c 1.65,0 3,-1.35 3,-2.99 v -7.34 c 0,-1.64 -1.35,-2.99 -3,-2.99 h -3" /><path
         id="path74"
         style="fill:#100f0d;fill-opacity:1;fill-rule:nonzero;stroke:none"
         d="m 3126.31,1719.71 c 0.3,-0.74 0.9,-0.74 1.2,0 l 17.36,48.65 c 0.6,1.65 1.5,2.25 2.84,2.25 h 8.83 c 2.41,0 3.45,-1.94 2.85,-3.44 l -38.02,-99.1 c -0.6,-1.65 -1.5,-2.24 -2.84,-2.24 h -8.09 c -2.39,0 -3.44,1.94 -2.84,3.44 l 11.07,30.54 c 0.3,0.74 0.45,1.19 0.16,1.94 l -25.75,65.42 c -0.6,1.5 0.45,3.44 2.85,3.44 h 9.13 c 1.34,0 2.23,-0.6 2.84,-2.25 l 18.41,-48.65" /><path
         id="path76"
         style="fill:#100f0d;fill-opacity:1;fill-rule:nonzero;stroke:none"
         d="m 2273.15,1533.67 c 0,7.78 -5.39,14.97 -14.52,14.97 -9.13,0 -14.22,-7.34 -14.22,-14.23 v -45.65 c 0,-1.65 -1.34,-3 -2.99,-3 h -7.34 c -1.65,0 -2.99,1.35 -2.99,3 v 44.91 c 0,7.78 -5.99,14.97 -14.37,14.97 -9.13,0 -14.52,-7.34 -14.52,-14.23 v -45.65 c 0,-1.65 -1.35,-3 -2.99,-3 h -7.49 c -1.64,0 -2.99,1.35 -2.99,3 v 68.86 c 0,1.64 1.35,2.99 2.99,2.99 h 6.59 c 0.9,0 1.49,-0.45 2.09,-1.05 0.9,-1.05 1.95,-2.39 3.74,-2.39 4.65,0 7.34,4.94 16.32,4.94 7.94,0 13.03,-4.49 16.32,-7.19 2.24,-1.8 3.59,-1.8 5.84,0 3.29,2.7 8.83,7.19 17.51,7.19 17.21,0 26.49,-11.83 26.49,-28.44 v -44.91 c 0,-1.65 -1.35,-3 -2.99,-3 h -7.49 c -1.64,0 -2.99,1.35 -2.99,3 v 44.91" /><path
         id="path78"
         style="fill:#100f0d;fill-opacity:1;fill-rule:nonzero;stroke:none"
         d="m 2325.97,1518.69 c -7.63,0 -11.22,-4.03 -11.22,-10.32 0,-7.34 4.63,-11.68 13.32,-11.68 13.77,0 18.85,5.54 18.85,15.72 v 4.79 c 0,0.9 -0.59,1.49 -1.49,1.49 z m -8.08,22.01 c 0,-2.54 -2.1,-2.54 -3.45,-2.54 h -6.73 c -2.25,0 -2.99,1.19 -2.99,2.99 0,13.92 14.36,20.96 27.09,20.96 16.91,0 27.39,-7.34 27.39,-23.95 v -49.4 c 0,-1.65 -1.35,-3 -2.99,-3 h -5.1 c -0.9,0 -1.49,0.3 -2.09,1.05 -0.89,1.2 -1.49,3.14 -2.99,3.14 -2.7,0 -6.44,-5.68 -17.51,-5.68 -18.42,0 -27.25,11.23 -27.25,23.95 0,12.42 8.98,22.75 24.7,22.75 h 18.26 c 0.9,0 1.5,0.6 1.5,1.5 v 5.69 c 0,8.08 -5.54,11.97 -13.92,11.97 -5.24,0 -13.92,-2.25 -13.92,-9.43" /><path
         id="path80"
         style="fill:#100f0d;fill-opacity:1;fill-rule:nonzero;stroke:none"
         d="m 2426.54,1536.66 h -7.48 c -1.65,0 -3,1.35 -3,2.99 0,5.24 -4.04,9.73 -13.92,9.73 -9.28,0 -13.17,-4.64 -13.17,-8.98 0,-5.84 5.83,-7.78 13.17,-9.13 12.58,-2.24 29.49,-4.79 29.49,-23.05 0,-16.02 -13.92,-23.95 -29.49,-23.95 -14.96,0 -29.63,7.48 -29.63,23.95 v 1.94 c 0,1.65 1.34,3 2.99,3 h 7.48 c 1.65,0 3,-1.35 3,-3 v -1.94 c 0,-8.98 9.27,-11.08 16.16,-11.08 8.08,0 16.02,2.1 16.02,11.08 0,6.13 -7.33,7.78 -16.02,9.58 -12.27,2.54 -27.09,5.68 -27.09,22.6 0,13.48 13.48,21.71 27.09,21.71 13.92,0 27.4,-8.23 27.4,-22.46 0,-1.64 -1.35,-2.99 -3,-2.99" /><path
         id="path82"
         style="fill:#100f0d;fill-opacity:1;fill-rule:nonzero;stroke:none"
         d="m 2484.31,1559.86 c 1.65,0 2.99,-1.35 2.99,-2.99 v -7.49 c 0,-1.64 -1.34,-2.99 -2.99,-2.99 h -17.22 c -0.9,0 -1.49,-0.6 -1.49,-1.5 v -35.18 c 0,-6.58 2.84,-10.92 11.97,-10.92 h 8.23 c 1.65,0 3,-1.35 3,-3 v -7.03 c 0,-1.65 -1.35,-3 -3,-3 h -8.23 c -15.57,0 -25.45,6.74 -25.45,23.95 v 35.18 c 0,0.9 -0.6,1.5 -1.49,1.5 h -10.48 c -1.64,0 -2.99,1.35 -2.99,2.99 v 7.49 c 0,1.64 1.35,2.99 2.99,2.99 h 10.48 c 0.89,0 1.49,0.6 1.49,1.5 v 23.2 c 0,1.64 1.35,2.99 3,2.99 h 7.48 c 1.65,0 3,-1.35 3,-2.99 v -23.2 c 0,-0.9 0.59,-1.5 1.49,-1.5 h 17.22" /><path
         id="path84"
         style="fill:#100f0d;fill-opacity:1;fill-rule:nonzero;stroke:none"
         d="m 2510.63,1532.32 c 0,-0.9 0.6,-1.5 1.5,-1.5 h 31.13 c 0.9,0 1.5,0.6 1.5,1.5 0,10.32 -7.63,16.32 -16.92,16.32 -10.32,0 -17.21,-7.19 -17.21,-16.32 z m 1.2,-13.47 c -0.9,0 -1.5,-0.6 -1.5,-1.5 0,-13.62 7.03,-19.61 17.37,-19.61 7.78,0 13.62,3.89 15.42,9.43 0.59,1.94 2.09,2.54 3.43,2.54 h 7.64 c 1.49,0 2.84,-0.89 2.55,-2.99 -1.8,-13.02 -13.48,-22.45 -29.04,-22.45 -17.96,0 -29.5,12.72 -30.69,28.44 -0.45,5.98 -0.45,14.97 0,20.96 1.19,15.71 12.73,28.44 30.69,28.44 18.11,0 29.94,-11.23 29.94,-29.94 v -10.33 c 0,-1.65 -1.35,-2.99 -3,-2.99 h -42.81" /><path
         id="path86"
         style="fill:#100f0d;fill-opacity:1;fill-rule:nonzero;stroke:none"
         d="m 2608.81,1547.29 c -11.82,0 -22.45,-6.14 -22.45,-22.6 v -35.93 c 0,-1.65 -1.35,-3 -2.99,-3 h -7.49 c -1.64,0 -2.99,1.35 -2.99,3 v 68.86 c 0,1.64 1.35,2.99 2.99,2.99 h 5.09 c 1.65,0 2.55,-0.9 2.99,-2.99 0.45,-1.95 0.45,-5.24 2.7,-5.24 3.59,0 6.13,8.23 22.15,8.23 h 3 c 1.65,0 2.99,-1.35 2.99,-2.99 v -7.34 c 0,-1.64 -1.34,-2.99 -2.99,-2.99 h -3" /><path
         id="path88"
         style="fill:#100f0d;fill-opacity:1;fill-rule:nonzero;stroke:none"
         d="m 2624.97,1551.63 c -2.85,0 -3.9,2.69 -2.69,4.94 l 6.88,12.57 c 0.6,1.05 -0.45,1.95 -1.35,1.95 h -2.55 c -1.64,0 -2.98,1.34 -2.98,2.99 v 13.47 c 0,1.65 1.34,2.99 2.98,2.99 h 13.48 c 1.64,0 2.99,-1.34 2.99,-2.99 v -13.47 c 0,-3.89 -1.19,-6.73 -2.99,-9.28 l -7.78,-10.92 c -0.61,-0.9 -1.65,-2.25 -3.9,-2.25 h -2.09" /><path
         id="path90"
         style="fill:#100f0d;fill-opacity:1;fill-rule:nonzero;stroke:none"
         d="m 2695.01,1536.66 h -7.48 c -1.65,0 -3,1.35 -3,2.99 0,5.24 -4.04,9.73 -13.92,9.73 -9.28,0 -13.17,-4.64 -13.17,-8.98 0,-5.84 5.83,-7.78 13.17,-9.13 12.57,-2.24 29.49,-4.79 29.49,-23.05 0,-16.02 -13.92,-23.95 -29.49,-23.95 -14.97,0 -29.64,7.48 -29.64,23.95 v 1.94 c 0,1.65 1.34,3 2.99,3 h 7.49 c 1.65,0 2.99,-1.35 2.99,-3 v -1.94 c 0,-8.98 9.28,-11.08 16.17,-11.08 8.08,0 16.02,2.1 16.02,11.08 0,6.13 -7.34,7.78 -16.02,9.58 -12.27,2.54 -27.09,5.68 -27.09,22.6 0,13.48 13.47,21.71 27.09,21.71 13.92,0 27.4,-8.23 27.4,-22.46 0,-1.64 -1.35,-2.99 -3,-2.99" /><path
         id="path92"
         style="fill:#100f0d;fill-opacity:1;fill-rule:nonzero;stroke:none"
         d="m 2794.98,1533.67 c -0.6,7.93 -6.88,14.97 -17.22,14.97 -10.32,0 -16.61,-7.04 -17.2,-14.97 -0.45,-6.14 -0.45,-14.82 0,-20.96 0.59,-7.94 6.88,-14.97 17.2,-14.97 10.34,0 16.62,7.03 17.22,14.97 0.45,6.14 0.45,14.82 0,20.96 z m 12.73,0 c 0.44,-5.99 0.44,-14.98 0,-20.96 -1.21,-15.72 -12.73,-28.44 -28.44,-28.44 -6.89,0 -10.93,3.74 -13.93,3.74 -2.24,0 -3.29,-0.9 -3.29,-3.74 v -25.45 c 0,-1.64 -1.35,-2.99 -3,-2.99 h -7.48 c -1.65,0 -3,1.35 -3,2.99 v 98.8 c 0,1.64 1.35,2.99 3,2.99 h 5.09 c 0.9,0 1.49,-0.45 2.1,-1.05 0.9,-1.05 2.25,-2.39 3.74,-2.39 4.34,0 5.68,4.94 16.77,4.94 15.71,0 27.23,-12.73 28.44,-28.44" /><path
         id="path94"
         style="fill:#100f0d;fill-opacity:1;fill-rule:nonzero;stroke:none"
         d="m 2859.33,1547.29 c -11.82,0 -22.45,-6.14 -22.45,-22.6 v -35.93 c 0,-1.65 -1.35,-3 -2.99,-3 h -7.49 c -1.64,0 -2.99,1.35 -2.99,3 v 68.86 c 0,1.64 1.35,2.99 2.99,2.99 h 5.08 c 1.65,0 2.55,-0.9 3,-2.99 0.45,-1.95 0.45,-5.24 2.7,-5.24 3.59,0 6.13,8.23 22.15,8.23 h 2.99 c 1.65,0 3,-1.35 3,-2.99 v -7.34 c 0,-1.64 -1.35,-2.99 -3,-2.99 h -2.99" /><path
         id="path96"
         style="fill:#100f0d;fill-opacity:1;fill-rule:nonzero;stroke:none"
         d="m 2882.22,1512.71 c 0.6,-7.94 6.88,-14.97 17.21,-14.97 10.34,0 16.61,7.03 17.22,14.97 0.45,6.14 0.45,14.82 0,20.96 -0.61,7.93 -6.88,14.97 -17.22,14.97 -10.33,0 -16.61,-7.04 -17.21,-14.97 -0.45,-6.14 -0.45,-14.82 0,-20.96 z m -13.47,20.96 c 1.19,15.71 12.72,28.44 30.68,28.44 17.96,0 29.5,-12.73 30.69,-28.44 0.45,-5.99 0.45,-14.98 0,-20.96 -1.19,-15.72 -12.73,-28.44 -30.69,-28.44 -17.96,0 -29.49,12.72 -30.68,28.44 -0.45,5.98 -0.45,14.97 0,20.96" /><path
         id="path98"
         style="fill:#100f0d;fill-opacity:1;fill-rule:nonzero;stroke:none"
         d="m 2990.73,1533.67 c -0.59,7.93 -6.88,14.97 -17.21,14.97 -10.33,0 -16.62,-7.04 -17.21,-14.97 -0.45,-6.14 -0.45,-14.82 0,-20.96 0.59,-7.94 6.88,-14.97 17.21,-14.97 10.33,0 16.62,7.03 17.21,14.97 0.45,6.14 0.45,14.82 0,20.96 z m -1.94,23.5 c 1.49,0 2.84,1.34 3.74,2.39 0.6,0.6 1.2,1.05 2.1,1.05 h 5.09 c 1.64,0 2.99,-1.35 2.99,-2.99 v -76.35 c 0,-14.51 -11.53,-26.94 -27.4,-26.94 -13.32,0 -25.14,7.04 -27.23,20.51 -0.31,2.09 0.45,3.44 2.69,3.44 h 7.18 c 3.14,0 3.29,-1.35 3.9,-2.99 1.94,-4.95 5.84,-7.49 13.46,-7.49 7.49,0 13.93,5.39 13.93,13.47 v 3.3 c 0,2.84 -1.2,3.59 -3.29,3.44 -3,-0.15 -7.04,-3.74 -13.93,-3.74 -15.71,0 -27.24,12.72 -28.44,28.44 -0.45,5.98 -0.45,14.97 0,20.96 1.2,15.71 12.73,28.44 28.44,28.44 11.08,0 12.42,-4.94 16.77,-4.94" /><path
         id="path100"
         style="fill:#100f0d;fill-opacity:1;fill-rule:nonzero;stroke:none"
         d="m 3056.87,1547.29 c -11.82,0 -22.46,-6.14 -22.46,-22.6 v -35.93 c 0,-1.65 -1.34,-3 -2.98,-3 h -7.49 c -1.65,0 -2.99,1.35 -2.99,3 v 68.86 c 0,1.64 1.34,2.99 2.99,2.99 h 5.08 c 1.65,0 2.55,-0.9 3,-2.99 0.45,-1.95 0.45,-5.24 2.7,-5.24 3.59,0 6.13,8.23 22.15,8.23 h 2.99 c 1.65,0 3,-1.35 3,-2.99 v -7.34 c 0,-1.64 -1.35,-2.99 -3,-2.99 h -2.99" /><path
         id="path102"
         style="fill:#100f0d;fill-opacity:1;fill-rule:nonzero;stroke:none"
         d="m 3090.69,1518.69 c -7.62,0 -11.22,-4.03 -11.22,-10.32 0,-7.34 4.64,-11.68 13.32,-11.68 13.77,0 18.86,5.54 18.86,15.72 v 4.79 c 0,0.9 -0.6,1.49 -1.49,1.49 z m -8.07,22.01 c 0,-2.54 -2.1,-2.54 -3.45,-2.54 h -6.74 c -2.24,0 -2.99,1.19 -2.99,2.99 0,13.92 14.37,20.96 27.09,20.96 16.92,0 27.4,-7.34 27.4,-23.95 v -49.4 c 0,-1.65 -1.35,-3 -2.99,-3 h -5.1 c -0.9,0 -1.49,0.3 -2.09,1.05 -0.9,1.2 -1.49,3.14 -3,3.14 -2.69,0 -6.43,-5.68 -17.51,-5.68 -18.42,0 -27.24,11.23 -27.24,23.95 0,12.42 8.98,22.75 24.69,22.75 h 18.27 c 0.89,0 1.5,0.6 1.5,1.5 v 5.69 c 0,8.08 -5.55,11.97 -13.93,11.97 -5.23,0 -13.91,-2.25 -13.91,-9.43" /><path
         id="path104"
         style="fill:#100f0d;fill-opacity:1;fill-rule:nonzero;stroke:none"
         d="m 3225.85,1533.67 c 0,7.78 -5.39,14.97 -14.52,14.97 -9.13,0 -14.22,-7.34 -14.22,-14.23 v -45.65 c 0,-1.65 -1.35,-3 -3,-3 h -7.33 c -1.65,0 -2.99,1.35 -2.99,3 v 44.91 c 0,7.78 -6,14.97 -14.38,14.97 -9.13,0 -14.52,-7.34 -14.52,-14.23 v -45.65 c 0,-1.65 -1.35,-3 -2.99,-3 h -7.49 c -1.64,0 -2.98,1.35 -2.98,3 v 68.86 c 0,1.64 1.34,2.99 2.98,2.99 h 6.6 c 0.89,0 1.49,-0.45 2.09,-1.05 0.89,-1.05 1.95,-2.39 3.74,-2.39 4.64,0 7.34,4.94 16.31,4.94 7.94,0 13.03,-4.49 16.32,-7.19 2.25,-1.8 3.6,-1.8 5.84,0 3.29,2.7 8.83,7.19 17.51,7.19 17.22,0 26.5,-11.83 26.5,-28.44 v -44.91 c 0,-1.65 -1.35,-3 -2.99,-3 h -7.49 c -1.64,0 -2.99,1.35 -2.99,3 v 44.91" /><path
         id="path106"
         style="fill:#100f0d;fill-opacity:1;fill-rule:nonzero;stroke:none"
         d="m 3340.93,1533.67 c 0,7.78 -5.39,14.97 -14.52,14.97 -9.13,0 -14.22,-7.34 -14.22,-14.23 v -45.65 c 0,-1.65 -1.35,-3 -3,-3 h -7.33 c -1.65,0 -2.99,1.35 -2.99,3 v 44.91 c 0,7.78 -6,14.97 -14.38,14.97 -9.13,0 -14.52,-7.34 -14.52,-14.23 v -45.65 c 0,-1.65 -1.35,-3 -2.99,-3 h -7.49 c -1.64,0 -2.99,1.35 -2.99,3 v 68.86 c 0,1.64 1.35,2.99 2.99,2.99 h 6.59 c 0.9,0 1.5,-0.45 2.09,-1.05 0.9,-1.05 1.96,-2.39 3.74,-2.39 4.65,0 7.35,4.94 16.32,4.94 7.94,0 13.03,-4.49 16.32,-7.19 2.25,-1.8 3.59,-1.8 5.84,0 3.29,2.7 8.83,7.19 17.51,7.19 17.22,0 26.49,-11.83 26.49,-28.44 v -44.91 c 0,-1.65 -1.34,-3 -2.98,-3 h -7.49 c -1.64,0 -2.99,1.35 -2.99,3 v 44.91" /><path
         id="path108"
         style="fill:#100f0d;fill-opacity:1;fill-rule:nonzero;stroke:none"
         d="m 3382.97,1532.32 c 0,-0.9 0.59,-1.5 1.49,-1.5 h 31.14 c 0.89,0 1.49,0.6 1.49,1.5 0,10.32 -7.63,16.32 -16.91,16.32 -10.33,0 -17.21,-7.19 -17.21,-16.32 z m 1.19,-13.47 c -0.9,0 -1.49,-0.6 -1.49,-1.5 0,-13.62 7.03,-19.61 17.36,-19.61 7.78,0 13.62,3.89 15.42,9.43 0.59,1.94 2.09,2.54 3.44,2.54 h 7.63 c 1.5,0 2.85,-0.89 2.55,-2.99 -1.79,-13.02 -13.47,-22.45 -29.04,-22.45 -17.96,0 -29.49,12.72 -30.68,28.44 -0.45,5.98 -0.45,14.97 0,20.96 1.19,15.71 12.72,28.44 30.68,28.44 18.11,0 29.94,-11.23 29.94,-29.94 v -10.33 c 0,-1.65 -1.35,-2.99 -3,-2.99 h -42.81" /><path
         id="path110"
         style="fill:#100f0d;fill-opacity:1;fill-rule:nonzero;stroke:none"
         d="m 3494.9,1488.76 c 0,-1.65 -1.35,-3 -2.99,-3 h -7.78 c -1.65,0 -3,1.35 -3,3 v 68.86 c 0,1.64 1.35,2.99 3,2.99 h 7.78 c 1.64,0 2.99,-1.35 2.99,-2.99 z m 0.45,90.11 c 0,-1.35 -1.04,-2.39 -2.39,-2.39 h -10.18 c -1.34,0 -2.4,1.04 -2.4,2.39 v 10.33 c 0,1.2 1.06,2.39 2.4,2.39 h 10.18 c 1.35,0 2.39,-1.19 2.39,-2.39 v -10.33" /><path
         id="path112"
         style="fill:#100f0d;fill-opacity:1;fill-rule:nonzero;stroke:none"
         d="m 3573.94,1488.76 c 0,-1.65 -1.35,-3 -3,-3 h -7.48 c -1.65,0 -3,1.35 -3,3 v 44.91 c 0,9.58 -7.18,14.97 -16.47,14.97 -9.27,0 -16.46,-5.55 -16.46,-14.23 v -45.65 c 0,-1.65 -1.35,-3 -2.99,-3 h -7.49 c -1.64,0 -2.99,1.35 -2.99,3 v 68.86 c 0,1.64 1.35,2.99 2.99,2.99 h 6.59 c 0.9,0 1.5,-0.45 2.09,-1.05 0.9,-1.05 2.25,-2.39 3.74,-2.39 4.35,0 5.55,4.94 16.03,4.94 16.76,0 28.44,-10.78 28.44,-28.44 v -44.91" /><path
         id="path114"
         style="fill:#100f0d;fill-opacity:1;fill-rule:nonzero;stroke:none"
         d="m 2255.04,1305.71 c 0,-16.63 -13.92,-31.15 -33.68,-31.15 -17.96,0 -31.28,11.83 -33.68,31.15 -1.5,12.12 -1.5,32.93 0,44.9 1.95,16.32 13.92,31.13 33.68,31.13 17.97,0 33.68,-11.67 33.68,-31.13 v -2.1 c 0,-1.64 -1.35,-2.99 -3,-2.99 h -8.23 c -1.64,0 -2.99,1.35 -2.99,2.99 v 2.1 c 0,8.98 -7.64,16.77 -19.46,16.91 -9.73,0 -18.11,-5.98 -19.46,-16.91 -1.5,-12.28 -1.5,-32.63 0,-44.9 1.2,-8.69 7.79,-16.92 19.46,-16.92 10.03,0 19.46,5.99 19.46,16.92 v 2.09 c 0,1.65 1.35,2.99 2.99,2.99 h 8.23 c 1.65,0 3,-1.34 3,-2.99 v -2.09" /><path
         id="path116"
         style="fill:#100f0d;fill-opacity:1;fill-rule:nonzero;stroke:none"
         d="m 2281.21,1302.71 c 0.61,-7.93 6.89,-14.97 17.22,-14.97 10.33,0 16.61,7.04 17.21,14.97 0.45,6.14 0.45,14.82 0,20.96 -0.6,7.92 -6.88,14.97 -17.21,14.97 -10.33,0 -16.61,-7.05 -17.22,-14.97 -0.45,-6.14 -0.45,-14.82 0,-20.96 z m -13.47,20.96 c 1.2,15.71 12.73,28.43 30.69,28.43 17.96,0 29.49,-12.72 30.68,-28.43 0.45,-5.99 0.45,-14.98 0,-20.96 -1.19,-15.71 -12.72,-28.44 -30.68,-28.44 -17.96,0 -29.49,12.73 -30.69,28.44 -0.45,5.98 -0.45,14.97 0,20.96" /><path
         id="path118"
         style="fill:#100f0d;fill-opacity:1;fill-rule:nonzero;stroke:none"
         d="m 2389.73,1323.67 c -0.6,7.92 -6.89,14.97 -17.22,14.97 -10.32,0 -16.61,-7.05 -17.21,-14.97 -0.45,-6.14 -0.45,-14.82 0,-20.96 0.6,-7.93 6.89,-14.97 17.21,-14.97 10.33,0 16.62,7.04 17.22,14.97 0.45,6.14 0.45,14.82 0,20.96 z m -1.95,23.5 c 1.5,0 2.85,1.34 3.74,2.39 0.6,0.6 1.2,1.05 2.1,1.05 h 5.09 c 1.64,0 2.99,-1.35 2.99,-3 v -76.34 c 0,-14.52 -11.52,-26.94 -27.39,-26.94 -13.32,0 -25.15,7.04 -27.24,20.51 -0.3,2.1 0.45,3.44 2.7,3.44 h 7.17 c 3.15,0 3.29,-1.34 3.9,-2.99 1.94,-4.95 5.84,-7.48 13.47,-7.48 7.49,0 13.92,5.38 13.92,13.46 v 3.29 c 0,2.86 -1.2,3.6 -3.29,3.45 -3,-0.15 -7.04,-3.74 -13.92,-3.74 -15.72,0 -27.25,12.73 -28.44,28.44 -0.45,5.98 -0.45,14.97 0,20.96 1.19,15.71 12.72,28.43 28.44,28.43 11.07,0 12.42,-4.93 16.76,-4.93" /><path
         id="path120"
         style="fill:#100f0d;fill-opacity:1;fill-rule:nonzero;stroke:none"
         d="m 2479.82,1278.76 c 0,-1.65 -1.34,-3 -2.99,-3 h -7.48 c -1.65,0 -3,1.35 -3,3 v 44.91 c 0,9.58 -7.18,14.97 -16.47,14.97 -9.27,0 -16.46,-5.54 -16.46,-14.22 v -45.66 c 0,-1.65 -1.35,-3 -2.99,-3 h -7.49 c -1.64,0 -2.99,1.35 -2.99,3 v 68.85 c 0,1.65 1.35,3 2.99,3 h 6.59 c 0.9,0 1.5,-0.45 2.09,-1.05 0.9,-1.05 2.25,-2.39 3.74,-2.39 4.35,0 5.55,4.93 16.03,4.93 16.75,0 28.43,-10.77 28.43,-28.43 v -44.91" /><path
         id="path122"
         style="fill:#100f0d;fill-opacity:1;fill-rule:nonzero;stroke:none"
         d="m 2512.29,1278.76 c 0,-1.65 -1.35,-3 -2.99,-3 h -7.79 c -1.65,0 -2.99,1.35 -2.99,3 v 68.85 c 0,1.65 1.34,3 2.99,3 h 7.79 c 1.64,0 2.99,-1.35 2.99,-3 z m 0.44,90.11 c 0,-1.35 -1.04,-2.39 -2.39,-2.39 h -10.17 c -1.35,0 -2.41,1.04 -2.41,2.39 v 10.33 c 0,1.19 1.06,2.39 2.41,2.39 h 10.17 c 1.35,0 2.39,-1.2 2.39,-2.39 v -10.33" /><path
         id="path124"
         style="fill:#100f0d;fill-opacity:1;fill-rule:nonzero;stroke:none"
         d="m 2570.35,1349.86 c 1.65,0 3,-1.35 3,-2.99 v -7.49 c 0,-1.64 -1.35,-2.99 -3,-2.99 h -17.22 c -0.89,0 -1.49,-0.6 -1.49,-1.49 v -35.18 c 0,-6.59 2.84,-10.93 11.97,-10.93 h 8.24 c 1.65,0 2.99,-1.35 2.99,-3 v -7.03 c 0,-1.65 -1.34,-3 -2.99,-3 h -8.24 c -15.56,0 -25.45,6.74 -25.45,23.96 v 35.18 c 0,0.89 -0.59,1.49 -1.49,1.49 h -10.48 c -1.64,0 -2.99,1.35 -2.99,2.99 v 7.49 c 0,1.64 1.35,2.99 2.99,2.99 h 10.48 c 0.9,0 1.49,0.6 1.49,1.5 v 23.2 c 0,1.64 1.35,2.99 3,2.99 h 7.48 c 1.65,0 3,-1.35 3,-2.99 v -23.2 c 0,-0.9 0.6,-1.5 1.49,-1.5 h 17.22" /><path
         id="path126"
         style="fill:#100f0d;fill-opacity:1;fill-rule:nonzero;stroke:none"
         d="m 2600.58,1278.76 c 0,-1.65 -1.35,-3 -2.99,-3 h -7.79 c -1.65,0 -2.99,1.35 -2.99,3 v 68.85 c 0,1.65 1.34,3 2.99,3 h 7.79 c 1.64,0 2.99,-1.35 2.99,-3 z m 0.45,90.11 c 0,-1.35 -1.05,-2.39 -2.4,-2.39 h -10.17 c -1.35,0 -2.41,1.04 -2.41,2.39 v 10.33 c 0,1.19 1.06,2.39 2.41,2.39 h 10.17 c 1.35,0 2.4,-1.2 2.4,-2.39 v -10.33" /><path
         id="path128"
         style="fill:#100f0d;fill-opacity:1;fill-rule:nonzero;stroke:none"
         d="m 2664.34,1348.36 c 0.6,1.65 1.5,2.25 2.85,2.25 h 9.27 c 2.4,0 3.45,-1.94 2.85,-3.44 l -26.34,-69.16 c -0.61,-1.49 -1.51,-2.25 -2.85,-2.25 h -8.24 c -1.34,0 -2.24,0.76 -2.84,2.25 l -26.49,69.16 c -0.6,1.5 0.45,3.44 2.84,3.44 h 9.29 c 1.34,0 2.23,-0.6 2.84,-2.25 l 17.36,-49.84 c 0.3,-1.05 1.8,-1.05 2.09,0 l 17.37,49.84" /><path
         id="path130"
         style="fill:#100f0d;fill-opacity:1;fill-rule:nonzero;stroke:none"
         d="m 2698.3,1322.32 c 0,-0.9 0.6,-1.5 1.49,-1.5 h 31.14 c 0.9,0 1.49,0.6 1.49,1.5 0,10.33 -7.63,16.32 -16.91,16.32 -10.32,0 -17.21,-7.19 -17.21,-16.32 z m 1.19,-13.47 c -0.9,0 -1.49,-0.6 -1.49,-1.5 0,-13.63 7.03,-19.61 17.36,-19.61 7.78,0 13.62,3.89 15.42,9.43 0.6,1.94 2.09,2.55 3.44,2.55 h 7.64 c 1.49,0 2.84,-0.9 2.54,-3 -1.79,-13.03 -13.47,-22.45 -29.04,-22.45 -17.96,0 -29.49,12.73 -30.68,28.44 -0.45,5.98 -0.45,14.97 0,20.96 1.19,15.71 12.72,28.43 30.68,28.43 18.12,0 29.94,-11.22 29.94,-29.93 v -10.33 c 0,-1.65 -1.34,-2.99 -3,-2.99 h -42.81" /><path
         id="path132"
         style="fill:#100f0d;fill-opacity:1;fill-rule:nonzero;stroke:none"
         d="m 2818.32,1325.01 c -14.67,3.29 -25,12.28 -25,28.6 0,17.96 15.42,28.13 30.84,28.13 17.66,0 30.68,-12.72 30.68,-28.13 v -1.96 c 0,-1.64 -1.34,-2.98 -2.99,-2.98 h -8.24 c -1.64,0 -2.98,1.34 -2.98,2.98 v 1.96 c 0,10.03 -8.84,13.91 -16.47,13.91 -9.74,0 -16.46,-5.39 -16.46,-13.91 0,-13.18 12.71,-14.53 22.45,-16.92 17.06,-4.2 27.69,-13.78 27.69,-30.98 0,-19.16 -16.32,-31.15 -33.68,-31.15 -19.32,0 -33.68,14.08 -33.68,31.15 v 2.39 c 0,1.64 1.35,2.99 2.99,2.99 h 8.39 c 1.64,0 2.98,-1.35 2.98,-2.99 v -2.39 c 0,-9.74 8.09,-16.92 19.32,-16.92 11.22,0 19.31,7.34 19.31,16.92 0,13.91 -10.03,15.86 -25.15,19.3" /><path
         id="path134"
         style="fill:#100f0d;fill-opacity:1;fill-rule:nonzero;stroke:none"
         d="m 2917.1,1302.71 h 7.78 c 1.65,0 3,-1.35 3,-2.99 0,-14.52 -12.13,-25.45 -28.9,-25.45 -17.95,0 -28.74,12.73 -29.93,28.44 -0.45,5.98 -0.45,14.97 0,20.96 1.19,15.71 11.98,28.43 29.93,28.43 16.77,0 28.9,-10.93 28.9,-25.44 0,-1.65 -0.9,-2.99 -2.55,-2.99 h -8.08 c -1.35,0 -2.85,0.75 -2.85,2.39 0,7.04 -6.13,12.58 -15.42,12.58 -10.32,0 -15.85,-7.05 -16.46,-14.97 -0.45,-6.14 -0.45,-14.82 0,-20.96 0.61,-7.93 6.14,-14.97 16.46,-14.97 9.14,0 15.28,5.39 15.28,12.42 0,1.95 1.49,2.55 2.84,2.55" /><path
         id="path136"
         style="fill:#100f0d;fill-opacity:1;fill-rule:nonzero;stroke:none"
         d="m 2958.1,1278.76 c 0,-1.65 -1.35,-3 -2.99,-3 h -7.79 c -1.65,0 -2.99,1.35 -2.99,3 v 68.85 c 0,1.65 1.34,3 2.99,3 h 7.79 c 1.64,0 2.99,-1.35 2.99,-3 z m 0.44,90.11 c 0,-1.35 -1.04,-2.39 -2.39,-2.39 h -10.17 c -1.35,0 -2.41,1.04 -2.41,2.39 v 10.33 c 0,1.19 1.06,2.39 2.41,2.39 h 10.17 c 1.35,0 2.39,-1.2 2.39,-2.39 v -10.33" /><path
         id="path138"
         style="fill:#100f0d;fill-opacity:1;fill-rule:nonzero;stroke:none"
         d="m 2988.63,1322.32 c 0,-0.9 0.6,-1.5 1.5,-1.5 h 31.13 c 0.9,0 1.49,0.6 1.49,1.5 0,10.33 -7.62,16.32 -16.91,16.32 -10.32,0 -17.21,-7.19 -17.21,-16.32 z m 1.19,-13.47 c -0.89,0 -1.49,-0.6 -1.49,-1.5 0,-13.63 7.03,-19.61 17.36,-19.61 7.79,0 13.63,3.89 15.42,9.43 0.6,1.94 2.09,2.55 3.44,2.55 h 7.64 c 1.49,0 2.84,-0.9 2.55,-3 -1.8,-13.03 -13.48,-22.45 -29.05,-22.45 -17.96,0 -29.49,12.73 -30.68,28.44 -0.45,5.98 -0.45,14.97 0,20.96 1.19,15.71 12.72,28.43 30.68,28.43 18.12,0 29.94,-11.22 29.94,-29.93 v -10.33 c 0,-1.65 -1.34,-2.99 -2.99,-2.99 h -42.82" /><path
         id="path140"
         style="fill:#100f0d;fill-opacity:1;fill-rule:nonzero;stroke:none"
         d="m 3110.75,1278.76 c 0,-1.65 -1.35,-3 -3,-3 h -7.48 c -1.65,0 -2.99,1.35 -2.99,3 v 44.91 c 0,9.58 -7.18,14.97 -16.47,14.97 -9.28,0 -16.46,-5.54 -16.46,-14.22 v -45.66 c 0,-1.65 -1.35,-3 -2.99,-3 h -7.49 c -1.64,0 -2.99,1.35 -2.99,3 v 68.85 c 0,1.65 1.35,3 2.99,3 h 6.59 c 0.9,0 1.49,-0.45 2.09,-1.05 0.9,-1.05 2.24,-2.39 3.74,-2.39 4.34,0 5.55,4.93 16.02,4.93 16.76,0 28.44,-10.77 28.44,-28.43 v -44.91" /><path
         id="path142"
         style="fill:#100f0d;fill-opacity:1;fill-rule:nonzero;stroke:none"
         d="m 3173.75,1302.71 h 7.78 c 1.65,0 3,-1.35 3,-2.99 0,-14.52 -12.13,-25.45 -28.9,-25.45 -17.95,0 -28.74,12.73 -29.93,28.44 -0.45,5.98 -0.45,14.97 0,20.96 1.19,15.71 11.98,28.43 29.93,28.43 16.77,0 28.9,-10.93 28.9,-25.44 0,-1.65 -0.9,-2.99 -2.55,-2.99 h -8.08 c -1.35,0 -2.85,0.75 -2.85,2.39 0,7.04 -6.13,12.58 -15.42,12.58 -10.32,0 -15.85,-7.05 -16.46,-14.97 -0.45,-6.14 -0.45,-14.82 0,-20.96 0.61,-7.93 6.14,-14.97 16.46,-14.97 9.14,0 15.28,5.39 15.28,12.42 0,1.95 1.49,2.55 2.84,2.55" /><path
         id="path144"
         style="fill:#100f0d;fill-opacity:1;fill-rule:nonzero;stroke:none"
         d="m 3210.86,1322.32 c 0,-0.9 0.6,-1.5 1.49,-1.5 h 31.14 c 0.89,0 1.49,0.6 1.49,1.5 0,10.33 -7.63,16.32 -16.91,16.32 -10.33,0 -17.21,-7.19 -17.21,-16.32 z m 1.19,-13.47 c -0.9,0 -1.49,-0.6 -1.49,-1.5 0,-13.63 7.03,-19.61 17.36,-19.61 7.78,0 13.62,3.89 15.42,9.43 0.6,1.94 2.09,2.55 3.44,2.55 h 7.63 c 1.5,0 2.85,-0.9 2.55,-3 -1.79,-13.03 -13.47,-22.45 -29.04,-22.45 -17.96,0 -29.49,12.73 -30.68,28.44 -0.45,5.98 -0.45,14.97 0,20.96 1.19,15.71 12.72,28.43 30.68,28.43 18.12,0 29.94,-11.22 29.94,-29.93 v -10.33 c 0,-1.65 -1.35,-2.99 -3,-2.99 h -42.81" /><path
         id="path146"
         style="fill:#100f0d;fill-opacity:1;fill-rule:nonzero;stroke:none"
         d="m 1185.04,1741.55 c 0.04,130.32 0.03,260.63 0,390.95 0,12.69 -4.53,17.19 -17.4,17.27 -16.17,0.12 -32.33,0.06 -48.48,0.02 -14.09,-0.03 -16.89,-2.28 -20.72,-16.2 -14.79,-53.83 -29.59,-107.67 -44.47,-161.48 -0.91,-3.3 -2.54,-6.4 -3.84,-9.59 -4.09,4.07 -5.85,7.95 -6.97,12.01 -14.62,53.17 -29.15,106.37 -43.707,159.56 -3.609,13.18 -6.734,15.66 -20.094,15.7 -15.472,0.05 -30.941,0.03 -46.414,0.01 -16.257,-0.03 -20.023,-3.76 -20.031,-19.88 -0.004,-126.19 0,-252.38 0,-378.57 0,-4.13 -0.105,-8.26 0.035,-12.38 0.317,-9.12 5.153,-13.83 14.262,-13.98 6.535,-0.11 13.066,-0.04 19.602,-0.03 16.878,0.02 19.679,2.82 19.679,19.73 0.008,100.05 -0.012,200.11 0.063,300.17 0.004,3.97 0.843,7.94 1.297,11.92 1.058,0.08 2.121,0.16 3.179,0.24 1.266,-3.35 2.762,-6.63 3.75,-10.05 15.063,-52.33 30.219,-104.65 44.929,-157.08 2.55,-9.08 7.32,-13.46 16.63,-13.29 8.25,0.15 16.51,0.19 24.75,-0.02 9.76,-0.25 14.66,4.23 17.33,13.76 14.59,52.12 29.7,104.09 44.71,156.09 1.06,3.68 2.79,7.15 4.21,10.72 1.01,-0.12 2.03,-0.24 3.04,-0.36 0.4,-4.08 1.13,-8.15 1.13,-12.21 0.07,-99.03 0.06,-198.05 0.06,-297.08 0,-2.75 -0.03,-5.5 0.01,-8.25 0.13,-9.15 4.78,-14.03 13.94,-14.24 7.56,-0.18 15.12,-0.11 22.69,-0.04 12.5,0.13 16.82,4.27 16.83,16.58" /><path
         id="path148"
         style="fill:#100f0d;fill-opacity:1;fill-rule:nonzero;stroke:none"
         d="m 1699.51,1280.65 c -42.39,1.24 -67.95,27.15 -68.46,69.74 -0.26,22.32 -0.28,44.64 0.03,66.96 0.59,42.38 29.16,69.65 71.67,68.78 41.82,-0.85 67.21,-26.13 68.74,-68.36 0.41,-11.31 1.03,-22.6 1.56,-33.9 -0.55,-0.01 -1.1,-0.02 -1.65,-0.03 0,-11.67 0.14,-23.35 -0.03,-35.01 -0.63,-42.44 -29.14,-69.43 -71.86,-68.18 z m 21.17,-120.46 c -26.01,-3.73 -55.63,-1.05 -67.32,31.23 -2.37,6.55 -6.43,10.02 -13.8,9.77 -9.96,-0.34 -19.94,-0.02 -29.9,-0.06 -8.9,-0.03 -12.82,-5.09 -11.29,-13.3 1.56,-8.36 3.6,-16.86 7,-24.61 21.78,-49.69 79.02,-66.33 128.27,-55.8 53.83,11.51 85.58,53.15 85.74,108.23 0.14,48.47 0.02,96.94 0.02,145.42 0,52.25 0.18,104.5 -0.26,156.76 -0.05,5.11 -2.57,11.53 -6.19,14.97 -5.57,5.27 -29.25,2.53 -35.11,-2.57 -13.53,-11.78 -16.78,-12.48 -32.48,-2.59 -23.76,14.98 -49.41,16.28 -75.43,10.07 -46.91,-11.18 -83.18,-51.78 -88.03,-100.25 -2.87,-28.61 -2.01,-57.62 -2.31,-86.45 -0.21,-21.26 4.98,-41.46 14.29,-60.56 20.12,-41.21 64.89,-71.32 115.5,-62.73 11.3,1.91 22.08,7.05 33.01,10.94 16.23,5.78 22.75,1.41 22.79,-15.5 0,-3.1 0.01,-6.19 -0.01,-9.29 -0.17,-27.35 -17.64,-49.83 -44.49,-53.68" /><path
         id="path150"
         style="fill:#100f0d;fill-opacity:1;fill-rule:nonzero;stroke:none"
         d="m 1022.6,781.602 c -34.409,4.597 -60.459,30.339 -61.198,60.968 -0.773,32.02 -5.91,27.489 -29.902,27.7 -4.121,0 -8.246,0.05 -12.375,-0.008 -13.18,-0.18 -17.664,-4.043 -16.898,-17.301 0.726,-12.582 1.714,-25.492 5.179,-37.512 14.75,-51.16 60.574,-87.418 116.084,-91.73 45.18,-3.489 85.56,7.941 118.39,41.152 48.67,49.219 45.46,143.129 -15.66,182.68 -22.9,14.82 -47.84,23.5 -74.02,29.578 -20.32,4.73 -41.05,8.152 -58.505,21.082 -26.691,19.749 -29.812,60.239 -5.8,83.129 17.605,16.79 39.475,19.41 62.405,16.94 35.57,-3.82 57.76,-27.38 55.46,-61.42 -0.64,-9.48 5.01,-13.83 13.89,-14.13 8.93,-0.3 17.87,-0.18 26.81,-0.06 12.17,0.17 16.98,4.77 16.91,16.82 -0.26,44.26 -19.65,77.68 -57.83,99.94 -28.16,16.4 -58.56,19.73 -90.51,15.42 -75.971,-10.26 -120.745,-84.17 -93.389,-155.862 14.57,-38.199 45.129,-58.277 82.899,-69.066 24.66,-7.063 50.22,-11.742 73.98,-21.063 41.7,-16.359 52.18,-70.73 21.57,-103.648 -21.27,-22.879 -48.49,-27.492 -77.49,-23.609" /><path
         id="path152"
         style="fill:#100f0d;fill-opacity:1;fill-rule:nonzero;stroke:none"
         d="m 1507.98,1738.95 c 0.23,8.25 0.12,16.5 0.08,24.74 -0.08,15.51 -3.44,18.94 -18.66,18.95 -45.02,0.02 -90.04,0 -135.06,0.01 -16.26,0 -16.26,0 -16.26,16.74 0,32.65 -0.01,65.3 0,97.95 0,15.45 0.01,15.46 15.25,15.46 42.96,0 85.92,-0.04 128.89,0.02 14,0.02 18.29,4.45 18.37,18.54 0.03,6.87 0.03,13.75 0,20.62 -0.06,14.49 -3.85,18.39 -18.13,18.4 -43.99,0.03 -87.98,0.19 -131.97,-0.13 -9.44,-0.07 -12.68,3.3 -12.57,12.67 0.41,31.62 0.15,63.24 0.16,94.86 0.01,13.73 0.58,14.28 14.77,14.29 45.71,0.01 91.42,-0.02 137.13,0.02 13.19,0.02 16.88,3.85 16.95,17.29 0.04,7.21 0.02,14.43 0,21.64 -0.03,14.82 -3.95,18.77 -18.96,18.77 -62.55,0.03 -125.1,0.02 -187.65,0 -16.11,0 -19.96,-3.89 -19.96,-20.07 -0.02,-64.27 -0.01,-128.54 -0.01,-192.81 0,-25.09 0,-50.18 0,-75.27 0,-39.86 -0.04,-79.73 0.03,-119.6 0.02,-11.71 4.25,-16.98 14.44,-17 66.33,-0.14 132.66,-0.07 198.99,-0.08 9.32,0 13.91,4.97 14.17,13.99" /><path
         id="path154"
         style="fill:#100f0d;fill-opacity:1;fill-rule:nonzero;stroke:none"
         d="m 1165.41,1373.69 c -7.19,0.46 -14.43,0.14 -21.65,0.14 -19.53,-0.01 -21.86,-2.08 -22.06,-21.79 -0.24,-24.06 -10.93,-42.18 -31.03,-54.65 -14.29,-8.87 -30.21,-12.59 -47.08,-12.69 -42.65,-0.25 -73.938,25.69 -79.027,68.15 -3.633,30.3 -4.614,60.92 -6.727,90.74 2.102,30.61 3.711,60.44 6.281,90.2 4.86,56.21 58.053,79.08 105.273,66.05 31.35,-8.65 51.05,-34.62 52.16,-67.49 0.49,-14.43 4.11,-17.92 18.7,-17.95 8.25,-0.02 16.5,0.02 24.75,-0.01 9.2,-0.02 14.2,4.38 14.18,13.74 -0.07,29.17 -6.78,56.39 -24.27,80.3 -23.91,32.69 -57.19,48.27 -96.6,51.73 -45.27,3.98 -84.88,-7.99 -115.974,-42.91 -24.148,-27.11 -34.25,-59.7 -37.332,-94.97 -5.031,-57.66 -5.824,-115.42 2.219,-172.79 7.156,-51.06 31.55,-90.86 81.097,-111.83 26.46,-11.2 53.89,-12.45 81.85,-8.21 66.67,10.12 108.58,65.84 109.06,129.87 0.08,9.57 -5.11,13.83 -13.82,14.37" /><path
         id="path156"
         style="fill:#100f0d;fill-opacity:1;fill-rule:nonzero;stroke:none"
         d="m 1441.04,1336.94 c -1.06,-18.36 -18.79,-49 -50.42,-54.46 -34.35,-5.92 -63.24,0.93 -79.94,31.33 -4.48,8.16 -8.04,17.88 -8.41,27.03 -1.15,27.76 -2.02,55.68 -0.22,83.36 2.54,39.44 31.25,62.55 71.59,62.05 38.09,-0.47 60.47,-23.6 66.43,-51.71 3.52,-16.58 2.43,-34.15 3.4,-51.27 -0.75,-0.01 -1.5,-0.02 -2.25,-0.02 0,-15.44 0.71,-30.92 -0.18,-46.31 z m 53.87,94.05 c -4.83,47 -28.53,81.54 -72.92,100.27 -21.68,9.14 -44.33,11.09 -67.61,8.21 -45.27,-5.59 -77.6,-28.82 -96.65,-70.33 -12.44,-27.12 -10.94,-56.25 -12.24,-87.19 0.53,-11.9 0.88,-26 1.83,-40.05 1.61,-23.72 8.33,-45.92 22.23,-65.37 22.12,-31 52.69,-46.69 90.53,-49.94 62.02,-5.31 119.02,29.13 132.58,94.53 7.53,36.29 6.01,73.29 2.25,109.87" /><path
         id="path158"
         style="fill:#100f0d;fill-opacity:1;fill-rule:nonzero;stroke:none"
         d="m 1357.14,980.082 c 10.92,2.109 22.69,2.129 33.76,0.68 27.05,-3.551 44,-21.813 46.99,-49.051 0.91,-8.359 6.74,-9.723 13.05,-10.09 8.22,-0.461 16.49,-0.152 24.73,-0.121 13.9,0.051 17.23,3.281 16.47,17.082 -1.96,35.68 -18.91,62.528 -49.39,80.538 -26.01,15.39 -54.41,19.77 -84.27,16.15 -45.07,-5.47 -76.85,-28.49 -94.5,-70.61 -11.47,-27.379 -10.34,-56.39 -11.58,-87.512 0.61,-13.437 0.41,-29.316 2.23,-44.976 5.12,-43.902 23.69,-79.801 65.88,-98.5 45.33,-20.07 90.08,-16.422 131.08,11.289 25.37,17.148 39.04,42.809 40.54,74.051 0.65,13.347 -3.34,17.66 -16.34,17.789 -8.59,0.09 -17.19,0.238 -25.77,-0.09 -7.69,-0.301 -12.66,-3.211 -12.93,-12.391 -0.47,-16.289 -8.2,-29.988 -22.28,-37.14 -11.5,-5.84 -25.08,-9.559 -37.97,-10.34 -37.17,-2.238 -64.27,19.219 -67.53,55.851 -2.74,30.661 -2.26,61.868 -0.14,92.641 1.97,28.578 21.68,49.656 47.97,54.75" /><path
         id="path160"
         style="fill:#100f0d;fill-opacity:1;fill-rule:nonzero;stroke:none"
         d="m 1608.84,727.602 c 15.47,-0.172 30.94,-0.051 46.41,-0.051 56.38,0 112.75,-0.02 169.12,0.019 14.01,0 17.88,3.821 17.95,17.442 0.03,5.847 0.05,11.687 -0.01,17.539 -0.11,12.398 -4.12,16.429 -16.79,16.48 -21.99,0.078 -44,0.348 -65.99,-0.133 -9.25,-0.207 -12.68,2.571 -12.55,12.313 0.5,37.109 0.2,74.238 0.2,111.371 0,37.117 0.05,74.25 -0.03,111.368 -0.03,11.76 -4.18,16.7 -14.59,16.74 -39.53,0.15 -79.06,0.06 -118.6,0.07 -9.33,0 -13.87,-5.07 -14.31,-13.98 -0.31,-6.51 -0.14,-13.06 -0.08,-19.589 0.12,-13.882 4.03,-17.882 17.68,-17.921 20.62,-0.059 41.26,-0.36 61.87,0.14 9.46,0.219 12.61,-3.219 12.56,-12.621 -0.3,-58.43 -0.3,-116.867 0.01,-175.301 0.05,-9.386 -3.01,-12.797 -12.52,-12.597 -23.35,0.5 -46.74,0.25 -70.11,0.121 -10.57,-0.063 -15.26,-4.524 -15.68,-14.801 -0.28,-7.199 -0.26,-14.441 0,-21.652 0.38,-10.399 4.96,-14.848 15.46,-14.957" /><path
         id="path162"
         style="fill:#100f0d;fill-opacity:1;fill-rule:nonzero;stroke:none"
         d="m 1852.36,1740.9 c 0.15,6.53 0.14,13.06 0,19.59 -0.27,11.98 -4.2,15.89 -16.31,15.94 -21.3,0.1 -42.61,0.02 -63.92,0.03 -15.01,0.01 -15.26,0.24 -15.26,14.8 -0.02,36.43 -0.01,72.85 -0.01,109.28 0,37.45 -0.09,74.91 0.06,112.36 0.03,8.95 -3.19,15.1 -12.7,15.15 -40.55,0.22 -81.1,0.2 -121.64,-0.03 -8.14,-0.05 -12.43,-5.02 -12.45,-13.31 -0.02,-7.22 -0.06,-14.44 -0.01,-21.66 0.09,-12.5 3.93,-16.32 16.76,-16.37 20.62,-0.08 41.24,-0.35 61.85,0.13 9.08,0.22 12.75,-2.19 12.69,-12.11 -0.42,-58.76 -0.42,-117.52 0,-176.28 0.06,-9.88 -3.47,-12.33 -12.63,-12.13 -22.32,0.5 -44.66,0.2 -67,0.15 -14.17,-0.03 -17.81,-3.61 -17.88,-17.4 -0.02,-5.5 -0.02,-11 0,-16.49 0.06,-13.99 3.59,-17.56 17.67,-17.58 35.73,-0.04 71.47,-0.01 107.21,-0.01 35.74,0 71.47,-0.05 107.21,0.02 12.06,0.03 16.08,4 16.36,15.92" /><path
         id="path164"
         style="fill:#100f0d;fill-opacity:1;fill-rule:nonzero;stroke:none"
         d="m 1970.26,2010.34 c -8.24,-0.08 -12.73,-4.61 -12.79,-12.85 -0.14,-17.5 -0.12,-35.01 -0.02,-52.51 0.05,-8.82 4.81,-13.13 13.53,-13.17 8.23,-0.03 16.47,-0.01 24.71,0 8.92,0 17.85,-0.01 26.77,0 8.84,0.03 13.32,4.63 13.37,13.33 0.11,17.16 0.07,34.32 0.02,51.49 -0.02,8.63 -4.25,13.63 -13.08,13.71 -17.5,0.15 -35.01,0.15 -52.51,0" /><path
         id="path166"
         style="fill:#100f0d;fill-opacity:1;fill-rule:nonzero;stroke:none"
         d="m 2017.47,1676.09 c -13.95,0.12 -27.91,0.12 -41.86,0 -6.58,-0.06 -10.15,-3.67 -10.2,-10.24 -0.12,-13.96 0.26,-1068.799 0.26,-1068.799 H 781.969 V 2285.85 H 1965.67 c 0,0 -0.36,-202.92 -0.28,-216.87 0.04,-7.03 3.83,-10.48 10.79,-10.5 6.56,-0.03 13.13,-0.01 19.7,0 7.11,0 14.23,-0.02 21.35,0 7.05,0.02 10.62,3.69 10.66,10.63 0.08,13.68 -0.32,247.69 -0.32,247.69 0,17.09 -13.86,30.94 -30.95,30.94 H 751.02 c -17.09,0 -30.946,-13.85 -30.946,-30.94 V 566.109 c 0,-17.089 13.856,-30.949 30.946,-30.949 h 1245.6 c 17.09,0 30.95,13.86 30.95,30.949 0,0 0.37,1085.361 0.34,1099.041 -0.02,6.89 -3.4,10.88 -10.44,10.94" /><path
         id="path168"
         style="fill:#100f0d;fill-opacity:1;fill-rule:nonzero;stroke:none"
         d="m 2035.86,1763.72 c 0,8.94 0.12,17.88 -0.04,26.82 -0.15,8.26 -4.53,12.78 -12.83,12.84 -17.53,0.13 -35.07,0.11 -52.6,0.01 -8.27,-0.05 -12.84,-4.46 -12.92,-12.73 -0.16,-17.54 -0.1,-35.07 -0.02,-52.61 0.04,-8.39 4.78,-12.84 12.82,-12.98 17.53,-0.3 35.07,-0.28 52.6,0 8.71,0.13 13.03,5.16 13,13.9 -0.03,8.25 -0.01,16.5 -0.01,24.75" /><path
         id="path170"
         style="fill:#100f0d;fill-opacity:1;fill-rule:nonzero;stroke:none"
         d="m 1761.85,2127.85 c 0,23.76 -19.26,43.03 -43.03,43.03 -23.76,0 -43.02,-19.27 -43.02,-43.03 0,-23.76 19.26,-43.03 43.02,-43.03 23.77,0 43.03,19.27 43.03,43.03" /><path
         id="path172"
         style="fill:#100f0d;fill-opacity:1;fill-rule:nonzero;stroke:none"
         d="m 586.918,767.059 c 1.5,-0.45 2.246,-1.489 2.246,-2.84 v -11.68 c 0,-1.348 -0.746,-2.391 -2.246,-2.84 l -98.945,-27.84 c -1.493,-0.449 -3.586,0.45 -3.586,2.84 v 8.981 c 0,1.351 0.593,2.402 2.238,2.851 l 79.785,20.809 c 0.602,0.14 0.899,0.449 0.899,0.898 v 0.293 c 0,0.449 -0.297,0.75 -0.899,0.899 l -79.785,20.808 c -1.645,0.453 -2.238,1.492 -2.238,2.844 v 9.129 c 0,2.391 1.789,3.289 3.441,2.84 l 99.09,-27.992" /><path
         id="path174"
         style="fill:#100f0d;fill-opacity:1;fill-rule:nonzero;stroke:none"
         d="m 586.172,820.191 c 1.644,0 2.992,-1.351 2.992,-2.992 v -7.777 c 0,-1.652 -1.348,-3 -2.992,-3 h -68.859 c -1.645,0 -2.993,1.348 -2.993,3 v 7.777 c 0,1.641 1.348,2.992 2.993,2.992 z m -90.113,0.45 c 1.347,0 2.394,-1.051 2.394,-2.391 v -10.18 c 0,-1.351 -1.047,-2.398 -2.394,-2.398 H 485.73 c -1.199,0 -2.394,1.047 -2.394,2.398 v 10.18 c 0,1.34 1.195,2.391 2.394,2.391 h 10.329" /><path
         id="path176"
         style="fill:#100f0d;fill-opacity:1;fill-rule:nonzero;stroke:none"
         d="m 542.613,850.719 c 0.899,0 1.492,0.59 1.492,1.492 v 31.129 c 0,0.902 -0.593,1.5 -1.492,1.5 -10.328,0 -16.32,-7.629 -16.32,-16.918 0,-10.32 7.187,-17.203 16.32,-17.203 z m 13.473,1.191 c 0,-0.898 0.598,-1.5 1.496,-1.5 13.617,0 19.609,7.031 19.609,17.371 0,7.778 -3.894,13.617 -9.433,15.418 -1.942,0.59 -2.543,2.09 -2.543,3.43 v 7.641 c 0,1.492 0.898,2.839 2.992,2.55 13.023,-1.8 22.457,-13.48 22.457,-29.039 0,-17.961 -12.726,-29.5 -28.441,-30.691 -5.989,-0.449 -14.973,-0.449 -20.957,0 -15.719,1.191 -28.446,12.73 -28.446,30.691 0,18.11 11.235,29.938 29.946,29.938 h 10.324 c 1.644,0 2.996,-1.348 2.996,-3 V 851.91" /><path
         id="path178"
         style="fill:#100f0d;fill-opacity:1;fill-rule:nonzero;stroke:none"
         d="m 586.172,972.84 c 1.644,0 2.992,-1.34 2.992,-2.988 v -7.481 c 0,-1.652 -1.348,-3 -2.992,-3 h -44.906 c -9.582,0 -14.973,-7.18 -14.973,-16.473 0,-9.269 5.543,-16.457 14.227,-16.457 h 45.652 c 1.644,0 2.992,-1.351 2.992,-2.992 v -7.488 c 0,-1.641 -1.348,-2.992 -2.992,-2.992 h -68.859 c -1.645,0 -2.993,1.351 -2.993,2.992 v 6.59 c 0,0.898 0.45,1.5 1.047,2.09 1.051,0.898 2.399,2.25 2.399,3.738 0,4.351 -4.946,5.551 -4.946,16.031 0,16.762 10.785,28.43 28.446,28.43 h 44.906" /><path
         id="path180"
         style="fill:#100f0d;fill-opacity:1;fill-rule:nonzero;stroke:none"
         d="m 586.172,1049.92 c 1.644,0 2.992,-1.35 2.992,-3 v -7.48 c 0,-1.65 -1.348,-3 -2.992,-3 h -44.906 c -9.582,0 -14.973,-7.18 -14.973,-16.47 0,-9.27 5.543,-16.46 14.227,-16.46 h 45.652 c 1.644,0 2.992,-1.35 2.992,-2.99 v -7.489 c 0,-1.64 -1.348,-2.992 -2.992,-2.992 h -68.859 c -1.645,0 -2.993,1.352 -2.993,2.992 v 6.59 c 0,0.899 0.45,1.499 1.047,2.089 1.051,0.9 2.399,2.25 2.399,3.74 0,4.35 -4.946,5.55 -4.946,16.03 0,16.76 10.785,28.44 28.446,28.44 h 44.906" /><path
         id="path182"
         style="fill:#100f0d;fill-opacity:1;fill-rule:nonzero;stroke:none"
         d="m 556.234,1089.26 c 0,-7.63 4.039,-11.22 10.329,-11.22 7.335,0 11.675,4.64 11.675,13.32 0,13.77 -5.539,18.86 -15.718,18.86 h -4.79 c -0.898,0 -1.496,-0.6 -1.496,-1.5 z m -22.004,-8.08 c 2.543,0 2.543,-2.1 2.543,-3.44 V 1071 c 0,-2.25 -1.199,-2.99 -2.996,-2.99 -13.918,0 -20.957,14.37 -20.957,27.09 0,16.91 7.336,27.39 23.953,27.39 h 49.399 c 1.644,0 2.992,-1.34 2.992,-2.99 v -5.09 c 0,-0.9 -0.297,-1.5 -1.051,-2.09 -1.195,-0.9 -3.136,-1.51 -3.136,-3 0,-2.7 5.687,-6.44 5.687,-17.51 0,-18.42 -11.23,-27.25 -23.949,-27.25 -12.43,0 -22.754,8.99 -22.754,24.7 v 18.26 c 0,0.9 -0.602,1.51 -1.5,1.51 h -5.688 c -8.082,0 -11.972,-5.55 -11.972,-13.93 0,-5.23 2.246,-13.92 9.429,-13.92" /></g></g></svg>