<?xml version="1.0" encoding="utf-8" standalone="no"?>
<!DOCTYPE svg PUBLIC "-//W3C//DTD SVG 1.1//EN"
  "http://www.w3.org/Graphics/SVG/1.1/DTD/svg11.dtd">
<!-- Created with matplotlib (https://matplotlib.org/) -->
<svg height="288pt" version="1.1" viewBox="0 0 432 288" width="432pt" xmlns="http://www.w3.org/2000/svg" xmlns:xlink="http://www.w3.org/1999/xlink">
 <defs>
  <style type="text/css">
*{stroke-linecap:butt;stroke-linejoin:round;}
  </style>
 </defs>
 <g id="figure_1">
  <g id="patch_1">
   <path d="M 0 288 
L 432 288 
L 432 0 
L 0 0 
z
" style="fill:#ffffff;"/>
  </g>
  <g id="axes_1">
   <g id="patch_2">
    <path d="M 50.8 218.914746 
L 421.2 218.914746 
L 421.2 27.8 
L 50.8 27.8 
z
" style="fill:#ffffff;"/>
   </g>
   <g id="patch_3">
    <path clip-path="url(#pe68e442331)" d="M 72.677191 218.914746 
L 76.709853 218.914746 
L 76.709853 206.318618 
L 72.677191 206.318618 
z
"/>
   </g>
   <g id="patch_4">
    <path clip-path="url(#pe68e442331)" d="M 67.636364 218.914746 
L 71.669026 218.914746 
L 71.669026 211.357069 
L 67.636364 211.357069 
z
" style="fill:#b8860b;"/>
   </g>
   <g id="patch_5">
    <path clip-path="url(#pe68e442331)" d="M 97.881328 218.914746 
L 101.91399 218.914746 
L 101.91399 208.208038 
L 97.881328 208.208038 
z
" style="fill:#b8860b;"/>
   </g>
   <g id="patch_6">
    <path clip-path="url(#pe68e442331)" d="M 82.758846 218.914746 
L 86.791508 218.914746 
L 86.791508 208.837844 
L 82.758846 208.837844 
z
" style="fill:#b8860b;"/>
   </g>
   <g id="patch_7">
    <path clip-path="url(#pe68e442331)" d="M 87.799673 218.914746 
L 91.832335 218.914746 
L 91.832335 211.986876 
L 87.799673 211.986876 
z
" style="fill:#b8860b;"/>
   </g>
   <g id="patch_8">
    <path clip-path="url(#pe68e442331)" d="M 92.840501 218.914746 
L 96.873163 218.914746 
L 96.873163 215.135908 
L 92.840501 215.135908 
z
" style="fill:#b8860b;"/>
   </g>
   <g id="patch_9">
    <path clip-path="url(#pe68e442331)" d="M 102.922156 218.914746 
L 106.954818 218.914746 
L 106.954818 173.568687 
L 102.922156 173.568687 
z
" style="fill:#b8860b;"/>
   </g>
   <g id="patch_10">
    <path clip-path="url(#pe68e442331)" d="M 107.962983 218.914746 
L 111.995645 218.914746 
L 111.995645 191.833072 
L 107.962983 191.833072 
z
" style="fill:#b8860b;"/>
   </g>
   <g id="patch_11">
    <path clip-path="url(#pe68e442331)" d="M 113.003811 218.914746 
L 117.036473 218.914746 
L 117.036473 174.828299 
L 113.003811 174.828299 
z
" style="fill:#b8860b;"/>
   </g>
   <g id="patch_12">
    <path clip-path="url(#pe68e442331)" d="M 118.044638 218.914746 
L 122.0773 218.914746 
L 122.0773 133.261078 
L 118.044638 133.261078 
z
" style="fill:#b8860b;"/>
   </g>
   <g id="patch_13">
    <path clip-path="url(#pe68e442331)" d="M 123.085465 218.914746 
L 127.118127 218.914746 
L 127.118127 95.472696 
L 123.085465 95.472696 
z
" style="fill:#b8860b;"/>
   </g>
   <g id="patch_14">
    <path clip-path="url(#pe68e442331)" d="M 128.126293 218.914746 
L 132.158955 218.914746 
L 132.158955 36.900702 
L 128.126293 36.900702 
z
" style="fill:#b8860b;"/>
   </g>
   <g id="patch_15">
    <path clip-path="url(#pe68e442331)" d="M 133.16712 218.914746 
L 137.199782 218.914746 
L 137.199782 129.48224 
L 133.16712 129.48224 
z
" style="fill:#b8860b;"/>
   </g>
   <g id="patch_16">
    <path clip-path="url(#pe68e442331)" d="M 138.207948 218.914746 
L 142.24061 218.914746 
L 142.24061 120.035144 
L 138.207948 120.035144 
z
" style="fill:#b8860b;"/>
   </g>
   <g id="patch_17">
    <path clip-path="url(#pe68e442331)" d="M 143.248775 218.914746 
L 147.281437 218.914746 
L 147.281437 71.540053 
L 143.248775 71.540053 
z
" style="fill:#b8860b;"/>
   </g>
   <g id="patch_18">
    <path clip-path="url(#pe68e442331)" d="M 148.289603 218.914746 
L 152.322265 218.914746 
L 152.322265 128.852434 
L 148.289603 128.852434 
z
" style="fill:#b8860b;"/>
   </g>
   <g id="patch_19">
    <path clip-path="url(#pe68e442331)" d="M 153.33043 218.914746 
L 157.363092 218.914746 
L 157.363092 75.948698 
L 153.33043 75.948698 
z
" style="fill:#b8860b;"/>
   </g>
   <g id="patch_20">
    <path clip-path="url(#pe68e442331)" d="M 158.371257 218.914746 
L 162.403919 218.914746 
L 162.403919 96.732308 
L 158.371257 96.732308 
z
"/>
   </g>
   <g id="patch_21">
    <path clip-path="url(#pe68e442331)" d="M 163.412085 218.914746 
L 167.444747 218.914746 
L 167.444747 114.996693 
L 163.412085 114.996693 
z
" style="fill:#b8860b;"/>
   </g>
   <g id="patch_22">
    <path clip-path="url(#pe68e442331)" d="M 168.452912 218.914746 
L 172.485574 218.914746 
L 172.485574 72.169859 
L 168.452912 72.169859 
z
" style="fill:#b8860b;"/>
   </g>
   <g id="patch_23">
    <path clip-path="url(#pe68e442331)" d="M 173.49374 218.914746 
L 177.526402 218.914746 
L 177.526402 160.972559 
L 173.49374 160.972559 
z
" style="fill:#b8860b;"/>
   </g>
   <g id="patch_24">
    <path clip-path="url(#pe68e442331)" d="M 178.534567 218.914746 
L 182.567229 218.914746 
L 182.567229 38.790121 
L 178.534567 38.790121 
z
" style="fill:#b8860b;"/>
   </g>
   <g id="patch_25">
    <path clip-path="url(#pe68e442331)" d="M 183.575395 218.914746 
L 187.608057 218.914746 
L 187.608057 40.049734 
L 183.575395 40.049734 
z
" style="fill:#b8860b;"/>
   </g>
   <g id="patch_26">
    <path clip-path="url(#pe68e442331)" d="M 188.616222 218.914746 
L 192.648884 218.914746 
L 192.648884 125.703402 
L 188.616222 125.703402 
z
" style="fill:#b8860b;"/>
   </g>
   <g id="patch_27">
    <path clip-path="url(#pe68e442331)" d="M 193.65705 218.914746 
L 197.689711 218.914746 
L 197.689711 169.160042 
L 193.65705 169.160042 
z
"/>
   </g>
   <g id="patch_28">
    <path clip-path="url(#pe68e442331)" d="M 198.697877 218.914746 
L 202.730539 218.914746 
L 202.730539 63.35257 
L 198.697877 63.35257 
z
" style="fill:#b8860b;"/>
   </g>
   <g id="patch_29">
    <path clip-path="url(#pe68e442331)" d="M 203.738704 218.914746 
L 207.771366 218.914746 
L 207.771366 143.967787 
L 203.738704 143.967787 
z
" style="fill:#b8860b;"/>
   </g>
   <g id="patch_30">
    <path clip-path="url(#pe68e442331)" d="M 208.779532 218.914746 
L 212.812194 218.914746 
L 212.812194 131.371659 
L 208.779532 131.371659 
z
" style="fill:#b8860b;"/>
   </g>
   <g id="patch_31">
    <path clip-path="url(#pe68e442331)" d="M 213.820359 218.914746 
L 217.853021 218.914746 
L 217.853021 102.400566 
L 213.820359 102.400566 
z
" style="fill:#b8860b;"/>
   </g>
   <g id="patch_32">
    <path clip-path="url(#pe68e442331)" d="M 218.861187 218.914746 
L 222.893849 218.914746 
L 222.893849 160.342753 
L 218.861187 160.342753 
z
" style="fill:#b8860b;"/>
   </g>
   <g id="patch_33">
    <path clip-path="url(#pe68e442331)" d="M 223.902014 218.914746 
L 227.934676 218.914746 
L 227.934676 143.33798 
L 223.902014 143.33798 
z
" style="fill:#b8860b;"/>
   </g>
   <g id="patch_34">
    <path clip-path="url(#pe68e442331)" d="M 228.942842 218.914746 
L 232.975504 218.914746 
L 232.975504 147.116819 
L 228.942842 147.116819 
z
" style="fill:#b8860b;"/>
   </g>
   <g id="patch_35">
    <path clip-path="url(#pe68e442331)" d="M 233.983669 218.914746 
L 238.016331 218.914746 
L 238.016331 86.0256 
L 233.983669 86.0256 
z
" style="fill:#b8860b;"/>
   </g>
   <g id="patch_36">
    <path clip-path="url(#pe68e442331)" d="M 239.024496 218.914746 
L 243.057158 218.914746 
L 243.057158 125.703402 
L 239.024496 125.703402 
z
" style="fill:#b8860b;"/>
   </g>
   <g id="patch_37">
    <path clip-path="url(#pe68e442331)" d="M 249.106151 218.914746 
L 253.138813 218.914746 
L 253.138813 150.265851 
L 249.106151 150.265851 
z
" style="fill:#b8860b;"/>
   </g>
   <g id="patch_38">
    <path clip-path="url(#pe68e442331)" d="M 244.065324 218.914746 
L 248.097986 218.914746 
L 248.097986 143.967787 
L 244.065324 143.967787 
z
" style="fill:#b8860b;"/>
   </g>
   <g id="patch_39">
    <path clip-path="url(#pe68e442331)" d="M 254.146979 218.914746 
L 258.179641 218.914746 
L 258.179641 160.342753 
L 254.146979 160.342753 
z
" style="fill:#b8860b;"/>
   </g>
   <g id="patch_40">
    <path clip-path="url(#pe68e442331)" d="M 259.187806 218.914746 
L 263.220468 218.914746 
L 263.220468 162.232172 
L 259.187806 162.232172 
z
" style="fill:#b8860b;"/>
   </g>
   <g id="patch_41">
    <path clip-path="url(#pe68e442331)" d="M 264.228634 218.914746 
L 268.261296 218.914746 
L 268.261296 80.987149 
L 264.228634 80.987149 
z
" style="fill:#b8860b;"/>
   </g>
   <g id="patch_42">
    <path clip-path="url(#pe68e442331)" d="M 269.269461 218.914746 
L 273.302123 218.914746 
L 273.302123 169.789848 
L 269.269461 169.789848 
z
" style="fill:#b8860b;"/>
   </g>
   <g id="patch_43">
    <path clip-path="url(#pe68e442331)" d="M 274.310289 218.914746 
L 278.34295 218.914746 
L 278.34295 184.905201 
L 274.310289 184.905201 
z
" style="fill:#b8860b;"/>
   </g>
   <g id="patch_44">
    <path clip-path="url(#pe68e442331)" d="M 279.351116 218.914746 
L 283.383778 218.914746 
L 283.383778 194.982104 
L 279.351116 194.982104 
z
" style="fill:#b8860b;"/>
   </g>
   <g id="patch_45">
    <path clip-path="url(#pe68e442331)" d="M 284.391943 218.914746 
L 288.424605 218.914746 
L 288.424605 174.198493 
L 284.391943 174.198493 
z
" style="fill:#b8860b;"/>
   </g>
   <g id="patch_46">
    <path clip-path="url(#pe68e442331)" d="M 289.432771 218.914746 
L 293.465433 218.914746 
L 293.465433 155.304302 
L 289.432771 155.304302 
z
" style="fill:#b8860b;"/>
   </g>
   <g id="patch_47">
    <path clip-path="url(#pe68e442331)" d="M 294.473598 218.914746 
L 298.50626 218.914746 
L 298.50626 149.636044 
L 294.473598 149.636044 
z
" style="fill:#b8860b;"/>
   </g>
   <g id="patch_48">
    <path clip-path="url(#pe68e442331)" d="M 299.514426 218.914746 
L 303.547088 218.914746 
L 303.547088 171.679267 
L 299.514426 171.679267 
z
" style="fill:#b8860b;"/>
   </g>
   <g id="patch_49">
    <path clip-path="url(#pe68e442331)" d="M 304.555253 218.914746 
L 308.587915 218.914746 
L 308.587915 193.722491 
L 304.555253 193.722491 
z
" style="fill:#b8860b;"/>
   </g>
   <g id="patch_50">
    <path clip-path="url(#pe68e442331)" d="M 309.596081 218.914746 
L 313.628743 218.914746 
L 313.628743 169.160042 
L 309.596081 169.160042 
z
" style="fill:#b8860b;"/>
   </g>
   <g id="patch_51">
    <path clip-path="url(#pe68e442331)" d="M 314.636908 218.914746 
L 318.66957 218.914746 
L 318.66957 153.414882 
L 314.636908 153.414882 
z
" style="fill:#b8860b;"/>
   </g>
   <g id="patch_52">
    <path clip-path="url(#pe68e442331)" d="M 319.677735 218.914746 
L 323.710397 218.914746 
L 323.710397 119.405338 
L 319.677735 119.405338 
z
" style="fill:#b8860b;"/>
   </g>
   <g id="patch_53">
    <path clip-path="url(#pe68e442331)" d="M 324.718563 218.914746 
L 328.751225 218.914746 
L 328.751225 169.789848 
L 324.718563 169.789848 
z
" style="fill:#b8860b;"/>
   </g>
   <g id="patch_54">
    <path clip-path="url(#pe68e442331)" d="M 329.75939 218.914746 
L 333.792052 218.914746 
L 333.792052 181.75617 
L 329.75939 181.75617 
z
" style="fill:#b8860b;"/>
   </g>
   <g id="patch_55">
    <path clip-path="url(#pe68e442331)" d="M 334.800218 218.914746 
L 338.83288 218.914746 
L 338.83288 202.53978 
L 334.800218 202.53978 
z
" style="fill:#b8860b;"/>
   </g>
   <g id="patch_56">
    <path clip-path="url(#pe68e442331)" d="M 339.841045 218.914746 
L 343.873707 218.914746 
L 343.873707 181.75617 
L 339.841045 181.75617 
z
" style="fill:#b8860b;"/>
   </g>
   <g id="patch_57">
    <path clip-path="url(#pe68e442331)" d="M 344.881873 218.914746 
L 348.914535 218.914746 
L 348.914535 198.760942 
L 344.881873 198.760942 
z
" style="fill:#b8860b;"/>
   </g>
   <g id="patch_58">
    <path clip-path="url(#pe68e442331)" d="M 349.9227 218.914746 
L 353.955362 218.914746 
L 353.955362 190.573459 
L 349.9227 190.573459 
z
" style="fill:#b8860b;"/>
   </g>
   <g id="patch_59">
    <path clip-path="url(#pe68e442331)" d="M 354.963527 218.914746 
L 358.996189 218.914746 
L 358.996189 193.092684 
L 354.963527 193.092684 
z
" style="fill:#b8860b;"/>
   </g>
   <g id="patch_60">
    <path clip-path="url(#pe68e442331)" d="M 360.004355 218.914746 
L 364.037017 218.914746 
L 364.037017 196.241716 
L 360.004355 196.241716 
z
" style="fill:#b8860b;"/>
   </g>
   <g id="patch_61">
    <path clip-path="url(#pe68e442331)" d="M 365.045182 218.914746 
L 369.077844 218.914746 
L 369.077844 192.462878 
L 365.045182 192.462878 
z
" style="fill:#b8860b;"/>
   </g>
   <g id="patch_62">
    <path clip-path="url(#pe68e442331)" d="M 370.08601 218.914746 
L 374.118672 218.914746 
L 374.118672 177.347525 
L 370.08601 177.347525 
z
" style="fill:#b8860b;"/>
   </g>
   <g id="patch_63">
    <path clip-path="url(#pe68e442331)" d="M 375.126837 218.914746 
L 379.159499 218.914746 
L 379.159499 187.424427 
L 375.126837 187.424427 
z
" style="fill:#b8860b;"/>
   </g>
   <g id="patch_64">
    <path clip-path="url(#pe68e442331)" d="M 380.167665 218.914746 
L 384.200327 218.914746 
L 384.200327 155.934108 
L 380.167665 155.934108 
z
" style="fill:#b8860b;"/>
   </g>
   <g id="patch_65">
    <path clip-path="url(#pe68e442331)" d="M 385.208492 218.914746 
L 389.241154 218.914746 
L 389.241154 194.352297 
L 385.208492 194.352297 
z
" style="fill:#b8860b;"/>
   </g>
   <g id="patch_66">
    <path clip-path="url(#pe68e442331)" d="M 390.24932 218.914746 
L 394.281981 218.914746 
L 394.281981 143.967787 
L 390.24932 143.967787 
z
" style="fill:#b8860b;"/>
   </g>
   <g id="patch_67">
    <path clip-path="url(#pe68e442331)" d="M 395.290147 218.914746 
L 399.322809 218.914746 
L 399.322809 199.390748 
L 395.290147 199.390748 
z
" style="fill:#b8860b;"/>
   </g>
   <g id="patch_68">
    <path clip-path="url(#pe68e442331)" d="M 400.330974 218.914746 
L 404.363636 218.914746 
L 404.363636 201.909974 
L 400.330974 201.909974 
z
" style="fill:#b8860b;"/>
   </g>
   <g id="matplotlib.axis_1">
    <g id="xtick_1">
     <g id="line2d_1">
      <defs>
       <path d="M 0 0 
L 0 3.5 
" id="m48f9ebb95f" style="stroke:#000000;stroke-width:0.8;"/>
      </defs>
      <g>
       <use style="stroke:#000000;stroke-width:0.8;" x="69.652695" xlink:href="#m48f9ebb95f" y="218.914746"/>
      </g>
     </g>
     <g id="text_1">
      <!-- 12/03/2020 -->
      <defs>
       <path d="M 12.40625 8.296875 
L 28.515625 8.296875 
L 28.515625 63.921875 
L 10.984375 60.40625 
L 10.984375 69.390625 
L 28.421875 72.90625 
L 38.28125 72.90625 
L 38.28125 8.296875 
L 54.390625 8.296875 
L 54.390625 0 
L 12.40625 0 
z
" id="DejaVuSans-49"/>
       <path d="M 19.1875 8.296875 
L 53.609375 8.296875 
L 53.609375 0 
L 7.328125 0 
L 7.328125 8.296875 
Q 12.9375 14.109375 22.625 23.890625 
Q 32.328125 33.6875 34.8125 36.53125 
Q 39.546875 41.84375 41.421875 45.53125 
Q 43.3125 49.21875 43.3125 52.78125 
Q 43.3125 58.59375 39.234375 62.25 
Q 35.15625 65.921875 28.609375 65.921875 
Q 23.96875 65.921875 18.8125 64.3125 
Q 13.671875 62.703125 7.8125 59.421875 
L 7.8125 69.390625 
Q 13.765625 71.78125 18.9375 73 
Q 24.125 74.21875 28.421875 74.21875 
Q 39.75 74.21875 46.484375 68.546875 
Q 53.21875 62.890625 53.21875 53.421875 
Q 53.21875 48.921875 51.53125 44.890625 
Q 49.859375 40.875 45.40625 35.40625 
Q 44.1875 33.984375 37.640625 27.21875 
Q 31.109375 20.453125 19.1875 8.296875 
z
" id="DejaVuSans-50"/>
       <path d="M 25.390625 72.90625 
L 33.6875 72.90625 
L 8.296875 -9.28125 
L 0 -9.28125 
z
" id="DejaVuSans-47"/>
       <path d="M 31.78125 66.40625 
Q 24.171875 66.40625 20.328125 58.90625 
Q 16.5 51.421875 16.5 36.375 
Q 16.5 21.390625 20.328125 13.890625 
Q 24.171875 6.390625 31.78125 6.390625 
Q 39.453125 6.390625 43.28125 13.890625 
Q 47.125 21.390625 47.125 36.375 
Q 47.125 51.421875 43.28125 58.90625 
Q 39.453125 66.40625 31.78125 66.40625 
z
M 31.78125 74.21875 
Q 44.046875 74.21875 50.515625 64.515625 
Q 56.984375 54.828125 56.984375 36.375 
Q 56.984375 17.96875 50.515625 8.265625 
Q 44.046875 -1.421875 31.78125 -1.421875 
Q 19.53125 -1.421875 13.0625 8.265625 
Q 6.59375 17.96875 6.59375 36.375 
Q 6.59375 54.828125 13.0625 64.515625 
Q 19.53125 74.21875 31.78125 74.21875 
z
" id="DejaVuSans-48"/>
       <path d="M 40.578125 39.3125 
Q 47.65625 37.796875 51.625 33 
Q 55.609375 28.21875 55.609375 21.1875 
Q 55.609375 10.40625 48.1875 4.484375 
Q 40.765625 -1.421875 27.09375 -1.421875 
Q 22.515625 -1.421875 17.65625 -0.515625 
Q 12.796875 0.390625 7.625 2.203125 
L 7.625 11.71875 
Q 11.71875 9.328125 16.59375 8.109375 
Q 21.484375 6.890625 26.8125 6.890625 
Q 36.078125 6.890625 40.9375 10.546875 
Q 45.796875 14.203125 45.796875 21.1875 
Q 45.796875 27.640625 41.28125 31.265625 
Q 36.765625 34.90625 28.71875 34.90625 
L 20.21875 34.90625 
L 20.21875 43.015625 
L 29.109375 43.015625 
Q 36.375 43.015625 40.234375 45.921875 
Q 44.09375 48.828125 44.09375 54.296875 
Q 44.09375 59.90625 40.109375 62.90625 
Q 36.140625 65.921875 28.71875 65.921875 
Q 24.65625 65.921875 20.015625 65.03125 
Q 15.375 64.15625 9.8125 62.3125 
L 9.8125 71.09375 
Q 15.4375 72.65625 20.34375 73.4375 
Q 25.25 74.21875 29.59375 74.21875 
Q 40.828125 74.21875 47.359375 69.109375 
Q 53.90625 64.015625 53.90625 55.328125 
Q 53.90625 49.265625 50.4375 45.09375 
Q 46.96875 40.921875 40.578125 39.3125 
z
" id="DejaVuSans-51"/>
      </defs>
      <g transform="translate(18.697312 261.313936)rotate(-30)scale(0.1 -0.1)">
       <use xlink:href="#DejaVuSans-49"/>
       <use x="63.623047" xlink:href="#DejaVuSans-50"/>
       <use x="127.246094" xlink:href="#DejaVuSans-47"/>
       <use x="160.9375" xlink:href="#DejaVuSans-48"/>
       <use x="224.560547" xlink:href="#DejaVuSans-51"/>
       <use x="288.183594" xlink:href="#DejaVuSans-47"/>
       <use x="321.875" xlink:href="#DejaVuSans-50"/>
       <use x="385.498047" xlink:href="#DejaVuSans-48"/>
       <use x="449.121094" xlink:href="#DejaVuSans-50"/>
       <use x="512.744141" xlink:href="#DejaVuSans-48"/>
      </g>
     </g>
    </g>
    <g id="xtick_2">
     <g id="line2d_2">
      <g>
       <use style="stroke:#000000;stroke-width:0.8;" x="104.938487" xlink:href="#m48f9ebb95f" y="218.914746"/>
      </g>
     </g>
     <g id="text_2">
      <!-- 19/03/2020 -->
      <defs>
       <path d="M 10.984375 1.515625 
L 10.984375 10.5 
Q 14.703125 8.734375 18.5 7.8125 
Q 22.3125 6.890625 25.984375 6.890625 
Q 35.75 6.890625 40.890625 13.453125 
Q 46.046875 20.015625 46.78125 33.40625 
Q 43.953125 29.203125 39.59375 26.953125 
Q 35.25 24.703125 29.984375 24.703125 
Q 19.046875 24.703125 12.671875 31.3125 
Q 6.296875 37.9375 6.296875 49.421875 
Q 6.296875 60.640625 12.9375 67.421875 
Q 19.578125 74.21875 30.609375 74.21875 
Q 43.265625 74.21875 49.921875 64.515625 
Q 56.59375 54.828125 56.59375 36.375 
Q 56.59375 19.140625 48.40625 8.859375 
Q 40.234375 -1.421875 26.421875 -1.421875 
Q 22.703125 -1.421875 18.890625 -0.6875 
Q 15.09375 0.046875 10.984375 1.515625 
z
M 30.609375 32.421875 
Q 37.25 32.421875 41.125 36.953125 
Q 45.015625 41.5 45.015625 49.421875 
Q 45.015625 57.28125 41.125 61.84375 
Q 37.25 66.40625 30.609375 66.40625 
Q 23.96875 66.40625 20.09375 61.84375 
Q 16.21875 57.28125 16.21875 49.421875 
Q 16.21875 41.5 20.09375 36.953125 
Q 23.96875 32.421875 30.609375 32.421875 
z
" id="DejaVuSans-57"/>
      </defs>
      <g transform="translate(53.983104 261.313936)rotate(-30)scale(0.1 -0.1)">
       <use xlink:href="#DejaVuSans-49"/>
       <use x="63.623047" xlink:href="#DejaVuSans-57"/>
       <use x="127.246094" xlink:href="#DejaVuSans-47"/>
       <use x="160.9375" xlink:href="#DejaVuSans-48"/>
       <use x="224.560547" xlink:href="#DejaVuSans-51"/>
       <use x="288.183594" xlink:href="#DejaVuSans-47"/>
       <use x="321.875" xlink:href="#DejaVuSans-50"/>
       <use x="385.498047" xlink:href="#DejaVuSans-48"/>
       <use x="449.121094" xlink:href="#DejaVuSans-50"/>
       <use x="512.744141" xlink:href="#DejaVuSans-48"/>
      </g>
     </g>
    </g>
    <g id="xtick_3">
     <g id="line2d_3">
      <g>
       <use style="stroke:#000000;stroke-width:0.8;" x="140.224279" xlink:href="#m48f9ebb95f" y="218.914746"/>
      </g>
     </g>
     <g id="text_3">
      <!-- 26/03/2020 -->
      <defs>
       <path d="M 33.015625 40.375 
Q 26.375 40.375 22.484375 35.828125 
Q 18.609375 31.296875 18.609375 23.390625 
Q 18.609375 15.53125 22.484375 10.953125 
Q 26.375 6.390625 33.015625 6.390625 
Q 39.65625 6.390625 43.53125 10.953125 
Q 47.40625 15.53125 47.40625 23.390625 
Q 47.40625 31.296875 43.53125 35.828125 
Q 39.65625 40.375 33.015625 40.375 
z
M 52.59375 71.296875 
L 52.59375 62.3125 
Q 48.875 64.0625 45.09375 64.984375 
Q 41.3125 65.921875 37.59375 65.921875 
Q 27.828125 65.921875 22.671875 59.328125 
Q 17.53125 52.734375 16.796875 39.40625 
Q 19.671875 43.65625 24.015625 45.921875 
Q 28.375 48.1875 33.59375 48.1875 
Q 44.578125 48.1875 50.953125 41.515625 
Q 57.328125 34.859375 57.328125 23.390625 
Q 57.328125 12.15625 50.6875 5.359375 
Q 44.046875 -1.421875 33.015625 -1.421875 
Q 20.359375 -1.421875 13.671875 8.265625 
Q 6.984375 17.96875 6.984375 36.375 
Q 6.984375 53.65625 15.1875 63.9375 
Q 23.390625 74.21875 37.203125 74.21875 
Q 40.921875 74.21875 44.703125 73.484375 
Q 48.484375 72.75 52.59375 71.296875 
z
" id="DejaVuSans-54"/>
      </defs>
      <g transform="translate(89.268896 261.313936)rotate(-30)scale(0.1 -0.1)">
       <use xlink:href="#DejaVuSans-50"/>
       <use x="63.623047" xlink:href="#DejaVuSans-54"/>
       <use x="127.246094" xlink:href="#DejaVuSans-47"/>
       <use x="160.9375" xlink:href="#DejaVuSans-48"/>
       <use x="224.560547" xlink:href="#DejaVuSans-51"/>
       <use x="288.183594" xlink:href="#DejaVuSans-47"/>
       <use x="321.875" xlink:href="#DejaVuSans-50"/>
       <use x="385.498047" xlink:href="#DejaVuSans-48"/>
       <use x="449.121094" xlink:href="#DejaVuSans-50"/>
       <use x="512.744141" xlink:href="#DejaVuSans-48"/>
      </g>
     </g>
    </g>
    <g id="xtick_4">
     <g id="line2d_4">
      <g>
       <use style="stroke:#000000;stroke-width:0.8;" x="175.510071" xlink:href="#m48f9ebb95f" y="218.914746"/>
      </g>
     </g>
     <g id="text_4">
      <!-- 02/04/2020 -->
      <defs>
       <path d="M 37.796875 64.3125 
L 12.890625 25.390625 
L 37.796875 25.390625 
z
M 35.203125 72.90625 
L 47.609375 72.90625 
L 47.609375 25.390625 
L 58.015625 25.390625 
L 58.015625 17.1875 
L 47.609375 17.1875 
L 47.609375 0 
L 37.796875 0 
L 37.796875 17.1875 
L 4.890625 17.1875 
L 4.890625 26.703125 
z
" id="DejaVuSans-52"/>
      </defs>
      <g transform="translate(124.554688 261.313936)rotate(-30)scale(0.1 -0.1)">
       <use xlink:href="#DejaVuSans-48"/>
       <use x="63.623047" xlink:href="#DejaVuSans-50"/>
       <use x="127.246094" xlink:href="#DejaVuSans-47"/>
       <use x="160.9375" xlink:href="#DejaVuSans-48"/>
       <use x="224.560547" xlink:href="#DejaVuSans-52"/>
       <use x="288.183594" xlink:href="#DejaVuSans-47"/>
       <use x="321.875" xlink:href="#DejaVuSans-50"/>
       <use x="385.498047" xlink:href="#DejaVuSans-48"/>
       <use x="449.121094" xlink:href="#DejaVuSans-50"/>
       <use x="512.744141" xlink:href="#DejaVuSans-48"/>
      </g>
     </g>
    </g>
    <g id="xtick_5">
     <g id="line2d_5">
      <g>
       <use style="stroke:#000000;stroke-width:0.8;" x="210.795863" xlink:href="#m48f9ebb95f" y="218.914746"/>
      </g>
     </g>
     <g id="text_5">
      <!-- 09/04/2020 -->
      <g transform="translate(159.84048 261.313936)rotate(-30)scale(0.1 -0.1)">
       <use xlink:href="#DejaVuSans-48"/>
       <use x="63.623047" xlink:href="#DejaVuSans-57"/>
       <use x="127.246094" xlink:href="#DejaVuSans-47"/>
       <use x="160.9375" xlink:href="#DejaVuSans-48"/>
       <use x="224.560547" xlink:href="#DejaVuSans-52"/>
       <use x="288.183594" xlink:href="#DejaVuSans-47"/>
       <use x="321.875" xlink:href="#DejaVuSans-50"/>
       <use x="385.498047" xlink:href="#DejaVuSans-48"/>
       <use x="449.121094" xlink:href="#DejaVuSans-50"/>
       <use x="512.744141" xlink:href="#DejaVuSans-48"/>
      </g>
     </g>
    </g>
    <g id="xtick_6">
     <g id="line2d_6">
      <g>
       <use style="stroke:#000000;stroke-width:0.8;" x="246.081655" xlink:href="#m48f9ebb95f" y="218.914746"/>
      </g>
     </g>
     <g id="text_6">
      <!-- 16/04/2020 -->
      <g transform="translate(195.126272 261.313936)rotate(-30)scale(0.1 -0.1)">
       <use xlink:href="#DejaVuSans-49"/>
       <use x="63.623047" xlink:href="#DejaVuSans-54"/>
       <use x="127.246094" xlink:href="#DejaVuSans-47"/>
       <use x="160.9375" xlink:href="#DejaVuSans-48"/>
       <use x="224.560547" xlink:href="#DejaVuSans-52"/>
       <use x="288.183594" xlink:href="#DejaVuSans-47"/>
       <use x="321.875" xlink:href="#DejaVuSans-50"/>
       <use x="385.498047" xlink:href="#DejaVuSans-48"/>
       <use x="449.121094" xlink:href="#DejaVuSans-50"/>
       <use x="512.744141" xlink:href="#DejaVuSans-48"/>
      </g>
     </g>
    </g>
    <g id="xtick_7">
     <g id="line2d_7">
      <g>
       <use style="stroke:#000000;stroke-width:0.8;" x="281.367447" xlink:href="#m48f9ebb95f" y="218.914746"/>
      </g>
     </g>
     <g id="text_7">
      <!-- 23/04/2020 -->
      <g transform="translate(230.412064 261.313936)rotate(-30)scale(0.1 -0.1)">
       <use xlink:href="#DejaVuSans-50"/>
       <use x="63.623047" xlink:href="#DejaVuSans-51"/>
       <use x="127.246094" xlink:href="#DejaVuSans-47"/>
       <use x="160.9375" xlink:href="#DejaVuSans-48"/>
       <use x="224.560547" xlink:href="#DejaVuSans-52"/>
       <use x="288.183594" xlink:href="#DejaVuSans-47"/>
       <use x="321.875" xlink:href="#DejaVuSans-50"/>
       <use x="385.498047" xlink:href="#DejaVuSans-48"/>
       <use x="449.121094" xlink:href="#DejaVuSans-50"/>
       <use x="512.744141" xlink:href="#DejaVuSans-48"/>
      </g>
     </g>
    </g>
    <g id="xtick_8">
     <g id="line2d_8">
      <g>
       <use style="stroke:#000000;stroke-width:0.8;" x="316.653239" xlink:href="#m48f9ebb95f" y="218.914746"/>
      </g>
     </g>
     <g id="text_8">
      <!-- 30/04/2020 -->
      <g transform="translate(265.697856 261.313936)rotate(-30)scale(0.1 -0.1)">
       <use xlink:href="#DejaVuSans-51"/>
       <use x="63.623047" xlink:href="#DejaVuSans-48"/>
       <use x="127.246094" xlink:href="#DejaVuSans-47"/>
       <use x="160.9375" xlink:href="#DejaVuSans-48"/>
       <use x="224.560547" xlink:href="#DejaVuSans-52"/>
       <use x="288.183594" xlink:href="#DejaVuSans-47"/>
       <use x="321.875" xlink:href="#DejaVuSans-50"/>
       <use x="385.498047" xlink:href="#DejaVuSans-48"/>
       <use x="449.121094" xlink:href="#DejaVuSans-50"/>
       <use x="512.744141" xlink:href="#DejaVuSans-48"/>
      </g>
     </g>
    </g>
    <g id="xtick_9">
     <g id="line2d_9">
      <g>
       <use style="stroke:#000000;stroke-width:0.8;" x="351.939031" xlink:href="#m48f9ebb95f" y="218.914746"/>
      </g>
     </g>
     <g id="text_9">
      <!-- 07/05/2020 -->
      <defs>
       <path d="M 8.203125 72.90625 
L 55.078125 72.90625 
L 55.078125 68.703125 
L 28.609375 0 
L 18.3125 0 
L 43.21875 64.59375 
L 8.203125 64.59375 
z
" id="DejaVuSans-55"/>
       <path d="M 10.796875 72.90625 
L 49.515625 72.90625 
L 49.515625 64.59375 
L 19.828125 64.59375 
L 19.828125 46.734375 
Q 21.96875 47.46875 24.109375 47.828125 
Q 26.265625 48.1875 28.421875 48.1875 
Q 40.625 48.1875 47.75 41.5 
Q 54.890625 34.8125 54.890625 23.390625 
Q 54.890625 11.625 47.5625 5.09375 
Q 40.234375 -1.421875 26.90625 -1.421875 
Q 22.3125 -1.421875 17.546875 -0.640625 
Q 12.796875 0.140625 7.71875 1.703125 
L 7.71875 11.625 
Q 12.109375 9.234375 16.796875 8.0625 
Q 21.484375 6.890625 26.703125 6.890625 
Q 35.15625 6.890625 40.078125 11.328125 
Q 45.015625 15.765625 45.015625 23.390625 
Q 45.015625 31 40.078125 35.4375 
Q 35.15625 39.890625 26.703125 39.890625 
Q 22.75 39.890625 18.8125 39.015625 
Q 14.890625 38.140625 10.796875 36.28125 
z
" id="DejaVuSans-53"/>
      </defs>
      <g transform="translate(300.983648 261.313936)rotate(-30)scale(0.1 -0.1)">
       <use xlink:href="#DejaVuSans-48"/>
       <use x="63.623047" xlink:href="#DejaVuSans-55"/>
       <use x="127.246094" xlink:href="#DejaVuSans-47"/>
       <use x="160.9375" xlink:href="#DejaVuSans-48"/>
       <use x="224.560547" xlink:href="#DejaVuSans-53"/>
       <use x="288.183594" xlink:href="#DejaVuSans-47"/>
       <use x="321.875" xlink:href="#DejaVuSans-50"/>
       <use x="385.498047" xlink:href="#DejaVuSans-48"/>
       <use x="449.121094" xlink:href="#DejaVuSans-50"/>
       <use x="512.744141" xlink:href="#DejaVuSans-48"/>
      </g>
     </g>
    </g>
    <g id="xtick_10">
     <g id="line2d_10">
      <g>
       <use style="stroke:#000000;stroke-width:0.8;" x="387.224823" xlink:href="#m48f9ebb95f" y="218.914746"/>
      </g>
     </g>
     <g id="text_10">
      <!-- 14/05/2020 -->
      <g transform="translate(336.26944 261.313936)rotate(-30)scale(0.1 -0.1)">
       <use xlink:href="#DejaVuSans-49"/>
       <use x="63.623047" xlink:href="#DejaVuSans-52"/>
       <use x="127.246094" xlink:href="#DejaVuSans-47"/>
       <use x="160.9375" xlink:href="#DejaVuSans-48"/>
       <use x="224.560547" xlink:href="#DejaVuSans-53"/>
       <use x="288.183594" xlink:href="#DejaVuSans-47"/>
       <use x="321.875" xlink:href="#DejaVuSans-50"/>
       <use x="385.498047" xlink:href="#DejaVuSans-48"/>
       <use x="449.121094" xlink:href="#DejaVuSans-50"/>
       <use x="512.744141" xlink:href="#DejaVuSans-48"/>
      </g>
     </g>
    </g>
    <g id="text_11">
     <!-- Day -->
     <defs>
      <path d="M 19.671875 64.796875 
L 19.671875 8.109375 
L 31.59375 8.109375 
Q 46.6875 8.109375 53.6875 14.9375 
Q 60.6875 21.78125 60.6875 36.53125 
Q 60.6875 51.171875 53.6875 57.984375 
Q 46.6875 64.796875 31.59375 64.796875 
z
M 9.8125 72.90625 
L 30.078125 72.90625 
Q 51.265625 72.90625 61.171875 64.09375 
Q 71.09375 55.28125 71.09375 36.53125 
Q 71.09375 17.671875 61.125 8.828125 
Q 51.171875 0 30.078125 0 
L 9.8125 0 
z
" id="DejaVuSans-68"/>
      <path d="M 34.28125 27.484375 
Q 23.390625 27.484375 19.1875 25 
Q 14.984375 22.515625 14.984375 16.5 
Q 14.984375 11.71875 18.140625 8.90625 
Q 21.296875 6.109375 26.703125 6.109375 
Q 34.1875 6.109375 38.703125 11.40625 
Q 43.21875 16.703125 43.21875 25.484375 
L 43.21875 27.484375 
z
M 52.203125 31.203125 
L 52.203125 0 
L 43.21875 0 
L 43.21875 8.296875 
Q 40.140625 3.328125 35.546875 0.953125 
Q 30.953125 -1.421875 24.3125 -1.421875 
Q 15.921875 -1.421875 10.953125 3.296875 
Q 6 8.015625 6 15.921875 
Q 6 25.140625 12.171875 29.828125 
Q 18.359375 34.515625 30.609375 34.515625 
L 43.21875 34.515625 
L 43.21875 35.40625 
Q 43.21875 41.609375 39.140625 45 
Q 35.0625 48.390625 27.6875 48.390625 
Q 23 48.390625 18.546875 47.265625 
Q 14.109375 46.140625 10.015625 43.890625 
L 10.015625 52.203125 
Q 14.9375 54.109375 19.578125 55.046875 
Q 24.21875 56 28.609375 56 
Q 40.484375 56 46.34375 49.84375 
Q 52.203125 43.703125 52.203125 31.203125 
z
" id="DejaVuSans-97"/>
      <path d="M 32.171875 -5.078125 
Q 28.375 -14.84375 24.75 -17.8125 
Q 21.140625 -20.796875 15.09375 -20.796875 
L 7.90625 -20.796875 
L 7.90625 -13.28125 
L 13.1875 -13.28125 
Q 16.890625 -13.28125 18.9375 -11.515625 
Q 21 -9.765625 23.484375 -3.21875 
L 25.09375 0.875 
L 2.984375 54.6875 
L 12.5 54.6875 
L 29.59375 11.921875 
L 46.6875 54.6875 
L 56.203125 54.6875 
z
" id="DejaVuSans-121"/>
     </defs>
     <g transform="translate(226.126563 274.713436)scale(0.1 -0.1)">
      <use xlink:href="#DejaVuSans-68"/>
      <use x="77.001953" xlink:href="#DejaVuSans-97"/>
      <use x="138.28125" xlink:href="#DejaVuSans-121"/>
     </g>
    </g>
   </g>
   <g id="matplotlib.axis_2">
    <g id="ytick_1">
     <g id="line2d_11">
      <defs>
       <path d="M 0 0 
L -3.5 0 
" id="m5fccc0cb33" style="stroke:#000000;stroke-width:0.8;"/>
      </defs>
      <g>
       <use style="stroke:#000000;stroke-width:0.8;" x="50.8" xlink:href="#m5fccc0cb33" y="218.914746"/>
      </g>
     </g>
     <g id="text_12">
      <!-- 0 -->
      <g transform="translate(37.4375 222.713965)scale(0.1 -0.1)">
       <use xlink:href="#DejaVuSans-48"/>
      </g>
     </g>
    </g>
    <g id="ytick_2">
     <g id="line2d_12">
      <g>
       <use style="stroke:#000000;stroke-width:0.8;" x="50.8" xlink:href="#m5fccc0cb33" y="187.424427"/>
      </g>
     </g>
     <g id="text_13">
      <!-- 50 -->
      <g transform="translate(31.075 191.223646)scale(0.1 -0.1)">
       <use xlink:href="#DejaVuSans-53"/>
       <use x="63.623047" xlink:href="#DejaVuSans-48"/>
      </g>
     </g>
    </g>
    <g id="ytick_3">
     <g id="line2d_13">
      <g>
       <use style="stroke:#000000;stroke-width:0.8;" x="50.8" xlink:href="#m5fccc0cb33" y="155.934108"/>
      </g>
     </g>
     <g id="text_14">
      <!-- 100 -->
      <g transform="translate(24.7125 159.733327)scale(0.1 -0.1)">
       <use xlink:href="#DejaVuSans-49"/>
       <use x="63.623047" xlink:href="#DejaVuSans-48"/>
       <use x="127.246094" xlink:href="#DejaVuSans-48"/>
      </g>
     </g>
    </g>
    <g id="ytick_4">
     <g id="line2d_14">
      <g>
       <use style="stroke:#000000;stroke-width:0.8;" x="50.8" xlink:href="#m5fccc0cb33" y="124.443789"/>
      </g>
     </g>
     <g id="text_15">
      <!-- 150 -->
      <g transform="translate(24.7125 128.243008)scale(0.1 -0.1)">
       <use xlink:href="#DejaVuSans-49"/>
       <use x="63.623047" xlink:href="#DejaVuSans-53"/>
       <use x="127.246094" xlink:href="#DejaVuSans-48"/>
      </g>
     </g>
    </g>
    <g id="ytick_5">
     <g id="line2d_15">
      <g>
       <use style="stroke:#000000;stroke-width:0.8;" x="50.8" xlink:href="#m5fccc0cb33" y="92.95347"/>
      </g>
     </g>
     <g id="text_16">
      <!-- 200 -->
      <g transform="translate(24.7125 96.752689)scale(0.1 -0.1)">
       <use xlink:href="#DejaVuSans-50"/>
       <use x="63.623047" xlink:href="#DejaVuSans-48"/>
       <use x="127.246094" xlink:href="#DejaVuSans-48"/>
      </g>
     </g>
    </g>
    <g id="ytick_6">
     <g id="line2d_16">
      <g>
       <use style="stroke:#000000;stroke-width:0.8;" x="50.8" xlink:href="#m5fccc0cb33" y="61.463151"/>
      </g>
     </g>
     <g id="text_17">
      <!-- 250 -->
      <g transform="translate(24.7125 65.26237)scale(0.1 -0.1)">
       <use xlink:href="#DejaVuSans-50"/>
       <use x="63.623047" xlink:href="#DejaVuSans-53"/>
       <use x="127.246094" xlink:href="#DejaVuSans-48"/>
      </g>
     </g>
    </g>
    <g id="ytick_7">
     <g id="line2d_17">
      <g>
       <use style="stroke:#000000;stroke-width:0.8;" x="50.8" xlink:href="#m5fccc0cb33" y="29.972832"/>
      </g>
     </g>
     <g id="text_18">
      <!-- 300 -->
      <g transform="translate(24.7125 33.772051)scale(0.1 -0.1)">
       <use xlink:href="#DejaVuSans-51"/>
       <use x="63.623047" xlink:href="#DejaVuSans-48"/>
       <use x="127.246094" xlink:href="#DejaVuSans-48"/>
      </g>
     </g>
    </g>
    <g id="text_19">
     <!-- Numbers of comments -->
     <defs>
      <path d="M 9.8125 72.90625 
L 23.09375 72.90625 
L 55.421875 11.921875 
L 55.421875 72.90625 
L 64.984375 72.90625 
L 64.984375 0 
L 51.703125 0 
L 19.390625 60.984375 
L 19.390625 0 
L 9.8125 0 
z
" id="DejaVuSans-78"/>
      <path d="M 8.5 21.578125 
L 8.5 54.6875 
L 17.484375 54.6875 
L 17.484375 21.921875 
Q 17.484375 14.15625 20.5 10.265625 
Q 23.53125 6.390625 29.59375 6.390625 
Q 36.859375 6.390625 41.078125 11.03125 
Q 45.3125 15.671875 45.3125 23.6875 
L 45.3125 54.6875 
L 54.296875 54.6875 
L 54.296875 0 
L 45.3125 0 
L 45.3125 8.40625 
Q 42.046875 3.421875 37.71875 1 
Q 33.40625 -1.421875 27.6875 -1.421875 
Q 18.265625 -1.421875 13.375 4.4375 
Q 8.5 10.296875 8.5 21.578125 
z
M 31.109375 56 
z
" id="DejaVuSans-117"/>
      <path d="M 52 44.1875 
Q 55.375 50.25 60.0625 53.125 
Q 64.75 56 71.09375 56 
Q 79.640625 56 84.28125 50.015625 
Q 88.921875 44.046875 88.921875 33.015625 
L 88.921875 0 
L 79.890625 0 
L 79.890625 32.71875 
Q 79.890625 40.578125 77.09375 44.375 
Q 74.3125 48.1875 68.609375 48.1875 
Q 61.625 48.1875 57.5625 43.546875 
Q 53.515625 38.921875 53.515625 30.90625 
L 53.515625 0 
L 44.484375 0 
L 44.484375 32.71875 
Q 44.484375 40.625 41.703125 44.40625 
Q 38.921875 48.1875 33.109375 48.1875 
Q 26.21875 48.1875 22.15625 43.53125 
Q 18.109375 38.875 18.109375 30.90625 
L 18.109375 0 
L 9.078125 0 
L 9.078125 54.6875 
L 18.109375 54.6875 
L 18.109375 46.1875 
Q 21.1875 51.21875 25.484375 53.609375 
Q 29.78125 56 35.6875 56 
Q 41.65625 56 45.828125 52.96875 
Q 50 49.953125 52 44.1875 
z
" id="DejaVuSans-109"/>
      <path d="M 48.6875 27.296875 
Q 48.6875 37.203125 44.609375 42.84375 
Q 40.53125 48.484375 33.40625 48.484375 
Q 26.265625 48.484375 22.1875 42.84375 
Q 18.109375 37.203125 18.109375 27.296875 
Q 18.109375 17.390625 22.1875 11.75 
Q 26.265625 6.109375 33.40625 6.109375 
Q 40.53125 6.109375 44.609375 11.75 
Q 48.6875 17.390625 48.6875 27.296875 
z
M 18.109375 46.390625 
Q 20.953125 51.265625 25.265625 53.625 
Q 29.59375 56 35.59375 56 
Q 45.5625 56 51.78125 48.09375 
Q 58.015625 40.1875 58.015625 27.296875 
Q 58.015625 14.40625 51.78125 6.484375 
Q 45.5625 -1.421875 35.59375 -1.421875 
Q 29.59375 -1.421875 25.265625 0.953125 
Q 20.953125 3.328125 18.109375 8.203125 
L 18.109375 0 
L 9.078125 0 
L 9.078125 75.984375 
L 18.109375 75.984375 
z
" id="DejaVuSans-98"/>
      <path d="M 56.203125 29.59375 
L 56.203125 25.203125 
L 14.890625 25.203125 
Q 15.484375 15.921875 20.484375 11.0625 
Q 25.484375 6.203125 34.421875 6.203125 
Q 39.59375 6.203125 44.453125 7.46875 
Q 49.3125 8.734375 54.109375 11.28125 
L 54.109375 2.78125 
Q 49.265625 0.734375 44.1875 -0.34375 
Q 39.109375 -1.421875 33.890625 -1.421875 
Q 20.796875 -1.421875 13.15625 6.1875 
Q 5.515625 13.8125 5.515625 26.8125 
Q 5.515625 40.234375 12.765625 48.109375 
Q 20.015625 56 32.328125 56 
Q 43.359375 56 49.78125 48.890625 
Q 56.203125 41.796875 56.203125 29.59375 
z
M 47.21875 32.234375 
Q 47.125 39.59375 43.09375 43.984375 
Q 39.0625 48.390625 32.421875 48.390625 
Q 24.90625 48.390625 20.390625 44.140625 
Q 15.875 39.890625 15.1875 32.171875 
z
" id="DejaVuSans-101"/>
      <path d="M 41.109375 46.296875 
Q 39.59375 47.171875 37.8125 47.578125 
Q 36.03125 48 33.890625 48 
Q 26.265625 48 22.1875 43.046875 
Q 18.109375 38.09375 18.109375 28.8125 
L 18.109375 0 
L 9.078125 0 
L 9.078125 54.6875 
L 18.109375 54.6875 
L 18.109375 46.1875 
Q 20.953125 51.171875 25.484375 53.578125 
Q 30.03125 56 36.53125 56 
Q 37.453125 56 38.578125 55.875 
Q 39.703125 55.765625 41.0625 55.515625 
z
" id="DejaVuSans-114"/>
      <path d="M 44.28125 53.078125 
L 44.28125 44.578125 
Q 40.484375 46.53125 36.375 47.5 
Q 32.28125 48.484375 27.875 48.484375 
Q 21.1875 48.484375 17.84375 46.4375 
Q 14.5 44.390625 14.5 40.28125 
Q 14.5 37.15625 16.890625 35.375 
Q 19.28125 33.59375 26.515625 31.984375 
L 29.59375 31.296875 
Q 39.15625 29.25 43.1875 25.515625 
Q 47.21875 21.78125 47.21875 15.09375 
Q 47.21875 7.46875 41.1875 3.015625 
Q 35.15625 -1.421875 24.609375 -1.421875 
Q 20.21875 -1.421875 15.453125 -0.5625 
Q 10.6875 0.296875 5.421875 2 
L 5.421875 11.28125 
Q 10.40625 8.6875 15.234375 7.390625 
Q 20.0625 6.109375 24.8125 6.109375 
Q 31.15625 6.109375 34.5625 8.28125 
Q 37.984375 10.453125 37.984375 14.40625 
Q 37.984375 18.0625 35.515625 20.015625 
Q 33.0625 21.96875 24.703125 23.78125 
L 21.578125 24.515625 
Q 13.234375 26.265625 9.515625 29.90625 
Q 5.8125 33.546875 5.8125 39.890625 
Q 5.8125 47.609375 11.28125 51.796875 
Q 16.75 56 26.8125 56 
Q 31.78125 56 36.171875 55.265625 
Q 40.578125 54.546875 44.28125 53.078125 
z
" id="DejaVuSans-115"/>
      <path id="DejaVuSans-32"/>
      <path d="M 30.609375 48.390625 
Q 23.390625 48.390625 19.1875 42.75 
Q 14.984375 37.109375 14.984375 27.296875 
Q 14.984375 17.484375 19.15625 11.84375 
Q 23.34375 6.203125 30.609375 6.203125 
Q 37.796875 6.203125 41.984375 11.859375 
Q 46.1875 17.53125 46.1875 27.296875 
Q 46.1875 37.015625 41.984375 42.703125 
Q 37.796875 48.390625 30.609375 48.390625 
z
M 30.609375 56 
Q 42.328125 56 49.015625 48.375 
Q 55.71875 40.765625 55.71875 27.296875 
Q 55.71875 13.875 49.015625 6.21875 
Q 42.328125 -1.421875 30.609375 -1.421875 
Q 18.84375 -1.421875 12.171875 6.21875 
Q 5.515625 13.875 5.515625 27.296875 
Q 5.515625 40.765625 12.171875 48.375 
Q 18.84375 56 30.609375 56 
z
" id="DejaVuSans-111"/>
      <path d="M 37.109375 75.984375 
L 37.109375 68.5 
L 28.515625 68.5 
Q 23.6875 68.5 21.796875 66.546875 
Q 19.921875 64.59375 19.921875 59.515625 
L 19.921875 54.6875 
L 34.71875 54.6875 
L 34.71875 47.703125 
L 19.921875 47.703125 
L 19.921875 0 
L 10.890625 0 
L 10.890625 47.703125 
L 2.296875 47.703125 
L 2.296875 54.6875 
L 10.890625 54.6875 
L 10.890625 58.5 
Q 10.890625 67.625 15.140625 71.796875 
Q 19.390625 75.984375 28.609375 75.984375 
z
" id="DejaVuSans-102"/>
      <path d="M 48.78125 52.59375 
L 48.78125 44.1875 
Q 44.96875 46.296875 41.140625 47.34375 
Q 37.3125 48.390625 33.40625 48.390625 
Q 24.65625 48.390625 19.8125 42.84375 
Q 14.984375 37.3125 14.984375 27.296875 
Q 14.984375 17.28125 19.8125 11.734375 
Q 24.65625 6.203125 33.40625 6.203125 
Q 37.3125 6.203125 41.140625 7.25 
Q 44.96875 8.296875 48.78125 10.40625 
L 48.78125 2.09375 
Q 45.015625 0.34375 40.984375 -0.53125 
Q 36.96875 -1.421875 32.421875 -1.421875 
Q 20.0625 -1.421875 12.78125 6.34375 
Q 5.515625 14.109375 5.515625 27.296875 
Q 5.515625 40.671875 12.859375 48.328125 
Q 20.21875 56 33.015625 56 
Q 37.15625 56 41.109375 55.140625 
Q 45.0625 54.296875 48.78125 52.59375 
z
" id="DejaVuSans-99"/>
      <path d="M 54.890625 33.015625 
L 54.890625 0 
L 45.90625 0 
L 45.90625 32.71875 
Q 45.90625 40.484375 42.875 44.328125 
Q 39.84375 48.1875 33.796875 48.1875 
Q 26.515625 48.1875 22.3125 43.546875 
Q 18.109375 38.921875 18.109375 30.90625 
L 18.109375 0 
L 9.078125 0 
L 9.078125 54.6875 
L 18.109375 54.6875 
L 18.109375 46.1875 
Q 21.34375 51.125 25.703125 53.5625 
Q 30.078125 56 35.796875 56 
Q 45.21875 56 50.046875 50.171875 
Q 54.890625 44.34375 54.890625 33.015625 
z
" id="DejaVuSans-110"/>
      <path d="M 18.3125 70.21875 
L 18.3125 54.6875 
L 36.8125 54.6875 
L 36.8125 47.703125 
L 18.3125 47.703125 
L 18.3125 18.015625 
Q 18.3125 11.328125 20.140625 9.421875 
Q 21.96875 7.515625 27.59375 7.515625 
L 36.8125 7.515625 
L 36.8125 0 
L 27.59375 0 
Q 17.1875 0 13.234375 3.875 
Q 9.28125 7.765625 9.28125 18.015625 
L 9.28125 47.703125 
L 2.6875 47.703125 
L 2.6875 54.6875 
L 9.28125 54.6875 
L 9.28125 70.21875 
z
" id="DejaVuSans-116"/>
     </defs>
     <g transform="translate(18.632812 180.405029)rotate(-90)scale(0.1 -0.1)">
      <use xlink:href="#DejaVuSans-78"/>
      <use x="74.804688" xlink:href="#DejaVuSans-117"/>
      <use x="138.183594" xlink:href="#DejaVuSans-109"/>
      <use x="235.595703" xlink:href="#DejaVuSans-98"/>
      <use x="299.072266" xlink:href="#DejaVuSans-101"/>
      <use x="360.595703" xlink:href="#DejaVuSans-114"/>
      <use x="401.708984" xlink:href="#DejaVuSans-115"/>
      <use x="453.808594" xlink:href="#DejaVuSans-32"/>
      <use x="485.595703" xlink:href="#DejaVuSans-111"/>
      <use x="546.777344" xlink:href="#DejaVuSans-102"/>
      <use x="581.982422" xlink:href="#DejaVuSans-32"/>
      <use x="613.769531" xlink:href="#DejaVuSans-99"/>
      <use x="668.75" xlink:href="#DejaVuSans-111"/>
      <use x="729.931641" xlink:href="#DejaVuSans-109"/>
      <use x="827.34375" xlink:href="#DejaVuSans-109"/>
      <use x="924.755859" xlink:href="#DejaVuSans-101"/>
      <use x="986.279297" xlink:href="#DejaVuSans-110"/>
      <use x="1049.658203" xlink:href="#DejaVuSans-116"/>
      <use x="1088.867188" xlink:href="#DejaVuSans-115"/>
     </g>
    </g>
   </g>
   <g id="patch_69">
    <path d="M 50.8 218.914746 
L 50.8 27.8 
" style="fill:none;stroke:#000000;stroke-linecap:square;stroke-linejoin:miter;stroke-width:0.8;"/>
   </g>
   <g id="patch_70">
    <path d="M 421.2 218.914746 
L 421.2 27.8 
" style="fill:none;stroke:#000000;stroke-linecap:square;stroke-linejoin:miter;stroke-width:0.8;"/>
   </g>
   <g id="patch_71">
    <path d="M 50.8 218.914746 
L 421.2 218.914746 
" style="fill:none;stroke:#000000;stroke-linecap:square;stroke-linejoin:miter;stroke-width:0.8;"/>
   </g>
   <g id="patch_72">
    <path d="M 50.8 27.8 
L 421.2 27.8 
" style="fill:none;stroke:#000000;stroke-linecap:square;stroke-linejoin:miter;stroke-width:0.8;"/>
   </g>
   <g id="text_20">
    <!-- Activity of user: DevilsKitty -->
    <defs>
     <path d="M 34.1875 63.1875 
L 20.796875 26.90625 
L 47.609375 26.90625 
z
M 28.609375 72.90625 
L 39.796875 72.90625 
L 67.578125 0 
L 57.328125 0 
L 50.6875 18.703125 
L 17.828125 18.703125 
L 11.1875 0 
L 0.78125 0 
z
" id="DejaVuSans-65"/>
     <path d="M 9.421875 54.6875 
L 18.40625 54.6875 
L 18.40625 0 
L 9.421875 0 
z
M 9.421875 75.984375 
L 18.40625 75.984375 
L 18.40625 64.59375 
L 9.421875 64.59375 
z
" id="DejaVuSans-105"/>
     <path d="M 2.984375 54.6875 
L 12.5 54.6875 
L 29.59375 8.796875 
L 46.6875 54.6875 
L 56.203125 54.6875 
L 35.6875 0 
L 23.484375 0 
z
" id="DejaVuSans-118"/>
     <path d="M 11.71875 12.40625 
L 22.015625 12.40625 
L 22.015625 0 
L 11.71875 0 
z
M 11.71875 51.703125 
L 22.015625 51.703125 
L 22.015625 39.3125 
L 11.71875 39.3125 
z
" id="DejaVuSans-58"/>
     <path d="M 9.421875 75.984375 
L 18.40625 75.984375 
L 18.40625 0 
L 9.421875 0 
z
" id="DejaVuSans-108"/>
     <path d="M 9.8125 72.90625 
L 19.671875 72.90625 
L 19.671875 42.09375 
L 52.390625 72.90625 
L 65.09375 72.90625 
L 28.90625 38.921875 
L 67.671875 0 
L 54.6875 0 
L 19.671875 35.109375 
L 19.671875 0 
L 9.8125 0 
z
" id="DejaVuSans-75"/>
    </defs>
    <g transform="translate(141.353437 21.8)scale(0.14 -0.14)">
     <use xlink:href="#DejaVuSans-65"/>
     <use x="66.658203" xlink:href="#DejaVuSans-99"/>
     <use x="121.638672" xlink:href="#DejaVuSans-116"/>
     <use x="160.847656" xlink:href="#DejaVuSans-105"/>
     <use x="188.630859" xlink:href="#DejaVuSans-118"/>
     <use x="247.810547" xlink:href="#DejaVuSans-105"/>
     <use x="275.59375" xlink:href="#DejaVuSans-116"/>
     <use x="314.802734" xlink:href="#DejaVuSans-121"/>
     <use x="373.982422" xlink:href="#DejaVuSans-32"/>
     <use x="405.769531" xlink:href="#DejaVuSans-111"/>
     <use x="466.951172" xlink:href="#DejaVuSans-102"/>
     <use x="502.15625" xlink:href="#DejaVuSans-32"/>
     <use x="533.943359" xlink:href="#DejaVuSans-117"/>
     <use x="597.322266" xlink:href="#DejaVuSans-115"/>
     <use x="649.421875" xlink:href="#DejaVuSans-101"/>
     <use x="710.945312" xlink:href="#DejaVuSans-114"/>
     <use x="750.308594" xlink:href="#DejaVuSans-58"/>
     <use x="784" xlink:href="#DejaVuSans-32"/>
     <use x="815.787109" xlink:href="#DejaVuSans-68"/>
     <use x="892.789062" xlink:href="#DejaVuSans-101"/>
     <use x="954.3125" xlink:href="#DejaVuSans-118"/>
     <use x="1013.492188" xlink:href="#DejaVuSans-105"/>
     <use x="1041.275391" xlink:href="#DejaVuSans-108"/>
     <use x="1069.058594" xlink:href="#DejaVuSans-115"/>
     <use x="1121.158203" xlink:href="#DejaVuSans-75"/>
     <use x="1186.734375" xlink:href="#DejaVuSans-105"/>
     <use x="1214.517578" xlink:href="#DejaVuSans-116"/>
     <use x="1253.726562" xlink:href="#DejaVuSans-116"/>
     <use x="1292.935547" xlink:href="#DejaVuSans-121"/>
    </g>
   </g>
  </g>
 </g>
 <defs>
  <clipPath id="pe68e442331">
   <rect height="191.114746" width="370.4" x="50.8" y="27.8"/>
  </clipPath>
 </defs>
</svg>
