<?xml version="1.0" encoding="utf-8" standalone="no"?>
<!DOCTYPE svg PUBLIC "-//W3C//DTD SVG 1.1//EN"
  "http://www.w3.org/Graphics/SVG/1.1/DTD/svg11.dtd">
<!-- Created with matplotlib (https://matplotlib.org/) -->
<svg height="288pt" version="1.1" viewBox="0 0 432 288" width="432pt" xmlns="http://www.w3.org/2000/svg" xmlns:xlink="http://www.w3.org/1999/xlink">
 <defs>
  <style type="text/css">
*{stroke-linecap:butt;stroke-linejoin:round;}
  </style>
 </defs>
 <g id="figure_1">
  <g id="patch_1">
   <path d="M 0 288 
L 432 288 
L 432 0 
L 0 0 
z
" style="fill:#ffffff;"/>
  </g>
  <g id="axes_1">
   <g id="patch_2">
    <path d="M 50.8 218.852246 
L 421.2 218.852246 
L 421.2 27.8 
L 50.8 27.8 
z
" style="fill:#ffffff;"/>
   </g>
   <g id="patch_3">
    <path clip-path="url(#p79840e22b9)" d="M 67.636364 218.852246 
L 70.889767 218.852246 
L 70.889767 183.817525 
L 67.636364 183.817525 
z
" style="fill:#b8860b;"/>
   </g>
   <g id="patch_4">
    <path clip-path="url(#p79840e22b9)" d="M 71.703118 218.852246 
L 74.956522 218.852246 
L 74.956522 208.680875 
L 71.703118 208.680875 
z
" style="fill:#b8860b;"/>
   </g>
   <g id="patch_5">
    <path clip-path="url(#p79840e22b9)" d="M 75.769873 218.852246 
L 79.023276 218.852246 
L 79.023276 209.811028 
L 75.769873 209.811028 
z
" style="fill:#b8860b;"/>
   </g>
   <g id="patch_6">
    <path clip-path="url(#p79840e22b9)" d="M 79.836627 218.852246 
L 83.090031 218.852246 
L 83.090031 210.94118 
L 79.836627 210.94118 
z
" style="fill:#b8860b;"/>
   </g>
   <g id="patch_7">
    <path clip-path="url(#p79840e22b9)" d="M 108.303909 218.852246 
L 111.557312 218.852246 
L 111.557312 213.201484 
L 108.303909 213.201484 
z
" style="fill:#b8860b;"/>
   </g>
   <g id="patch_8">
    <path clip-path="url(#p79840e22b9)" d="M 120.504172 218.852246 
L 123.757576 218.852246 
L 123.757576 174.776306 
L 120.504172 174.776306 
z
" style="fill:#b8860b;"/>
   </g>
   <g id="patch_9">
    <path clip-path="url(#p79840e22b9)" d="M 124.570927 218.852246 
L 127.82433 218.852246 
L 127.82433 162.344631 
L 124.570927 162.344631 
z
" style="fill:#b8860b;"/>
   </g>
   <g id="patch_10">
    <path clip-path="url(#p79840e22b9)" d="M 128.637681 218.852246 
L 131.891085 218.852246 
L 131.891085 205.290418 
L 128.637681 205.290418 
z
"/>
   </g>
   <g id="patch_11">
    <path clip-path="url(#p79840e22b9)" d="M 132.704436 218.852246 
L 135.957839 218.852246 
L 135.957839 173.646154 
L 132.704436 173.646154 
z
" style="fill:#b8860b;"/>
   </g>
   <g id="patch_12">
    <path clip-path="url(#p79840e22b9)" d="M 136.77119 218.852246 
L 140.024594 218.852246 
L 140.024594 198.509505 
L 136.77119 198.509505 
z
"/>
   </g>
   <g id="patch_13">
    <path clip-path="url(#p79840e22b9)" d="M 140.837945 218.852246 
L 144.091348 218.852246 
L 144.091348 132.960671 
L 140.837945 132.960671 
z
" style="fill:#b8860b;"/>
   </g>
   <g id="patch_14">
    <path clip-path="url(#p79840e22b9)" d="M 144.904699 218.852246 
L 148.158103 218.852246 
L 148.158103 175.906459 
L 144.904699 175.906459 
z
" style="fill:#b8860b;"/>
   </g>
   <g id="patch_15">
    <path clip-path="url(#p79840e22b9)" d="M 148.971454 218.852246 
L 152.224857 218.852246 
L 152.224857 103.576712 
L 148.971454 103.576712 
z
" style="fill:#b8860b;"/>
   </g>
   <g id="patch_16">
    <path clip-path="url(#p79840e22b9)" d="M 153.038208 218.852246 
L 156.291612 218.852246 
L 156.291612 148.782803 
L 153.038208 148.782803 
z
" style="fill:#b8860b;"/>
   </g>
   <g id="patch_17">
    <path clip-path="url(#p79840e22b9)" d="M 157.104963 218.852246 
L 160.358366 218.852246 
L 160.358366 129.570214 
L 157.104963 129.570214 
z
" style="fill:#b8860b;"/>
   </g>
   <g id="patch_18">
    <path clip-path="url(#p79840e22b9)" d="M 161.171717 218.852246 
L 164.425121 218.852246 
L 164.425121 195.119048 
L 161.171717 195.119048 
z
" style="fill:#b8860b;"/>
   </g>
   <g id="patch_19">
    <path clip-path="url(#p79840e22b9)" d="M 165.238472 218.852246 
L 168.491875 218.852246 
L 168.491875 183.817525 
L 165.238472 183.817525 
z
" style="fill:#b8860b;"/>
   </g>
   <g id="patch_20">
    <path clip-path="url(#p79840e22b9)" d="M 169.305226 218.852246 
L 172.55863 218.852246 
L 172.55863 118.268691 
L 169.305226 118.268691 
z
" style="fill:#b8860b;"/>
   </g>
   <g id="patch_21">
    <path clip-path="url(#p79840e22b9)" d="M 185.572244 218.852246 
L 188.825648 218.852246 
L 188.825648 108.097321 
L 185.572244 108.097321 
z
" style="fill:#b8860b;"/>
   </g>
   <g id="patch_22">
    <path clip-path="url(#p79840e22b9)" d="M 173.371981 218.852246 
L 176.625384 218.852246 
L 176.625384 127.30991 
L 173.371981 127.30991 
z
" style="fill:#b8860b;"/>
   </g>
   <g id="patch_23">
    <path clip-path="url(#p79840e22b9)" d="M 177.438735 218.852246 
L 180.692139 218.852246 
L 180.692139 130.700367 
L 177.438735 130.700367 
z
" style="fill:#b8860b;"/>
   </g>
   <g id="patch_24">
    <path clip-path="url(#p79840e22b9)" d="M 181.50549 218.852246 
L 184.758893 218.852246 
L 184.758893 153.303413 
L 181.50549 153.303413 
z
" style="fill:#b8860b;"/>
   </g>
   <g id="patch_25">
    <path clip-path="url(#p79840e22b9)" d="M 197.772508 218.852246 
L 201.025911 218.852246 
L 201.025911 108.097321 
L 197.772508 108.097321 
z
" style="fill:#b8860b;"/>
   </g>
   <g id="patch_26">
    <path clip-path="url(#p79840e22b9)" d="M 189.638999 218.852246 
L 192.892402 218.852246 
L 192.892402 76.453056 
L 189.638999 76.453056 
z
" style="fill:#b8860b;"/>
   </g>
   <g id="patch_27">
    <path clip-path="url(#p79840e22b9)" d="M 193.705753 218.852246 
L 196.959157 218.852246 
L 196.959157 83.23397 
L 193.705753 83.23397 
z
" style="fill:#b8860b;"/>
   </g>
   <g id="patch_28">
    <path clip-path="url(#p79840e22b9)" d="M 201.839262 218.852246 
L 205.092666 218.852246 
L 205.092666 181.55722 
L 201.839262 181.55722 
z
" style="fill:#b8860b;"/>
   </g>
   <g id="patch_29">
    <path clip-path="url(#p79840e22b9)" d="M 205.906017 218.852246 
L 209.15942 218.852246 
L 209.15942 61.761077 
L 205.906017 61.761077 
z
"/>
   </g>
   <g id="patch_30">
    <path clip-path="url(#p79840e22b9)" d="M 209.972771 218.852246 
L 213.226175 218.852246 
L 213.226175 144.262194 
L 209.972771 144.262194 
z
" style="fill:#b8860b;"/>
   </g>
   <g id="patch_31">
    <path clip-path="url(#p79840e22b9)" d="M 214.039526 218.852246 
L 217.292929 218.852246 
L 217.292929 91.145036 
L 214.039526 91.145036 
z
" style="fill:#b8860b;"/>
   </g>
   <g id="patch_32">
    <path clip-path="url(#p79840e22b9)" d="M 218.10628 218.852246 
L 221.359684 218.852246 
L 221.359684 83.23397 
L 218.10628 83.23397 
z
" style="fill:#b8860b;"/>
   </g>
   <g id="patch_33">
    <path clip-path="url(#p79840e22b9)" d="M 222.173035 218.852246 
L 225.426438 218.852246 
L 225.426438 36.897726 
L 222.173035 36.897726 
z
" style="fill:#b8860b;"/>
   </g>
   <g id="patch_34">
    <path clip-path="url(#p79840e22b9)" d="M 226.239789 218.852246 
L 229.493193 218.852246 
L 229.493193 86.624427 
L 226.239789 86.624427 
z
" style="fill:#b8860b;"/>
   </g>
   <g id="patch_35">
    <path clip-path="url(#p79840e22b9)" d="M 230.306544 218.852246 
L 233.559947 218.852246 
L 233.559947 128.440062 
L 230.306544 128.440062 
z
" style="fill:#b8860b;"/>
   </g>
   <g id="patch_36">
    <path clip-path="url(#p79840e22b9)" d="M 234.373298 218.852246 
L 237.626702 218.852246 
L 237.626702 54.980163 
L 234.373298 54.980163 
z
"/>
   </g>
   <g id="patch_37">
    <path clip-path="url(#p79840e22b9)" d="M 238.440053 218.852246 
L 241.693456 218.852246 
L 241.693456 87.754579 
L 238.440053 87.754579 
z
" style="fill:#b8860b;"/>
   </g>
   <g id="patch_38">
    <path clip-path="url(#p79840e22b9)" d="M 242.506807 218.852246 
L 245.760211 218.852246 
L 245.760211 127.30991 
L 242.506807 127.30991 
z
" style="fill:#b8860b;"/>
   </g>
   <g id="patch_39">
    <path clip-path="url(#p79840e22b9)" d="M 246.573562 218.852246 
L 249.826965 218.852246 
L 249.826965 132.960671 
L 246.573562 132.960671 
z
" style="fill:#b8860b;"/>
   </g>
   <g id="patch_40">
    <path clip-path="url(#p79840e22b9)" d="M 250.640316 218.852246 
L 253.89372 218.852246 
L 253.89372 151.043108 
L 250.640316 151.043108 
z
" style="fill:#b8860b;"/>
   </g>
   <g id="patch_41">
    <path clip-path="url(#p79840e22b9)" d="M 254.707071 218.852246 
L 257.960474 218.852246 
L 257.960474 158.954174 
L 254.707071 158.954174 
z
" style="fill:#b8860b;"/>
   </g>
   <g id="patch_42">
    <path clip-path="url(#p79840e22b9)" d="M 258.773825 218.852246 
L 262.027229 218.852246 
L 262.027229 175.906459 
L 258.773825 175.906459 
z
" style="fill:#b8860b;"/>
   </g>
   <g id="patch_43">
    <path clip-path="url(#p79840e22b9)" d="M 262.84058 218.852246 
L 266.093983 218.852246 
L 266.093983 151.043108 
L 262.84058 151.043108 
z
" style="fill:#b8860b;"/>
   </g>
   <g id="patch_44">
    <path clip-path="url(#p79840e22b9)" d="M 266.907334 218.852246 
L 270.160738 218.852246 
L 270.160738 154.433565 
L 266.907334 154.433565 
z
" style="fill:#b8860b;"/>
   </g>
   <g id="patch_45">
    <path clip-path="url(#p79840e22b9)" d="M 270.974089 218.852246 
L 274.227492 218.852246 
L 274.227492 161.214479 
L 270.974089 161.214479 
z
" style="fill:#b8860b;"/>
   </g>
   <g id="patch_46">
    <path clip-path="url(#p79840e22b9)" d="M 275.040843 218.852246 
L 278.294247 218.852246 
L 278.294247 188.338134 
L 275.040843 188.338134 
z
" style="fill:#b8860b;"/>
   </g>
   <g id="patch_47">
    <path clip-path="url(#p79840e22b9)" d="M 279.107598 218.852246 
L 282.361001 218.852246 
L 282.361001 173.646154 
L 279.107598 173.646154 
z
" style="fill:#b8860b;"/>
   </g>
   <g id="patch_48">
    <path clip-path="url(#p79840e22b9)" d="M 283.174352 218.852246 
L 286.427756 218.852246 
L 286.427756 143.132042 
L 283.174352 143.132042 
z
" style="fill:#b8860b;"/>
   </g>
   <g id="patch_49">
    <path clip-path="url(#p79840e22b9)" d="M 287.241107 218.852246 
L 290.49451 218.852246 
L 290.49451 193.988895 
L 287.241107 193.988895 
z
" style="fill:#b8860b;"/>
   </g>
   <g id="patch_50">
    <path clip-path="url(#p79840e22b9)" d="M 291.307861 218.852246 
L 294.561265 218.852246 
L 294.561265 155.563717 
L 291.307861 155.563717 
z
" style="fill:#b8860b;"/>
   </g>
   <g id="patch_51">
    <path clip-path="url(#p79840e22b9)" d="M 295.374616 218.852246 
L 298.628019 218.852246 
L 298.628019 206.420571 
L 295.374616 206.420571 
z
" style="fill:#b8860b;"/>
   </g>
   <g id="patch_52">
    <path clip-path="url(#p79840e22b9)" d="M 299.44137 218.852246 
L 302.694774 218.852246 
L 302.694774 146.522499 
L 299.44137 146.522499 
z
" style="fill:#b8860b;"/>
   </g>
   <g id="patch_53">
    <path clip-path="url(#p79840e22b9)" d="M 303.508125 218.852246 
L 306.761528 218.852246 
L 306.761528 175.906459 
L 303.508125 175.906459 
z
" style="fill:#b8860b;"/>
   </g>
   <g id="patch_54">
    <path clip-path="url(#p79840e22b9)" d="M 307.574879 218.852246 
L 310.828283 218.852246 
L 310.828283 170.255697 
L 307.574879 170.255697 
z
" style="fill:#b8860b;"/>
   </g>
   <g id="patch_55">
    <path clip-path="url(#p79840e22b9)" d="M 311.641634 218.852246 
L 314.895037 218.852246 
L 314.895037 209.811028 
L 311.641634 209.811028 
z
" style="fill:#b8860b;"/>
   </g>
   <g id="patch_56">
    <path clip-path="url(#p79840e22b9)" d="M 315.708388 218.852246 
L 318.961792 218.852246 
L 318.961792 203.030114 
L 315.708388 203.030114 
z
" style="fill:#b8860b;"/>
   </g>
   <g id="patch_57">
    <path clip-path="url(#p79840e22b9)" d="M 319.775143 218.852246 
L 323.028546 218.852246 
L 323.028546 207.550723 
L 319.775143 207.550723 
z
" style="fill:#b8860b;"/>
   </g>
   <g id="patch_58">
    <path clip-path="url(#p79840e22b9)" d="M 323.841897 218.852246 
L 327.095301 218.852246 
L 327.095301 213.201484 
L 323.841897 213.201484 
z
" style="fill:#b8860b;"/>
   </g>
   <g id="patch_59">
    <path clip-path="url(#p79840e22b9)" d="M 327.908652 218.852246 
L 331.162055 218.852246 
L 331.162055 201.899961 
L 327.908652 201.899961 
z
" style="fill:#b8860b;"/>
   </g>
   <g id="patch_60">
    <path clip-path="url(#p79840e22b9)" d="M 331.975406 218.852246 
L 335.22881 218.852246 
L 335.22881 215.461789 
L 331.975406 215.461789 
z
" style="fill:#b8860b;"/>
   </g>
   <g id="patch_61">
    <path clip-path="url(#p79840e22b9)" d="M 340.108915 218.852246 
L 343.362319 218.852246 
L 343.362319 210.94118 
L 340.108915 210.94118 
z
" style="fill:#b8860b;"/>
   </g>
   <g id="patch_62">
    <path clip-path="url(#p79840e22b9)" d="M 344.17567 218.852246 
L 347.429073 218.852246 
L 347.429073 216.591941 
L 344.17567 216.591941 
z
" style="fill:#b8860b;"/>
   </g>
   <g id="patch_63">
    <path clip-path="url(#p79840e22b9)" d="M 348.242424 218.852246 
L 351.495828 218.852246 
L 351.495828 212.071332 
L 348.242424 212.071332 
z
" style="fill:#b8860b;"/>
   </g>
   <g id="patch_64">
    <path clip-path="url(#p79840e22b9)" d="M 352.309179 218.852246 
L 355.562582 218.852246 
L 355.562582 205.290418 
L 352.309179 205.290418 
z
" style="fill:#b8860b;"/>
   </g>
   <g id="patch_65">
    <path clip-path="url(#p79840e22b9)" d="M 356.375933 218.852246 
L 359.629337 218.852246 
L 359.629337 207.550723 
L 356.375933 207.550723 
z
" style="fill:#b8860b;"/>
   </g>
   <g id="patch_66">
    <path clip-path="url(#p79840e22b9)" d="M 360.442688 218.852246 
L 363.696091 218.852246 
L 363.696091 214.331637 
L 360.442688 214.331637 
z
" style="fill:#b8860b;"/>
   </g>
   <g id="patch_67">
    <path clip-path="url(#p79840e22b9)" d="M 364.509442 218.852246 
L 367.762846 218.852246 
L 367.762846 217.722094 
L 364.509442 217.722094 
z
" style="fill:#b8860b;"/>
   </g>
   <g id="patch_68">
    <path clip-path="url(#p79840e22b9)" d="M 368.576197 218.852246 
L 371.8296 218.852246 
L 371.8296 201.899961 
L 368.576197 201.899961 
z
" style="fill:#b8860b;"/>
   </g>
   <g id="patch_69">
    <path clip-path="url(#p79840e22b9)" d="M 372.642951 218.852246 
L 375.896355 218.852246 
L 375.896355 209.811028 
L 372.642951 209.811028 
z
" style="fill:#b8860b;"/>
   </g>
   <g id="patch_70">
    <path clip-path="url(#p79840e22b9)" d="M 376.709706 218.852246 
L 379.963109 218.852246 
L 379.963109 212.071332 
L 376.709706 212.071332 
z
" style="fill:#b8860b;"/>
   </g>
   <g id="patch_71">
    <path clip-path="url(#p79840e22b9)" d="M 380.77646 218.852246 
L 384.029864 218.852246 
L 384.029864 210.94118 
L 380.77646 210.94118 
z
" style="fill:#b8860b;"/>
   </g>
   <g id="patch_72">
    <path clip-path="url(#p79840e22b9)" d="M 384.843215 218.852246 
L 388.096618 218.852246 
L 388.096618 195.119048 
L 384.843215 195.119048 
z
" style="fill:#b8860b;"/>
   </g>
   <g id="patch_73">
    <path clip-path="url(#p79840e22b9)" d="M 388.909969 218.852246 
L 392.163373 218.852246 
L 392.163373 214.331637 
L 388.909969 214.331637 
z
" style="fill:#b8860b;"/>
   </g>
   <g id="patch_74">
    <path clip-path="url(#p79840e22b9)" d="M 392.976724 218.852246 
L 396.230127 218.852246 
L 396.230127 215.461789 
L 392.976724 215.461789 
z
" style="fill:#b8860b;"/>
   </g>
   <g id="patch_75">
    <path clip-path="url(#p79840e22b9)" d="M 397.043478 218.852246 
L 400.296882 218.852246 
L 400.296882 216.591941 
L 397.043478 216.591941 
z
" style="fill:#b8860b;"/>
   </g>
   <g id="patch_76">
    <path clip-path="url(#p79840e22b9)" d="M 401.110233 218.852246 
L 404.363636 218.852246 
L 404.363636 214.331637 
L 401.110233 214.331637 
z
" style="fill:#b8860b;"/>
   </g>
   <g id="matplotlib.axis_1">
    <g id="xtick_1">
     <g id="line2d_1">
      <defs>
       <path d="M 0 0 
L 0 3.5 
" id="mb6d7fd79ff" style="stroke:#000000;stroke-width:0.8;"/>
      </defs>
      <g>
       <use style="stroke:#000000;stroke-width:0.8;" x="69.263065" xlink:href="#mb6d7fd79ff" y="218.852246"/>
      </g>
     </g>
     <g id="text_1">
      <!-- 25/02/2020 -->
      <defs>
       <path d="M 19.1875 8.296875 
L 53.609375 8.296875 
L 53.609375 0 
L 7.328125 0 
L 7.328125 8.296875 
Q 12.9375 14.109375 22.625 23.890625 
Q 32.328125 33.6875 34.8125 36.53125 
Q 39.546875 41.84375 41.421875 45.53125 
Q 43.3125 49.21875 43.3125 52.78125 
Q 43.3125 58.59375 39.234375 62.25 
Q 35.15625 65.921875 28.609375 65.921875 
Q 23.96875 65.921875 18.8125 64.3125 
Q 13.671875 62.703125 7.8125 59.421875 
L 7.8125 69.390625 
Q 13.765625 71.78125 18.9375 73 
Q 24.125 74.21875 28.421875 74.21875 
Q 39.75 74.21875 46.484375 68.546875 
Q 53.21875 62.890625 53.21875 53.421875 
Q 53.21875 48.921875 51.53125 44.890625 
Q 49.859375 40.875 45.40625 35.40625 
Q 44.1875 33.984375 37.640625 27.21875 
Q 31.109375 20.453125 19.1875 8.296875 
z
" id="DejaVuSans-50"/>
       <path d="M 10.796875 72.90625 
L 49.515625 72.90625 
L 49.515625 64.59375 
L 19.828125 64.59375 
L 19.828125 46.734375 
Q 21.96875 47.46875 24.109375 47.828125 
Q 26.265625 48.1875 28.421875 48.1875 
Q 40.625 48.1875 47.75 41.5 
Q 54.890625 34.8125 54.890625 23.390625 
Q 54.890625 11.625 47.5625 5.09375 
Q 40.234375 -1.421875 26.90625 -1.421875 
Q 22.3125 -1.421875 17.546875 -0.640625 
Q 12.796875 0.140625 7.71875 1.703125 
L 7.71875 11.625 
Q 12.109375 9.234375 16.796875 8.0625 
Q 21.484375 6.890625 26.703125 6.890625 
Q 35.15625 6.890625 40.078125 11.328125 
Q 45.015625 15.765625 45.015625 23.390625 
Q 45.015625 31 40.078125 35.4375 
Q 35.15625 39.890625 26.703125 39.890625 
Q 22.75 39.890625 18.8125 39.015625 
Q 14.890625 38.140625 10.796875 36.28125 
z
" id="DejaVuSans-53"/>
       <path d="M 25.390625 72.90625 
L 33.6875 72.90625 
L 8.296875 -9.28125 
L 0 -9.28125 
z
" id="DejaVuSans-47"/>
       <path d="M 31.78125 66.40625 
Q 24.171875 66.40625 20.328125 58.90625 
Q 16.5 51.421875 16.5 36.375 
Q 16.5 21.390625 20.328125 13.890625 
Q 24.171875 6.390625 31.78125 6.390625 
Q 39.453125 6.390625 43.28125 13.890625 
Q 47.125 21.390625 47.125 36.375 
Q 47.125 51.421875 43.28125 58.90625 
Q 39.453125 66.40625 31.78125 66.40625 
z
M 31.78125 74.21875 
Q 44.046875 74.21875 50.515625 64.515625 
Q 56.984375 54.828125 56.984375 36.375 
Q 56.984375 17.96875 50.515625 8.265625 
Q 44.046875 -1.421875 31.78125 -1.421875 
Q 19.53125 -1.421875 13.0625 8.265625 
Q 6.59375 17.96875 6.59375 36.375 
Q 6.59375 54.828125 13.0625 64.515625 
Q 19.53125 74.21875 31.78125 74.21875 
z
" id="DejaVuSans-48"/>
      </defs>
      <g transform="translate(18.307682 261.251436)rotate(-30)scale(0.1 -0.1)">
       <use xlink:href="#DejaVuSans-50"/>
       <use x="63.623047" xlink:href="#DejaVuSans-53"/>
       <use x="127.246094" xlink:href="#DejaVuSans-47"/>
       <use x="160.9375" xlink:href="#DejaVuSans-48"/>
       <use x="224.560547" xlink:href="#DejaVuSans-50"/>
       <use x="288.183594" xlink:href="#DejaVuSans-47"/>
       <use x="321.875" xlink:href="#DejaVuSans-50"/>
       <use x="385.498047" xlink:href="#DejaVuSans-48"/>
       <use x="449.121094" xlink:href="#DejaVuSans-50"/>
       <use x="512.744141" xlink:href="#DejaVuSans-48"/>
      </g>
     </g>
    </g>
    <g id="xtick_2">
     <g id="line2d_2">
      <g>
       <use style="stroke:#000000;stroke-width:0.8;" x="97.730347" xlink:href="#mb6d7fd79ff" y="218.852246"/>
      </g>
     </g>
     <g id="text_2">
      <!-- 03/03/2020 -->
      <defs>
       <path d="M 40.578125 39.3125 
Q 47.65625 37.796875 51.625 33 
Q 55.609375 28.21875 55.609375 21.1875 
Q 55.609375 10.40625 48.1875 4.484375 
Q 40.765625 -1.421875 27.09375 -1.421875 
Q 22.515625 -1.421875 17.65625 -0.515625 
Q 12.796875 0.390625 7.625 2.203125 
L 7.625 11.71875 
Q 11.71875 9.328125 16.59375 8.109375 
Q 21.484375 6.890625 26.8125 6.890625 
Q 36.078125 6.890625 40.9375 10.546875 
Q 45.796875 14.203125 45.796875 21.1875 
Q 45.796875 27.640625 41.28125 31.265625 
Q 36.765625 34.90625 28.71875 34.90625 
L 20.21875 34.90625 
L 20.21875 43.015625 
L 29.109375 43.015625 
Q 36.375 43.015625 40.234375 45.921875 
Q 44.09375 48.828125 44.09375 54.296875 
Q 44.09375 59.90625 40.109375 62.90625 
Q 36.140625 65.921875 28.71875 65.921875 
Q 24.65625 65.921875 20.015625 65.03125 
Q 15.375 64.15625 9.8125 62.3125 
L 9.8125 71.09375 
Q 15.4375 72.65625 20.34375 73.4375 
Q 25.25 74.21875 29.59375 74.21875 
Q 40.828125 74.21875 47.359375 69.109375 
Q 53.90625 64.015625 53.90625 55.328125 
Q 53.90625 49.265625 50.4375 45.09375 
Q 46.96875 40.921875 40.578125 39.3125 
z
" id="DejaVuSans-51"/>
      </defs>
      <g transform="translate(46.774964 261.251436)rotate(-30)scale(0.1 -0.1)">
       <use xlink:href="#DejaVuSans-48"/>
       <use x="63.623047" xlink:href="#DejaVuSans-51"/>
       <use x="127.246094" xlink:href="#DejaVuSans-47"/>
       <use x="160.9375" xlink:href="#DejaVuSans-48"/>
       <use x="224.560547" xlink:href="#DejaVuSans-51"/>
       <use x="288.183594" xlink:href="#DejaVuSans-47"/>
       <use x="321.875" xlink:href="#DejaVuSans-50"/>
       <use x="385.498047" xlink:href="#DejaVuSans-48"/>
       <use x="449.121094" xlink:href="#DejaVuSans-50"/>
       <use x="512.744141" xlink:href="#DejaVuSans-48"/>
      </g>
     </g>
    </g>
    <g id="xtick_3">
     <g id="line2d_3">
      <g>
       <use style="stroke:#000000;stroke-width:0.8;" x="126.197628" xlink:href="#mb6d7fd79ff" y="218.852246"/>
      </g>
     </g>
     <g id="text_3">
      <!-- 10/03/2020 -->
      <defs>
       <path d="M 12.40625 8.296875 
L 28.515625 8.296875 
L 28.515625 63.921875 
L 10.984375 60.40625 
L 10.984375 69.390625 
L 28.421875 72.90625 
L 38.28125 72.90625 
L 38.28125 8.296875 
L 54.390625 8.296875 
L 54.390625 0 
L 12.40625 0 
z
" id="DejaVuSans-49"/>
      </defs>
      <g transform="translate(75.242245 261.251436)rotate(-30)scale(0.1 -0.1)">
       <use xlink:href="#DejaVuSans-49"/>
       <use x="63.623047" xlink:href="#DejaVuSans-48"/>
       <use x="127.246094" xlink:href="#DejaVuSans-47"/>
       <use x="160.9375" xlink:href="#DejaVuSans-48"/>
       <use x="224.560547" xlink:href="#DejaVuSans-51"/>
       <use x="288.183594" xlink:href="#DejaVuSans-47"/>
       <use x="321.875" xlink:href="#DejaVuSans-50"/>
       <use x="385.498047" xlink:href="#DejaVuSans-48"/>
       <use x="449.121094" xlink:href="#DejaVuSans-50"/>
       <use x="512.744141" xlink:href="#DejaVuSans-48"/>
      </g>
     </g>
    </g>
    <g id="xtick_4">
     <g id="line2d_4">
      <g>
       <use style="stroke:#000000;stroke-width:0.8;" x="154.66491" xlink:href="#mb6d7fd79ff" y="218.852246"/>
      </g>
     </g>
     <g id="text_4">
      <!-- 17/03/2020 -->
      <defs>
       <path d="M 8.203125 72.90625 
L 55.078125 72.90625 
L 55.078125 68.703125 
L 28.609375 0 
L 18.3125 0 
L 43.21875 64.59375 
L 8.203125 64.59375 
z
" id="DejaVuSans-55"/>
      </defs>
      <g transform="translate(103.709527 261.251436)rotate(-30)scale(0.1 -0.1)">
       <use xlink:href="#DejaVuSans-49"/>
       <use x="63.623047" xlink:href="#DejaVuSans-55"/>
       <use x="127.246094" xlink:href="#DejaVuSans-47"/>
       <use x="160.9375" xlink:href="#DejaVuSans-48"/>
       <use x="224.560547" xlink:href="#DejaVuSans-51"/>
       <use x="288.183594" xlink:href="#DejaVuSans-47"/>
       <use x="321.875" xlink:href="#DejaVuSans-50"/>
       <use x="385.498047" xlink:href="#DejaVuSans-48"/>
       <use x="449.121094" xlink:href="#DejaVuSans-50"/>
       <use x="512.744141" xlink:href="#DejaVuSans-48"/>
      </g>
     </g>
    </g>
    <g id="xtick_5">
     <g id="line2d_5">
      <g>
       <use style="stroke:#000000;stroke-width:0.8;" x="183.132191" xlink:href="#mb6d7fd79ff" y="218.852246"/>
      </g>
     </g>
     <g id="text_5">
      <!-- 24/03/2020 -->
      <defs>
       <path d="M 37.796875 64.3125 
L 12.890625 25.390625 
L 37.796875 25.390625 
z
M 35.203125 72.90625 
L 47.609375 72.90625 
L 47.609375 25.390625 
L 58.015625 25.390625 
L 58.015625 17.1875 
L 47.609375 17.1875 
L 47.609375 0 
L 37.796875 0 
L 37.796875 17.1875 
L 4.890625 17.1875 
L 4.890625 26.703125 
z
" id="DejaVuSans-52"/>
      </defs>
      <g transform="translate(132.176809 261.251436)rotate(-30)scale(0.1 -0.1)">
       <use xlink:href="#DejaVuSans-50"/>
       <use x="63.623047" xlink:href="#DejaVuSans-52"/>
       <use x="127.246094" xlink:href="#DejaVuSans-47"/>
       <use x="160.9375" xlink:href="#DejaVuSans-48"/>
       <use x="224.560547" xlink:href="#DejaVuSans-51"/>
       <use x="288.183594" xlink:href="#DejaVuSans-47"/>
       <use x="321.875" xlink:href="#DejaVuSans-50"/>
       <use x="385.498047" xlink:href="#DejaVuSans-48"/>
       <use x="449.121094" xlink:href="#DejaVuSans-50"/>
       <use x="512.744141" xlink:href="#DejaVuSans-48"/>
      </g>
     </g>
    </g>
    <g id="xtick_6">
     <g id="line2d_6">
      <g>
       <use style="stroke:#000000;stroke-width:0.8;" x="211.599473" xlink:href="#mb6d7fd79ff" y="218.852246"/>
      </g>
     </g>
     <g id="text_6">
      <!-- 31/03/2020 -->
      <g transform="translate(160.64409 261.251436)rotate(-30)scale(0.1 -0.1)">
       <use xlink:href="#DejaVuSans-51"/>
       <use x="63.623047" xlink:href="#DejaVuSans-49"/>
       <use x="127.246094" xlink:href="#DejaVuSans-47"/>
       <use x="160.9375" xlink:href="#DejaVuSans-48"/>
       <use x="224.560547" xlink:href="#DejaVuSans-51"/>
       <use x="288.183594" xlink:href="#DejaVuSans-47"/>
       <use x="321.875" xlink:href="#DejaVuSans-50"/>
       <use x="385.498047" xlink:href="#DejaVuSans-48"/>
       <use x="449.121094" xlink:href="#DejaVuSans-50"/>
       <use x="512.744141" xlink:href="#DejaVuSans-48"/>
      </g>
     </g>
    </g>
    <g id="xtick_7">
     <g id="line2d_7">
      <g>
       <use style="stroke:#000000;stroke-width:0.8;" x="240.066755" xlink:href="#mb6d7fd79ff" y="218.852246"/>
      </g>
     </g>
     <g id="text_7">
      <!-- 07/04/2020 -->
      <g transform="translate(189.111372 261.251436)rotate(-30)scale(0.1 -0.1)">
       <use xlink:href="#DejaVuSans-48"/>
       <use x="63.623047" xlink:href="#DejaVuSans-55"/>
       <use x="127.246094" xlink:href="#DejaVuSans-47"/>
       <use x="160.9375" xlink:href="#DejaVuSans-48"/>
       <use x="224.560547" xlink:href="#DejaVuSans-52"/>
       <use x="288.183594" xlink:href="#DejaVuSans-47"/>
       <use x="321.875" xlink:href="#DejaVuSans-50"/>
       <use x="385.498047" xlink:href="#DejaVuSans-48"/>
       <use x="449.121094" xlink:href="#DejaVuSans-50"/>
       <use x="512.744141" xlink:href="#DejaVuSans-48"/>
      </g>
     </g>
    </g>
    <g id="xtick_8">
     <g id="line2d_8">
      <g>
       <use style="stroke:#000000;stroke-width:0.8;" x="268.534036" xlink:href="#mb6d7fd79ff" y="218.852246"/>
      </g>
     </g>
     <g id="text_8">
      <!-- 14/04/2020 -->
      <g transform="translate(217.578653 261.251436)rotate(-30)scale(0.1 -0.1)">
       <use xlink:href="#DejaVuSans-49"/>
       <use x="63.623047" xlink:href="#DejaVuSans-52"/>
       <use x="127.246094" xlink:href="#DejaVuSans-47"/>
       <use x="160.9375" xlink:href="#DejaVuSans-48"/>
       <use x="224.560547" xlink:href="#DejaVuSans-52"/>
       <use x="288.183594" xlink:href="#DejaVuSans-47"/>
       <use x="321.875" xlink:href="#DejaVuSans-50"/>
       <use x="385.498047" xlink:href="#DejaVuSans-48"/>
       <use x="449.121094" xlink:href="#DejaVuSans-50"/>
       <use x="512.744141" xlink:href="#DejaVuSans-48"/>
      </g>
     </g>
    </g>
    <g id="xtick_9">
     <g id="line2d_9">
      <g>
       <use style="stroke:#000000;stroke-width:0.8;" x="297.001318" xlink:href="#mb6d7fd79ff" y="218.852246"/>
      </g>
     </g>
     <g id="text_9">
      <!-- 21/04/2020 -->
      <g transform="translate(246.045935 261.251436)rotate(-30)scale(0.1 -0.1)">
       <use xlink:href="#DejaVuSans-50"/>
       <use x="63.623047" xlink:href="#DejaVuSans-49"/>
       <use x="127.246094" xlink:href="#DejaVuSans-47"/>
       <use x="160.9375" xlink:href="#DejaVuSans-48"/>
       <use x="224.560547" xlink:href="#DejaVuSans-52"/>
       <use x="288.183594" xlink:href="#DejaVuSans-47"/>
       <use x="321.875" xlink:href="#DejaVuSans-50"/>
       <use x="385.498047" xlink:href="#DejaVuSans-48"/>
       <use x="449.121094" xlink:href="#DejaVuSans-50"/>
       <use x="512.744141" xlink:href="#DejaVuSans-48"/>
      </g>
     </g>
    </g>
    <g id="xtick_10">
     <g id="line2d_10">
      <g>
       <use style="stroke:#000000;stroke-width:0.8;" x="325.468599" xlink:href="#mb6d7fd79ff" y="218.852246"/>
      </g>
     </g>
     <g id="text_10">
      <!-- 28/04/2020 -->
      <defs>
       <path d="M 31.78125 34.625 
Q 24.75 34.625 20.71875 30.859375 
Q 16.703125 27.09375 16.703125 20.515625 
Q 16.703125 13.921875 20.71875 10.15625 
Q 24.75 6.390625 31.78125 6.390625 
Q 38.8125 6.390625 42.859375 10.171875 
Q 46.921875 13.96875 46.921875 20.515625 
Q 46.921875 27.09375 42.890625 30.859375 
Q 38.875 34.625 31.78125 34.625 
z
M 21.921875 38.8125 
Q 15.578125 40.375 12.03125 44.71875 
Q 8.5 49.078125 8.5 55.328125 
Q 8.5 64.0625 14.71875 69.140625 
Q 20.953125 74.21875 31.78125 74.21875 
Q 42.671875 74.21875 48.875 69.140625 
Q 55.078125 64.0625 55.078125 55.328125 
Q 55.078125 49.078125 51.53125 44.71875 
Q 48 40.375 41.703125 38.8125 
Q 48.828125 37.15625 52.796875 32.3125 
Q 56.78125 27.484375 56.78125 20.515625 
Q 56.78125 9.90625 50.3125 4.234375 
Q 43.84375 -1.421875 31.78125 -1.421875 
Q 19.734375 -1.421875 13.25 4.234375 
Q 6.78125 9.90625 6.78125 20.515625 
Q 6.78125 27.484375 10.78125 32.3125 
Q 14.796875 37.15625 21.921875 38.8125 
z
M 18.3125 54.390625 
Q 18.3125 48.734375 21.84375 45.5625 
Q 25.390625 42.390625 31.78125 42.390625 
Q 38.140625 42.390625 41.71875 45.5625 
Q 45.3125 48.734375 45.3125 54.390625 
Q 45.3125 60.0625 41.71875 63.234375 
Q 38.140625 66.40625 31.78125 66.40625 
Q 25.390625 66.40625 21.84375 63.234375 
Q 18.3125 60.0625 18.3125 54.390625 
z
" id="DejaVuSans-56"/>
      </defs>
      <g transform="translate(274.513216 261.251436)rotate(-30)scale(0.1 -0.1)">
       <use xlink:href="#DejaVuSans-50"/>
       <use x="63.623047" xlink:href="#DejaVuSans-56"/>
       <use x="127.246094" xlink:href="#DejaVuSans-47"/>
       <use x="160.9375" xlink:href="#DejaVuSans-48"/>
       <use x="224.560547" xlink:href="#DejaVuSans-52"/>
       <use x="288.183594" xlink:href="#DejaVuSans-47"/>
       <use x="321.875" xlink:href="#DejaVuSans-50"/>
       <use x="385.498047" xlink:href="#DejaVuSans-48"/>
       <use x="449.121094" xlink:href="#DejaVuSans-50"/>
       <use x="512.744141" xlink:href="#DejaVuSans-48"/>
      </g>
     </g>
    </g>
    <g id="xtick_11">
     <g id="line2d_11">
      <g>
       <use style="stroke:#000000;stroke-width:0.8;" x="353.935881" xlink:href="#mb6d7fd79ff" y="218.852246"/>
      </g>
     </g>
     <g id="text_11">
      <!-- 05/05/2020 -->
      <g transform="translate(302.980498 261.251436)rotate(-30)scale(0.1 -0.1)">
       <use xlink:href="#DejaVuSans-48"/>
       <use x="63.623047" xlink:href="#DejaVuSans-53"/>
       <use x="127.246094" xlink:href="#DejaVuSans-47"/>
       <use x="160.9375" xlink:href="#DejaVuSans-48"/>
       <use x="224.560547" xlink:href="#DejaVuSans-53"/>
       <use x="288.183594" xlink:href="#DejaVuSans-47"/>
       <use x="321.875" xlink:href="#DejaVuSans-50"/>
       <use x="385.498047" xlink:href="#DejaVuSans-48"/>
       <use x="449.121094" xlink:href="#DejaVuSans-50"/>
       <use x="512.744141" xlink:href="#DejaVuSans-48"/>
      </g>
     </g>
    </g>
    <g id="xtick_12">
     <g id="line2d_12">
      <g>
       <use style="stroke:#000000;stroke-width:0.8;" x="382.403162" xlink:href="#mb6d7fd79ff" y="218.852246"/>
      </g>
     </g>
     <g id="text_12">
      <!-- 12/05/2020 -->
      <g transform="translate(331.447779 261.251436)rotate(-30)scale(0.1 -0.1)">
       <use xlink:href="#DejaVuSans-49"/>
       <use x="63.623047" xlink:href="#DejaVuSans-50"/>
       <use x="127.246094" xlink:href="#DejaVuSans-47"/>
       <use x="160.9375" xlink:href="#DejaVuSans-48"/>
       <use x="224.560547" xlink:href="#DejaVuSans-53"/>
       <use x="288.183594" xlink:href="#DejaVuSans-47"/>
       <use x="321.875" xlink:href="#DejaVuSans-50"/>
       <use x="385.498047" xlink:href="#DejaVuSans-48"/>
       <use x="449.121094" xlink:href="#DejaVuSans-50"/>
       <use x="512.744141" xlink:href="#DejaVuSans-48"/>
      </g>
     </g>
    </g>
    <g id="xtick_13">
     <g id="line2d_13">
      <g>
       <use style="stroke:#000000;stroke-width:0.8;" x="410.870444" xlink:href="#mb6d7fd79ff" y="218.852246"/>
      </g>
     </g>
     <g id="text_13">
      <!-- 19/05/2020 -->
      <defs>
       <path d="M 10.984375 1.515625 
L 10.984375 10.5 
Q 14.703125 8.734375 18.5 7.8125 
Q 22.3125 6.890625 25.984375 6.890625 
Q 35.75 6.890625 40.890625 13.453125 
Q 46.046875 20.015625 46.78125 33.40625 
Q 43.953125 29.203125 39.59375 26.953125 
Q 35.25 24.703125 29.984375 24.703125 
Q 19.046875 24.703125 12.671875 31.3125 
Q 6.296875 37.9375 6.296875 49.421875 
Q 6.296875 60.640625 12.9375 67.421875 
Q 19.578125 74.21875 30.609375 74.21875 
Q 43.265625 74.21875 49.921875 64.515625 
Q 56.59375 54.828125 56.59375 36.375 
Q 56.59375 19.140625 48.40625 8.859375 
Q 40.234375 -1.421875 26.421875 -1.421875 
Q 22.703125 -1.421875 18.890625 -0.6875 
Q 15.09375 0.046875 10.984375 1.515625 
z
M 30.609375 32.421875 
Q 37.25 32.421875 41.125 36.953125 
Q 45.015625 41.5 45.015625 49.421875 
Q 45.015625 57.28125 41.125 61.84375 
Q 37.25 66.40625 30.609375 66.40625 
Q 23.96875 66.40625 20.09375 61.84375 
Q 16.21875 57.28125 16.21875 49.421875 
Q 16.21875 41.5 20.09375 36.953125 
Q 23.96875 32.421875 30.609375 32.421875 
z
" id="DejaVuSans-57"/>
      </defs>
      <g transform="translate(359.915061 261.251436)rotate(-30)scale(0.1 -0.1)">
       <use xlink:href="#DejaVuSans-49"/>
       <use x="63.623047" xlink:href="#DejaVuSans-57"/>
       <use x="127.246094" xlink:href="#DejaVuSans-47"/>
       <use x="160.9375" xlink:href="#DejaVuSans-48"/>
       <use x="224.560547" xlink:href="#DejaVuSans-53"/>
       <use x="288.183594" xlink:href="#DejaVuSans-47"/>
       <use x="321.875" xlink:href="#DejaVuSans-50"/>
       <use x="385.498047" xlink:href="#DejaVuSans-48"/>
       <use x="449.121094" xlink:href="#DejaVuSans-50"/>
       <use x="512.744141" xlink:href="#DejaVuSans-48"/>
      </g>
     </g>
    </g>
    <g id="text_14">
     <!-- Day -->
     <defs>
      <path d="M 19.671875 64.796875 
L 19.671875 8.109375 
L 31.59375 8.109375 
Q 46.6875 8.109375 53.6875 14.9375 
Q 60.6875 21.78125 60.6875 36.53125 
Q 60.6875 51.171875 53.6875 57.984375 
Q 46.6875 64.796875 31.59375 64.796875 
z
M 9.8125 72.90625 
L 30.078125 72.90625 
Q 51.265625 72.90625 61.171875 64.09375 
Q 71.09375 55.28125 71.09375 36.53125 
Q 71.09375 17.671875 61.125 8.828125 
Q 51.171875 0 30.078125 0 
L 9.8125 0 
z
" id="DejaVuSans-68"/>
      <path d="M 34.28125 27.484375 
Q 23.390625 27.484375 19.1875 25 
Q 14.984375 22.515625 14.984375 16.5 
Q 14.984375 11.71875 18.140625 8.90625 
Q 21.296875 6.109375 26.703125 6.109375 
Q 34.1875 6.109375 38.703125 11.40625 
Q 43.21875 16.703125 43.21875 25.484375 
L 43.21875 27.484375 
z
M 52.203125 31.203125 
L 52.203125 0 
L 43.21875 0 
L 43.21875 8.296875 
Q 40.140625 3.328125 35.546875 0.953125 
Q 30.953125 -1.421875 24.3125 -1.421875 
Q 15.921875 -1.421875 10.953125 3.296875 
Q 6 8.015625 6 15.921875 
Q 6 25.140625 12.171875 29.828125 
Q 18.359375 34.515625 30.609375 34.515625 
L 43.21875 34.515625 
L 43.21875 35.40625 
Q 43.21875 41.609375 39.140625 45 
Q 35.0625 48.390625 27.6875 48.390625 
Q 23 48.390625 18.546875 47.265625 
Q 14.109375 46.140625 10.015625 43.890625 
L 10.015625 52.203125 
Q 14.9375 54.109375 19.578125 55.046875 
Q 24.21875 56 28.609375 56 
Q 40.484375 56 46.34375 49.84375 
Q 52.203125 43.703125 52.203125 31.203125 
z
" id="DejaVuSans-97"/>
      <path d="M 32.171875 -5.078125 
Q 28.375 -14.84375 24.75 -17.8125 
Q 21.140625 -20.796875 15.09375 -20.796875 
L 7.90625 -20.796875 
L 7.90625 -13.28125 
L 13.1875 -13.28125 
Q 16.890625 -13.28125 18.9375 -11.515625 
Q 21 -9.765625 23.484375 -3.21875 
L 25.09375 0.875 
L 2.984375 54.6875 
L 12.5 54.6875 
L 29.59375 11.921875 
L 46.6875 54.6875 
L 56.203125 54.6875 
z
" id="DejaVuSans-121"/>
     </defs>
     <g transform="translate(226.126563 274.650936)scale(0.1 -0.1)">
      <use xlink:href="#DejaVuSans-68"/>
      <use x="77.001953" xlink:href="#DejaVuSans-97"/>
      <use x="138.28125" xlink:href="#DejaVuSans-121"/>
     </g>
    </g>
   </g>
   <g id="matplotlib.axis_2">
    <g id="ytick_1">
     <g id="line2d_14">
      <defs>
       <path d="M 0 0 
L -3.5 0 
" id="mca9015aa91" style="stroke:#000000;stroke-width:0.8;"/>
      </defs>
      <g>
       <use style="stroke:#000000;stroke-width:0.8;" x="50.8" xlink:href="#mca9015aa91" y="218.852246"/>
      </g>
     </g>
     <g id="text_15">
      <!-- 0 -->
      <g transform="translate(37.4375 222.651465)scale(0.1 -0.1)">
       <use xlink:href="#DejaVuSans-48"/>
      </g>
     </g>
    </g>
    <g id="ytick_2">
     <g id="line2d_15">
      <g>
       <use style="stroke:#000000;stroke-width:0.8;" x="50.8" xlink:href="#mca9015aa91" y="196.2492"/>
      </g>
     </g>
     <g id="text_16">
      <!-- 20 -->
      <g transform="translate(31.075 200.048419)scale(0.1 -0.1)">
       <use xlink:href="#DejaVuSans-50"/>
       <use x="63.623047" xlink:href="#DejaVuSans-48"/>
      </g>
     </g>
    </g>
    <g id="ytick_3">
     <g id="line2d_16">
      <g>
       <use style="stroke:#000000;stroke-width:0.8;" x="50.8" xlink:href="#mca9015aa91" y="173.646154"/>
      </g>
     </g>
     <g id="text_17">
      <!-- 40 -->
      <g transform="translate(31.075 177.445373)scale(0.1 -0.1)">
       <use xlink:href="#DejaVuSans-52"/>
       <use x="63.623047" xlink:href="#DejaVuSans-48"/>
      </g>
     </g>
    </g>
    <g id="ytick_4">
     <g id="line2d_17">
      <g>
       <use style="stroke:#000000;stroke-width:0.8;" x="50.8" xlink:href="#mca9015aa91" y="151.043108"/>
      </g>
     </g>
     <g id="text_18">
      <!-- 60 -->
      <defs>
       <path d="M 33.015625 40.375 
Q 26.375 40.375 22.484375 35.828125 
Q 18.609375 31.296875 18.609375 23.390625 
Q 18.609375 15.53125 22.484375 10.953125 
Q 26.375 6.390625 33.015625 6.390625 
Q 39.65625 6.390625 43.53125 10.953125 
Q 47.40625 15.53125 47.40625 23.390625 
Q 47.40625 31.296875 43.53125 35.828125 
Q 39.65625 40.375 33.015625 40.375 
z
M 52.59375 71.296875 
L 52.59375 62.3125 
Q 48.875 64.0625 45.09375 64.984375 
Q 41.3125 65.921875 37.59375 65.921875 
Q 27.828125 65.921875 22.671875 59.328125 
Q 17.53125 52.734375 16.796875 39.40625 
Q 19.671875 43.65625 24.015625 45.921875 
Q 28.375 48.1875 33.59375 48.1875 
Q 44.578125 48.1875 50.953125 41.515625 
Q 57.328125 34.859375 57.328125 23.390625 
Q 57.328125 12.15625 50.6875 5.359375 
Q 44.046875 -1.421875 33.015625 -1.421875 
Q 20.359375 -1.421875 13.671875 8.265625 
Q 6.984375 17.96875 6.984375 36.375 
Q 6.984375 53.65625 15.1875 63.9375 
Q 23.390625 74.21875 37.203125 74.21875 
Q 40.921875 74.21875 44.703125 73.484375 
Q 48.484375 72.75 52.59375 71.296875 
z
" id="DejaVuSans-54"/>
      </defs>
      <g transform="translate(31.075 154.842327)scale(0.1 -0.1)">
       <use xlink:href="#DejaVuSans-54"/>
       <use x="63.623047" xlink:href="#DejaVuSans-48"/>
      </g>
     </g>
    </g>
    <g id="ytick_5">
     <g id="line2d_18">
      <g>
       <use style="stroke:#000000;stroke-width:0.8;" x="50.8" xlink:href="#mca9015aa91" y="128.440062"/>
      </g>
     </g>
     <g id="text_19">
      <!-- 80 -->
      <g transform="translate(31.075 132.239281)scale(0.1 -0.1)">
       <use xlink:href="#DejaVuSans-56"/>
       <use x="63.623047" xlink:href="#DejaVuSans-48"/>
      </g>
     </g>
    </g>
    <g id="ytick_6">
     <g id="line2d_19">
      <g>
       <use style="stroke:#000000;stroke-width:0.8;" x="50.8" xlink:href="#mca9015aa91" y="105.837016"/>
      </g>
     </g>
     <g id="text_20">
      <!-- 100 -->
      <g transform="translate(24.7125 109.636235)scale(0.1 -0.1)">
       <use xlink:href="#DejaVuSans-49"/>
       <use x="63.623047" xlink:href="#DejaVuSans-48"/>
       <use x="127.246094" xlink:href="#DejaVuSans-48"/>
      </g>
     </g>
    </g>
    <g id="ytick_7">
     <g id="line2d_20">
      <g>
       <use style="stroke:#000000;stroke-width:0.8;" x="50.8" xlink:href="#mca9015aa91" y="83.23397"/>
      </g>
     </g>
     <g id="text_21">
      <!-- 120 -->
      <g transform="translate(24.7125 87.033189)scale(0.1 -0.1)">
       <use xlink:href="#DejaVuSans-49"/>
       <use x="63.623047" xlink:href="#DejaVuSans-50"/>
       <use x="127.246094" xlink:href="#DejaVuSans-48"/>
      </g>
     </g>
    </g>
    <g id="ytick_8">
     <g id="line2d_21">
      <g>
       <use style="stroke:#000000;stroke-width:0.8;" x="50.8" xlink:href="#mca9015aa91" y="60.630924"/>
      </g>
     </g>
     <g id="text_22">
      <!-- 140 -->
      <g transform="translate(24.7125 64.430143)scale(0.1 -0.1)">
       <use xlink:href="#DejaVuSans-49"/>
       <use x="63.623047" xlink:href="#DejaVuSans-52"/>
       <use x="127.246094" xlink:href="#DejaVuSans-48"/>
      </g>
     </g>
    </g>
    <g id="ytick_9">
     <g id="line2d_22">
      <g>
       <use style="stroke:#000000;stroke-width:0.8;" x="50.8" xlink:href="#mca9015aa91" y="38.027878"/>
      </g>
     </g>
     <g id="text_23">
      <!-- 160 -->
      <g transform="translate(24.7125 41.827097)scale(0.1 -0.1)">
       <use xlink:href="#DejaVuSans-49"/>
       <use x="63.623047" xlink:href="#DejaVuSans-54"/>
       <use x="127.246094" xlink:href="#DejaVuSans-48"/>
      </g>
     </g>
    </g>
    <g id="text_24">
     <!-- Numbers of comments -->
     <defs>
      <path d="M 9.8125 72.90625 
L 23.09375 72.90625 
L 55.421875 11.921875 
L 55.421875 72.90625 
L 64.984375 72.90625 
L 64.984375 0 
L 51.703125 0 
L 19.390625 60.984375 
L 19.390625 0 
L 9.8125 0 
z
" id="DejaVuSans-78"/>
      <path d="M 8.5 21.578125 
L 8.5 54.6875 
L 17.484375 54.6875 
L 17.484375 21.921875 
Q 17.484375 14.15625 20.5 10.265625 
Q 23.53125 6.390625 29.59375 6.390625 
Q 36.859375 6.390625 41.078125 11.03125 
Q 45.3125 15.671875 45.3125 23.6875 
L 45.3125 54.6875 
L 54.296875 54.6875 
L 54.296875 0 
L 45.3125 0 
L 45.3125 8.40625 
Q 42.046875 3.421875 37.71875 1 
Q 33.40625 -1.421875 27.6875 -1.421875 
Q 18.265625 -1.421875 13.375 4.4375 
Q 8.5 10.296875 8.5 21.578125 
z
M 31.109375 56 
z
" id="DejaVuSans-117"/>
      <path d="M 52 44.1875 
Q 55.375 50.25 60.0625 53.125 
Q 64.75 56 71.09375 56 
Q 79.640625 56 84.28125 50.015625 
Q 88.921875 44.046875 88.921875 33.015625 
L 88.921875 0 
L 79.890625 0 
L 79.890625 32.71875 
Q 79.890625 40.578125 77.09375 44.375 
Q 74.3125 48.1875 68.609375 48.1875 
Q 61.625 48.1875 57.5625 43.546875 
Q 53.515625 38.921875 53.515625 30.90625 
L 53.515625 0 
L 44.484375 0 
L 44.484375 32.71875 
Q 44.484375 40.625 41.703125 44.40625 
Q 38.921875 48.1875 33.109375 48.1875 
Q 26.21875 48.1875 22.15625 43.53125 
Q 18.109375 38.875 18.109375 30.90625 
L 18.109375 0 
L 9.078125 0 
L 9.078125 54.6875 
L 18.109375 54.6875 
L 18.109375 46.1875 
Q 21.1875 51.21875 25.484375 53.609375 
Q 29.78125 56 35.6875 56 
Q 41.65625 56 45.828125 52.96875 
Q 50 49.953125 52 44.1875 
z
" id="DejaVuSans-109"/>
      <path d="M 48.6875 27.296875 
Q 48.6875 37.203125 44.609375 42.84375 
Q 40.53125 48.484375 33.40625 48.484375 
Q 26.265625 48.484375 22.1875 42.84375 
Q 18.109375 37.203125 18.109375 27.296875 
Q 18.109375 17.390625 22.1875 11.75 
Q 26.265625 6.109375 33.40625 6.109375 
Q 40.53125 6.109375 44.609375 11.75 
Q 48.6875 17.390625 48.6875 27.296875 
z
M 18.109375 46.390625 
Q 20.953125 51.265625 25.265625 53.625 
Q 29.59375 56 35.59375 56 
Q 45.5625 56 51.78125 48.09375 
Q 58.015625 40.1875 58.015625 27.296875 
Q 58.015625 14.40625 51.78125 6.484375 
Q 45.5625 -1.421875 35.59375 -1.421875 
Q 29.59375 -1.421875 25.265625 0.953125 
Q 20.953125 3.328125 18.109375 8.203125 
L 18.109375 0 
L 9.078125 0 
L 9.078125 75.984375 
L 18.109375 75.984375 
z
" id="DejaVuSans-98"/>
      <path d="M 56.203125 29.59375 
L 56.203125 25.203125 
L 14.890625 25.203125 
Q 15.484375 15.921875 20.484375 11.0625 
Q 25.484375 6.203125 34.421875 6.203125 
Q 39.59375 6.203125 44.453125 7.46875 
Q 49.3125 8.734375 54.109375 11.28125 
L 54.109375 2.78125 
Q 49.265625 0.734375 44.1875 -0.34375 
Q 39.109375 -1.421875 33.890625 -1.421875 
Q 20.796875 -1.421875 13.15625 6.1875 
Q 5.515625 13.8125 5.515625 26.8125 
Q 5.515625 40.234375 12.765625 48.109375 
Q 20.015625 56 32.328125 56 
Q 43.359375 56 49.78125 48.890625 
Q 56.203125 41.796875 56.203125 29.59375 
z
M 47.21875 32.234375 
Q 47.125 39.59375 43.09375 43.984375 
Q 39.0625 48.390625 32.421875 48.390625 
Q 24.90625 48.390625 20.390625 44.140625 
Q 15.875 39.890625 15.1875 32.171875 
z
" id="DejaVuSans-101"/>
      <path d="M 41.109375 46.296875 
Q 39.59375 47.171875 37.8125 47.578125 
Q 36.03125 48 33.890625 48 
Q 26.265625 48 22.1875 43.046875 
Q 18.109375 38.09375 18.109375 28.8125 
L 18.109375 0 
L 9.078125 0 
L 9.078125 54.6875 
L 18.109375 54.6875 
L 18.109375 46.1875 
Q 20.953125 51.171875 25.484375 53.578125 
Q 30.03125 56 36.53125 56 
Q 37.453125 56 38.578125 55.875 
Q 39.703125 55.765625 41.0625 55.515625 
z
" id="DejaVuSans-114"/>
      <path d="M 44.28125 53.078125 
L 44.28125 44.578125 
Q 40.484375 46.53125 36.375 47.5 
Q 32.28125 48.484375 27.875 48.484375 
Q 21.1875 48.484375 17.84375 46.4375 
Q 14.5 44.390625 14.5 40.28125 
Q 14.5 37.15625 16.890625 35.375 
Q 19.28125 33.59375 26.515625 31.984375 
L 29.59375 31.296875 
Q 39.15625 29.25 43.1875 25.515625 
Q 47.21875 21.78125 47.21875 15.09375 
Q 47.21875 7.46875 41.1875 3.015625 
Q 35.15625 -1.421875 24.609375 -1.421875 
Q 20.21875 -1.421875 15.453125 -0.5625 
Q 10.6875 0.296875 5.421875 2 
L 5.421875 11.28125 
Q 10.40625 8.6875 15.234375 7.390625 
Q 20.0625 6.109375 24.8125 6.109375 
Q 31.15625 6.109375 34.5625 8.28125 
Q 37.984375 10.453125 37.984375 14.40625 
Q 37.984375 18.0625 35.515625 20.015625 
Q 33.0625 21.96875 24.703125 23.78125 
L 21.578125 24.515625 
Q 13.234375 26.265625 9.515625 29.90625 
Q 5.8125 33.546875 5.8125 39.890625 
Q 5.8125 47.609375 11.28125 51.796875 
Q 16.75 56 26.8125 56 
Q 31.78125 56 36.171875 55.265625 
Q 40.578125 54.546875 44.28125 53.078125 
z
" id="DejaVuSans-115"/>
      <path id="DejaVuSans-32"/>
      <path d="M 30.609375 48.390625 
Q 23.390625 48.390625 19.1875 42.75 
Q 14.984375 37.109375 14.984375 27.296875 
Q 14.984375 17.484375 19.15625 11.84375 
Q 23.34375 6.203125 30.609375 6.203125 
Q 37.796875 6.203125 41.984375 11.859375 
Q 46.1875 17.53125 46.1875 27.296875 
Q 46.1875 37.015625 41.984375 42.703125 
Q 37.796875 48.390625 30.609375 48.390625 
z
M 30.609375 56 
Q 42.328125 56 49.015625 48.375 
Q 55.71875 40.765625 55.71875 27.296875 
Q 55.71875 13.875 49.015625 6.21875 
Q 42.328125 -1.421875 30.609375 -1.421875 
Q 18.84375 -1.421875 12.171875 6.21875 
Q 5.515625 13.875 5.515625 27.296875 
Q 5.515625 40.765625 12.171875 48.375 
Q 18.84375 56 30.609375 56 
z
" id="DejaVuSans-111"/>
      <path d="M 37.109375 75.984375 
L 37.109375 68.5 
L 28.515625 68.5 
Q 23.6875 68.5 21.796875 66.546875 
Q 19.921875 64.59375 19.921875 59.515625 
L 19.921875 54.6875 
L 34.71875 54.6875 
L 34.71875 47.703125 
L 19.921875 47.703125 
L 19.921875 0 
L 10.890625 0 
L 10.890625 47.703125 
L 2.296875 47.703125 
L 2.296875 54.6875 
L 10.890625 54.6875 
L 10.890625 58.5 
Q 10.890625 67.625 15.140625 71.796875 
Q 19.390625 75.984375 28.609375 75.984375 
z
" id="DejaVuSans-102"/>
      <path d="M 48.78125 52.59375 
L 48.78125 44.1875 
Q 44.96875 46.296875 41.140625 47.34375 
Q 37.3125 48.390625 33.40625 48.390625 
Q 24.65625 48.390625 19.8125 42.84375 
Q 14.984375 37.3125 14.984375 27.296875 
Q 14.984375 17.28125 19.8125 11.734375 
Q 24.65625 6.203125 33.40625 6.203125 
Q 37.3125 6.203125 41.140625 7.25 
Q 44.96875 8.296875 48.78125 10.40625 
L 48.78125 2.09375 
Q 45.015625 0.34375 40.984375 -0.53125 
Q 36.96875 -1.421875 32.421875 -1.421875 
Q 20.0625 -1.421875 12.78125 6.34375 
Q 5.515625 14.109375 5.515625 27.296875 
Q 5.515625 40.671875 12.859375 48.328125 
Q 20.21875 56 33.015625 56 
Q 37.15625 56 41.109375 55.140625 
Q 45.0625 54.296875 48.78125 52.59375 
z
" id="DejaVuSans-99"/>
      <path d="M 54.890625 33.015625 
L 54.890625 0 
L 45.90625 0 
L 45.90625 32.71875 
Q 45.90625 40.484375 42.875 44.328125 
Q 39.84375 48.1875 33.796875 48.1875 
Q 26.515625 48.1875 22.3125 43.546875 
Q 18.109375 38.921875 18.109375 30.90625 
L 18.109375 0 
L 9.078125 0 
L 9.078125 54.6875 
L 18.109375 54.6875 
L 18.109375 46.1875 
Q 21.34375 51.125 25.703125 53.5625 
Q 30.078125 56 35.796875 56 
Q 45.21875 56 50.046875 50.171875 
Q 54.890625 44.34375 54.890625 33.015625 
z
" id="DejaVuSans-110"/>
      <path d="M 18.3125 70.21875 
L 18.3125 54.6875 
L 36.8125 54.6875 
L 36.8125 47.703125 
L 18.3125 47.703125 
L 18.3125 18.015625 
Q 18.3125 11.328125 20.140625 9.421875 
Q 21.96875 7.515625 27.59375 7.515625 
L 36.8125 7.515625 
L 36.8125 0 
L 27.59375 0 
Q 17.1875 0 13.234375 3.875 
Q 9.28125 7.765625 9.28125 18.015625 
L 9.28125 47.703125 
L 2.6875 47.703125 
L 2.6875 54.6875 
L 9.28125 54.6875 
L 9.28125 70.21875 
z
" id="DejaVuSans-116"/>
     </defs>
     <g transform="translate(18.632812 180.373779)rotate(-90)scale(0.1 -0.1)">
      <use xlink:href="#DejaVuSans-78"/>
      <use x="74.804688" xlink:href="#DejaVuSans-117"/>
      <use x="138.183594" xlink:href="#DejaVuSans-109"/>
      <use x="235.595703" xlink:href="#DejaVuSans-98"/>
      <use x="299.072266" xlink:href="#DejaVuSans-101"/>
      <use x="360.595703" xlink:href="#DejaVuSans-114"/>
      <use x="401.708984" xlink:href="#DejaVuSans-115"/>
      <use x="453.808594" xlink:href="#DejaVuSans-32"/>
      <use x="485.595703" xlink:href="#DejaVuSans-111"/>
      <use x="546.777344" xlink:href="#DejaVuSans-102"/>
      <use x="581.982422" xlink:href="#DejaVuSans-32"/>
      <use x="613.769531" xlink:href="#DejaVuSans-99"/>
      <use x="668.75" xlink:href="#DejaVuSans-111"/>
      <use x="729.931641" xlink:href="#DejaVuSans-109"/>
      <use x="827.34375" xlink:href="#DejaVuSans-109"/>
      <use x="924.755859" xlink:href="#DejaVuSans-101"/>
      <use x="986.279297" xlink:href="#DejaVuSans-110"/>
      <use x="1049.658203" xlink:href="#DejaVuSans-116"/>
      <use x="1088.867188" xlink:href="#DejaVuSans-115"/>
     </g>
    </g>
   </g>
   <g id="patch_77">
    <path d="M 50.8 218.852246 
L 50.8 27.8 
" style="fill:none;stroke:#000000;stroke-linecap:square;stroke-linejoin:miter;stroke-width:0.8;"/>
   </g>
   <g id="patch_78">
    <path d="M 421.2 218.852246 
L 421.2 27.8 
" style="fill:none;stroke:#000000;stroke-linecap:square;stroke-linejoin:miter;stroke-width:0.8;"/>
   </g>
   <g id="patch_79">
    <path d="M 50.8 218.852246 
L 421.2 218.852246 
" style="fill:none;stroke:#000000;stroke-linecap:square;stroke-linejoin:miter;stroke-width:0.8;"/>
   </g>
   <g id="patch_80">
    <path d="M 50.8 27.8 
L 421.2 27.8 
" style="fill:none;stroke:#000000;stroke-linecap:square;stroke-linejoin:miter;stroke-width:0.8;"/>
   </g>
   <g id="text_25">
    <!-- Activity of user: kiwi_04 -->
    <defs>
     <path d="M 34.1875 63.1875 
L 20.796875 26.90625 
L 47.609375 26.90625 
z
M 28.609375 72.90625 
L 39.796875 72.90625 
L 67.578125 0 
L 57.328125 0 
L 50.6875 18.703125 
L 17.828125 18.703125 
L 11.1875 0 
L 0.78125 0 
z
" id="DejaVuSans-65"/>
     <path d="M 9.421875 54.6875 
L 18.40625 54.6875 
L 18.40625 0 
L 9.421875 0 
z
M 9.421875 75.984375 
L 18.40625 75.984375 
L 18.40625 64.59375 
L 9.421875 64.59375 
z
" id="DejaVuSans-105"/>
     <path d="M 2.984375 54.6875 
L 12.5 54.6875 
L 29.59375 8.796875 
L 46.6875 54.6875 
L 56.203125 54.6875 
L 35.6875 0 
L 23.484375 0 
z
" id="DejaVuSans-118"/>
     <path d="M 11.71875 12.40625 
L 22.015625 12.40625 
L 22.015625 0 
L 11.71875 0 
z
M 11.71875 51.703125 
L 22.015625 51.703125 
L 22.015625 39.3125 
L 11.71875 39.3125 
z
" id="DejaVuSans-58"/>
     <path d="M 9.078125 75.984375 
L 18.109375 75.984375 
L 18.109375 31.109375 
L 44.921875 54.6875 
L 56.390625 54.6875 
L 27.390625 29.109375 
L 57.625 0 
L 45.90625 0 
L 18.109375 26.703125 
L 18.109375 0 
L 9.078125 0 
z
" id="DejaVuSans-107"/>
     <path d="M 4.203125 54.6875 
L 13.1875 54.6875 
L 24.421875 12.015625 
L 35.59375 54.6875 
L 46.1875 54.6875 
L 57.421875 12.015625 
L 68.609375 54.6875 
L 77.59375 54.6875 
L 63.28125 0 
L 52.6875 0 
L 40.921875 44.828125 
L 29.109375 0 
L 18.5 0 
z
" id="DejaVuSans-119"/>
     <path d="M 50.984375 -16.609375 
L 50.984375 -23.578125 
L -0.984375 -23.578125 
L -0.984375 -16.609375 
z
" id="DejaVuSans-95"/>
    </defs>
    <g transform="translate(152.821406 21.8)scale(0.14 -0.14)">
     <use xlink:href="#DejaVuSans-65"/>
     <use x="66.658203" xlink:href="#DejaVuSans-99"/>
     <use x="121.638672" xlink:href="#DejaVuSans-116"/>
     <use x="160.847656" xlink:href="#DejaVuSans-105"/>
     <use x="188.630859" xlink:href="#DejaVuSans-118"/>
     <use x="247.810547" xlink:href="#DejaVuSans-105"/>
     <use x="275.59375" xlink:href="#DejaVuSans-116"/>
     <use x="314.802734" xlink:href="#DejaVuSans-121"/>
     <use x="373.982422" xlink:href="#DejaVuSans-32"/>
     <use x="405.769531" xlink:href="#DejaVuSans-111"/>
     <use x="466.951172" xlink:href="#DejaVuSans-102"/>
     <use x="502.15625" xlink:href="#DejaVuSans-32"/>
     <use x="533.943359" xlink:href="#DejaVuSans-117"/>
     <use x="597.322266" xlink:href="#DejaVuSans-115"/>
     <use x="649.421875" xlink:href="#DejaVuSans-101"/>
     <use x="710.945312" xlink:href="#DejaVuSans-114"/>
     <use x="750.308594" xlink:href="#DejaVuSans-58"/>
     <use x="784" xlink:href="#DejaVuSans-32"/>
     <use x="815.787109" xlink:href="#DejaVuSans-107"/>
     <use x="873.697266" xlink:href="#DejaVuSans-105"/>
     <use x="901.480469" xlink:href="#DejaVuSans-119"/>
     <use x="983.267578" xlink:href="#DejaVuSans-105"/>
     <use x="1011.050781" xlink:href="#DejaVuSans-95"/>
     <use x="1061.050781" xlink:href="#DejaVuSans-48"/>
     <use x="1124.673828" xlink:href="#DejaVuSans-52"/>
    </g>
   </g>
  </g>
 </g>
 <defs>
  <clipPath id="p79840e22b9">
   <rect height="191.052246" width="370.4" x="50.8" y="27.8"/>
  </clipPath>
 </defs>
</svg>
