<?xml version="1.0" encoding="utf-8" standalone="no"?>
<!DOCTYPE svg PUBLIC "-//W3C//DTD SVG 1.1//EN"
  "http://www.w3.org/Graphics/SVG/1.1/DTD/svg11.dtd">
<!-- Created with matplotlib (https://matplotlib.org/) -->
<svg height="288pt" version="1.1" viewBox="0 0 432 288" width="432pt" xmlns="http://www.w3.org/2000/svg" xmlns:xlink="http://www.w3.org/1999/xlink">
 <defs>
  <style type="text/css">
*{stroke-linecap:butt;stroke-linejoin:round;}
  </style>
 </defs>
 <g id="figure_1">
  <g id="patch_1">
   <path d="M 0 288 
L 432 288 
L 432 0 
L 0 0 
z
" style="fill:#ffffff;"/>
  </g>
  <g id="axes_1">
   <g id="patch_2">
    <path d="M 50.8 218.852246 
L 421.2 218.852246 
L 421.2 27.8 
L 50.8 27.8 
z
" style="fill:#ffffff;"/>
   </g>
   <g id="patch_3">
    <path clip-path="url(#pe5cd3bb1a8)" d="M 67.636364 218.852246 
L 70.970297 218.852246 
L 70.970297 178.272461 
L 67.636364 178.272461 
z
" style="fill:#b8860b;"/>
   </g>
   <g id="patch_4">
    <path clip-path="url(#pe5cd3bb1a8)" d="M 71.80378 218.852246 
L 75.137714 218.852246 
L 75.137714 171.727334 
L 71.80378 171.727334 
z
" style="fill:#b8860b;"/>
   </g>
   <g id="patch_5">
    <path clip-path="url(#pe5cd3bb1a8)" d="M 75.971197 218.852246 
L 79.305131 218.852246 
L 79.305131 175.65441 
L 75.971197 175.65441 
z
" style="fill:#b8860b;"/>
   </g>
   <g id="patch_6">
    <path clip-path="url(#pe5cd3bb1a8)" d="M 80.138614 218.852246 
L 83.472547 218.852246 
L 83.472547 171.727334 
L 80.138614 171.727334 
z
" style="fill:#b8860b;"/>
   </g>
   <g id="patch_7">
    <path clip-path="url(#pe5cd3bb1a8)" d="M 109.310531 218.852246 
L 112.644464 218.852246 
L 112.644464 169.109284 
L 109.310531 169.109284 
z
" style="fill:#b8860b;"/>
   </g>
   <g id="patch_8">
    <path clip-path="url(#pe5cd3bb1a8)" d="M 121.812781 218.852246 
L 125.146715 218.852246 
L 125.146715 154.710005 
L 121.812781 154.710005 
z
" style="fill:#b8860b;"/>
   </g>
   <g id="patch_9">
    <path clip-path="url(#pe5cd3bb1a8)" d="M 125.980198 218.852246 
L 129.314131 218.852246 
L 129.314131 116.748271 
L 125.980198 116.748271 
z
" style="fill:#b8860b;"/>
   </g>
   <g id="patch_10">
    <path clip-path="url(#pe5cd3bb1a8)" d="M 130.147615 218.852246 
L 133.481548 218.852246 
L 133.481548 110.203144 
L 130.147615 110.203144 
z
"/>
   </g>
   <g id="patch_11">
    <path clip-path="url(#pe5cd3bb1a8)" d="M 134.315032 218.852246 
L 137.648965 218.852246 
L 137.648965 89.258739 
L 134.315032 89.258739 
z
" style="fill:#b8860b;"/>
   </g>
   <g id="patch_12">
    <path clip-path="url(#pe5cd3bb1a8)" d="M 138.482448 218.852246 
L 141.816382 218.852246 
L 141.816382 141.619752 
L 138.482448 141.619752 
z
"/>
   </g>
   <g id="patch_13">
    <path clip-path="url(#pe5cd3bb1a8)" d="M 142.649865 218.852246 
L 145.983798 218.852246 
L 145.983798 213.616145 
L 142.649865 213.616145 
z
" style="fill:#b8860b;"/>
   </g>
   <g id="patch_14">
    <path clip-path="url(#pe5cd3bb1a8)" d="M 146.817282 218.852246 
L 150.151215 218.852246 
L 150.151215 192.671739 
L 146.817282 192.671739 
z
" style="fill:#b8860b;"/>
   </g>
   <g id="patch_15">
    <path clip-path="url(#pe5cd3bb1a8)" d="M 150.984698 218.852246 
L 154.318632 218.852246 
L 154.318632 192.671739 
L 150.984698 192.671739 
z
" style="fill:#b8860b;"/>
   </g>
   <g id="patch_16">
    <path clip-path="url(#pe5cd3bb1a8)" d="M 155.152115 218.852246 
L 158.486049 218.852246 
L 158.486049 190.053689 
L 155.152115 190.053689 
z
" style="fill:#b8860b;"/>
   </g>
   <g id="patch_17">
    <path clip-path="url(#pe5cd3bb1a8)" d="M 159.319532 218.852246 
L 162.653465 218.852246 
L 162.653465 200.525891 
L 159.319532 200.525891 
z
" style="fill:#b8860b;"/>
   </g>
   <g id="patch_18">
    <path clip-path="url(#pe5cd3bb1a8)" d="M 163.486949 218.852246 
L 166.820882 218.852246 
L 166.820882 191.362714 
L 163.486949 191.362714 
z
" style="fill:#b8860b;"/>
   </g>
   <g id="patch_19">
    <path clip-path="url(#pe5cd3bb1a8)" d="M 167.654365 218.852246 
L 170.988299 218.852246 
L 170.988299 163.873182 
L 167.654365 163.873182 
z
" style="fill:#b8860b;"/>
   </g>
   <g id="patch_20">
    <path clip-path="url(#pe5cd3bb1a8)" d="M 171.821782 218.852246 
L 175.155716 218.852246 
L 175.155716 214.92517 
L 171.821782 214.92517 
z
" style="fill:#b8860b;"/>
   </g>
   <g id="patch_21">
    <path clip-path="url(#pe5cd3bb1a8)" d="M 175.989199 218.852246 
L 179.323132 218.852246 
L 179.323132 210.998094 
L 175.989199 210.998094 
z
" style="fill:#b8860b;"/>
   </g>
   <g id="patch_22">
    <path clip-path="url(#pe5cd3bb1a8)" d="M 180.156616 218.852246 
L 183.490549 218.852246 
L 183.490549 154.710005 
L 180.156616 154.710005 
z
" style="fill:#b8860b;"/>
   </g>
   <g id="patch_23">
    <path clip-path="url(#pe5cd3bb1a8)" d="M 184.324032 218.852246 
L 187.657966 218.852246 
L 187.657966 178.272461 
L 184.324032 178.272461 
z
" style="fill:#b8860b;"/>
   </g>
   <g id="patch_24">
    <path clip-path="url(#pe5cd3bb1a8)" d="M 188.491449 218.852246 
L 191.825383 218.852246 
L 191.825383 165.182208 
L 188.491449 165.182208 
z
" style="fill:#b8860b;"/>
   </g>
   <g id="patch_25">
    <path clip-path="url(#pe5cd3bb1a8)" d="M 192.658866 218.852246 
L 195.992799 218.852246 
L 195.992799 188.744664 
L 192.658866 188.744664 
z
" style="fill:#b8860b;"/>
   </g>
   <g id="patch_26">
    <path clip-path="url(#pe5cd3bb1a8)" d="M 196.826283 218.852246 
L 200.160216 218.852246 
L 200.160216 200.525891 
L 196.826283 200.525891 
z
" style="fill:#b8860b;"/>
   </g>
   <g id="patch_27">
    <path clip-path="url(#pe5cd3bb1a8)" d="M 200.993699 218.852246 
L 204.327633 218.852246 
L 204.327633 208.380043 
L 200.993699 208.380043 
z
" style="fill:#b8860b;"/>
   </g>
   <g id="patch_28">
    <path clip-path="url(#pe5cd3bb1a8)" d="M 205.161116 218.852246 
L 208.49505 218.852246 
L 208.49505 208.380043 
L 205.161116 208.380043 
z
" style="fill:#b8860b;"/>
   </g>
   <g id="patch_29">
    <path clip-path="url(#pe5cd3bb1a8)" d="M 209.328533 218.852246 
L 212.662466 218.852246 
L 212.662466 148.164878 
L 209.328533 148.164878 
z
"/>
   </g>
   <g id="patch_30">
    <path clip-path="url(#pe5cd3bb1a8)" d="M 213.49595 218.852246 
L 216.829883 218.852246 
L 216.829883 207.071018 
L 213.49595 207.071018 
z
" style="fill:#b8860b;"/>
   </g>
   <g id="patch_31">
    <path clip-path="url(#pe5cd3bb1a8)" d="M 217.663366 218.852246 
L 220.9973 218.852246 
L 220.9973 201.834917 
L 217.663366 201.834917 
z
" style="fill:#b8860b;"/>
   </g>
   <g id="patch_32">
    <path clip-path="url(#pe5cd3bb1a8)" d="M 221.830783 218.852246 
L 225.164716 218.852246 
L 225.164716 196.598815 
L 221.830783 196.598815 
z
" style="fill:#b8860b;"/>
   </g>
   <g id="patch_33">
    <path clip-path="url(#pe5cd3bb1a8)" d="M 225.9982 218.852246 
L 229.332133 218.852246 
L 229.332133 191.362714 
L 225.9982 191.362714 
z
" style="fill:#b8860b;"/>
   </g>
   <g id="patch_34">
    <path clip-path="url(#pe5cd3bb1a8)" d="M 230.165617 218.852246 
L 233.49955 218.852246 
L 233.49955 216.234195 
L 230.165617 216.234195 
z
" style="fill:#b8860b;"/>
   </g>
   <g id="patch_35">
    <path clip-path="url(#pe5cd3bb1a8)" d="M 234.333033 218.852246 
L 237.666967 218.852246 
L 237.666967 217.543221 
L 234.333033 217.543221 
z
" style="fill:#b8860b;"/>
   </g>
   <g id="patch_36">
    <path clip-path="url(#pe5cd3bb1a8)" d="M 238.50045 218.852246 
L 241.834383 218.852246 
L 241.834383 182.199537 
L 238.50045 182.199537 
z
"/>
   </g>
   <g id="patch_37">
    <path clip-path="url(#pe5cd3bb1a8)" d="M 242.667867 218.852246 
L 246.0018 218.852246 
L 246.0018 195.28979 
L 242.667867 195.28979 
z
" style="fill:#b8860b;"/>
   </g>
   <g id="patch_38">
    <path clip-path="url(#pe5cd3bb1a8)" d="M 246.835284 218.852246 
L 250.169217 218.852246 
L 250.169217 196.598815 
L 246.835284 196.598815 
z
" style="fill:#b8860b;"/>
   </g>
   <g id="patch_39">
    <path clip-path="url(#pe5cd3bb1a8)" d="M 251.0027 218.852246 
L 254.336634 218.852246 
L 254.336634 203.143942 
L 251.0027 203.143942 
z
" style="fill:#b8860b;"/>
   </g>
   <g id="patch_40">
    <path clip-path="url(#pe5cd3bb1a8)" d="M 255.170117 218.852246 
L 258.50405 218.852246 
L 258.50405 195.28979 
L 255.170117 195.28979 
z
" style="fill:#b8860b;"/>
   </g>
   <g id="patch_41">
    <path clip-path="url(#pe5cd3bb1a8)" d="M 259.337534 218.852246 
L 262.671467 218.852246 
L 262.671467 212.307119 
L 259.337534 212.307119 
z
" style="fill:#b8860b;"/>
   </g>
   <g id="patch_42">
    <path clip-path="url(#pe5cd3bb1a8)" d="M 263.50495 218.852246 
L 266.838884 218.852246 
L 266.838884 216.234195 
L 263.50495 216.234195 
z
" style="fill:#b8860b;"/>
   </g>
   <g id="patch_43">
    <path clip-path="url(#pe5cd3bb1a8)" d="M 267.672367 218.852246 
L 271.006301 218.852246 
L 271.006301 210.998094 
L 267.672367 210.998094 
z
" style="fill:#b8860b;"/>
   </g>
   <g id="patch_44">
    <path clip-path="url(#pe5cd3bb1a8)" d="M 271.839784 218.852246 
L 275.173717 218.852246 
L 275.173717 174.345385 
L 271.839784 174.345385 
z
" style="fill:#b8860b;"/>
   </g>
   <g id="patch_45">
    <path clip-path="url(#pe5cd3bb1a8)" d="M 276.007201 218.852246 
L 279.341134 218.852246 
L 279.341134 197.907841 
L 276.007201 197.907841 
z
" style="fill:#b8860b;"/>
   </g>
   <g id="patch_46">
    <path clip-path="url(#pe5cd3bb1a8)" d="M 280.174617 218.852246 
L 283.508551 218.852246 
L 283.508551 205.761993 
L 280.174617 205.761993 
z
" style="fill:#b8860b;"/>
   </g>
   <g id="patch_47">
    <path clip-path="url(#pe5cd3bb1a8)" d="M 284.342034 218.852246 
L 287.675968 218.852246 
L 287.675968 214.92517 
L 284.342034 214.92517 
z
" style="fill:#b8860b;"/>
   </g>
   <g id="patch_48">
    <path clip-path="url(#pe5cd3bb1a8)" d="M 288.509451 218.852246 
L 291.843384 218.852246 
L 291.843384 217.543221 
L 288.509451 217.543221 
z
" style="fill:#b8860b;"/>
   </g>
   <g id="patch_49">
    <path clip-path="url(#pe5cd3bb1a8)" d="M 292.676868 218.852246 
L 296.010801 218.852246 
L 296.010801 217.543221 
L 292.676868 217.543221 
z
" style="fill:#b8860b;"/>
   </g>
   <g id="patch_50">
    <path clip-path="url(#pe5cd3bb1a8)" d="M 296.844284 218.852246 
L 300.178218 218.852246 
L 300.178218 200.525891 
L 296.844284 200.525891 
z
" style="fill:#b8860b;"/>
   </g>
   <g id="patch_51">
    <path clip-path="url(#pe5cd3bb1a8)" d="M 301.011701 218.852246 
L 304.345635 218.852246 
L 304.345635 208.380043 
L 301.011701 208.380043 
z
" style="fill:#b8860b;"/>
   </g>
   <g id="patch_52">
    <path clip-path="url(#pe5cd3bb1a8)" d="M 305.179118 218.852246 
L 308.513051 218.852246 
L 308.513051 167.800258 
L 305.179118 167.800258 
z
" style="fill:#b8860b;"/>
   </g>
   <g id="patch_53">
    <path clip-path="url(#pe5cd3bb1a8)" d="M 309.346535 218.852246 
L 312.680468 218.852246 
L 312.680468 203.143942 
L 309.346535 203.143942 
z
" style="fill:#b8860b;"/>
   </g>
   <g id="patch_54">
    <path clip-path="url(#pe5cd3bb1a8)" d="M 313.513951 218.852246 
L 316.847885 218.852246 
L 316.847885 179.581486 
L 313.513951 179.581486 
z
" style="fill:#b8860b;"/>
   </g>
   <g id="patch_55">
    <path clip-path="url(#pe5cd3bb1a8)" d="M 317.681368 218.852246 
L 321.015302 218.852246 
L 321.015302 209.689069 
L 317.681368 209.689069 
z
" style="fill:#b8860b;"/>
   </g>
   <g id="patch_56">
    <path clip-path="url(#pe5cd3bb1a8)" d="M 321.848785 218.852246 
L 325.182718 218.852246 
L 325.182718 210.998094 
L 321.848785 210.998094 
z
" style="fill:#b8860b;"/>
   </g>
   <g id="patch_57">
    <path clip-path="url(#pe5cd3bb1a8)" d="M 326.016202 218.852246 
L 329.350135 218.852246 
L 329.350135 123.293397 
L 326.016202 123.293397 
z
" style="fill:#b8860b;"/>
   </g>
   <g id="patch_58">
    <path clip-path="url(#pe5cd3bb1a8)" d="M 330.183618 218.852246 
L 333.517552 218.852246 
L 333.517552 183.508562 
L 330.183618 183.508562 
z
" style="fill:#b8860b;"/>
   </g>
   <g id="patch_59">
    <path clip-path="url(#pe5cd3bb1a8)" d="M 334.351035 218.852246 
L 337.684968 218.852246 
L 337.684968 199.216866 
L 334.351035 199.216866 
z
" style="fill:#b8860b;"/>
   </g>
   <g id="patch_60">
    <path clip-path="url(#pe5cd3bb1a8)" d="M 338.518452 218.852246 
L 341.852385 218.852246 
L 341.852385 173.03636 
L 338.518452 173.03636 
z
" style="fill:#b8860b;"/>
   </g>
   <g id="patch_61">
    <path clip-path="url(#pe5cd3bb1a8)" d="M 342.685869 218.852246 
L 346.019802 218.852246 
L 346.019802 217.543221 
L 342.685869 217.543221 
z
" style="fill:#b8860b;"/>
   </g>
   <g id="patch_62">
    <path clip-path="url(#pe5cd3bb1a8)" d="M 346.853285 218.852246 
L 350.187219 218.852246 
L 350.187219 210.998094 
L 346.853285 210.998094 
z
" style="fill:#b8860b;"/>
   </g>
   <g id="patch_63">
    <path clip-path="url(#pe5cd3bb1a8)" d="M 351.020702 218.852246 
L 354.354635 218.852246 
L 354.354635 216.234195 
L 351.020702 216.234195 
z
" style="fill:#b8860b;"/>
   </g>
   <g id="patch_64">
    <path clip-path="url(#pe5cd3bb1a8)" d="M 355.188119 218.852246 
L 358.522052 218.852246 
L 358.522052 140.310727 
L 355.188119 140.310727 
z
" style="fill:#b8860b;"/>
   </g>
   <g id="patch_65">
    <path clip-path="url(#pe5cd3bb1a8)" d="M 359.355536 218.852246 
L 362.689469 218.852246 
L 362.689469 137.692676 
L 359.355536 137.692676 
z
" style="fill:#b8860b;"/>
   </g>
   <g id="patch_66">
    <path clip-path="url(#pe5cd3bb1a8)" d="M 363.522952 218.852246 
L 366.856886 218.852246 
L 366.856886 36.897726 
L 363.522952 36.897726 
z
" style="fill:#b8860b;"/>
   </g>
   <g id="patch_67">
    <path clip-path="url(#pe5cd3bb1a8)" d="M 367.690369 218.852246 
L 371.024302 218.852246 
L 371.024302 99.730942 
L 367.690369 99.730942 
z
" style="fill:#b8860b;"/>
   </g>
   <g id="patch_68">
    <path clip-path="url(#pe5cd3bb1a8)" d="M 371.857786 218.852246 
L 375.191719 218.852246 
L 375.191719 104.967043 
L 371.857786 104.967043 
z
" style="fill:#b8860b;"/>
   </g>
   <g id="patch_69">
    <path clip-path="url(#pe5cd3bb1a8)" d="M 376.025203 218.852246 
L 379.359136 218.852246 
L 379.359136 217.543221 
L 376.025203 217.543221 
z
" style="fill:#b8860b;"/>
   </g>
   <g id="patch_70">
    <path clip-path="url(#pe5cd3bb1a8)" d="M 380.192619 218.852246 
L 383.526553 218.852246 
L 383.526553 208.380043 
L 380.192619 208.380043 
z
" style="fill:#b8860b;"/>
   </g>
   <g id="patch_71">
    <path clip-path="url(#pe5cd3bb1a8)" d="M 384.360036 218.852246 
L 387.693969 218.852246 
L 387.693969 152.091954 
L 384.360036 152.091954 
z
" style="fill:#b8860b;"/>
   </g>
   <g id="patch_72">
    <path clip-path="url(#pe5cd3bb1a8)" d="M 388.527453 218.852246 
L 391.861386 218.852246 
L 391.861386 170.418309 
L 388.527453 170.418309 
z
" style="fill:#b8860b;"/>
   </g>
   <g id="patch_73">
    <path clip-path="url(#pe5cd3bb1a8)" d="M 392.694869 218.852246 
L 396.028803 218.852246 
L 396.028803 195.28979 
L 392.694869 195.28979 
z
" style="fill:#b8860b;"/>
   </g>
   <g id="patch_74">
    <path clip-path="url(#pe5cd3bb1a8)" d="M 396.862286 218.852246 
L 400.19622 218.852246 
L 400.19622 195.28979 
L 396.862286 195.28979 
z
" style="fill:#b8860b;"/>
   </g>
   <g id="patch_75">
    <path clip-path="url(#pe5cd3bb1a8)" d="M 401.029703 218.852246 
L 404.363636 218.852246 
L 404.363636 208.380043 
L 401.029703 208.380043 
z
" style="fill:#b8860b;"/>
   </g>
   <g id="matplotlib.axis_1">
    <g id="xtick_1">
     <g id="line2d_1">
      <defs>
       <path d="M 0 0 
L 0 3.5 
" id="m8558860ca4" style="stroke:#000000;stroke-width:0.8;"/>
      </defs>
      <g>
       <use style="stroke:#000000;stroke-width:0.8;" x="77.638164" xlink:href="#m8558860ca4" y="218.852246"/>
      </g>
     </g>
     <g id="text_1">
      <!-- 27/02/2020 -->
      <defs>
       <path d="M 19.1875 8.296875 
L 53.609375 8.296875 
L 53.609375 0 
L 7.328125 0 
L 7.328125 8.296875 
Q 12.9375 14.109375 22.625 23.890625 
Q 32.328125 33.6875 34.8125 36.53125 
Q 39.546875 41.84375 41.421875 45.53125 
Q 43.3125 49.21875 43.3125 52.78125 
Q 43.3125 58.59375 39.234375 62.25 
Q 35.15625 65.921875 28.609375 65.921875 
Q 23.96875 65.921875 18.8125 64.3125 
Q 13.671875 62.703125 7.8125 59.421875 
L 7.8125 69.390625 
Q 13.765625 71.78125 18.9375 73 
Q 24.125 74.21875 28.421875 74.21875 
Q 39.75 74.21875 46.484375 68.546875 
Q 53.21875 62.890625 53.21875 53.421875 
Q 53.21875 48.921875 51.53125 44.890625 
Q 49.859375 40.875 45.40625 35.40625 
Q 44.1875 33.984375 37.640625 27.21875 
Q 31.109375 20.453125 19.1875 8.296875 
z
" id="DejaVuSans-50"/>
       <path d="M 8.203125 72.90625 
L 55.078125 72.90625 
L 55.078125 68.703125 
L 28.609375 0 
L 18.3125 0 
L 43.21875 64.59375 
L 8.203125 64.59375 
z
" id="DejaVuSans-55"/>
       <path d="M 25.390625 72.90625 
L 33.6875 72.90625 
L 8.296875 -9.28125 
L 0 -9.28125 
z
" id="DejaVuSans-47"/>
       <path d="M 31.78125 66.40625 
Q 24.171875 66.40625 20.328125 58.90625 
Q 16.5 51.421875 16.5 36.375 
Q 16.5 21.390625 20.328125 13.890625 
Q 24.171875 6.390625 31.78125 6.390625 
Q 39.453125 6.390625 43.28125 13.890625 
Q 47.125 21.390625 47.125 36.375 
Q 47.125 51.421875 43.28125 58.90625 
Q 39.453125 66.40625 31.78125 66.40625 
z
M 31.78125 74.21875 
Q 44.046875 74.21875 50.515625 64.515625 
Q 56.984375 54.828125 56.984375 36.375 
Q 56.984375 17.96875 50.515625 8.265625 
Q 44.046875 -1.421875 31.78125 -1.421875 
Q 19.53125 -1.421875 13.0625 8.265625 
Q 6.59375 17.96875 6.59375 36.375 
Q 6.59375 54.828125 13.0625 64.515625 
Q 19.53125 74.21875 31.78125 74.21875 
z
" id="DejaVuSans-48"/>
      </defs>
      <g transform="translate(26.682781 261.251436)rotate(-30)scale(0.1 -0.1)">
       <use xlink:href="#DejaVuSans-50"/>
       <use x="63.623047" xlink:href="#DejaVuSans-55"/>
       <use x="127.246094" xlink:href="#DejaVuSans-47"/>
       <use x="160.9375" xlink:href="#DejaVuSans-48"/>
       <use x="224.560547" xlink:href="#DejaVuSans-50"/>
       <use x="288.183594" xlink:href="#DejaVuSans-47"/>
       <use x="321.875" xlink:href="#DejaVuSans-50"/>
       <use x="385.498047" xlink:href="#DejaVuSans-48"/>
       <use x="449.121094" xlink:href="#DejaVuSans-50"/>
       <use x="512.744141" xlink:href="#DejaVuSans-48"/>
      </g>
     </g>
    </g>
    <g id="xtick_2">
     <g id="line2d_2">
      <g>
       <use style="stroke:#000000;stroke-width:0.8;" x="106.810081" xlink:href="#m8558860ca4" y="218.852246"/>
      </g>
     </g>
     <g id="text_2">
      <!-- 05/03/2020 -->
      <defs>
       <path d="M 10.796875 72.90625 
L 49.515625 72.90625 
L 49.515625 64.59375 
L 19.828125 64.59375 
L 19.828125 46.734375 
Q 21.96875 47.46875 24.109375 47.828125 
Q 26.265625 48.1875 28.421875 48.1875 
Q 40.625 48.1875 47.75 41.5 
Q 54.890625 34.8125 54.890625 23.390625 
Q 54.890625 11.625 47.5625 5.09375 
Q 40.234375 -1.421875 26.90625 -1.421875 
Q 22.3125 -1.421875 17.546875 -0.640625 
Q 12.796875 0.140625 7.71875 1.703125 
L 7.71875 11.625 
Q 12.109375 9.234375 16.796875 8.0625 
Q 21.484375 6.890625 26.703125 6.890625 
Q 35.15625 6.890625 40.078125 11.328125 
Q 45.015625 15.765625 45.015625 23.390625 
Q 45.015625 31 40.078125 35.4375 
Q 35.15625 39.890625 26.703125 39.890625 
Q 22.75 39.890625 18.8125 39.015625 
Q 14.890625 38.140625 10.796875 36.28125 
z
" id="DejaVuSans-53"/>
       <path d="M 40.578125 39.3125 
Q 47.65625 37.796875 51.625 33 
Q 55.609375 28.21875 55.609375 21.1875 
Q 55.609375 10.40625 48.1875 4.484375 
Q 40.765625 -1.421875 27.09375 -1.421875 
Q 22.515625 -1.421875 17.65625 -0.515625 
Q 12.796875 0.390625 7.625 2.203125 
L 7.625 11.71875 
Q 11.71875 9.328125 16.59375 8.109375 
Q 21.484375 6.890625 26.8125 6.890625 
Q 36.078125 6.890625 40.9375 10.546875 
Q 45.796875 14.203125 45.796875 21.1875 
Q 45.796875 27.640625 41.28125 31.265625 
Q 36.765625 34.90625 28.71875 34.90625 
L 20.21875 34.90625 
L 20.21875 43.015625 
L 29.109375 43.015625 
Q 36.375 43.015625 40.234375 45.921875 
Q 44.09375 48.828125 44.09375 54.296875 
Q 44.09375 59.90625 40.109375 62.90625 
Q 36.140625 65.921875 28.71875 65.921875 
Q 24.65625 65.921875 20.015625 65.03125 
Q 15.375 64.15625 9.8125 62.3125 
L 9.8125 71.09375 
Q 15.4375 72.65625 20.34375 73.4375 
Q 25.25 74.21875 29.59375 74.21875 
Q 40.828125 74.21875 47.359375 69.109375 
Q 53.90625 64.015625 53.90625 55.328125 
Q 53.90625 49.265625 50.4375 45.09375 
Q 46.96875 40.921875 40.578125 39.3125 
z
" id="DejaVuSans-51"/>
      </defs>
      <g transform="translate(55.854698 261.251436)rotate(-30)scale(0.1 -0.1)">
       <use xlink:href="#DejaVuSans-48"/>
       <use x="63.623047" xlink:href="#DejaVuSans-53"/>
       <use x="127.246094" xlink:href="#DejaVuSans-47"/>
       <use x="160.9375" xlink:href="#DejaVuSans-48"/>
       <use x="224.560547" xlink:href="#DejaVuSans-51"/>
       <use x="288.183594" xlink:href="#DejaVuSans-47"/>
       <use x="321.875" xlink:href="#DejaVuSans-50"/>
       <use x="385.498047" xlink:href="#DejaVuSans-48"/>
       <use x="449.121094" xlink:href="#DejaVuSans-50"/>
       <use x="512.744141" xlink:href="#DejaVuSans-48"/>
      </g>
     </g>
    </g>
    <g id="xtick_3">
     <g id="line2d_3">
      <g>
       <use style="stroke:#000000;stroke-width:0.8;" x="135.981998" xlink:href="#m8558860ca4" y="218.852246"/>
      </g>
     </g>
     <g id="text_3">
      <!-- 12/03/2020 -->
      <defs>
       <path d="M 12.40625 8.296875 
L 28.515625 8.296875 
L 28.515625 63.921875 
L 10.984375 60.40625 
L 10.984375 69.390625 
L 28.421875 72.90625 
L 38.28125 72.90625 
L 38.28125 8.296875 
L 54.390625 8.296875 
L 54.390625 0 
L 12.40625 0 
z
" id="DejaVuSans-49"/>
      </defs>
      <g transform="translate(85.026615 261.251436)rotate(-30)scale(0.1 -0.1)">
       <use xlink:href="#DejaVuSans-49"/>
       <use x="63.623047" xlink:href="#DejaVuSans-50"/>
       <use x="127.246094" xlink:href="#DejaVuSans-47"/>
       <use x="160.9375" xlink:href="#DejaVuSans-48"/>
       <use x="224.560547" xlink:href="#DejaVuSans-51"/>
       <use x="288.183594" xlink:href="#DejaVuSans-47"/>
       <use x="321.875" xlink:href="#DejaVuSans-50"/>
       <use x="385.498047" xlink:href="#DejaVuSans-48"/>
       <use x="449.121094" xlink:href="#DejaVuSans-50"/>
       <use x="512.744141" xlink:href="#DejaVuSans-48"/>
      </g>
     </g>
    </g>
    <g id="xtick_4">
     <g id="line2d_4">
      <g>
       <use style="stroke:#000000;stroke-width:0.8;" x="165.153915" xlink:href="#m8558860ca4" y="218.852246"/>
      </g>
     </g>
     <g id="text_4">
      <!-- 19/03/2020 -->
      <defs>
       <path d="M 10.984375 1.515625 
L 10.984375 10.5 
Q 14.703125 8.734375 18.5 7.8125 
Q 22.3125 6.890625 25.984375 6.890625 
Q 35.75 6.890625 40.890625 13.453125 
Q 46.046875 20.015625 46.78125 33.40625 
Q 43.953125 29.203125 39.59375 26.953125 
Q 35.25 24.703125 29.984375 24.703125 
Q 19.046875 24.703125 12.671875 31.3125 
Q 6.296875 37.9375 6.296875 49.421875 
Q 6.296875 60.640625 12.9375 67.421875 
Q 19.578125 74.21875 30.609375 74.21875 
Q 43.265625 74.21875 49.921875 64.515625 
Q 56.59375 54.828125 56.59375 36.375 
Q 56.59375 19.140625 48.40625 8.859375 
Q 40.234375 -1.421875 26.421875 -1.421875 
Q 22.703125 -1.421875 18.890625 -0.6875 
Q 15.09375 0.046875 10.984375 1.515625 
z
M 30.609375 32.421875 
Q 37.25 32.421875 41.125 36.953125 
Q 45.015625 41.5 45.015625 49.421875 
Q 45.015625 57.28125 41.125 61.84375 
Q 37.25 66.40625 30.609375 66.40625 
Q 23.96875 66.40625 20.09375 61.84375 
Q 16.21875 57.28125 16.21875 49.421875 
Q 16.21875 41.5 20.09375 36.953125 
Q 23.96875 32.421875 30.609375 32.421875 
z
" id="DejaVuSans-57"/>
      </defs>
      <g transform="translate(114.198532 261.251436)rotate(-30)scale(0.1 -0.1)">
       <use xlink:href="#DejaVuSans-49"/>
       <use x="63.623047" xlink:href="#DejaVuSans-57"/>
       <use x="127.246094" xlink:href="#DejaVuSans-47"/>
       <use x="160.9375" xlink:href="#DejaVuSans-48"/>
       <use x="224.560547" xlink:href="#DejaVuSans-51"/>
       <use x="288.183594" xlink:href="#DejaVuSans-47"/>
       <use x="321.875" xlink:href="#DejaVuSans-50"/>
       <use x="385.498047" xlink:href="#DejaVuSans-48"/>
       <use x="449.121094" xlink:href="#DejaVuSans-50"/>
       <use x="512.744141" xlink:href="#DejaVuSans-48"/>
      </g>
     </g>
    </g>
    <g id="xtick_5">
     <g id="line2d_5">
      <g>
       <use style="stroke:#000000;stroke-width:0.8;" x="194.325833" xlink:href="#m8558860ca4" y="218.852246"/>
      </g>
     </g>
     <g id="text_5">
      <!-- 26/03/2020 -->
      <defs>
       <path d="M 33.015625 40.375 
Q 26.375 40.375 22.484375 35.828125 
Q 18.609375 31.296875 18.609375 23.390625 
Q 18.609375 15.53125 22.484375 10.953125 
Q 26.375 6.390625 33.015625 6.390625 
Q 39.65625 6.390625 43.53125 10.953125 
Q 47.40625 15.53125 47.40625 23.390625 
Q 47.40625 31.296875 43.53125 35.828125 
Q 39.65625 40.375 33.015625 40.375 
z
M 52.59375 71.296875 
L 52.59375 62.3125 
Q 48.875 64.0625 45.09375 64.984375 
Q 41.3125 65.921875 37.59375 65.921875 
Q 27.828125 65.921875 22.671875 59.328125 
Q 17.53125 52.734375 16.796875 39.40625 
Q 19.671875 43.65625 24.015625 45.921875 
Q 28.375 48.1875 33.59375 48.1875 
Q 44.578125 48.1875 50.953125 41.515625 
Q 57.328125 34.859375 57.328125 23.390625 
Q 57.328125 12.15625 50.6875 5.359375 
Q 44.046875 -1.421875 33.015625 -1.421875 
Q 20.359375 -1.421875 13.671875 8.265625 
Q 6.984375 17.96875 6.984375 36.375 
Q 6.984375 53.65625 15.1875 63.9375 
Q 23.390625 74.21875 37.203125 74.21875 
Q 40.921875 74.21875 44.703125 73.484375 
Q 48.484375 72.75 52.59375 71.296875 
z
" id="DejaVuSans-54"/>
      </defs>
      <g transform="translate(143.37045 261.251436)rotate(-30)scale(0.1 -0.1)">
       <use xlink:href="#DejaVuSans-50"/>
       <use x="63.623047" xlink:href="#DejaVuSans-54"/>
       <use x="127.246094" xlink:href="#DejaVuSans-47"/>
       <use x="160.9375" xlink:href="#DejaVuSans-48"/>
       <use x="224.560547" xlink:href="#DejaVuSans-51"/>
       <use x="288.183594" xlink:href="#DejaVuSans-47"/>
       <use x="321.875" xlink:href="#DejaVuSans-50"/>
       <use x="385.498047" xlink:href="#DejaVuSans-48"/>
       <use x="449.121094" xlink:href="#DejaVuSans-50"/>
       <use x="512.744141" xlink:href="#DejaVuSans-48"/>
      </g>
     </g>
    </g>
    <g id="xtick_6">
     <g id="line2d_6">
      <g>
       <use style="stroke:#000000;stroke-width:0.8;" x="223.49775" xlink:href="#m8558860ca4" y="218.852246"/>
      </g>
     </g>
     <g id="text_6">
      <!-- 02/04/2020 -->
      <defs>
       <path d="M 37.796875 64.3125 
L 12.890625 25.390625 
L 37.796875 25.390625 
z
M 35.203125 72.90625 
L 47.609375 72.90625 
L 47.609375 25.390625 
L 58.015625 25.390625 
L 58.015625 17.1875 
L 47.609375 17.1875 
L 47.609375 0 
L 37.796875 0 
L 37.796875 17.1875 
L 4.890625 17.1875 
L 4.890625 26.703125 
z
" id="DejaVuSans-52"/>
      </defs>
      <g transform="translate(172.542367 261.251436)rotate(-30)scale(0.1 -0.1)">
       <use xlink:href="#DejaVuSans-48"/>
       <use x="63.623047" xlink:href="#DejaVuSans-50"/>
       <use x="127.246094" xlink:href="#DejaVuSans-47"/>
       <use x="160.9375" xlink:href="#DejaVuSans-48"/>
       <use x="224.560547" xlink:href="#DejaVuSans-52"/>
       <use x="288.183594" xlink:href="#DejaVuSans-47"/>
       <use x="321.875" xlink:href="#DejaVuSans-50"/>
       <use x="385.498047" xlink:href="#DejaVuSans-48"/>
       <use x="449.121094" xlink:href="#DejaVuSans-50"/>
       <use x="512.744141" xlink:href="#DejaVuSans-48"/>
      </g>
     </g>
    </g>
    <g id="xtick_7">
     <g id="line2d_7">
      <g>
       <use style="stroke:#000000;stroke-width:0.8;" x="252.669667" xlink:href="#m8558860ca4" y="218.852246"/>
      </g>
     </g>
     <g id="text_7">
      <!-- 09/04/2020 -->
      <g transform="translate(201.714284 261.251436)rotate(-30)scale(0.1 -0.1)">
       <use xlink:href="#DejaVuSans-48"/>
       <use x="63.623047" xlink:href="#DejaVuSans-57"/>
       <use x="127.246094" xlink:href="#DejaVuSans-47"/>
       <use x="160.9375" xlink:href="#DejaVuSans-48"/>
       <use x="224.560547" xlink:href="#DejaVuSans-52"/>
       <use x="288.183594" xlink:href="#DejaVuSans-47"/>
       <use x="321.875" xlink:href="#DejaVuSans-50"/>
       <use x="385.498047" xlink:href="#DejaVuSans-48"/>
       <use x="449.121094" xlink:href="#DejaVuSans-50"/>
       <use x="512.744141" xlink:href="#DejaVuSans-48"/>
      </g>
     </g>
    </g>
    <g id="xtick_8">
     <g id="line2d_8">
      <g>
       <use style="stroke:#000000;stroke-width:0.8;" x="281.841584" xlink:href="#m8558860ca4" y="218.852246"/>
      </g>
     </g>
     <g id="text_8">
      <!-- 16/04/2020 -->
      <g transform="translate(230.886201 261.251436)rotate(-30)scale(0.1 -0.1)">
       <use xlink:href="#DejaVuSans-49"/>
       <use x="63.623047" xlink:href="#DejaVuSans-54"/>
       <use x="127.246094" xlink:href="#DejaVuSans-47"/>
       <use x="160.9375" xlink:href="#DejaVuSans-48"/>
       <use x="224.560547" xlink:href="#DejaVuSans-52"/>
       <use x="288.183594" xlink:href="#DejaVuSans-47"/>
       <use x="321.875" xlink:href="#DejaVuSans-50"/>
       <use x="385.498047" xlink:href="#DejaVuSans-48"/>
       <use x="449.121094" xlink:href="#DejaVuSans-50"/>
       <use x="512.744141" xlink:href="#DejaVuSans-48"/>
      </g>
     </g>
    </g>
    <g id="xtick_9">
     <g id="line2d_9">
      <g>
       <use style="stroke:#000000;stroke-width:0.8;" x="311.013501" xlink:href="#m8558860ca4" y="218.852246"/>
      </g>
     </g>
     <g id="text_9">
      <!-- 23/04/2020 -->
      <g transform="translate(260.058118 261.251436)rotate(-30)scale(0.1 -0.1)">
       <use xlink:href="#DejaVuSans-50"/>
       <use x="63.623047" xlink:href="#DejaVuSans-51"/>
       <use x="127.246094" xlink:href="#DejaVuSans-47"/>
       <use x="160.9375" xlink:href="#DejaVuSans-48"/>
       <use x="224.560547" xlink:href="#DejaVuSans-52"/>
       <use x="288.183594" xlink:href="#DejaVuSans-47"/>
       <use x="321.875" xlink:href="#DejaVuSans-50"/>
       <use x="385.498047" xlink:href="#DejaVuSans-48"/>
       <use x="449.121094" xlink:href="#DejaVuSans-50"/>
       <use x="512.744141" xlink:href="#DejaVuSans-48"/>
      </g>
     </g>
    </g>
    <g id="xtick_10">
     <g id="line2d_10">
      <g>
       <use style="stroke:#000000;stroke-width:0.8;" x="340.185419" xlink:href="#m8558860ca4" y="218.852246"/>
      </g>
     </g>
     <g id="text_10">
      <!-- 30/04/2020 -->
      <g transform="translate(289.230036 261.251436)rotate(-30)scale(0.1 -0.1)">
       <use xlink:href="#DejaVuSans-51"/>
       <use x="63.623047" xlink:href="#DejaVuSans-48"/>
       <use x="127.246094" xlink:href="#DejaVuSans-47"/>
       <use x="160.9375" xlink:href="#DejaVuSans-48"/>
       <use x="224.560547" xlink:href="#DejaVuSans-52"/>
       <use x="288.183594" xlink:href="#DejaVuSans-47"/>
       <use x="321.875" xlink:href="#DejaVuSans-50"/>
       <use x="385.498047" xlink:href="#DejaVuSans-48"/>
       <use x="449.121094" xlink:href="#DejaVuSans-50"/>
       <use x="512.744141" xlink:href="#DejaVuSans-48"/>
      </g>
     </g>
    </g>
    <g id="xtick_11">
     <g id="line2d_11">
      <g>
       <use style="stroke:#000000;stroke-width:0.8;" x="369.357336" xlink:href="#m8558860ca4" y="218.852246"/>
      </g>
     </g>
     <g id="text_11">
      <!-- 07/05/2020 -->
      <g transform="translate(318.401953 261.251436)rotate(-30)scale(0.1 -0.1)">
       <use xlink:href="#DejaVuSans-48"/>
       <use x="63.623047" xlink:href="#DejaVuSans-55"/>
       <use x="127.246094" xlink:href="#DejaVuSans-47"/>
       <use x="160.9375" xlink:href="#DejaVuSans-48"/>
       <use x="224.560547" xlink:href="#DejaVuSans-53"/>
       <use x="288.183594" xlink:href="#DejaVuSans-47"/>
       <use x="321.875" xlink:href="#DejaVuSans-50"/>
       <use x="385.498047" xlink:href="#DejaVuSans-48"/>
       <use x="449.121094" xlink:href="#DejaVuSans-50"/>
       <use x="512.744141" xlink:href="#DejaVuSans-48"/>
      </g>
     </g>
    </g>
    <g id="xtick_12">
     <g id="line2d_12">
      <g>
       <use style="stroke:#000000;stroke-width:0.8;" x="398.529253" xlink:href="#m8558860ca4" y="218.852246"/>
      </g>
     </g>
     <g id="text_12">
      <!-- 14/05/2020 -->
      <g transform="translate(347.57387 261.251436)rotate(-30)scale(0.1 -0.1)">
       <use xlink:href="#DejaVuSans-49"/>
       <use x="63.623047" xlink:href="#DejaVuSans-52"/>
       <use x="127.246094" xlink:href="#DejaVuSans-47"/>
       <use x="160.9375" xlink:href="#DejaVuSans-48"/>
       <use x="224.560547" xlink:href="#DejaVuSans-53"/>
       <use x="288.183594" xlink:href="#DejaVuSans-47"/>
       <use x="321.875" xlink:href="#DejaVuSans-50"/>
       <use x="385.498047" xlink:href="#DejaVuSans-48"/>
       <use x="449.121094" xlink:href="#DejaVuSans-50"/>
       <use x="512.744141" xlink:href="#DejaVuSans-48"/>
      </g>
     </g>
    </g>
    <g id="text_13">
     <!-- Day -->
     <defs>
      <path d="M 19.671875 64.796875 
L 19.671875 8.109375 
L 31.59375 8.109375 
Q 46.6875 8.109375 53.6875 14.9375 
Q 60.6875 21.78125 60.6875 36.53125 
Q 60.6875 51.171875 53.6875 57.984375 
Q 46.6875 64.796875 31.59375 64.796875 
z
M 9.8125 72.90625 
L 30.078125 72.90625 
Q 51.265625 72.90625 61.171875 64.09375 
Q 71.09375 55.28125 71.09375 36.53125 
Q 71.09375 17.671875 61.125 8.828125 
Q 51.171875 0 30.078125 0 
L 9.8125 0 
z
" id="DejaVuSans-68"/>
      <path d="M 34.28125 27.484375 
Q 23.390625 27.484375 19.1875 25 
Q 14.984375 22.515625 14.984375 16.5 
Q 14.984375 11.71875 18.140625 8.90625 
Q 21.296875 6.109375 26.703125 6.109375 
Q 34.1875 6.109375 38.703125 11.40625 
Q 43.21875 16.703125 43.21875 25.484375 
L 43.21875 27.484375 
z
M 52.203125 31.203125 
L 52.203125 0 
L 43.21875 0 
L 43.21875 8.296875 
Q 40.140625 3.328125 35.546875 0.953125 
Q 30.953125 -1.421875 24.3125 -1.421875 
Q 15.921875 -1.421875 10.953125 3.296875 
Q 6 8.015625 6 15.921875 
Q 6 25.140625 12.171875 29.828125 
Q 18.359375 34.515625 30.609375 34.515625 
L 43.21875 34.515625 
L 43.21875 35.40625 
Q 43.21875 41.609375 39.140625 45 
Q 35.0625 48.390625 27.6875 48.390625 
Q 23 48.390625 18.546875 47.265625 
Q 14.109375 46.140625 10.015625 43.890625 
L 10.015625 52.203125 
Q 14.9375 54.109375 19.578125 55.046875 
Q 24.21875 56 28.609375 56 
Q 40.484375 56 46.34375 49.84375 
Q 52.203125 43.703125 52.203125 31.203125 
z
" id="DejaVuSans-97"/>
      <path d="M 32.171875 -5.078125 
Q 28.375 -14.84375 24.75 -17.8125 
Q 21.140625 -20.796875 15.09375 -20.796875 
L 7.90625 -20.796875 
L 7.90625 -13.28125 
L 13.1875 -13.28125 
Q 16.890625 -13.28125 18.9375 -11.515625 
Q 21 -9.765625 23.484375 -3.21875 
L 25.09375 0.875 
L 2.984375 54.6875 
L 12.5 54.6875 
L 29.59375 11.921875 
L 46.6875 54.6875 
L 56.203125 54.6875 
z
" id="DejaVuSans-121"/>
     </defs>
     <g transform="translate(226.126562 274.650936)scale(0.1 -0.1)">
      <use xlink:href="#DejaVuSans-68"/>
      <use x="77.001953" xlink:href="#DejaVuSans-97"/>
      <use x="138.28125" xlink:href="#DejaVuSans-121"/>
     </g>
    </g>
   </g>
   <g id="matplotlib.axis_2">
    <g id="ytick_1">
     <g id="line2d_13">
      <defs>
       <path d="M 0 0 
L -3.5 0 
" id="m498ef6e2c5" style="stroke:#000000;stroke-width:0.8;"/>
      </defs>
      <g>
       <use style="stroke:#000000;stroke-width:0.8;" x="50.8" xlink:href="#m498ef6e2c5" y="218.852246"/>
      </g>
     </g>
     <g id="text_14">
      <!-- 0 -->
      <g transform="translate(37.4375 222.651465)scale(0.1 -0.1)">
       <use xlink:href="#DejaVuSans-48"/>
      </g>
     </g>
    </g>
    <g id="ytick_2">
     <g id="line2d_14">
      <g>
       <use style="stroke:#000000;stroke-width:0.8;" x="50.8" xlink:href="#m498ef6e2c5" y="192.671739"/>
      </g>
     </g>
     <g id="text_15">
      <!-- 20 -->
      <g transform="translate(31.075 196.470958)scale(0.1 -0.1)">
       <use xlink:href="#DejaVuSans-50"/>
       <use x="63.623047" xlink:href="#DejaVuSans-48"/>
      </g>
     </g>
    </g>
    <g id="ytick_3">
     <g id="line2d_15">
      <g>
       <use style="stroke:#000000;stroke-width:0.8;" x="50.8" xlink:href="#m498ef6e2c5" y="166.491233"/>
      </g>
     </g>
     <g id="text_16">
      <!-- 40 -->
      <g transform="translate(31.075 170.290452)scale(0.1 -0.1)">
       <use xlink:href="#DejaVuSans-52"/>
       <use x="63.623047" xlink:href="#DejaVuSans-48"/>
      </g>
     </g>
    </g>
    <g id="ytick_4">
     <g id="line2d_16">
      <g>
       <use style="stroke:#000000;stroke-width:0.8;" x="50.8" xlink:href="#m498ef6e2c5" y="140.310727"/>
      </g>
     </g>
     <g id="text_17">
      <!-- 60 -->
      <g transform="translate(31.075 144.109945)scale(0.1 -0.1)">
       <use xlink:href="#DejaVuSans-54"/>
       <use x="63.623047" xlink:href="#DejaVuSans-48"/>
      </g>
     </g>
    </g>
    <g id="ytick_5">
     <g id="line2d_17">
      <g>
       <use style="stroke:#000000;stroke-width:0.8;" x="50.8" xlink:href="#m498ef6e2c5" y="114.13022"/>
      </g>
     </g>
     <g id="text_18">
      <!-- 80 -->
      <defs>
       <path d="M 31.78125 34.625 
Q 24.75 34.625 20.71875 30.859375 
Q 16.703125 27.09375 16.703125 20.515625 
Q 16.703125 13.921875 20.71875 10.15625 
Q 24.75 6.390625 31.78125 6.390625 
Q 38.8125 6.390625 42.859375 10.171875 
Q 46.921875 13.96875 46.921875 20.515625 
Q 46.921875 27.09375 42.890625 30.859375 
Q 38.875 34.625 31.78125 34.625 
z
M 21.921875 38.8125 
Q 15.578125 40.375 12.03125 44.71875 
Q 8.5 49.078125 8.5 55.328125 
Q 8.5 64.0625 14.71875 69.140625 
Q 20.953125 74.21875 31.78125 74.21875 
Q 42.671875 74.21875 48.875 69.140625 
Q 55.078125 64.0625 55.078125 55.328125 
Q 55.078125 49.078125 51.53125 44.71875 
Q 48 40.375 41.703125 38.8125 
Q 48.828125 37.15625 52.796875 32.3125 
Q 56.78125 27.484375 56.78125 20.515625 
Q 56.78125 9.90625 50.3125 4.234375 
Q 43.84375 -1.421875 31.78125 -1.421875 
Q 19.734375 -1.421875 13.25 4.234375 
Q 6.78125 9.90625 6.78125 20.515625 
Q 6.78125 27.484375 10.78125 32.3125 
Q 14.796875 37.15625 21.921875 38.8125 
z
M 18.3125 54.390625 
Q 18.3125 48.734375 21.84375 45.5625 
Q 25.390625 42.390625 31.78125 42.390625 
Q 38.140625 42.390625 41.71875 45.5625 
Q 45.3125 48.734375 45.3125 54.390625 
Q 45.3125 60.0625 41.71875 63.234375 
Q 38.140625 66.40625 31.78125 66.40625 
Q 25.390625 66.40625 21.84375 63.234375 
Q 18.3125 60.0625 18.3125 54.390625 
z
" id="DejaVuSans-56"/>
      </defs>
      <g transform="translate(31.075 117.929439)scale(0.1 -0.1)">
       <use xlink:href="#DejaVuSans-56"/>
       <use x="63.623047" xlink:href="#DejaVuSans-48"/>
      </g>
     </g>
    </g>
    <g id="ytick_6">
     <g id="line2d_18">
      <g>
       <use style="stroke:#000000;stroke-width:0.8;" x="50.8" xlink:href="#m498ef6e2c5" y="87.949714"/>
      </g>
     </g>
     <g id="text_19">
      <!-- 100 -->
      <g transform="translate(24.7125 91.748932)scale(0.1 -0.1)">
       <use xlink:href="#DejaVuSans-49"/>
       <use x="63.623047" xlink:href="#DejaVuSans-48"/>
       <use x="127.246094" xlink:href="#DejaVuSans-48"/>
      </g>
     </g>
    </g>
    <g id="ytick_7">
     <g id="line2d_19">
      <g>
       <use style="stroke:#000000;stroke-width:0.8;" x="50.8" xlink:href="#m498ef6e2c5" y="61.769207"/>
      </g>
     </g>
     <g id="text_20">
      <!-- 120 -->
      <g transform="translate(24.7125 65.568426)scale(0.1 -0.1)">
       <use xlink:href="#DejaVuSans-49"/>
       <use x="63.623047" xlink:href="#DejaVuSans-50"/>
       <use x="127.246094" xlink:href="#DejaVuSans-48"/>
      </g>
     </g>
    </g>
    <g id="ytick_8">
     <g id="line2d_20">
      <g>
       <use style="stroke:#000000;stroke-width:0.8;" x="50.8" xlink:href="#m498ef6e2c5" y="35.588701"/>
      </g>
     </g>
     <g id="text_21">
      <!-- 140 -->
      <g transform="translate(24.7125 39.387919)scale(0.1 -0.1)">
       <use xlink:href="#DejaVuSans-49"/>
       <use x="63.623047" xlink:href="#DejaVuSans-52"/>
       <use x="127.246094" xlink:href="#DejaVuSans-48"/>
      </g>
     </g>
    </g>
    <g id="text_22">
     <!-- Numbers of comments -->
     <defs>
      <path d="M 9.8125 72.90625 
L 23.09375 72.90625 
L 55.421875 11.921875 
L 55.421875 72.90625 
L 64.984375 72.90625 
L 64.984375 0 
L 51.703125 0 
L 19.390625 60.984375 
L 19.390625 0 
L 9.8125 0 
z
" id="DejaVuSans-78"/>
      <path d="M 8.5 21.578125 
L 8.5 54.6875 
L 17.484375 54.6875 
L 17.484375 21.921875 
Q 17.484375 14.15625 20.5 10.265625 
Q 23.53125 6.390625 29.59375 6.390625 
Q 36.859375 6.390625 41.078125 11.03125 
Q 45.3125 15.671875 45.3125 23.6875 
L 45.3125 54.6875 
L 54.296875 54.6875 
L 54.296875 0 
L 45.3125 0 
L 45.3125 8.40625 
Q 42.046875 3.421875 37.71875 1 
Q 33.40625 -1.421875 27.6875 -1.421875 
Q 18.265625 -1.421875 13.375 4.4375 
Q 8.5 10.296875 8.5 21.578125 
z
M 31.109375 56 
z
" id="DejaVuSans-117"/>
      <path d="M 52 44.1875 
Q 55.375 50.25 60.0625 53.125 
Q 64.75 56 71.09375 56 
Q 79.640625 56 84.28125 50.015625 
Q 88.921875 44.046875 88.921875 33.015625 
L 88.921875 0 
L 79.890625 0 
L 79.890625 32.71875 
Q 79.890625 40.578125 77.09375 44.375 
Q 74.3125 48.1875 68.609375 48.1875 
Q 61.625 48.1875 57.5625 43.546875 
Q 53.515625 38.921875 53.515625 30.90625 
L 53.515625 0 
L 44.484375 0 
L 44.484375 32.71875 
Q 44.484375 40.625 41.703125 44.40625 
Q 38.921875 48.1875 33.109375 48.1875 
Q 26.21875 48.1875 22.15625 43.53125 
Q 18.109375 38.875 18.109375 30.90625 
L 18.109375 0 
L 9.078125 0 
L 9.078125 54.6875 
L 18.109375 54.6875 
L 18.109375 46.1875 
Q 21.1875 51.21875 25.484375 53.609375 
Q 29.78125 56 35.6875 56 
Q 41.65625 56 45.828125 52.96875 
Q 50 49.953125 52 44.1875 
z
" id="DejaVuSans-109"/>
      <path d="M 48.6875 27.296875 
Q 48.6875 37.203125 44.609375 42.84375 
Q 40.53125 48.484375 33.40625 48.484375 
Q 26.265625 48.484375 22.1875 42.84375 
Q 18.109375 37.203125 18.109375 27.296875 
Q 18.109375 17.390625 22.1875 11.75 
Q 26.265625 6.109375 33.40625 6.109375 
Q 40.53125 6.109375 44.609375 11.75 
Q 48.6875 17.390625 48.6875 27.296875 
z
M 18.109375 46.390625 
Q 20.953125 51.265625 25.265625 53.625 
Q 29.59375 56 35.59375 56 
Q 45.5625 56 51.78125 48.09375 
Q 58.015625 40.1875 58.015625 27.296875 
Q 58.015625 14.40625 51.78125 6.484375 
Q 45.5625 -1.421875 35.59375 -1.421875 
Q 29.59375 -1.421875 25.265625 0.953125 
Q 20.953125 3.328125 18.109375 8.203125 
L 18.109375 0 
L 9.078125 0 
L 9.078125 75.984375 
L 18.109375 75.984375 
z
" id="DejaVuSans-98"/>
      <path d="M 56.203125 29.59375 
L 56.203125 25.203125 
L 14.890625 25.203125 
Q 15.484375 15.921875 20.484375 11.0625 
Q 25.484375 6.203125 34.421875 6.203125 
Q 39.59375 6.203125 44.453125 7.46875 
Q 49.3125 8.734375 54.109375 11.28125 
L 54.109375 2.78125 
Q 49.265625 0.734375 44.1875 -0.34375 
Q 39.109375 -1.421875 33.890625 -1.421875 
Q 20.796875 -1.421875 13.15625 6.1875 
Q 5.515625 13.8125 5.515625 26.8125 
Q 5.515625 40.234375 12.765625 48.109375 
Q 20.015625 56 32.328125 56 
Q 43.359375 56 49.78125 48.890625 
Q 56.203125 41.796875 56.203125 29.59375 
z
M 47.21875 32.234375 
Q 47.125 39.59375 43.09375 43.984375 
Q 39.0625 48.390625 32.421875 48.390625 
Q 24.90625 48.390625 20.390625 44.140625 
Q 15.875 39.890625 15.1875 32.171875 
z
" id="DejaVuSans-101"/>
      <path d="M 41.109375 46.296875 
Q 39.59375 47.171875 37.8125 47.578125 
Q 36.03125 48 33.890625 48 
Q 26.265625 48 22.1875 43.046875 
Q 18.109375 38.09375 18.109375 28.8125 
L 18.109375 0 
L 9.078125 0 
L 9.078125 54.6875 
L 18.109375 54.6875 
L 18.109375 46.1875 
Q 20.953125 51.171875 25.484375 53.578125 
Q 30.03125 56 36.53125 56 
Q 37.453125 56 38.578125 55.875 
Q 39.703125 55.765625 41.0625 55.515625 
z
" id="DejaVuSans-114"/>
      <path d="M 44.28125 53.078125 
L 44.28125 44.578125 
Q 40.484375 46.53125 36.375 47.5 
Q 32.28125 48.484375 27.875 48.484375 
Q 21.1875 48.484375 17.84375 46.4375 
Q 14.5 44.390625 14.5 40.28125 
Q 14.5 37.15625 16.890625 35.375 
Q 19.28125 33.59375 26.515625 31.984375 
L 29.59375 31.296875 
Q 39.15625 29.25 43.1875 25.515625 
Q 47.21875 21.78125 47.21875 15.09375 
Q 47.21875 7.46875 41.1875 3.015625 
Q 35.15625 -1.421875 24.609375 -1.421875 
Q 20.21875 -1.421875 15.453125 -0.5625 
Q 10.6875 0.296875 5.421875 2 
L 5.421875 11.28125 
Q 10.40625 8.6875 15.234375 7.390625 
Q 20.0625 6.109375 24.8125 6.109375 
Q 31.15625 6.109375 34.5625 8.28125 
Q 37.984375 10.453125 37.984375 14.40625 
Q 37.984375 18.0625 35.515625 20.015625 
Q 33.0625 21.96875 24.703125 23.78125 
L 21.578125 24.515625 
Q 13.234375 26.265625 9.515625 29.90625 
Q 5.8125 33.546875 5.8125 39.890625 
Q 5.8125 47.609375 11.28125 51.796875 
Q 16.75 56 26.8125 56 
Q 31.78125 56 36.171875 55.265625 
Q 40.578125 54.546875 44.28125 53.078125 
z
" id="DejaVuSans-115"/>
      <path id="DejaVuSans-32"/>
      <path d="M 30.609375 48.390625 
Q 23.390625 48.390625 19.1875 42.75 
Q 14.984375 37.109375 14.984375 27.296875 
Q 14.984375 17.484375 19.15625 11.84375 
Q 23.34375 6.203125 30.609375 6.203125 
Q 37.796875 6.203125 41.984375 11.859375 
Q 46.1875 17.53125 46.1875 27.296875 
Q 46.1875 37.015625 41.984375 42.703125 
Q 37.796875 48.390625 30.609375 48.390625 
z
M 30.609375 56 
Q 42.328125 56 49.015625 48.375 
Q 55.71875 40.765625 55.71875 27.296875 
Q 55.71875 13.875 49.015625 6.21875 
Q 42.328125 -1.421875 30.609375 -1.421875 
Q 18.84375 -1.421875 12.171875 6.21875 
Q 5.515625 13.875 5.515625 27.296875 
Q 5.515625 40.765625 12.171875 48.375 
Q 18.84375 56 30.609375 56 
z
" id="DejaVuSans-111"/>
      <path d="M 37.109375 75.984375 
L 37.109375 68.5 
L 28.515625 68.5 
Q 23.6875 68.5 21.796875 66.546875 
Q 19.921875 64.59375 19.921875 59.515625 
L 19.921875 54.6875 
L 34.71875 54.6875 
L 34.71875 47.703125 
L 19.921875 47.703125 
L 19.921875 0 
L 10.890625 0 
L 10.890625 47.703125 
L 2.296875 47.703125 
L 2.296875 54.6875 
L 10.890625 54.6875 
L 10.890625 58.5 
Q 10.890625 67.625 15.140625 71.796875 
Q 19.390625 75.984375 28.609375 75.984375 
z
" id="DejaVuSans-102"/>
      <path d="M 48.78125 52.59375 
L 48.78125 44.1875 
Q 44.96875 46.296875 41.140625 47.34375 
Q 37.3125 48.390625 33.40625 48.390625 
Q 24.65625 48.390625 19.8125 42.84375 
Q 14.984375 37.3125 14.984375 27.296875 
Q 14.984375 17.28125 19.8125 11.734375 
Q 24.65625 6.203125 33.40625 6.203125 
Q 37.3125 6.203125 41.140625 7.25 
Q 44.96875 8.296875 48.78125 10.40625 
L 48.78125 2.09375 
Q 45.015625 0.34375 40.984375 -0.53125 
Q 36.96875 -1.421875 32.421875 -1.421875 
Q 20.0625 -1.421875 12.78125 6.34375 
Q 5.515625 14.109375 5.515625 27.296875 
Q 5.515625 40.671875 12.859375 48.328125 
Q 20.21875 56 33.015625 56 
Q 37.15625 56 41.109375 55.140625 
Q 45.0625 54.296875 48.78125 52.59375 
z
" id="DejaVuSans-99"/>
      <path d="M 54.890625 33.015625 
L 54.890625 0 
L 45.90625 0 
L 45.90625 32.71875 
Q 45.90625 40.484375 42.875 44.328125 
Q 39.84375 48.1875 33.796875 48.1875 
Q 26.515625 48.1875 22.3125 43.546875 
Q 18.109375 38.921875 18.109375 30.90625 
L 18.109375 0 
L 9.078125 0 
L 9.078125 54.6875 
L 18.109375 54.6875 
L 18.109375 46.1875 
Q 21.34375 51.125 25.703125 53.5625 
Q 30.078125 56 35.796875 56 
Q 45.21875 56 50.046875 50.171875 
Q 54.890625 44.34375 54.890625 33.015625 
z
" id="DejaVuSans-110"/>
      <path d="M 18.3125 70.21875 
L 18.3125 54.6875 
L 36.8125 54.6875 
L 36.8125 47.703125 
L 18.3125 47.703125 
L 18.3125 18.015625 
Q 18.3125 11.328125 20.140625 9.421875 
Q 21.96875 7.515625 27.59375 7.515625 
L 36.8125 7.515625 
L 36.8125 0 
L 27.59375 0 
Q 17.1875 0 13.234375 3.875 
Q 9.28125 7.765625 9.28125 18.015625 
L 9.28125 47.703125 
L 2.6875 47.703125 
L 2.6875 54.6875 
L 9.28125 54.6875 
L 9.28125 70.21875 
z
" id="DejaVuSans-116"/>
     </defs>
     <g transform="translate(18.632812 180.373779)rotate(-90)scale(0.1 -0.1)">
      <use xlink:href="#DejaVuSans-78"/>
      <use x="74.804688" xlink:href="#DejaVuSans-117"/>
      <use x="138.183594" xlink:href="#DejaVuSans-109"/>
      <use x="235.595703" xlink:href="#DejaVuSans-98"/>
      <use x="299.072266" xlink:href="#DejaVuSans-101"/>
      <use x="360.595703" xlink:href="#DejaVuSans-114"/>
      <use x="401.708984" xlink:href="#DejaVuSans-115"/>
      <use x="453.808594" xlink:href="#DejaVuSans-32"/>
      <use x="485.595703" xlink:href="#DejaVuSans-111"/>
      <use x="546.777344" xlink:href="#DejaVuSans-102"/>
      <use x="581.982422" xlink:href="#DejaVuSans-32"/>
      <use x="613.769531" xlink:href="#DejaVuSans-99"/>
      <use x="668.75" xlink:href="#DejaVuSans-111"/>
      <use x="729.931641" xlink:href="#DejaVuSans-109"/>
      <use x="827.34375" xlink:href="#DejaVuSans-109"/>
      <use x="924.755859" xlink:href="#DejaVuSans-101"/>
      <use x="986.279297" xlink:href="#DejaVuSans-110"/>
      <use x="1049.658203" xlink:href="#DejaVuSans-116"/>
      <use x="1088.867188" xlink:href="#DejaVuSans-115"/>
     </g>
    </g>
   </g>
   <g id="patch_76">
    <path d="M 50.8 218.852246 
L 50.8 27.8 
" style="fill:none;stroke:#000000;stroke-linecap:square;stroke-linejoin:miter;stroke-width:0.8;"/>
   </g>
   <g id="patch_77">
    <path d="M 421.2 218.852246 
L 421.2 27.8 
" style="fill:none;stroke:#000000;stroke-linecap:square;stroke-linejoin:miter;stroke-width:0.8;"/>
   </g>
   <g id="patch_78">
    <path d="M 50.8 218.852246 
L 421.2 218.852246 
" style="fill:none;stroke:#000000;stroke-linecap:square;stroke-linejoin:miter;stroke-width:0.8;"/>
   </g>
   <g id="patch_79">
    <path d="M 50.8 27.8 
L 421.2 27.8 
" style="fill:none;stroke:#000000;stroke-linecap:square;stroke-linejoin:miter;stroke-width:0.8;"/>
   </g>
   <g id="text_23">
    <!-- Activity of user: Veilchenbeschleuniger -->
    <defs>
     <path d="M 34.1875 63.1875 
L 20.796875 26.90625 
L 47.609375 26.90625 
z
M 28.609375 72.90625 
L 39.796875 72.90625 
L 67.578125 0 
L 57.328125 0 
L 50.6875 18.703125 
L 17.828125 18.703125 
L 11.1875 0 
L 0.78125 0 
z
" id="DejaVuSans-65"/>
     <path d="M 9.421875 54.6875 
L 18.40625 54.6875 
L 18.40625 0 
L 9.421875 0 
z
M 9.421875 75.984375 
L 18.40625 75.984375 
L 18.40625 64.59375 
L 9.421875 64.59375 
z
" id="DejaVuSans-105"/>
     <path d="M 2.984375 54.6875 
L 12.5 54.6875 
L 29.59375 8.796875 
L 46.6875 54.6875 
L 56.203125 54.6875 
L 35.6875 0 
L 23.484375 0 
z
" id="DejaVuSans-118"/>
     <path d="M 11.71875 12.40625 
L 22.015625 12.40625 
L 22.015625 0 
L 11.71875 0 
z
M 11.71875 51.703125 
L 22.015625 51.703125 
L 22.015625 39.3125 
L 11.71875 39.3125 
z
" id="DejaVuSans-58"/>
     <path d="M 28.609375 0 
L 0.78125 72.90625 
L 11.078125 72.90625 
L 34.1875 11.53125 
L 57.328125 72.90625 
L 67.578125 72.90625 
L 39.796875 0 
z
" id="DejaVuSans-86"/>
     <path d="M 9.421875 75.984375 
L 18.40625 75.984375 
L 18.40625 0 
L 9.421875 0 
z
" id="DejaVuSans-108"/>
     <path d="M 54.890625 33.015625 
L 54.890625 0 
L 45.90625 0 
L 45.90625 32.71875 
Q 45.90625 40.484375 42.875 44.328125 
Q 39.84375 48.1875 33.796875 48.1875 
Q 26.515625 48.1875 22.3125 43.546875 
Q 18.109375 38.921875 18.109375 30.90625 
L 18.109375 0 
L 9.078125 0 
L 9.078125 75.984375 
L 18.109375 75.984375 
L 18.109375 46.1875 
Q 21.34375 51.125 25.703125 53.5625 
Q 30.078125 56 35.796875 56 
Q 45.21875 56 50.046875 50.171875 
Q 54.890625 44.34375 54.890625 33.015625 
z
" id="DejaVuSans-104"/>
     <path d="M 45.40625 27.984375 
Q 45.40625 37.75 41.375 43.109375 
Q 37.359375 48.484375 30.078125 48.484375 
Q 22.859375 48.484375 18.828125 43.109375 
Q 14.796875 37.75 14.796875 27.984375 
Q 14.796875 18.265625 18.828125 12.890625 
Q 22.859375 7.515625 30.078125 7.515625 
Q 37.359375 7.515625 41.375 12.890625 
Q 45.40625 18.265625 45.40625 27.984375 
z
M 54.390625 6.78125 
Q 54.390625 -7.171875 48.1875 -13.984375 
Q 42 -20.796875 29.203125 -20.796875 
Q 24.46875 -20.796875 20.265625 -20.09375 
Q 16.0625 -19.390625 12.109375 -17.921875 
L 12.109375 -9.1875 
Q 16.0625 -11.328125 19.921875 -12.34375 
Q 23.78125 -13.375 27.78125 -13.375 
Q 36.625 -13.375 41.015625 -8.765625 
Q 45.40625 -4.15625 45.40625 5.171875 
L 45.40625 9.625 
Q 42.625 4.78125 38.28125 2.390625 
Q 33.9375 0 27.875 0 
Q 17.828125 0 11.671875 7.65625 
Q 5.515625 15.328125 5.515625 27.984375 
Q 5.515625 40.671875 11.671875 48.328125 
Q 17.828125 56 27.875 56 
Q 33.9375 56 38.28125 53.609375 
Q 42.625 51.21875 45.40625 46.390625 
L 45.40625 54.6875 
L 54.390625 54.6875 
z
" id="DejaVuSans-103"/>
    </defs>
    <g transform="translate(100.044687 21.8)scale(0.14 -0.14)">
     <use xlink:href="#DejaVuSans-65"/>
     <use x="66.658203" xlink:href="#DejaVuSans-99"/>
     <use x="121.638672" xlink:href="#DejaVuSans-116"/>
     <use x="160.847656" xlink:href="#DejaVuSans-105"/>
     <use x="188.630859" xlink:href="#DejaVuSans-118"/>
     <use x="247.810547" xlink:href="#DejaVuSans-105"/>
     <use x="275.59375" xlink:href="#DejaVuSans-116"/>
     <use x="314.802734" xlink:href="#DejaVuSans-121"/>
     <use x="373.982422" xlink:href="#DejaVuSans-32"/>
     <use x="405.769531" xlink:href="#DejaVuSans-111"/>
     <use x="466.951172" xlink:href="#DejaVuSans-102"/>
     <use x="502.15625" xlink:href="#DejaVuSans-32"/>
     <use x="533.943359" xlink:href="#DejaVuSans-117"/>
     <use x="597.322266" xlink:href="#DejaVuSans-115"/>
     <use x="649.421875" xlink:href="#DejaVuSans-101"/>
     <use x="710.945312" xlink:href="#DejaVuSans-114"/>
     <use x="750.308594" xlink:href="#DejaVuSans-58"/>
     <use x="784" xlink:href="#DejaVuSans-32"/>
     <use x="815.787109" xlink:href="#DejaVuSans-86"/>
     <use x="876.445312" xlink:href="#DejaVuSans-101"/>
     <use x="937.96875" xlink:href="#DejaVuSans-105"/>
     <use x="965.751953" xlink:href="#DejaVuSans-108"/>
     <use x="993.535156" xlink:href="#DejaVuSans-99"/>
     <use x="1048.515625" xlink:href="#DejaVuSans-104"/>
     <use x="1111.894531" xlink:href="#DejaVuSans-101"/>
     <use x="1173.417969" xlink:href="#DejaVuSans-110"/>
     <use x="1236.796875" xlink:href="#DejaVuSans-98"/>
     <use x="1300.273438" xlink:href="#DejaVuSans-101"/>
     <use x="1361.796875" xlink:href="#DejaVuSans-115"/>
     <use x="1413.896484" xlink:href="#DejaVuSans-99"/>
     <use x="1468.876953" xlink:href="#DejaVuSans-104"/>
     <use x="1532.255859" xlink:href="#DejaVuSans-108"/>
     <use x="1560.039062" xlink:href="#DejaVuSans-101"/>
     <use x="1621.5625" xlink:href="#DejaVuSans-117"/>
     <use x="1684.941406" xlink:href="#DejaVuSans-110"/>
     <use x="1748.320312" xlink:href="#DejaVuSans-105"/>
     <use x="1776.103516" xlink:href="#DejaVuSans-103"/>
     <use x="1839.580078" xlink:href="#DejaVuSans-101"/>
     <use x="1901.103516" xlink:href="#DejaVuSans-114"/>
    </g>
   </g>
  </g>
 </g>
 <defs>
  <clipPath id="pe5cd3bb1a8">
   <rect height="191.052246" width="370.4" x="50.8" y="27.8"/>
  </clipPath>
 </defs>
</svg>
