<?xml version="1.0" standalone="no"?>
<!DOCTYPE svg PUBLIC "-//W3C//DTD SVG 20010904//EN"
 "http://www.w3.org/TR/2001/REC-SVG-20010904/DTD/svg10.dtd">
<svg version="1.0" xmlns="http://www.w3.org/2000/svg"
 width="421.000000pt" height="403.000000pt" viewBox="0 0 421.000000 403.000000"
 preserveAspectRatio="xMidYMid meet">
<metadata>
Created by potrace 1.16, written by Peter Selinger 2001-2019
</metadata>
<g transform="translate(0.000000,403.000000) scale(0.100000,-0.100000)"
fill="#000000" stroke="none">
<path d="M733 3243 l47 -4 0 -219 0 -219 -47 -4 -48 -3 48 -2 47 -2 0 -224 0
-225 -47 -4 -48 -3 48 -2 47 -2 0 -219 0 -220 -47 -4 -48 -3 48 -2 47 -2 0
-219 0 -220 -47 -4 -48 -3 48 -2 47 -2 0 -224 0 -225 -47 -4 -48 -3 47 -2 47
-2 4 -47 3 -48 2 48 2 47 299 0 300 0 4 -47 3 -48 2 48 2 47 294 0 295 0 4
-47 3 -48 2 48 2 47 294 0 295 0 4 -48 3 -47 2 48 2 47 299 0 300 0 4 -47 3
-48 2 48 2 47 294 0 295 0 4 -47 c2 -27 4 486 5 1140 l2 1187 -1562 -2 c-860
-1 -1542 -3 -1515 -5z m1562 -1128 c-824 -619 -1499 -1125 -1501 -1125 -2 0
-4 506 -4 1125 l0 1125 1501 0 1501 0 -1497 -1125z m1491 823 c-18 -751 -83
-1223 -202 -1462 -49 -97 -85 -146 -154 -209 -172 -156 -454 -217 -1145 -248
-201 -9 -1453 -29 -1463 -24 -4 3 2953 2224 2962 2224 6 1 6 -113 2 -281z m14
-1153 l0 -805 -1012 2 c-557 1 -961 3 -898 5 252 5 663 25 810 39 720 67 922
241 1029 884 25 152 48 369 57 548 4 72 9 132 10 132 2 0 4 -362 4 -805z"/>
</g>
</svg>
