<?xml version="1.0" encoding="utf-8" standalone="no"?>
<!DOCTYPE svg PUBLIC "-//W3C//DTD SVG 1.1//EN"
  "http://www.w3.org/Graphics/SVG/1.1/DTD/svg11.dtd">
<!-- Created with matplotlib (https://matplotlib.org/) -->
<svg height="288pt" version="1.1" viewBox="0 0 432 288" width="432pt" xmlns="http://www.w3.org/2000/svg" xmlns:xlink="http://www.w3.org/1999/xlink">
 <defs>
  <style type="text/css">
*{stroke-linecap:butt;stroke-linejoin:round;}
  </style>
 </defs>
 <g id="figure_1">
  <g id="patch_1">
   <path d="M 0 288 
L 432 288 
L 432 0 
L 0 0 
z
" style="fill:#ffffff;"/>
  </g>
  <g id="axes_1">
   <g id="patch_2">
    <path d="M 61.390847 218.852246 
L 421.2 218.852246 
L 421.2 27.8 
L 61.390847 27.8 
z
" style="fill:#ffffff;"/>
   </g>
   <g id="patch_3">
    <path clip-path="url(#p31182959f7)" d="M 77.745808 218.852246 
L 81.494797 218.852246 
L 81.494797 218.30419 
L 77.745808 218.30419 
z
" style="fill:#808080;"/>
   </g>
   <g id="patch_4">
    <path clip-path="url(#p31182959f7)" d="M 82.432044 218.852246 
L 86.181032 218.852246 
L 86.181032 155.277775 
L 82.432044 155.277775 
z
" style="fill:#808080;"/>
   </g>
   <g id="patch_5">
    <path clip-path="url(#p31182959f7)" d="M 87.118279 218.852246 
L 90.867267 218.852246 
L 90.867267 121.846372 
L 87.118279 121.846372 
z
"/>
   </g>
   <g id="patch_6">
    <path clip-path="url(#p31182959f7)" d="M 91.804514 218.852246 
L 95.553503 218.852246 
L 95.553503 157.469998 
L 91.804514 157.469998 
z
" style="fill:#808080;"/>
   </g>
   <g id="patch_7">
    <path clip-path="url(#p31182959f7)" d="M 96.49075 218.852246 
L 100.239738 218.852246 
L 100.239738 41.830228 
L 96.49075 41.830228 
z
"/>
   </g>
   <g id="patch_8">
    <path clip-path="url(#p31182959f7)" d="M 101.176985 218.852246 
L 104.925974 218.852246 
L 104.925974 160.758333 
L 101.176985 160.758333 
z
" style="fill:#808080;"/>
   </g>
   <g id="patch_9">
    <path clip-path="url(#p31182959f7)" d="M 105.863221 218.852246 
L 109.612209 218.852246 
L 109.612209 161.306389 
L 105.863221 161.306389 
z
" style="fill:#808080;"/>
   </g>
   <g id="patch_10">
    <path clip-path="url(#p31182959f7)" d="M 110.549456 218.852246 
L 114.298444 218.852246 
L 114.298444 143.768604 
L 110.549456 143.768604 
z
" style="fill:#808080;"/>
   </g>
   <g id="patch_11">
    <path clip-path="url(#p31182959f7)" d="M 115.235691 218.852246 
L 118.98468 218.852246 
L 118.98468 131.711376 
L 115.235691 131.711376 
z
" style="fill:#808080;"/>
   </g>
   <g id="patch_12">
    <path clip-path="url(#p31182959f7)" d="M 119.921927 218.852246 
L 123.670915 218.852246 
L 123.670915 88.963025 
L 119.921927 88.963025 
z
" style="fill:#808080;"/>
   </g>
   <g id="patch_13">
    <path clip-path="url(#p31182959f7)" d="M 124.608162 218.852246 
L 128.357151 218.852246 
L 128.357151 125.682763 
L 124.608162 125.682763 
z
" style="fill:#808080;"/>
   </g>
   <g id="patch_14">
    <path clip-path="url(#p31182959f7)" d="M 129.294398 218.852246 
L 133.043386 218.852246 
L 133.043386 154.181664 
L 129.294398 154.181664 
z
" style="fill:#808080;"/>
   </g>
   <g id="patch_15">
    <path clip-path="url(#p31182959f7)" d="M 133.980633 218.852246 
L 137.729621 218.852246 
L 137.729621 165.142779 
L 133.980633 165.142779 
z
" style="fill:#808080;"/>
   </g>
   <g id="patch_16">
    <path clip-path="url(#p31182959f7)" d="M 138.666868 218.852246 
L 142.415857 218.852246 
L 142.415857 139.384157 
L 138.666868 139.384157 
z
" style="fill:#808080;"/>
   </g>
   <g id="patch_17">
    <path clip-path="url(#p31182959f7)" d="M 143.353104 218.852246 
L 147.102092 218.852246 
L 147.102092 135.547767 
L 143.353104 135.547767 
z
" style="fill:#808080;"/>
   </g>
   <g id="patch_18">
    <path clip-path="url(#p31182959f7)" d="M 148.039339 218.852246 
L 151.788327 218.852246 
L 151.788327 112.529424 
L 148.039339 112.529424 
z
" style="fill:#808080;"/>
   </g>
   <g id="patch_19">
    <path clip-path="url(#p31182959f7)" d="M 152.725575 218.852246 
L 156.474563 218.852246 
L 156.474563 109.789145 
L 152.725575 109.789145 
z
" style="fill:#808080;"/>
   </g>
   <g id="patch_20">
    <path clip-path="url(#p31182959f7)" d="M 157.41181 218.852246 
L 161.160798 218.852246 
L 161.160798 108.144978 
L 157.41181 108.144978 
z
" style="fill:#808080;"/>
   </g>
   <g id="patch_21">
    <path clip-path="url(#p31182959f7)" d="M 162.098045 218.852246 
L 165.847034 218.852246 
L 165.847034 116.365815 
L 162.098045 116.365815 
z
" style="fill:#808080;"/>
   </g>
   <g id="patch_22">
    <path clip-path="url(#p31182959f7)" d="M 166.784281 218.852246 
L 170.533269 218.852246 
L 170.533269 190.353345 
L 166.784281 190.353345 
z
" style="fill:#808080;"/>
   </g>
   <g id="patch_23">
    <path clip-path="url(#p31182959f7)" d="M 171.470516 218.852246 
L 175.219504 218.852246 
L 175.219504 156.373887 
L 171.470516 156.373887 
z
" style="fill:#808080;"/>
   </g>
   <g id="patch_24">
    <path clip-path="url(#p31182959f7)" d="M 176.156751 218.852246 
L 179.90574 218.852246 
L 179.90574 187.613066 
L 176.156751 187.613066 
z
"/>
   </g>
   <g id="patch_25">
    <path clip-path="url(#p31182959f7)" d="M 180.842987 218.852246 
L 184.591975 218.852246 
L 184.591975 208.439186 
L 180.842987 208.439186 
z
" style="fill:#808080;"/>
   </g>
   <g id="patch_26">
    <path clip-path="url(#p31182959f7)" d="M 185.529222 218.852246 
L 189.278211 218.852246 
L 189.278211 213.371688 
L 185.529222 213.371688 
z
" style="fill:#808080;"/>
   </g>
   <g id="patch_27">
    <path clip-path="url(#p31182959f7)" d="M 190.215458 218.852246 
L 193.964446 218.852246 
L 193.964446 213.371688 
L 190.215458 213.371688 
z
" style="fill:#808080;"/>
   </g>
   <g id="patch_28">
    <path clip-path="url(#p31182959f7)" d="M 194.901693 218.852246 
L 198.650681 218.852246 
L 198.650681 217.208079 
L 194.901693 217.208079 
z
" style="fill:#808080;"/>
   </g>
   <g id="patch_29">
    <path clip-path="url(#p31182959f7)" d="M 199.587928 218.852246 
L 203.336917 218.852246 
L 203.336917 218.30419 
L 199.587928 218.30419 
z
" style="fill:#808080;"/>
   </g>
   <g id="patch_30">
    <path clip-path="url(#p31182959f7)" d="M 204.274164 218.852246 
L 208.023152 218.852246 
L 208.023152 218.30419 
L 204.274164 218.30419 
z
" style="fill:#808080;"/>
   </g>
   <g id="patch_31">
    <path clip-path="url(#p31182959f7)" d="M 208.960399 218.852246 
L 212.709388 218.852246 
L 212.709388 61.560236 
L 208.960399 61.560236 
z
"/>
   </g>
   <g id="patch_32">
    <path clip-path="url(#p31182959f7)" d="M 213.646635 218.852246 
L 217.395623 218.852246 
L 217.395623 99.376085 
L 213.646635 99.376085 
z
" style="fill:#808080;"/>
   </g>
   <g id="patch_33">
    <path clip-path="url(#p31182959f7)" d="M 218.33287 218.852246 
L 222.081858 218.852246 
L 222.081858 133.355544 
L 218.33287 133.355544 
z
" style="fill:#808080;"/>
   </g>
   <g id="patch_34">
    <path clip-path="url(#p31182959f7)" d="M 223.019105 218.852246 
L 226.768094 218.852246 
L 226.768094 128.423042 
L 223.019105 128.423042 
z
" style="fill:#808080;"/>
   </g>
   <g id="patch_35">
    <path clip-path="url(#p31182959f7)" d="M 227.705341 218.852246 
L 231.454329 218.852246 
L 231.454329 169.527225 
L 227.705341 169.527225 
z
" style="fill:#808080;"/>
   </g>
   <g id="patch_36">
    <path clip-path="url(#p31182959f7)" d="M 232.391576 218.852246 
L 236.140564 218.852246 
L 236.140564 177.200006 
L 232.391576 177.200006 
z
" style="fill:#808080;"/>
   </g>
   <g id="patch_37">
    <path clip-path="url(#p31182959f7)" d="M 237.077812 218.852246 
L 240.8268 218.852246 
L 240.8268 181.584453 
L 237.077812 181.584453 
z
" style="fill:#808080;"/>
   </g>
   <g id="patch_38">
    <path clip-path="url(#p31182959f7)" d="M 241.764047 218.852246 
L 245.513035 218.852246 
L 245.513035 151.98944 
L 241.764047 151.98944 
z
" style="fill:#808080;"/>
   </g>
   <g id="patch_39">
    <path clip-path="url(#p31182959f7)" d="M 246.450282 218.852246 
L 250.199271 218.852246 
L 250.199271 100.472197 
L 246.450282 100.472197 
z
" style="fill:#808080;"/>
   </g>
   <g id="patch_40">
    <path clip-path="url(#p31182959f7)" d="M 251.136518 218.852246 
L 254.885506 218.852246 
L 254.885506 143.768604 
L 251.136518 143.768604 
z
" style="fill:#808080;"/>
   </g>
   <g id="patch_41">
    <path clip-path="url(#p31182959f7)" d="M 255.822753 218.852246 
L 259.571741 218.852246 
L 259.571741 134.999711 
L 255.822753 134.999711 
z
" style="fill:#808080;"/>
   </g>
   <g id="patch_42">
    <path clip-path="url(#p31182959f7)" d="M 260.508988 218.852246 
L 264.257977 218.852246 
L 264.257977 105.952755 
L 260.508988 105.952755 
z
" style="fill:#808080;"/>
   </g>
   <g id="patch_43">
    <path clip-path="url(#p31182959f7)" d="M 265.195224 218.852246 
L 268.944212 218.852246 
L 268.944212 179.39223 
L 265.195224 179.39223 
z
" style="fill:#808080;"/>
   </g>
   <g id="patch_44">
    <path clip-path="url(#p31182959f7)" d="M 269.881459 218.852246 
L 273.630448 218.852246 
L 273.630448 128.423042 
L 269.881459 128.423042 
z
" style="fill:#808080;"/>
   </g>
   <g id="patch_45">
    <path clip-path="url(#p31182959f7)" d="M 274.567695 218.852246 
L 278.316683 218.852246 
L 278.316683 137.73999 
L 274.567695 137.73999 
z
" style="fill:#808080;"/>
   </g>
   <g id="patch_46">
    <path clip-path="url(#p31182959f7)" d="M 279.25393 218.852246 
L 283.002918 218.852246 
L 283.002918 111.981368 
L 279.25393 111.981368 
z
" style="fill:#808080;"/>
   </g>
   <g id="patch_47">
    <path clip-path="url(#p31182959f7)" d="M 283.940165 218.852246 
L 287.689154 218.852246 
L 287.689154 93.895527 
L 283.940165 93.895527 
z
" style="fill:#808080;"/>
   </g>
   <g id="patch_48">
    <path clip-path="url(#p31182959f7)" d="M 288.626401 218.852246 
L 292.375389 218.852246 
L 292.375389 96.635806 
L 288.626401 96.635806 
z
" style="fill:#808080;"/>
   </g>
   <g id="patch_49">
    <path clip-path="url(#p31182959f7)" d="M 293.312636 218.852246 
L 297.061625 218.852246 
L 297.061625 160.758333 
L 293.312636 160.758333 
z
" style="fill:#808080;"/>
   </g>
   <g id="patch_50">
    <path clip-path="url(#p31182959f7)" d="M 297.998872 218.852246 
L 301.74786 218.852246 
L 301.74786 181.036397 
L 297.998872 181.036397 
z
" style="fill:#808080;"/>
   </g>
   <g id="patch_51">
    <path clip-path="url(#p31182959f7)" d="M 302.685107 218.852246 
L 306.434095 218.852246 
L 306.434095 161.854445 
L 302.685107 161.854445 
z
" style="fill:#808080;"/>
   </g>
   <g id="patch_52">
    <path clip-path="url(#p31182959f7)" d="M 307.371342 218.852246 
L 311.120331 218.852246 
L 311.120331 120.750261 
L 307.371342 120.750261 
z
" style="fill:#808080;"/>
   </g>
   <g id="patch_53">
    <path clip-path="url(#p31182959f7)" d="M 312.057578 218.852246 
L 315.806566 218.852246 
L 315.806566 106.50081 
L 312.057578 106.50081 
z
" style="fill:#808080;"/>
   </g>
   <g id="patch_54">
    <path clip-path="url(#p31182959f7)" d="M 316.743813 218.852246 
L 320.492801 218.852246 
L 320.492801 157.469998 
L 316.743813 157.469998 
z
" style="fill:#808080;"/>
   </g>
   <g id="patch_55">
    <path clip-path="url(#p31182959f7)" d="M 321.430049 218.852246 
L 325.179037 218.852246 
L 325.179037 168.431114 
L 321.430049 168.431114 
z
" style="fill:#808080;"/>
   </g>
   <g id="patch_56">
    <path clip-path="url(#p31182959f7)" d="M 326.116284 218.852246 
L 329.865272 218.852246 
L 329.865272 36.897726 
L 326.116284 36.897726 
z
" style="fill:#808080;"/>
   </g>
   <g id="patch_57">
    <path clip-path="url(#p31182959f7)" d="M 330.802519 218.852246 
L 334.551508 218.852246 
L 334.551508 80.194133 
L 330.802519 80.194133 
z
" style="fill:#808080;"/>
   </g>
   <g id="patch_58">
    <path clip-path="url(#p31182959f7)" d="M 335.488755 218.852246 
L 339.237743 218.852246 
L 339.237743 193.093624 
L 335.488755 193.093624 
z
" style="fill:#808080;"/>
   </g>
   <g id="patch_59">
    <path clip-path="url(#p31182959f7)" d="M 340.17499 218.852246 
L 343.923978 218.852246 
L 343.923978 139.384157 
L 340.17499 139.384157 
z
" style="fill:#808080;"/>
   </g>
   <g id="patch_60">
    <path clip-path="url(#p31182959f7)" d="M 344.861226 218.852246 
L 348.610214 218.852246 
L 348.610214 137.73999 
L 344.861226 137.73999 
z
" style="fill:#808080;"/>
   </g>
   <g id="patch_61">
    <path clip-path="url(#p31182959f7)" d="M 349.547461 218.852246 
L 353.296449 218.852246 
L 353.296449 193.64168 
L 349.547461 193.64168 
z
" style="fill:#808080;"/>
   </g>
   <g id="patch_62">
    <path clip-path="url(#p31182959f7)" d="M 354.233696 218.852246 
L 357.982685 218.852246 
L 357.982685 199.670294 
L 354.233696 199.670294 
z
" style="fill:#808080;"/>
   </g>
   <g id="patch_63">
    <path clip-path="url(#p31182959f7)" d="M 358.919932 218.852246 
L 362.66892 218.852246 
L 362.66892 161.854445 
L 358.919932 161.854445 
z
" style="fill:#808080;"/>
   </g>
   <g id="patch_64">
    <path clip-path="url(#p31182959f7)" d="M 363.606167 218.852246 
L 367.355155 218.852246 
L 367.355155 168.97917 
L 363.606167 168.97917 
z
" style="fill:#808080;"/>
   </g>
   <g id="patch_65">
    <path clip-path="url(#p31182959f7)" d="M 368.292402 218.852246 
L 372.041391 218.852246 
L 372.041391 181.584453 
L 368.292402 181.584453 
z
" style="fill:#808080;"/>
   </g>
   <g id="patch_66">
    <path clip-path="url(#p31182959f7)" d="M 372.978638 218.852246 
L 376.727626 218.852246 
L 376.727626 124.038595 
L 372.978638 124.038595 
z
" style="fill:#808080;"/>
   </g>
   <g id="patch_67">
    <path clip-path="url(#p31182959f7)" d="M 377.664873 218.852246 
L 381.413862 218.852246 
L 381.413862 178.844174 
L 377.664873 178.844174 
z
" style="fill:#808080;"/>
   </g>
   <g id="patch_68">
    <path clip-path="url(#p31182959f7)" d="M 382.351109 218.852246 
L 386.100097 218.852246 
L 386.100097 162.950556 
L 382.351109 162.950556 
z
" style="fill:#808080;"/>
   </g>
   <g id="patch_69">
    <path clip-path="url(#p31182959f7)" d="M 387.037344 218.852246 
L 390.786332 218.852246 
L 390.786332 201.314461 
L 387.037344 201.314461 
z
" style="fill:#808080;"/>
   </g>
   <g id="patch_70">
    <path clip-path="url(#p31182959f7)" d="M 391.723579 218.852246 
L 395.472568 218.852246 
L 395.472568 202.958628 
L 391.723579 202.958628 
z
" style="fill:#808080;"/>
   </g>
   <g id="patch_71">
    <path clip-path="url(#p31182959f7)" d="M 396.409815 218.852246 
L 400.158803 218.852246 
L 400.158803 168.431114 
L 396.409815 168.431114 
z
" style="fill:#808080;"/>
   </g>
   <g id="patch_72">
    <path clip-path="url(#p31182959f7)" d="M 401.09605 218.852246 
L 404.845038 218.852246 
L 404.845038 160.758333 
L 401.09605 160.758333 
z
" style="fill:#808080;"/>
   </g>
   <g id="matplotlib.axis_1">
    <g id="xtick_1">
     <g id="line2d_1">
      <defs>
       <path d="M 0 0 
L 0 3.5 
" id="m0dd831930f" style="stroke:#000000;stroke-width:0.8;"/>
      </defs>
      <g>
       <use style="stroke:#000000;stroke-width:0.8;" x="65.561596" xlink:href="#m0dd831930f" y="218.852246"/>
      </g>
     </g>
     <g id="text_1">
      <!-- 06/03/2020 -->
      <defs>
       <path d="M 31.78125 66.40625 
Q 24.171875 66.40625 20.328125 58.90625 
Q 16.5 51.421875 16.5 36.375 
Q 16.5 21.390625 20.328125 13.890625 
Q 24.171875 6.390625 31.78125 6.390625 
Q 39.453125 6.390625 43.28125 13.890625 
Q 47.125 21.390625 47.125 36.375 
Q 47.125 51.421875 43.28125 58.90625 
Q 39.453125 66.40625 31.78125 66.40625 
z
M 31.78125 74.21875 
Q 44.046875 74.21875 50.515625 64.515625 
Q 56.984375 54.828125 56.984375 36.375 
Q 56.984375 17.96875 50.515625 8.265625 
Q 44.046875 -1.421875 31.78125 -1.421875 
Q 19.53125 -1.421875 13.0625 8.265625 
Q 6.59375 17.96875 6.59375 36.375 
Q 6.59375 54.828125 13.0625 64.515625 
Q 19.53125 74.21875 31.78125 74.21875 
z
" id="DejaVuSans-48"/>
       <path d="M 33.015625 40.375 
Q 26.375 40.375 22.484375 35.828125 
Q 18.609375 31.296875 18.609375 23.390625 
Q 18.609375 15.53125 22.484375 10.953125 
Q 26.375 6.390625 33.015625 6.390625 
Q 39.65625 6.390625 43.53125 10.953125 
Q 47.40625 15.53125 47.40625 23.390625 
Q 47.40625 31.296875 43.53125 35.828125 
Q 39.65625 40.375 33.015625 40.375 
z
M 52.59375 71.296875 
L 52.59375 62.3125 
Q 48.875 64.0625 45.09375 64.984375 
Q 41.3125 65.921875 37.59375 65.921875 
Q 27.828125 65.921875 22.671875 59.328125 
Q 17.53125 52.734375 16.796875 39.40625 
Q 19.671875 43.65625 24.015625 45.921875 
Q 28.375 48.1875 33.59375 48.1875 
Q 44.578125 48.1875 50.953125 41.515625 
Q 57.328125 34.859375 57.328125 23.390625 
Q 57.328125 12.15625 50.6875 5.359375 
Q 44.046875 -1.421875 33.015625 -1.421875 
Q 20.359375 -1.421875 13.671875 8.265625 
Q 6.984375 17.96875 6.984375 36.375 
Q 6.984375 53.65625 15.1875 63.9375 
Q 23.390625 74.21875 37.203125 74.21875 
Q 40.921875 74.21875 44.703125 73.484375 
Q 48.484375 72.75 52.59375 71.296875 
z
" id="DejaVuSans-54"/>
       <path d="M 25.390625 72.90625 
L 33.6875 72.90625 
L 8.296875 -9.28125 
L 0 -9.28125 
z
" id="DejaVuSans-47"/>
       <path d="M 40.578125 39.3125 
Q 47.65625 37.796875 51.625 33 
Q 55.609375 28.21875 55.609375 21.1875 
Q 55.609375 10.40625 48.1875 4.484375 
Q 40.765625 -1.421875 27.09375 -1.421875 
Q 22.515625 -1.421875 17.65625 -0.515625 
Q 12.796875 0.390625 7.625 2.203125 
L 7.625 11.71875 
Q 11.71875 9.328125 16.59375 8.109375 
Q 21.484375 6.890625 26.8125 6.890625 
Q 36.078125 6.890625 40.9375 10.546875 
Q 45.796875 14.203125 45.796875 21.1875 
Q 45.796875 27.640625 41.28125 31.265625 
Q 36.765625 34.90625 28.71875 34.90625 
L 20.21875 34.90625 
L 20.21875 43.015625 
L 29.109375 43.015625 
Q 36.375 43.015625 40.234375 45.921875 
Q 44.09375 48.828125 44.09375 54.296875 
Q 44.09375 59.90625 40.109375 62.90625 
Q 36.140625 65.921875 28.71875 65.921875 
Q 24.65625 65.921875 20.015625 65.03125 
Q 15.375 64.15625 9.8125 62.3125 
L 9.8125 71.09375 
Q 15.4375 72.65625 20.34375 73.4375 
Q 25.25 74.21875 29.59375 74.21875 
Q 40.828125 74.21875 47.359375 69.109375 
Q 53.90625 64.015625 53.90625 55.328125 
Q 53.90625 49.265625 50.4375 45.09375 
Q 46.96875 40.921875 40.578125 39.3125 
z
" id="DejaVuSans-51"/>
       <path d="M 19.1875 8.296875 
L 53.609375 8.296875 
L 53.609375 0 
L 7.328125 0 
L 7.328125 8.296875 
Q 12.9375 14.109375 22.625 23.890625 
Q 32.328125 33.6875 34.8125 36.53125 
Q 39.546875 41.84375 41.421875 45.53125 
Q 43.3125 49.21875 43.3125 52.78125 
Q 43.3125 58.59375 39.234375 62.25 
Q 35.15625 65.921875 28.609375 65.921875 
Q 23.96875 65.921875 18.8125 64.3125 
Q 13.671875 62.703125 7.8125 59.421875 
L 7.8125 69.390625 
Q 13.765625 71.78125 18.9375 73 
Q 24.125 74.21875 28.421875 74.21875 
Q 39.75 74.21875 46.484375 68.546875 
Q 53.21875 62.890625 53.21875 53.421875 
Q 53.21875 48.921875 51.53125 44.890625 
Q 49.859375 40.875 45.40625 35.40625 
Q 44.1875 33.984375 37.640625 27.21875 
Q 31.109375 20.453125 19.1875 8.296875 
z
" id="DejaVuSans-50"/>
      </defs>
      <g transform="translate(14.606213 261.251436)rotate(-30)scale(0.1 -0.1)">
       <use xlink:href="#DejaVuSans-48"/>
       <use x="63.623047" xlink:href="#DejaVuSans-54"/>
       <use x="127.246094" xlink:href="#DejaVuSans-47"/>
       <use x="160.9375" xlink:href="#DejaVuSans-48"/>
       <use x="224.560547" xlink:href="#DejaVuSans-51"/>
       <use x="288.183594" xlink:href="#DejaVuSans-47"/>
       <use x="321.875" xlink:href="#DejaVuSans-50"/>
       <use x="385.498047" xlink:href="#DejaVuSans-48"/>
       <use x="449.121094" xlink:href="#DejaVuSans-50"/>
       <use x="512.744141" xlink:href="#DejaVuSans-48"/>
      </g>
     </g>
    </g>
    <g id="xtick_2">
     <g id="line2d_2">
      <g>
       <use style="stroke:#000000;stroke-width:0.8;" x="98.365244" xlink:href="#m0dd831930f" y="218.852246"/>
      </g>
     </g>
     <g id="text_2">
      <!-- 13/03/2020 -->
      <defs>
       <path d="M 12.40625 8.296875 
L 28.515625 8.296875 
L 28.515625 63.921875 
L 10.984375 60.40625 
L 10.984375 69.390625 
L 28.421875 72.90625 
L 38.28125 72.90625 
L 38.28125 8.296875 
L 54.390625 8.296875 
L 54.390625 0 
L 12.40625 0 
z
" id="DejaVuSans-49"/>
      </defs>
      <g transform="translate(47.409861 261.251436)rotate(-30)scale(0.1 -0.1)">
       <use xlink:href="#DejaVuSans-49"/>
       <use x="63.623047" xlink:href="#DejaVuSans-51"/>
       <use x="127.246094" xlink:href="#DejaVuSans-47"/>
       <use x="160.9375" xlink:href="#DejaVuSans-48"/>
       <use x="224.560547" xlink:href="#DejaVuSans-51"/>
       <use x="288.183594" xlink:href="#DejaVuSans-47"/>
       <use x="321.875" xlink:href="#DejaVuSans-50"/>
       <use x="385.498047" xlink:href="#DejaVuSans-48"/>
       <use x="449.121094" xlink:href="#DejaVuSans-50"/>
       <use x="512.744141" xlink:href="#DejaVuSans-48"/>
      </g>
     </g>
    </g>
    <g id="xtick_3">
     <g id="line2d_3">
      <g>
       <use style="stroke:#000000;stroke-width:0.8;" x="131.168892" xlink:href="#m0dd831930f" y="218.852246"/>
      </g>
     </g>
     <g id="text_3">
      <!-- 20/03/2020 -->
      <g transform="translate(80.213509 261.251436)rotate(-30)scale(0.1 -0.1)">
       <use xlink:href="#DejaVuSans-50"/>
       <use x="63.623047" xlink:href="#DejaVuSans-48"/>
       <use x="127.246094" xlink:href="#DejaVuSans-47"/>
       <use x="160.9375" xlink:href="#DejaVuSans-48"/>
       <use x="224.560547" xlink:href="#DejaVuSans-51"/>
       <use x="288.183594" xlink:href="#DejaVuSans-47"/>
       <use x="321.875" xlink:href="#DejaVuSans-50"/>
       <use x="385.498047" xlink:href="#DejaVuSans-48"/>
       <use x="449.121094" xlink:href="#DejaVuSans-50"/>
       <use x="512.744141" xlink:href="#DejaVuSans-48"/>
      </g>
     </g>
    </g>
    <g id="xtick_4">
     <g id="line2d_4">
      <g>
       <use style="stroke:#000000;stroke-width:0.8;" x="163.972539" xlink:href="#m0dd831930f" y="218.852246"/>
      </g>
     </g>
     <g id="text_4">
      <!-- 27/03/2020 -->
      <defs>
       <path d="M 8.203125 72.90625 
L 55.078125 72.90625 
L 55.078125 68.703125 
L 28.609375 0 
L 18.3125 0 
L 43.21875 64.59375 
L 8.203125 64.59375 
z
" id="DejaVuSans-55"/>
      </defs>
      <g transform="translate(113.017157 261.251436)rotate(-30)scale(0.1 -0.1)">
       <use xlink:href="#DejaVuSans-50"/>
       <use x="63.623047" xlink:href="#DejaVuSans-55"/>
       <use x="127.246094" xlink:href="#DejaVuSans-47"/>
       <use x="160.9375" xlink:href="#DejaVuSans-48"/>
       <use x="224.560547" xlink:href="#DejaVuSans-51"/>
       <use x="288.183594" xlink:href="#DejaVuSans-47"/>
       <use x="321.875" xlink:href="#DejaVuSans-50"/>
       <use x="385.498047" xlink:href="#DejaVuSans-48"/>
       <use x="449.121094" xlink:href="#DejaVuSans-50"/>
       <use x="512.744141" xlink:href="#DejaVuSans-48"/>
      </g>
     </g>
    </g>
    <g id="xtick_5">
     <g id="line2d_5">
      <g>
       <use style="stroke:#000000;stroke-width:0.8;" x="196.776187" xlink:href="#m0dd831930f" y="218.852246"/>
      </g>
     </g>
     <g id="text_5">
      <!-- 03/04/2020 -->
      <defs>
       <path d="M 37.796875 64.3125 
L 12.890625 25.390625 
L 37.796875 25.390625 
z
M 35.203125 72.90625 
L 47.609375 72.90625 
L 47.609375 25.390625 
L 58.015625 25.390625 
L 58.015625 17.1875 
L 47.609375 17.1875 
L 47.609375 0 
L 37.796875 0 
L 37.796875 17.1875 
L 4.890625 17.1875 
L 4.890625 26.703125 
z
" id="DejaVuSans-52"/>
      </defs>
      <g transform="translate(145.820804 261.251436)rotate(-30)scale(0.1 -0.1)">
       <use xlink:href="#DejaVuSans-48"/>
       <use x="63.623047" xlink:href="#DejaVuSans-51"/>
       <use x="127.246094" xlink:href="#DejaVuSans-47"/>
       <use x="160.9375" xlink:href="#DejaVuSans-48"/>
       <use x="224.560547" xlink:href="#DejaVuSans-52"/>
       <use x="288.183594" xlink:href="#DejaVuSans-47"/>
       <use x="321.875" xlink:href="#DejaVuSans-50"/>
       <use x="385.498047" xlink:href="#DejaVuSans-48"/>
       <use x="449.121094" xlink:href="#DejaVuSans-50"/>
       <use x="512.744141" xlink:href="#DejaVuSans-48"/>
      </g>
     </g>
    </g>
    <g id="xtick_6">
     <g id="line2d_6">
      <g>
       <use style="stroke:#000000;stroke-width:0.8;" x="229.579835" xlink:href="#m0dd831930f" y="218.852246"/>
      </g>
     </g>
     <g id="text_6">
      <!-- 10/04/2020 -->
      <g transform="translate(178.624452 261.251436)rotate(-30)scale(0.1 -0.1)">
       <use xlink:href="#DejaVuSans-49"/>
       <use x="63.623047" xlink:href="#DejaVuSans-48"/>
       <use x="127.246094" xlink:href="#DejaVuSans-47"/>
       <use x="160.9375" xlink:href="#DejaVuSans-48"/>
       <use x="224.560547" xlink:href="#DejaVuSans-52"/>
       <use x="288.183594" xlink:href="#DejaVuSans-47"/>
       <use x="321.875" xlink:href="#DejaVuSans-50"/>
       <use x="385.498047" xlink:href="#DejaVuSans-48"/>
       <use x="449.121094" xlink:href="#DejaVuSans-50"/>
       <use x="512.744141" xlink:href="#DejaVuSans-48"/>
      </g>
     </g>
    </g>
    <g id="xtick_7">
     <g id="line2d_7">
      <g>
       <use style="stroke:#000000;stroke-width:0.8;" x="262.383483" xlink:href="#m0dd831930f" y="218.852246"/>
      </g>
     </g>
     <g id="text_7">
      <!-- 17/04/2020 -->
      <g transform="translate(211.4281 261.251436)rotate(-30)scale(0.1 -0.1)">
       <use xlink:href="#DejaVuSans-49"/>
       <use x="63.623047" xlink:href="#DejaVuSans-55"/>
       <use x="127.246094" xlink:href="#DejaVuSans-47"/>
       <use x="160.9375" xlink:href="#DejaVuSans-48"/>
       <use x="224.560547" xlink:href="#DejaVuSans-52"/>
       <use x="288.183594" xlink:href="#DejaVuSans-47"/>
       <use x="321.875" xlink:href="#DejaVuSans-50"/>
       <use x="385.498047" xlink:href="#DejaVuSans-48"/>
       <use x="449.121094" xlink:href="#DejaVuSans-50"/>
       <use x="512.744141" xlink:href="#DejaVuSans-48"/>
      </g>
     </g>
    </g>
    <g id="xtick_8">
     <g id="line2d_8">
      <g>
       <use style="stroke:#000000;stroke-width:0.8;" x="295.18713" xlink:href="#m0dd831930f" y="218.852246"/>
      </g>
     </g>
     <g id="text_8">
      <!-- 24/04/2020 -->
      <g transform="translate(244.231747 261.251436)rotate(-30)scale(0.1 -0.1)">
       <use xlink:href="#DejaVuSans-50"/>
       <use x="63.623047" xlink:href="#DejaVuSans-52"/>
       <use x="127.246094" xlink:href="#DejaVuSans-47"/>
       <use x="160.9375" xlink:href="#DejaVuSans-48"/>
       <use x="224.560547" xlink:href="#DejaVuSans-52"/>
       <use x="288.183594" xlink:href="#DejaVuSans-47"/>
       <use x="321.875" xlink:href="#DejaVuSans-50"/>
       <use x="385.498047" xlink:href="#DejaVuSans-48"/>
       <use x="449.121094" xlink:href="#DejaVuSans-50"/>
       <use x="512.744141" xlink:href="#DejaVuSans-48"/>
      </g>
     </g>
    </g>
    <g id="xtick_9">
     <g id="line2d_9">
      <g>
       <use style="stroke:#000000;stroke-width:0.8;" x="327.990778" xlink:href="#m0dd831930f" y="218.852246"/>
      </g>
     </g>
     <g id="text_9">
      <!-- 01/05/2020 -->
      <defs>
       <path d="M 10.796875 72.90625 
L 49.515625 72.90625 
L 49.515625 64.59375 
L 19.828125 64.59375 
L 19.828125 46.734375 
Q 21.96875 47.46875 24.109375 47.828125 
Q 26.265625 48.1875 28.421875 48.1875 
Q 40.625 48.1875 47.75 41.5 
Q 54.890625 34.8125 54.890625 23.390625 
Q 54.890625 11.625 47.5625 5.09375 
Q 40.234375 -1.421875 26.90625 -1.421875 
Q 22.3125 -1.421875 17.546875 -0.640625 
Q 12.796875 0.140625 7.71875 1.703125 
L 7.71875 11.625 
Q 12.109375 9.234375 16.796875 8.0625 
Q 21.484375 6.890625 26.703125 6.890625 
Q 35.15625 6.890625 40.078125 11.328125 
Q 45.015625 15.765625 45.015625 23.390625 
Q 45.015625 31 40.078125 35.4375 
Q 35.15625 39.890625 26.703125 39.890625 
Q 22.75 39.890625 18.8125 39.015625 
Q 14.890625 38.140625 10.796875 36.28125 
z
" id="DejaVuSans-53"/>
      </defs>
      <g transform="translate(277.035395 261.251436)rotate(-30)scale(0.1 -0.1)">
       <use xlink:href="#DejaVuSans-48"/>
       <use x="63.623047" xlink:href="#DejaVuSans-49"/>
       <use x="127.246094" xlink:href="#DejaVuSans-47"/>
       <use x="160.9375" xlink:href="#DejaVuSans-48"/>
       <use x="224.560547" xlink:href="#DejaVuSans-53"/>
       <use x="288.183594" xlink:href="#DejaVuSans-47"/>
       <use x="321.875" xlink:href="#DejaVuSans-50"/>
       <use x="385.498047" xlink:href="#DejaVuSans-48"/>
       <use x="449.121094" xlink:href="#DejaVuSans-50"/>
       <use x="512.744141" xlink:href="#DejaVuSans-48"/>
      </g>
     </g>
    </g>
    <g id="xtick_10">
     <g id="line2d_10">
      <g>
       <use style="stroke:#000000;stroke-width:0.8;" x="360.794426" xlink:href="#m0dd831930f" y="218.852246"/>
      </g>
     </g>
     <g id="text_10">
      <!-- 08/05/2020 -->
      <defs>
       <path d="M 31.78125 34.625 
Q 24.75 34.625 20.71875 30.859375 
Q 16.703125 27.09375 16.703125 20.515625 
Q 16.703125 13.921875 20.71875 10.15625 
Q 24.75 6.390625 31.78125 6.390625 
Q 38.8125 6.390625 42.859375 10.171875 
Q 46.921875 13.96875 46.921875 20.515625 
Q 46.921875 27.09375 42.890625 30.859375 
Q 38.875 34.625 31.78125 34.625 
z
M 21.921875 38.8125 
Q 15.578125 40.375 12.03125 44.71875 
Q 8.5 49.078125 8.5 55.328125 
Q 8.5 64.0625 14.71875 69.140625 
Q 20.953125 74.21875 31.78125 74.21875 
Q 42.671875 74.21875 48.875 69.140625 
Q 55.078125 64.0625 55.078125 55.328125 
Q 55.078125 49.078125 51.53125 44.71875 
Q 48 40.375 41.703125 38.8125 
Q 48.828125 37.15625 52.796875 32.3125 
Q 56.78125 27.484375 56.78125 20.515625 
Q 56.78125 9.90625 50.3125 4.234375 
Q 43.84375 -1.421875 31.78125 -1.421875 
Q 19.734375 -1.421875 13.25 4.234375 
Q 6.78125 9.90625 6.78125 20.515625 
Q 6.78125 27.484375 10.78125 32.3125 
Q 14.796875 37.15625 21.921875 38.8125 
z
M 18.3125 54.390625 
Q 18.3125 48.734375 21.84375 45.5625 
Q 25.390625 42.390625 31.78125 42.390625 
Q 38.140625 42.390625 41.71875 45.5625 
Q 45.3125 48.734375 45.3125 54.390625 
Q 45.3125 60.0625 41.71875 63.234375 
Q 38.140625 66.40625 31.78125 66.40625 
Q 25.390625 66.40625 21.84375 63.234375 
Q 18.3125 60.0625 18.3125 54.390625 
z
" id="DejaVuSans-56"/>
      </defs>
      <g transform="translate(309.839043 261.251436)rotate(-30)scale(0.1 -0.1)">
       <use xlink:href="#DejaVuSans-48"/>
       <use x="63.623047" xlink:href="#DejaVuSans-56"/>
       <use x="127.246094" xlink:href="#DejaVuSans-47"/>
       <use x="160.9375" xlink:href="#DejaVuSans-48"/>
       <use x="224.560547" xlink:href="#DejaVuSans-53"/>
       <use x="288.183594" xlink:href="#DejaVuSans-47"/>
       <use x="321.875" xlink:href="#DejaVuSans-50"/>
       <use x="385.498047" xlink:href="#DejaVuSans-48"/>
       <use x="449.121094" xlink:href="#DejaVuSans-50"/>
       <use x="512.744141" xlink:href="#DejaVuSans-48"/>
      </g>
     </g>
    </g>
    <g id="xtick_11">
     <g id="line2d_11">
      <g>
       <use style="stroke:#000000;stroke-width:0.8;" x="393.598074" xlink:href="#m0dd831930f" y="218.852246"/>
      </g>
     </g>
     <g id="text_11">
      <!-- 15/05/2020 -->
      <g transform="translate(342.642691 261.251436)rotate(-30)scale(0.1 -0.1)">
       <use xlink:href="#DejaVuSans-49"/>
       <use x="63.623047" xlink:href="#DejaVuSans-53"/>
       <use x="127.246094" xlink:href="#DejaVuSans-47"/>
       <use x="160.9375" xlink:href="#DejaVuSans-48"/>
       <use x="224.560547" xlink:href="#DejaVuSans-53"/>
       <use x="288.183594" xlink:href="#DejaVuSans-47"/>
       <use x="321.875" xlink:href="#DejaVuSans-50"/>
       <use x="385.498047" xlink:href="#DejaVuSans-48"/>
       <use x="449.121094" xlink:href="#DejaVuSans-50"/>
       <use x="512.744141" xlink:href="#DejaVuSans-48"/>
      </g>
     </g>
    </g>
    <g id="text_12">
     <!-- Day -->
     <defs>
      <path d="M 19.671875 64.796875 
L 19.671875 8.109375 
L 31.59375 8.109375 
Q 46.6875 8.109375 53.6875 14.9375 
Q 60.6875 21.78125 60.6875 36.53125 
Q 60.6875 51.171875 53.6875 57.984375 
Q 46.6875 64.796875 31.59375 64.796875 
z
M 9.8125 72.90625 
L 30.078125 72.90625 
Q 51.265625 72.90625 61.171875 64.09375 
Q 71.09375 55.28125 71.09375 36.53125 
Q 71.09375 17.671875 61.125 8.828125 
Q 51.171875 0 30.078125 0 
L 9.8125 0 
z
" id="DejaVuSans-68"/>
      <path d="M 34.28125 27.484375 
Q 23.390625 27.484375 19.1875 25 
Q 14.984375 22.515625 14.984375 16.5 
Q 14.984375 11.71875 18.140625 8.90625 
Q 21.296875 6.109375 26.703125 6.109375 
Q 34.1875 6.109375 38.703125 11.40625 
Q 43.21875 16.703125 43.21875 25.484375 
L 43.21875 27.484375 
z
M 52.203125 31.203125 
L 52.203125 0 
L 43.21875 0 
L 43.21875 8.296875 
Q 40.140625 3.328125 35.546875 0.953125 
Q 30.953125 -1.421875 24.3125 -1.421875 
Q 15.921875 -1.421875 10.953125 3.296875 
Q 6 8.015625 6 15.921875 
Q 6 25.140625 12.171875 29.828125 
Q 18.359375 34.515625 30.609375 34.515625 
L 43.21875 34.515625 
L 43.21875 35.40625 
Q 43.21875 41.609375 39.140625 45 
Q 35.0625 48.390625 27.6875 48.390625 
Q 23 48.390625 18.546875 47.265625 
Q 14.109375 46.140625 10.015625 43.890625 
L 10.015625 52.203125 
Q 14.9375 54.109375 19.578125 55.046875 
Q 24.21875 56 28.609375 56 
Q 40.484375 56 46.34375 49.84375 
Q 52.203125 43.703125 52.203125 31.203125 
z
" id="DejaVuSans-97"/>
      <path d="M 32.171875 -5.078125 
Q 28.375 -14.84375 24.75 -17.8125 
Q 21.140625 -20.796875 15.09375 -20.796875 
L 7.90625 -20.796875 
L 7.90625 -13.28125 
L 13.1875 -13.28125 
Q 16.890625 -13.28125 18.9375 -11.515625 
Q 21 -9.765625 23.484375 -3.21875 
L 25.09375 0.875 
L 2.984375 54.6875 
L 12.5 54.6875 
L 29.59375 11.921875 
L 46.6875 54.6875 
L 56.203125 54.6875 
z
" id="DejaVuSans-121"/>
     </defs>
     <g transform="translate(231.421986 274.650936)scale(0.1 -0.1)">
      <use xlink:href="#DejaVuSans-68"/>
      <use x="77.001953" xlink:href="#DejaVuSans-97"/>
      <use x="138.28125" xlink:href="#DejaVuSans-121"/>
     </g>
    </g>
   </g>
   <g id="matplotlib.axis_2">
    <g id="ytick_1">
     <g id="line2d_12">
      <defs>
       <path d="M 0 0 
L -3.5 0 
" id="m6d9fdae609" style="stroke:#000000;stroke-width:0.8;"/>
      </defs>
      <g>
       <use style="stroke:#000000;stroke-width:0.8;" x="61.390847" xlink:href="#m6d9fdae609" y="218.852246"/>
      </g>
     </g>
     <g id="text_13">
      <!-- 0 -->
      <g transform="translate(48.028347 222.651465)scale(0.1 -0.1)">
       <use xlink:href="#DejaVuSans-48"/>
      </g>
     </g>
    </g>
    <g id="ytick_2">
     <g id="line2d_13">
      <g>
       <use style="stroke:#000000;stroke-width:0.8;" x="61.390847" xlink:href="#m6d9fdae609" y="191.449457"/>
      </g>
     </g>
     <g id="text_14">
      <!-- 50 -->
      <g transform="translate(41.665847 195.248676)scale(0.1 -0.1)">
       <use xlink:href="#DejaVuSans-53"/>
       <use x="63.623047" xlink:href="#DejaVuSans-48"/>
      </g>
     </g>
    </g>
    <g id="ytick_3">
     <g id="line2d_14">
      <g>
       <use style="stroke:#000000;stroke-width:0.8;" x="61.390847" xlink:href="#m6d9fdae609" y="164.046668"/>
      </g>
     </g>
     <g id="text_15">
      <!-- 100 -->
      <g transform="translate(35.303347 167.845886)scale(0.1 -0.1)">
       <use xlink:href="#DejaVuSans-49"/>
       <use x="63.623047" xlink:href="#DejaVuSans-48"/>
       <use x="127.246094" xlink:href="#DejaVuSans-48"/>
      </g>
     </g>
    </g>
    <g id="ytick_4">
     <g id="line2d_15">
      <g>
       <use style="stroke:#000000;stroke-width:0.8;" x="61.390847" xlink:href="#m6d9fdae609" y="136.643879"/>
      </g>
     </g>
     <g id="text_16">
      <!-- 150 -->
      <g transform="translate(35.303347 140.443097)scale(0.1 -0.1)">
       <use xlink:href="#DejaVuSans-49"/>
       <use x="63.623047" xlink:href="#DejaVuSans-53"/>
       <use x="127.246094" xlink:href="#DejaVuSans-48"/>
      </g>
     </g>
    </g>
    <g id="ytick_5">
     <g id="line2d_16">
      <g>
       <use style="stroke:#000000;stroke-width:0.8;" x="61.390847" xlink:href="#m6d9fdae609" y="109.241089"/>
      </g>
     </g>
     <g id="text_17">
      <!-- 200 -->
      <g transform="translate(35.303347 113.040308)scale(0.1 -0.1)">
       <use xlink:href="#DejaVuSans-50"/>
       <use x="63.623047" xlink:href="#DejaVuSans-48"/>
       <use x="127.246094" xlink:href="#DejaVuSans-48"/>
      </g>
     </g>
    </g>
    <g id="ytick_6">
     <g id="line2d_17">
      <g>
       <use style="stroke:#000000;stroke-width:0.8;" x="61.390847" xlink:href="#m6d9fdae609" y="81.8383"/>
      </g>
     </g>
     <g id="text_18">
      <!-- 250 -->
      <g transform="translate(35.303347 85.637519)scale(0.1 -0.1)">
       <use xlink:href="#DejaVuSans-50"/>
       <use x="63.623047" xlink:href="#DejaVuSans-53"/>
       <use x="127.246094" xlink:href="#DejaVuSans-48"/>
      </g>
     </g>
    </g>
    <g id="ytick_7">
     <g id="line2d_18">
      <g>
       <use style="stroke:#000000;stroke-width:0.8;" x="61.390847" xlink:href="#m6d9fdae609" y="54.435511"/>
      </g>
     </g>
     <g id="text_19">
      <!-- 300 -->
      <g transform="translate(35.303347 58.23473)scale(0.1 -0.1)">
       <use xlink:href="#DejaVuSans-51"/>
       <use x="63.623047" xlink:href="#DejaVuSans-48"/>
       <use x="127.246094" xlink:href="#DejaVuSans-48"/>
      </g>
     </g>
    </g>
    <g id="text_20">
     <!-- Numbers of comments -->
     <defs>
      <path d="M 9.8125 72.90625 
L 23.09375 72.90625 
L 55.421875 11.921875 
L 55.421875 72.90625 
L 64.984375 72.90625 
L 64.984375 0 
L 51.703125 0 
L 19.390625 60.984375 
L 19.390625 0 
L 9.8125 0 
z
" id="DejaVuSans-78"/>
      <path d="M 8.5 21.578125 
L 8.5 54.6875 
L 17.484375 54.6875 
L 17.484375 21.921875 
Q 17.484375 14.15625 20.5 10.265625 
Q 23.53125 6.390625 29.59375 6.390625 
Q 36.859375 6.390625 41.078125 11.03125 
Q 45.3125 15.671875 45.3125 23.6875 
L 45.3125 54.6875 
L 54.296875 54.6875 
L 54.296875 0 
L 45.3125 0 
L 45.3125 8.40625 
Q 42.046875 3.421875 37.71875 1 
Q 33.40625 -1.421875 27.6875 -1.421875 
Q 18.265625 -1.421875 13.375 4.4375 
Q 8.5 10.296875 8.5 21.578125 
z
M 31.109375 56 
z
" id="DejaVuSans-117"/>
      <path d="M 52 44.1875 
Q 55.375 50.25 60.0625 53.125 
Q 64.75 56 71.09375 56 
Q 79.640625 56 84.28125 50.015625 
Q 88.921875 44.046875 88.921875 33.015625 
L 88.921875 0 
L 79.890625 0 
L 79.890625 32.71875 
Q 79.890625 40.578125 77.09375 44.375 
Q 74.3125 48.1875 68.609375 48.1875 
Q 61.625 48.1875 57.5625 43.546875 
Q 53.515625 38.921875 53.515625 30.90625 
L 53.515625 0 
L 44.484375 0 
L 44.484375 32.71875 
Q 44.484375 40.625 41.703125 44.40625 
Q 38.921875 48.1875 33.109375 48.1875 
Q 26.21875 48.1875 22.15625 43.53125 
Q 18.109375 38.875 18.109375 30.90625 
L 18.109375 0 
L 9.078125 0 
L 9.078125 54.6875 
L 18.109375 54.6875 
L 18.109375 46.1875 
Q 21.1875 51.21875 25.484375 53.609375 
Q 29.78125 56 35.6875 56 
Q 41.65625 56 45.828125 52.96875 
Q 50 49.953125 52 44.1875 
z
" id="DejaVuSans-109"/>
      <path d="M 48.6875 27.296875 
Q 48.6875 37.203125 44.609375 42.84375 
Q 40.53125 48.484375 33.40625 48.484375 
Q 26.265625 48.484375 22.1875 42.84375 
Q 18.109375 37.203125 18.109375 27.296875 
Q 18.109375 17.390625 22.1875 11.75 
Q 26.265625 6.109375 33.40625 6.109375 
Q 40.53125 6.109375 44.609375 11.75 
Q 48.6875 17.390625 48.6875 27.296875 
z
M 18.109375 46.390625 
Q 20.953125 51.265625 25.265625 53.625 
Q 29.59375 56 35.59375 56 
Q 45.5625 56 51.78125 48.09375 
Q 58.015625 40.1875 58.015625 27.296875 
Q 58.015625 14.40625 51.78125 6.484375 
Q 45.5625 -1.421875 35.59375 -1.421875 
Q 29.59375 -1.421875 25.265625 0.953125 
Q 20.953125 3.328125 18.109375 8.203125 
L 18.109375 0 
L 9.078125 0 
L 9.078125 75.984375 
L 18.109375 75.984375 
z
" id="DejaVuSans-98"/>
      <path d="M 56.203125 29.59375 
L 56.203125 25.203125 
L 14.890625 25.203125 
Q 15.484375 15.921875 20.484375 11.0625 
Q 25.484375 6.203125 34.421875 6.203125 
Q 39.59375 6.203125 44.453125 7.46875 
Q 49.3125 8.734375 54.109375 11.28125 
L 54.109375 2.78125 
Q 49.265625 0.734375 44.1875 -0.34375 
Q 39.109375 -1.421875 33.890625 -1.421875 
Q 20.796875 -1.421875 13.15625 6.1875 
Q 5.515625 13.8125 5.515625 26.8125 
Q 5.515625 40.234375 12.765625 48.109375 
Q 20.015625 56 32.328125 56 
Q 43.359375 56 49.78125 48.890625 
Q 56.203125 41.796875 56.203125 29.59375 
z
M 47.21875 32.234375 
Q 47.125 39.59375 43.09375 43.984375 
Q 39.0625 48.390625 32.421875 48.390625 
Q 24.90625 48.390625 20.390625 44.140625 
Q 15.875 39.890625 15.1875 32.171875 
z
" id="DejaVuSans-101"/>
      <path d="M 41.109375 46.296875 
Q 39.59375 47.171875 37.8125 47.578125 
Q 36.03125 48 33.890625 48 
Q 26.265625 48 22.1875 43.046875 
Q 18.109375 38.09375 18.109375 28.8125 
L 18.109375 0 
L 9.078125 0 
L 9.078125 54.6875 
L 18.109375 54.6875 
L 18.109375 46.1875 
Q 20.953125 51.171875 25.484375 53.578125 
Q 30.03125 56 36.53125 56 
Q 37.453125 56 38.578125 55.875 
Q 39.703125 55.765625 41.0625 55.515625 
z
" id="DejaVuSans-114"/>
      <path d="M 44.28125 53.078125 
L 44.28125 44.578125 
Q 40.484375 46.53125 36.375 47.5 
Q 32.28125 48.484375 27.875 48.484375 
Q 21.1875 48.484375 17.84375 46.4375 
Q 14.5 44.390625 14.5 40.28125 
Q 14.5 37.15625 16.890625 35.375 
Q 19.28125 33.59375 26.515625 31.984375 
L 29.59375 31.296875 
Q 39.15625 29.25 43.1875 25.515625 
Q 47.21875 21.78125 47.21875 15.09375 
Q 47.21875 7.46875 41.1875 3.015625 
Q 35.15625 -1.421875 24.609375 -1.421875 
Q 20.21875 -1.421875 15.453125 -0.5625 
Q 10.6875 0.296875 5.421875 2 
L 5.421875 11.28125 
Q 10.40625 8.6875 15.234375 7.390625 
Q 20.0625 6.109375 24.8125 6.109375 
Q 31.15625 6.109375 34.5625 8.28125 
Q 37.984375 10.453125 37.984375 14.40625 
Q 37.984375 18.0625 35.515625 20.015625 
Q 33.0625 21.96875 24.703125 23.78125 
L 21.578125 24.515625 
Q 13.234375 26.265625 9.515625 29.90625 
Q 5.8125 33.546875 5.8125 39.890625 
Q 5.8125 47.609375 11.28125 51.796875 
Q 16.75 56 26.8125 56 
Q 31.78125 56 36.171875 55.265625 
Q 40.578125 54.546875 44.28125 53.078125 
z
" id="DejaVuSans-115"/>
      <path id="DejaVuSans-32"/>
      <path d="M 30.609375 48.390625 
Q 23.390625 48.390625 19.1875 42.75 
Q 14.984375 37.109375 14.984375 27.296875 
Q 14.984375 17.484375 19.15625 11.84375 
Q 23.34375 6.203125 30.609375 6.203125 
Q 37.796875 6.203125 41.984375 11.859375 
Q 46.1875 17.53125 46.1875 27.296875 
Q 46.1875 37.015625 41.984375 42.703125 
Q 37.796875 48.390625 30.609375 48.390625 
z
M 30.609375 56 
Q 42.328125 56 49.015625 48.375 
Q 55.71875 40.765625 55.71875 27.296875 
Q 55.71875 13.875 49.015625 6.21875 
Q 42.328125 -1.421875 30.609375 -1.421875 
Q 18.84375 -1.421875 12.171875 6.21875 
Q 5.515625 13.875 5.515625 27.296875 
Q 5.515625 40.765625 12.171875 48.375 
Q 18.84375 56 30.609375 56 
z
" id="DejaVuSans-111"/>
      <path d="M 37.109375 75.984375 
L 37.109375 68.5 
L 28.515625 68.5 
Q 23.6875 68.5 21.796875 66.546875 
Q 19.921875 64.59375 19.921875 59.515625 
L 19.921875 54.6875 
L 34.71875 54.6875 
L 34.71875 47.703125 
L 19.921875 47.703125 
L 19.921875 0 
L 10.890625 0 
L 10.890625 47.703125 
L 2.296875 47.703125 
L 2.296875 54.6875 
L 10.890625 54.6875 
L 10.890625 58.5 
Q 10.890625 67.625 15.140625 71.796875 
Q 19.390625 75.984375 28.609375 75.984375 
z
" id="DejaVuSans-102"/>
      <path d="M 48.78125 52.59375 
L 48.78125 44.1875 
Q 44.96875 46.296875 41.140625 47.34375 
Q 37.3125 48.390625 33.40625 48.390625 
Q 24.65625 48.390625 19.8125 42.84375 
Q 14.984375 37.3125 14.984375 27.296875 
Q 14.984375 17.28125 19.8125 11.734375 
Q 24.65625 6.203125 33.40625 6.203125 
Q 37.3125 6.203125 41.140625 7.25 
Q 44.96875 8.296875 48.78125 10.40625 
L 48.78125 2.09375 
Q 45.015625 0.34375 40.984375 -0.53125 
Q 36.96875 -1.421875 32.421875 -1.421875 
Q 20.0625 -1.421875 12.78125 6.34375 
Q 5.515625 14.109375 5.515625 27.296875 
Q 5.515625 40.671875 12.859375 48.328125 
Q 20.21875 56 33.015625 56 
Q 37.15625 56 41.109375 55.140625 
Q 45.0625 54.296875 48.78125 52.59375 
z
" id="DejaVuSans-99"/>
      <path d="M 54.890625 33.015625 
L 54.890625 0 
L 45.90625 0 
L 45.90625 32.71875 
Q 45.90625 40.484375 42.875 44.328125 
Q 39.84375 48.1875 33.796875 48.1875 
Q 26.515625 48.1875 22.3125 43.546875 
Q 18.109375 38.921875 18.109375 30.90625 
L 18.109375 0 
L 9.078125 0 
L 9.078125 54.6875 
L 18.109375 54.6875 
L 18.109375 46.1875 
Q 21.34375 51.125 25.703125 53.5625 
Q 30.078125 56 35.796875 56 
Q 45.21875 56 50.046875 50.171875 
Q 54.890625 44.34375 54.890625 33.015625 
z
" id="DejaVuSans-110"/>
      <path d="M 18.3125 70.21875 
L 18.3125 54.6875 
L 36.8125 54.6875 
L 36.8125 47.703125 
L 18.3125 47.703125 
L 18.3125 18.015625 
Q 18.3125 11.328125 20.140625 9.421875 
Q 21.96875 7.515625 27.59375 7.515625 
L 36.8125 7.515625 
L 36.8125 0 
L 27.59375 0 
Q 17.1875 0 13.234375 3.875 
Q 9.28125 7.765625 9.28125 18.015625 
L 9.28125 47.703125 
L 2.6875 47.703125 
L 2.6875 54.6875 
L 9.28125 54.6875 
L 9.28125 70.21875 
z
" id="DejaVuSans-116"/>
     </defs>
     <g transform="translate(29.223659 180.373779)rotate(-90)scale(0.1 -0.1)">
      <use xlink:href="#DejaVuSans-78"/>
      <use x="74.804688" xlink:href="#DejaVuSans-117"/>
      <use x="138.183594" xlink:href="#DejaVuSans-109"/>
      <use x="235.595703" xlink:href="#DejaVuSans-98"/>
      <use x="299.072266" xlink:href="#DejaVuSans-101"/>
      <use x="360.595703" xlink:href="#DejaVuSans-114"/>
      <use x="401.708984" xlink:href="#DejaVuSans-115"/>
      <use x="453.808594" xlink:href="#DejaVuSans-32"/>
      <use x="485.595703" xlink:href="#DejaVuSans-111"/>
      <use x="546.777344" xlink:href="#DejaVuSans-102"/>
      <use x="581.982422" xlink:href="#DejaVuSans-32"/>
      <use x="613.769531" xlink:href="#DejaVuSans-99"/>
      <use x="668.75" xlink:href="#DejaVuSans-111"/>
      <use x="729.931641" xlink:href="#DejaVuSans-109"/>
      <use x="827.34375" xlink:href="#DejaVuSans-109"/>
      <use x="924.755859" xlink:href="#DejaVuSans-101"/>
      <use x="986.279297" xlink:href="#DejaVuSans-110"/>
      <use x="1049.658203" xlink:href="#DejaVuSans-116"/>
      <use x="1088.867188" xlink:href="#DejaVuSans-115"/>
     </g>
    </g>
   </g>
   <g id="patch_73">
    <path d="M 61.390847 218.852246 
L 61.390847 27.8 
" style="fill:none;stroke:#000000;stroke-linecap:square;stroke-linejoin:miter;stroke-width:0.8;"/>
   </g>
   <g id="patch_74">
    <path d="M 421.2 218.852246 
L 421.2 27.8 
" style="fill:none;stroke:#000000;stroke-linecap:square;stroke-linejoin:miter;stroke-width:0.8;"/>
   </g>
   <g id="patch_75">
    <path d="M 61.390847 218.852246 
L 421.2 218.852246 
" style="fill:none;stroke:#000000;stroke-linecap:square;stroke-linejoin:miter;stroke-width:0.8;"/>
   </g>
   <g id="patch_76">
    <path d="M 61.390847 27.8 
L 421.2 27.8 
" style="fill:none;stroke:#000000;stroke-linecap:square;stroke-linejoin:miter;stroke-width:0.8;"/>
   </g>
   <g id="text_21">
    <!-- Activity of user: HansMoserReloaded -->
    <defs>
     <path d="M 34.1875 63.1875 
L 20.796875 26.90625 
L 47.609375 26.90625 
z
M 28.609375 72.90625 
L 39.796875 72.90625 
L 67.578125 0 
L 57.328125 0 
L 50.6875 18.703125 
L 17.828125 18.703125 
L 11.1875 0 
L 0.78125 0 
z
" id="DejaVuSans-65"/>
     <path d="M 9.421875 54.6875 
L 18.40625 54.6875 
L 18.40625 0 
L 9.421875 0 
z
M 9.421875 75.984375 
L 18.40625 75.984375 
L 18.40625 64.59375 
L 9.421875 64.59375 
z
" id="DejaVuSans-105"/>
     <path d="M 2.984375 54.6875 
L 12.5 54.6875 
L 29.59375 8.796875 
L 46.6875 54.6875 
L 56.203125 54.6875 
L 35.6875 0 
L 23.484375 0 
z
" id="DejaVuSans-118"/>
     <path d="M 11.71875 12.40625 
L 22.015625 12.40625 
L 22.015625 0 
L 11.71875 0 
z
M 11.71875 51.703125 
L 22.015625 51.703125 
L 22.015625 39.3125 
L 11.71875 39.3125 
z
" id="DejaVuSans-58"/>
     <path d="M 9.8125 72.90625 
L 19.671875 72.90625 
L 19.671875 43.015625 
L 55.515625 43.015625 
L 55.515625 72.90625 
L 65.375 72.90625 
L 65.375 0 
L 55.515625 0 
L 55.515625 34.71875 
L 19.671875 34.71875 
L 19.671875 0 
L 9.8125 0 
z
" id="DejaVuSans-72"/>
     <path d="M 9.8125 72.90625 
L 24.515625 72.90625 
L 43.109375 23.296875 
L 61.8125 72.90625 
L 76.515625 72.90625 
L 76.515625 0 
L 66.890625 0 
L 66.890625 64.015625 
L 48.09375 14.015625 
L 38.1875 14.015625 
L 19.390625 64.015625 
L 19.390625 0 
L 9.8125 0 
z
" id="DejaVuSans-77"/>
     <path d="M 44.390625 34.1875 
Q 47.5625 33.109375 50.5625 29.59375 
Q 53.5625 26.078125 56.59375 19.921875 
L 66.609375 0 
L 56 0 
L 46.6875 18.703125 
Q 43.0625 26.03125 39.671875 28.421875 
Q 36.28125 30.8125 30.421875 30.8125 
L 19.671875 30.8125 
L 19.671875 0 
L 9.8125 0 
L 9.8125 72.90625 
L 32.078125 72.90625 
Q 44.578125 72.90625 50.734375 67.671875 
Q 56.890625 62.453125 56.890625 51.90625 
Q 56.890625 45.015625 53.6875 40.46875 
Q 50.484375 35.9375 44.390625 34.1875 
z
M 19.671875 64.796875 
L 19.671875 38.921875 
L 32.078125 38.921875 
Q 39.203125 38.921875 42.84375 42.21875 
Q 46.484375 45.515625 46.484375 51.90625 
Q 46.484375 58.296875 42.84375 61.546875 
Q 39.203125 64.796875 32.078125 64.796875 
z
" id="DejaVuSans-82"/>
     <path d="M 9.421875 75.984375 
L 18.40625 75.984375 
L 18.40625 0 
L 9.421875 0 
z
" id="DejaVuSans-108"/>
     <path d="M 45.40625 46.390625 
L 45.40625 75.984375 
L 54.390625 75.984375 
L 54.390625 0 
L 45.40625 0 
L 45.40625 8.203125 
Q 42.578125 3.328125 38.25 0.953125 
Q 33.9375 -1.421875 27.875 -1.421875 
Q 17.96875 -1.421875 11.734375 6.484375 
Q 5.515625 14.40625 5.515625 27.296875 
Q 5.515625 40.1875 11.734375 48.09375 
Q 17.96875 56 27.875 56 
Q 33.9375 56 38.25 53.625 
Q 42.578125 51.265625 45.40625 46.390625 
z
M 14.796875 27.296875 
Q 14.796875 17.390625 18.875 11.75 
Q 22.953125 6.109375 30.078125 6.109375 
Q 37.203125 6.109375 41.296875 11.75 
Q 45.40625 17.390625 45.40625 27.296875 
Q 45.40625 37.203125 41.296875 42.84375 
Q 37.203125 48.484375 30.078125 48.484375 
Q 22.953125 48.484375 18.875 42.84375 
Q 14.796875 37.203125 14.796875 27.296875 
z
" id="DejaVuSans-100"/>
    </defs>
    <g transform="translate(112.832298 21.8)scale(0.14 -0.14)">
     <use xlink:href="#DejaVuSans-65"/>
     <use x="66.658203" xlink:href="#DejaVuSans-99"/>
     <use x="121.638672" xlink:href="#DejaVuSans-116"/>
     <use x="160.847656" xlink:href="#DejaVuSans-105"/>
     <use x="188.630859" xlink:href="#DejaVuSans-118"/>
     <use x="247.810547" xlink:href="#DejaVuSans-105"/>
     <use x="275.59375" xlink:href="#DejaVuSans-116"/>
     <use x="314.802734" xlink:href="#DejaVuSans-121"/>
     <use x="373.982422" xlink:href="#DejaVuSans-32"/>
     <use x="405.769531" xlink:href="#DejaVuSans-111"/>
     <use x="466.951172" xlink:href="#DejaVuSans-102"/>
     <use x="502.15625" xlink:href="#DejaVuSans-32"/>
     <use x="533.943359" xlink:href="#DejaVuSans-117"/>
     <use x="597.322266" xlink:href="#DejaVuSans-115"/>
     <use x="649.421875" xlink:href="#DejaVuSans-101"/>
     <use x="710.945312" xlink:href="#DejaVuSans-114"/>
     <use x="750.308594" xlink:href="#DejaVuSans-58"/>
     <use x="784" xlink:href="#DejaVuSans-32"/>
     <use x="815.787109" xlink:href="#DejaVuSans-72"/>
     <use x="890.982422" xlink:href="#DejaVuSans-97"/>
     <use x="952.261719" xlink:href="#DejaVuSans-110"/>
     <use x="1015.640625" xlink:href="#DejaVuSans-115"/>
     <use x="1067.740234" xlink:href="#DejaVuSans-77"/>
     <use x="1154.019531" xlink:href="#DejaVuSans-111"/>
     <use x="1215.201172" xlink:href="#DejaVuSans-115"/>
     <use x="1267.300781" xlink:href="#DejaVuSans-101"/>
     <use x="1328.824219" xlink:href="#DejaVuSans-114"/>
     <use x="1369.9375" xlink:href="#DejaVuSans-82"/>
     <use x="1434.919922" xlink:href="#DejaVuSans-101"/>
     <use x="1496.443359" xlink:href="#DejaVuSans-108"/>
     <use x="1524.226562" xlink:href="#DejaVuSans-111"/>
     <use x="1585.408203" xlink:href="#DejaVuSans-97"/>
     <use x="1646.6875" xlink:href="#DejaVuSans-100"/>
     <use x="1710.164062" xlink:href="#DejaVuSans-101"/>
     <use x="1771.6875" xlink:href="#DejaVuSans-100"/>
    </g>
   </g>
  </g>
 </g>
 <defs>
  <clipPath id="p31182959f7">
   <rect height="191.052246" width="359.809153" x="61.390847" y="27.8"/>
  </clipPath>
 </defs>
</svg>
